  0
SECTION
  2
BLOCKS
  0
ENDSEC
  0
SECTION
  2
ENTITIES
  0
LINE
  8
0
 10
-17.1429
 20
31
 11
-10.2857
 21
31
  0
LINE
  8
0
 10
-10.2857
 20
31
 11
-10.2857
 21
28
  0
LINE
  8
0
 10
-10.2857
 20
28
 11
-3.42856
 21
28
  0
LINE
  8
0
 10
-3.42856
 20
28
 11
-3.42856
 21
31
  0
LINE
  8
0
 10
-3.42856
 20
31
 11
3.42856
 21
31
  0
LINE
  8
0
 10
3.42856
 20
31
 11
3.42856
 21
28
  0
LINE
  8
0
 10
3.42856
 20
28
 11
10.2857
 21
28
  0
LINE
  8
0
 10
10.2857
 20
28
 11
10.2857
 21
31
  0
LINE
  8
0
 10
10.2857
 20
31
 11
17.1429
 21
31
  0
LINE
  8
0
 10
17.1429
 20
31
 11
17.1429
 21
28
  0
LINE
  8
0
 10
17.1429
 20
28
 11
24
 21
28
  0
LINE
  8
0
 10
24
 20
28
 11
24
 21
34.2857
  0
LINE
  8
0
 10
24
 20
34.2857
 11
27
 21
34.2857
  0
LINE
  8
0
 10
27
 20
34.2857
 11
27
 21
40.5714
  0
LINE
  8
0
 10
27
 20
40.5714
 11
24
 21
40.5714
  0
LINE
  8
0
 10
24
 20
40.5714
 11
24
 21
46.8571
  0
LINE
  8
0
 10
24
 20
46.8571
 11
27
 21
46.8571
  0
LINE
  8
0
 10
27
 20
46.8571
 11
27
 21
53.1429
  0
LINE
  8
0
 10
27
 20
53.1429
 11
24
 21
53.1429
  0
LINE
  8
0
 10
24
 20
53.1429
 11
24
 21
59.4286
  0
LINE
  8
0
 10
24
 20
59.4286
 11
27
 21
59.4286
  0
LINE
  8
0
 10
27
 20
59.4286
 11
27
 21
65.7143
  0
LINE
  8
0
 10
27
 20
65.7143
 11
24
 21
65.7143
  0
LINE
  8
0
 10
24
 20
65.7143
 11
24
 21
72
  0
LINE
  8
0
 10
24
 20
72
 11
-24
 21
72
  0
LINE
  8
0
 10
-24
 20
72
 11
-24
 21
65.7143
  0
LINE
  8
0
 10
-24
 20
65.7143
 11
-27
 21
65.7143
  0
LINE
  8
0
 10
-27
 20
65.7143
 11
-27
 21
59.4286
  0
LINE
  8
0
 10
-27
 20
59.4286
 11
-24
 21
59.4286
  0
LINE
  8
0
 10
-24
 20
59.4286
 11
-24
 21
53.1429
  0
LINE
  8
0
 10
-24
 20
53.1429
 11
-27
 21
53.1429
  0
LINE
  8
0
 10
-27
 20
53.1429
 11
-27
 21
46.8571
  0
LINE
  8
0
 10
-27
 20
46.8571
 11
-24
 21
46.8571
  0
LINE
  8
0
 10
-24
 20
46.8571
 11
-24
 21
40.5714
  0
LINE
  8
0
 10
-24
 20
40.5714
 11
-27
 21
40.5714
  0
LINE
  8
0
 10
-27
 20
40.5714
 11
-27
 21
34.2857
  0
LINE
  8
0
 10
-27
 20
34.2857
 11
-24
 21
34.2857
  0
LINE
  8
0
 10
-24
 20
34.2857
 11
-24
 21
28
  0
LINE
  8
0
 10
-24
 20
28
 11
-17.1429
 21
28
  0
LINE
  8
0
 10
-17.1429
 20
28
 11
-17.1429
 21
31
  0
LINE
  8
0
 10
-65.7143
 20
-24
 11
-59.4286
 21
-24
  0
LINE
  8
0
 10
-59.4286
 20
-24
 11
-59.4286
 21
-27
  0
LINE
  8
0
 10
-59.4286
 20
-27
 11
-53.1429
 21
-27
  0
LINE
  8
0
 10
-53.1429
 20
-27
 11
-53.1429
 21
-24
  0
LINE
  8
0
 10
-53.1429
 20
-24
 11
-46.8571
 21
-24
  0
LINE
  8
0
 10
-46.8571
 20
-24
 11
-46.8571
 21
-27
  0
LINE
  8
0
 10
-46.8571
 20
-27
 11
-40.5714
 21
-27
  0
LINE
  8
0
 10
-40.5714
 20
-27
 11
-40.5714
 21
-24
  0
LINE
  8
0
 10
-40.5714
 20
-24
 11
-34.2857
 21
-24
  0
LINE
  8
0
 10
-34.2857
 20
-24
 11
-34.2857
 21
-27
  0
LINE
  8
0
 10
-34.2857
 20
-27
 11
-28
 21
-27
  0
LINE
  8
0
 10
-28
 20
-27
 11
-28
 21
-19.2857
  0
LINE
  8
0
 10
-28
 20
-19.2857
 11
-31
 21
-19.2857
  0
LINE
  8
0
 10
-31
 20
-19.2857
 11
-31
 21
-11.5714
  0
LINE
  8
0
 10
-31
 20
-11.5714
 11
-28
 21
-11.5714
  0
LINE
  8
0
 10
-28
 20
-11.5714
 11
-28
 21
-3.85713
  0
LINE
  8
0
 10
-28
 20
-3.85713
 11
-31
 21
-3.85713
  0
LINE
  8
0
 10
-31
 20
-3.85713
 11
-31
 21
3.85713
  0
LINE
  8
0
 10
-31
 20
3.85713
 11
-28
 21
3.85713
  0
LINE
  8
0
 10
-28
 20
3.85713
 11
-28
 21
11.5714
  0
LINE
  8
0
 10
-28
 20
11.5714
 11
-31
 21
11.5714
  0
LINE
  8
0
 10
-31
 20
11.5714
 11
-31
 21
19.2857
  0
LINE
  8
0
 10
-31
 20
19.2857
 11
-28
 21
19.2857
  0
LINE
  8
0
 10
-28
 20
19.2857
 11
-28
 21
27
  0
LINE
  8
0
 10
-28
 20
27
 11
-34.2857
 21
27
  0
LINE
  8
0
 10
-34.2857
 20
27
 11
-34.2857
 21
24
  0
LINE
  8
0
 10
-34.2857
 20
24
 11
-40.5714
 21
24
  0
LINE
  8
0
 10
-40.5714
 20
24
 11
-40.5714
 21
27
  0
LINE
  8
0
 10
-40.5714
 20
27
 11
-46.8571
 21
27
  0
LINE
  8
0
 10
-46.8571
 20
27
 11
-46.8571
 21
24
  0
LINE
  8
0
 10
-46.8571
 20
24
 11
-53.1429
 21
24
  0
LINE
  8
0
 10
-53.1429
 20
24
 11
-53.1429
 21
27
  0
LINE
  8
0
 10
-53.1429
 20
27
 11
-59.4286
 21
27
  0
LINE
  8
0
 10
-59.4286
 20
27
 11
-59.4286
 21
24
  0
LINE
  8
0
 10
-59.4286
 20
24
 11
-65.7143
 21
24
  0
LINE
  8
0
 10
-65.7143
 20
24
 11
-65.7143
 21
27
  0
LINE
  8
0
 10
-65.7143
 20
27
 11
-72
 21
27
  0
LINE
  8
0
 10
-72
 20
27
 11
-72
 21
-27
  0
LINE
  8
0
 10
-72
 20
-27
 11
-65.7143
 21
-27
  0
LINE
  8
0
 10
-65.7143
 20
-27
 11
-65.7143
 21
-24
  0
LINE
  8
0
 10
34.2857
 20
-24
 11
40.5714
 21
-24
  0
LINE
  8
0
 10
40.5714
 20
-24
 11
40.5714
 21
-27
  0
LINE
  8
0
 10
40.5714
 20
-27
 11
46.8571
 21
-27
  0
LINE
  8
0
 10
46.8571
 20
-27
 11
46.8571
 21
-24
  0
LINE
  8
0
 10
46.8571
 20
-24
 11
53.1429
 21
-24
  0
LINE
  8
0
 10
53.1429
 20
-24
 11
53.1429
 21
-27
  0
LINE
  8
0
 10
53.1429
 20
-27
 11
59.4286
 21
-27
  0
LINE
  8
0
 10
59.4286
 20
-27
 11
59.4286
 21
-24
  0
LINE
  8
0
 10
59.4286
 20
-24
 11
65.7143
 21
-24
  0
LINE
  8
0
 10
65.7143
 20
-24
 11
65.7143
 21
-27
  0
LINE
  8
0
 10
65.7143
 20
-27
 11
72
 21
-27
  0
LINE
  8
0
 10
72
 20
-27
 11
72
 21
27
  0
LINE
  8
0
 10
72
 20
27
 11
65.7143
 21
27
  0
LINE
  8
0
 10
65.7143
 20
27
 11
65.7143
 21
24
  0
LINE
  8
0
 10
65.7143
 20
24
 11
59.4286
 21
24
  0
LINE
  8
0
 10
59.4286
 20
24
 11
59.4286
 21
27
  0
LINE
  8
0
 10
59.4286
 20
27
 11
53.1429
 21
27
  0
LINE
  8
0
 10
53.1429
 20
27
 11
53.1429
 21
24
  0
LINE
  8
0
 10
53.1429
 20
24
 11
46.8571
 21
24
  0
LINE
  8
0
 10
46.8571
 20
24
 11
46.8571
 21
27
  0
LINE
  8
0
 10
46.8571
 20
27
 11
40.5714
 21
27
  0
LINE
  8
0
 10
40.5714
 20
27
 11
40.5714
 21
24
  0
LINE
  8
0
 10
40.5714
 20
24
 11
34.2857
 21
24
  0
LINE
  8
0
 10
34.2857
 20
24
 11
34.2857
 21
27
  0
LINE
  8
0
 10
34.2857
 20
27
 11
28
 21
27
  0
LINE
  8
0
 10
28
 20
27
 11
28
 21
19.2857
  0
LINE
  8
0
 10
28
 20
19.2857
 11
31
 21
19.2857
  0
LINE
  8
0
 10
31
 20
19.2857
 11
31
 21
11.5714
  0
LINE
  8
0
 10
31
 20
11.5714
 11
28
 21
11.5714
  0
LINE
  8
0
 10
28
 20
11.5714
 11
28
 21
3.85713
  0
LINE
  8
0
 10
28
 20
3.85713
 11
31
 21
3.85713
  0
LINE
  8
0
 10
31
 20
3.85713
 11
31
 21
-3.85713
  0
LINE
  8
0
 10
31
 20
-3.85713
 11
28
 21
-3.85713
  0
LINE
  8
0
 10
28
 20
-3.85713
 11
28
 21
-11.5714
  0
LINE
  8
0
 10
28
 20
-11.5714
 11
31
 21
-11.5714
  0
LINE
  8
0
 10
31
 20
-11.5714
 11
31
 21
-19.2857
  0
LINE
  8
0
 10
31
 20
-19.2857
 11
28
 21
-19.2857
  0
LINE
  8
0
 10
28
 20
-19.2857
 11
28
 21
-27
  0
LINE
  8
0
 10
28
 20
-27
 11
34.2857
 21
-27
  0
LINE
  8
0
 10
34.2857
 20
-27
 11
34.2857
 21
-24
  0
LINE
  8
0
 10
-10.2857
 20
-24
 11
-3.42856
 21
-24
  0
LINE
  8
0
 10
-3.42856
 20
-24
 11
-3.42856
 21
-27
  0
LINE
  8
0
 10
-3.42856
 20
-27
 11
3.42856
 21
-27
  0
LINE
  8
0
 10
3.42856
 20
-27
 11
3.42856
 21
-24
  0
LINE
  8
0
 10
3.42856
 20
-24
 11
10.2857
 21
-24
  0
LINE
  8
0
 10
10.2857
 20
-24
 11
10.2857
 21
-27
  0
LINE
  8
0
 10
10.2857
 20
-27
 11
17.1429
 21
-27
  0
LINE
  8
0
 10
17.1429
 20
-27
 11
17.1429
 21
-24
  0
LINE
  8
0
 10
17.1429
 20
-24
 11
24
 21
-24
  0
LINE
  8
0
 10
24
 20
-24
 11
24
 21
-19.2857
  0
LINE
  8
0
 10
24
 20
-19.2857
 11
27
 21
-19.2857
  0
LINE
  8
0
 10
27
 20
-19.2857
 11
27
 21
-11.5714
  0
LINE
  8
0
 10
27
 20
-11.5714
 11
24
 21
-11.5714
  0
LINE
  8
0
 10
24
 20
-11.5714
 11
24
 21
-3.85715
  0
LINE
  8
0
 10
24
 20
-3.85715
 11
27
 21
-3.85715
  0
LINE
  8
0
 10
27
 20
-3.85715
 11
27
 21
3.85715
  0
LINE
  8
0
 10
27
 20
3.85715
 11
24
 21
3.85715
  0
LINE
  8
0
 10
24
 20
3.85715
 11
24
 21
11.5714
  0
LINE
  8
0
 10
24
 20
11.5714
 11
27
 21
11.5714
  0
LINE
  8
0
 10
27
 20
11.5714
 11
27
 21
19.2857
  0
LINE
  8
0
 10
27
 20
19.2857
 11
24
 21
19.2857
  0
LINE
  8
0
 10
24
 20
19.2857
 11
24
 21
24
  0
LINE
  8
0
 10
24
 20
24
 11
17.1429
 21
24
  0
LINE
  8
0
 10
17.1429
 20
24
 11
17.1429
 21
27
  0
LINE
  8
0
 10
17.1429
 20
27
 11
10.2857
 21
27
  0
LINE
  8
0
 10
10.2857
 20
27
 11
10.2857
 21
24
  0
LINE
  8
0
 10
10.2857
 20
24
 11
3.42856
 21
24
  0
LINE
  8
0
 10
3.42856
 20
24
 11
3.42856
 21
27
  0
LINE
  8
0
 10
3.42856
 20
27
 11
-3.42856
 21
27
  0
LINE
  8
0
 10
-3.42856
 20
27
 11
-3.42856
 21
24
  0
LINE
  8
0
 10
-3.42856
 20
24
 11
-10.2857
 21
24
  0
LINE
  8
0
 10
-10.2857
 20
24
 11
-10.2857
 21
27
  0
LINE
  8
0
 10
-10.2857
 20
27
 11
-17.1429
 21
27
  0
LINE
  8
0
 10
-17.1429
 20
27
 11
-17.1429
 21
24
  0
LINE
  8
0
 10
-17.1429
 20
24
 11
-24
 21
24
  0
LINE
  8
0
 10
-24
 20
24
 11
-24
 21
19.2857
  0
LINE
  8
0
 10
-24
 20
19.2857
 11
-27
 21
19.2857
  0
LINE
  8
0
 10
-27
 20
19.2857
 11
-27
 21
11.5714
  0
LINE
  8
0
 10
-27
 20
11.5714
 11
-24
 21
11.5714
  0
LINE
  8
0
 10
-24
 20
11.5714
 11
-24
 21
3.85715
  0
LINE
  8
0
 10
-24
 20
3.85715
 11
-27
 21
3.85715
  0
LINE
  8
0
 10
-27
 20
3.85715
 11
-27
 21
-3.85715
  0
LINE
  8
0
 10
-27
 20
-3.85715
 11
-24
 21
-3.85715
  0
LINE
  8
0
 10
-24
 20
-3.85715
 11
-24
 21
-11.5714
  0
LINE
  8
0
 10
-24
 20
-11.5714
 11
-27
 21
-11.5714
  0
LINE
  8
0
 10
-27
 20
-11.5714
 11
-27
 21
-19.2857
  0
LINE
  8
0
 10
-27
 20
-19.2857
 11
-24
 21
-19.2857
  0
LINE
  8
0
 10
-24
 20
-19.2857
 11
-24
 21
-24
  0
LINE
  8
0
 10
-24
 20
-24
 11
-17.1429
 21
-24
  0
LINE
  8
0
 10
-17.1429
 20
-24
 11
-17.1429
 21
-27
  0
LINE
  8
0
 10
-17.1429
 20
-27
 11
-10.2857
 21
-27
  0
LINE
  8
0
 10
-10.2857
 20
-27
 11
-10.2857
 21
-24
  0
LINE
  8
0
 10
24
 20
-65.7143
 11
27
 21
-65.7143
  0
LINE
  8
0
 10
27
 20
-65.7143
 11
27
 21
-59.4286
  0
LINE
  8
0
 10
27
 20
-59.4286
 11
24
 21
-59.4286
  0
LINE
  8
0
 10
24
 20
-59.4286
 11
24
 21
-53.1429
  0
LINE
  8
0
 10
24
 20
-53.1429
 11
27
 21
-53.1429
  0
LINE
  8
0
 10
27
 20
-53.1429
 11
27
 21
-46.8571
  0
LINE
  8
0
 10
27
 20
-46.8571
 11
24
 21
-46.8571
  0
LINE
  8
0
 10
24
 20
-46.8571
 11
24
 21
-40.5714
  0
LINE
  8
0
 10
24
 20
-40.5714
 11
27
 21
-40.5714
  0
LINE
  8
0
 10
27
 20
-40.5714
 11
27
 21
-34.2857
  0
LINE
  8
0
 10
27
 20
-34.2857
 11
24
 21
-34.2857
  0
LINE
  8
0
 10
24
 20
-34.2857
 11
24
 21
-28
  0
LINE
  8
0
 10
24
 20
-28
 11
17.1429
 21
-28
  0
LINE
  8
0
 10
17.1429
 20
-28
 11
17.1429
 21
-31
  0
LINE
  8
0
 10
17.1429
 20
-31
 11
10.2857
 21
-31
  0
LINE
  8
0
 10
10.2857
 20
-31
 11
10.2857
 21
-28
  0
LINE
  8
0
 10
10.2857
 20
-28
 11
3.42856
 21
-28
  0
LINE
  8
0
 10
3.42856
 20
-28
 11
3.42856
 21
-31
  0
LINE
  8
0
 10
3.42856
 20
-31
 11
-3.42856
 21
-31
  0
LINE
  8
0
 10
-3.42856
 20
-31
 11
-3.42856
 21
-28
  0
LINE
  8
0
 10
-3.42856
 20
-28
 11
-10.2857
 21
-28
  0
LINE
  8
0
 10
-10.2857
 20
-28
 11
-10.2857
 21
-31
  0
LINE
  8
0
 10
-10.2857
 20
-31
 11
-17.1429
 21
-31
  0
LINE
  8
0
 10
-17.1429
 20
-31
 11
-17.1429
 21
-28
  0
LINE
  8
0
 10
-17.1429
 20
-28
 11
-24
 21
-28
  0
LINE
  8
0
 10
-24
 20
-28
 11
-24
 21
-34.2857
  0
LINE
  8
0
 10
-24
 20
-34.2857
 11
-27
 21
-34.2857
  0
LINE
  8
0
 10
-27
 20
-34.2857
 11
-27
 21
-40.5714
  0
LINE
  8
0
 10
-27
 20
-40.5714
 11
-24
 21
-40.5714
  0
LINE
  8
0
 10
-24
 20
-40.5714
 11
-24
 21
-46.8571
  0
LINE
  8
0
 10
-24
 20
-46.8571
 11
-27
 21
-46.8571
  0
LINE
  8
0
 10
-27
 20
-46.8571
 11
-27
 21
-53.1429
  0
LINE
  8
0
 10
-27
 20
-53.1429
 11
-24
 21
-53.1429
  0
LINE
  8
0
 10
-24
 20
-53.1429
 11
-24
 21
-59.4286
  0
LINE
  8
0
 10
-24
 20
-59.4286
 11
-27
 21
-59.4286
  0
LINE
  8
0
 10
-27
 20
-59.4286
 11
-27
 21
-65.7143
  0
LINE
  8
0
 10
-27
 20
-65.7143
 11
-24
 21
-65.7143
  0
LINE
  8
0
 10
-24
 20
-65.7143
 11
-24
 21
-72
  0
LINE
  8
0
 10
-24
 20
-72
 11
24
 21
-72
  0
LINE
  8
0
 10
24
 20
-72
 11
24
 21
-65.7143
  0
ENDSEC
  0
SECTION
  2
OBJECTS
  0
DICTIONARY
  0
ENDSEC
  0
EOF
