<?xml version="1.0" standalone="no"?>
<!DOCTYPE svg PUBLIC "-//W3C//DTD SVG 1.1//EN" "http://www.w3.org/Graphics/SVG/1.1/DTD/svg11.dtd">
<svg width="144mm" height="144mm" viewBox="-72 -72 144 144" xmlns="http://www.w3.org/2000/svg" version="1.1">
<title>OpenSCAD Model</title>
<path d="
M -17.1429,-31 L -10.2857,-31 L -10.2857,-28 L -3.42856,-28 L -3.42856,-31 L 3.42856,-31
 L 3.42856,-28 L 10.2857,-28 L 10.2857,-31 L 17.1429,-31 L 17.1429,-28 L 24,-28
 L 24,-34.2857 L 27,-34.2857 L 27,-40.5714 L 24,-40.5714 L 24,-46.8571 L 27,-46.8571
 L 27,-53.1429 L 24,-53.1429 L 24,-59.4286 L 27,-59.4286 L 27,-65.7143 L 24,-65.7143
 L 24,-72 L -24,-72 L -24,-65.7143 L -27,-65.7143 L -27,-59.4286 L -24,-59.4286
 L -24,-53.1429 L -27,-53.1429 L -27,-46.8571 L -24,-46.8571 L -24,-40.5714 L -27,-40.5714
 L -27,-34.2857 L -24,-34.2857 L -24,-28 L -17.1429,-28 z
M -65.7143,24 L -59.4286,24 L -59.4286,27 L -53.1429,27 L -53.1429,24 L -46.8571,24
 L -46.8571,27 L -40.5714,27 L -40.5714,24 L -34.2857,24 L -34.2857,27 L -28,27
 L -28,19.2857 L -31,19.2857 L -31,11.5714 L -28,11.5714 L -28,3.85713 L -31,3.85713
 L -31,-3.85713 L -28,-3.85713 L -28,-11.5714 L -31,-11.5714 L -31,-19.2857 L -28,-19.2857
 L -28,-27 L -34.2857,-27 L -34.2857,-24 L -40.5714,-24 L -40.5714,-27 L -46.8571,-27
 L -46.8571,-24 L -53.1429,-24 L -53.1429,-27 L -59.4286,-27 L -59.4286,-24 L -65.7143,-24
 L -65.7143,-27 L -72,-27 L -72,27 L -65.7143,27 z
M 34.2857,24 L 40.5714,24 L 40.5714,27 L 46.8571,27 L 46.8571,24 L 53.1429,24
 L 53.1429,27 L 59.4286,27 L 59.4286,24 L 65.7143,24 L 65.7143,27 L 72,27
 L 72,-27 L 65.7143,-27 L 65.7143,-24 L 59.4286,-24 L 59.4286,-27 L 53.1429,-27
 L 53.1429,-24 L 46.8571,-24 L 46.8571,-27 L 40.5714,-27 L 40.5714,-24 L 34.2857,-24
 L 34.2857,-27 L 28,-27 L 28,-19.2857 L 31,-19.2857 L 31,-11.5714 L 28,-11.5714
 L 28,-3.85713 L 31,-3.85713 L 31,3.85713 L 28,3.85713 L 28,11.5714 L 31,11.5714
 L 31,19.2857 L 28,19.2857 L 28,27 L 34.2857,27 z
M -10.2857,24 L -3.42856,24 L -3.42856,27 L 3.42856,27 L 3.42856,24 L 10.2857,24
 L 10.2857,27 L 17.1429,27 L 17.1429,24 L 24,24 L 24,19.2857 L 27,19.2857
 L 27,11.5714 L 24,11.5714 L 24,3.85715 L 27,3.85715 L 27,-3.85715 L 24,-3.85715
 L 24,-11.5714 L 27,-11.5714 L 27,-19.2857 L 24,-19.2857 L 24,-24 L 17.1429,-24
 L 17.1429,-27 L 10.2857,-27 L 10.2857,-24 L 3.42856,-24 L 3.42856,-27 L -3.42856,-27
 L -3.42856,-24 L -10.2857,-24 L -10.2857,-27 L -17.1429,-27 L -17.1429,-24 L -24,-24
 L -24,-19.2857 L -27,-19.2857 L -27,-11.5714 L -24,-11.5714 L -24,-3.85715 L -27,-3.85715
 L -27,3.85715 L -24,3.85715 L -24,11.5714 L -27,11.5714 L -27,19.2857 L -24,19.2857
 L -24,24 L -17.1429,24 L -17.1429,27 L -10.2857,27 z
M 24,65.7143 L 27,65.7143 L 27,59.4286 L 24,59.4286 L 24,53.1429 L 27,53.1429
 L 27,46.8571 L 24,46.8571 L 24,40.5714 L 27,40.5714 L 27,34.2857 L 24,34.2857
 L 24,28 L 17.1429,28 L 17.1429,31 L 10.2857,31 L 10.2857,28 L 3.42856,28
 L 3.42856,31 L -3.42856,31 L -3.42856,28 L -10.2857,28 L -10.2857,31 L -17.1429,31
 L -17.1429,28 L -24,28 L -24,34.2857 L -27,34.2857 L -27,40.5714 L -24,40.5714
 L -24,46.8571 L -27,46.8571 L -27,53.1429 L -24,53.1429 L -24,59.4286 L -27,59.4286
 L -27,65.7143 L -24,65.7143 L -24,72 L 24,72 z
" stroke="black" fill="lightgray" stroke-width="0.5"/>
</svg>
