<?xml version="1.0" standalone="no"?>
<!DOCTYPE svg PUBLIC "-//W3C//DTD SVG 1.1//EN" "http://www.w3.org/Graphics/SVG/1.1/DTD/svg11.dtd">
<svg width="144mm" height="144mm" viewBox="-45 -99 144 144" xmlns="http://www.w3.org/2000/svg" version="1.1">
<title>OpenSCAD Model</title>
<path d="
M 9.85713,-58 L 16.7143,-58 L 16.7143,-55 L 23.5714,-55 L 23.5714,-58 L 30.4286,-58
 L 30.4286,-55 L 37.2857,-55 L 37.2857,-58 L 44.1429,-58 L 44.1429,-55 L 51,-55
 L 51,-61.2857 L 54,-61.2857 L 54,-67.5714 L 51,-67.5714 L 51,-73.8571 L 54,-73.8571
 L 54,-80.1429 L 51,-80.1429 L 51,-86.4286 L 54,-86.4286 L 54,-92.7143 L 51,-92.7143
 L 51,-99 L 3,-99 L 3,-92.7143 L 0,-92.7143 L 0,-86.4286 L 3,-86.4286
 L 3,-80.1429 L 0,-80.1429 L 0,-73.8571 L 3,-73.8571 L 3,-67.5714 L 0,-67.5714
 L 0,-61.2857 L 3,-61.2857 L 3,-55 L 9.85713,-55 z
M -38.7143,-3 L -32.4286,-3 L -32.4286,-0 L -26.1429,-0 L -26.1429,-3 L -19.8571,-3
 L -19.8571,-0 L -13.5714,-0 L -13.5714,-3 L -7.28571,-3 L -7.28571,-0 L -1,-0
 L -1,-7.71428 L -4,-7.71428 L -4,-15.4286 L -1,-15.4286 L -1,-23.1429 L -4,-23.1429
 L -4,-30.8571 L -1,-30.8571 L -1,-38.5714 L -4,-38.5714 L -4,-46.2857 L -1,-46.2857
 L -1,-54 L -7.28571,-54 L -7.28571,-51 L -13.5714,-51 L -13.5714,-54 L -19.8571,-54
 L -19.8571,-51 L -26.1429,-51 L -26.1429,-54 L -32.4286,-54 L -32.4286,-51 L -38.7143,-51
 L -38.7143,-54 L -45,-54 L -45,-0 L -38.7143,-0 z
M 61.2857,-3 L 67.5714,-3 L 67.5714,-0 L 73.8571,-0 L 73.8571,-3 L 80.1429,-3
 L 80.1429,-0 L 86.4286,-0 L 86.4286,-3 L 92.7143,-3 L 92.7143,-0 L 99,-0
 L 99,-54 L 92.7143,-54 L 92.7143,-51 L 86.4286,-51 L 86.4286,-54 L 80.1429,-54
 L 80.1429,-51 L 73.8571,-51 L 73.8571,-54 L 67.5714,-54 L 67.5714,-51 L 61.2857,-51
 L 61.2857,-54 L 55,-54 L 55,-46.2857 L 58,-46.2857 L 58,-38.5714 L 55,-38.5714
 L 55,-30.8571 L 58,-30.8571 L 58,-23.1429 L 55,-23.1429 L 55,-15.4286 L 58,-15.4286
 L 58,-7.71428 L 55,-7.71428 L 55,-0 L 61.2857,-0 z
M 16.7143,-3 L 23.5714,-3 L 23.5714,-0 L 30.4286,-0 L 30.4286,-3 L 37.2857,-3
 L 37.2857,-0 L 44.1429,-0 L 44.1429,-3 L 51,-3 L 51,-7.71428 L 54,-7.71428
 L 54,-15.4286 L 51,-15.4286 L 51,-23.1429 L 54,-23.1429 L 54,-30.8571 L 51,-30.8571
 L 51,-38.5714 L 54,-38.5714 L 54,-46.2857 L 51,-46.2857 L 51,-51 L 44.1429,-51
 L 44.1429,-54 L 37.2857,-54 L 37.2857,-51 L 30.4286,-51 L 30.4286,-54 L 23.5714,-54
 L 23.5714,-51 L 16.7143,-51 L 16.7143,-54 L 9.85713,-54 L 9.85713,-51 L 3,-51
 L 3,-46.2857 L 0,-46.2857 L 0,-38.5714 L 3,-38.5714 L 3,-30.8571 L 0,-30.8571
 L 0,-23.1429 L 3,-23.1429 L 3,-15.4286 L 0,-15.4286 L 0,-7.71428 L 3,-7.71428
 L 3,-3 L 9.85713,-3 L 9.85713,-0 L 16.7143,-0 z
M 51,38.7143 L 54,38.7143 L 54,32.4286 L 51,32.4286 L 51,26.1429 L 54,26.1429
 L 54,19.8571 L 51,19.8571 L 51,13.5714 L 54,13.5714 L 54,7.28571 L 51,7.28571
 L 51,1 L 44.1429,1 L 44.1429,4 L 37.2857,4 L 37.2857,1 L 30.4286,1
 L 30.4286,4 L 23.5714,4 L 23.5714,1 L 16.7143,1 L 16.7143,4 L 9.85713,4
 L 9.85713,1 L 3,1 L 3,7.28571 L 0,7.28571 L 0,13.5714 L 3,13.5714
 L 3,19.8571 L 0,19.8571 L 0,26.1429 L 3,26.1429 L 3,32.4286 L 0,32.4286
 L 0,38.7143 L 3,38.7143 L 3,45 L 51,45 z
" stroke="black" fill="lightgray" stroke-width="0.5"/>
</svg>
