<?xml version="1.0" standalone="no"?>
<!DOCTYPE svg PUBLIC "-//W3C//DTD SVG 1.1//EN" "http://www.w3.org/Graphics/SVG/1.1/DTD/svg11.dtd">
<svg width="198mm" height="198mm" viewBox="-45 -153 198 198" xmlns="http://www.w3.org/2000/svg" version="1.1">
<title>OpenSCAD Model</title>
<path d="
M 105,-115.286 L 108,-115.286 L 108,-121.571 L 105,-121.571 L 105,-127.857 L 108,-127.857
 L 108,-134.143 L 105,-134.143 L 105,-140.429 L 108,-140.429 L 108,-146.714 L 105,-146.714
 L 105,-153 L 3,-153 L 3,-146.714 L 0,-146.714 L 0,-140.429 L 3,-140.429
 L 3,-134.143 L 0,-134.143 L 0,-127.857 L 3,-127.857 L 3,-121.571 L 0,-121.571
 L 0,-115.286 L 3,-115.286 L 3,-109 L 105,-109 z
M 91.4,-112 L 91.4,-115 L 98.2,-115 L 98.2,-112 z
M 77.8,-112 L 77.8,-115 L 84.6,-115 L 84.6,-112 z
M 64.2,-112 L 64.2,-115 L 71,-115 L 71,-112 z
M 50.6,-112 L 50.6,-115 L 57.4,-115 L 57.4,-112 z
M 37,-112 L 37,-115 L 43.8,-115 L 43.8,-112 z
M 23.4,-112 L 23.4,-115 L 30.2,-115 L 30.2,-112 z
M 9.79999,-112 L 9.79999,-115 L 16.6,-115 L 16.6,-112 z
M -38.7143,-3 L -32.4286,-3 L -32.4286,-0 L -26.1429,-0 L -26.1429,-3 L -19.8571,-3
 L -19.8571,-0 L -13.5714,-0 L -13.5714,-3 L -7.28571,-3 L -7.28571,-0 L -1,-0
 L -1,-108 L -7.28571,-108 L -7.28571,-105 L -13.5714,-105 L -13.5714,-108 L -19.8571,-108
 L -19.8571,-105 L -26.1429,-105 L -26.1429,-108 L -32.4286,-108 L -32.4286,-105 L -38.7143,-105
 L -38.7143,-108 L -45,-108 L -45,-0 L -38.7143,-0 z
M -7,-95.2941 L -7,-101.647 L -4,-101.647 L -4,-95.2941 z
M -7,-82.5882 L -7,-88.9412 L -4,-88.9412 L -4,-82.5882 z
M -7,-69.8823 L -7,-76.2353 L -4,-76.2353 L -4,-69.8823 z
M -7,-57.1765 L -7,-63.5294 L -4,-63.5294 L -4,-57.1765 z
M -7,-44.4706 L -7,-50.8235 L -4,-50.8235 L -4,-44.4706 z
M -7,-31.7647 L -7,-38.1176 L -4,-38.1176 L -4,-31.7647 z
M -7,-19.0588 L -7,-25.4118 L -4,-25.4118 L -4,-19.0588 z
M -7,-6.35294 L -7,-12.7059 L -4,-12.7059 L -4,-6.35294 z
M 115.286,-3 L 121.571,-3 L 121.571,-0 L 127.857,-0 L 127.857,-3 L 134.143,-3
 L 134.143,-0 L 140.429,-0 L 140.429,-3 L 146.714,-3 L 146.714,-0 L 153,-0
 L 153,-108 L 146.714,-108 L 146.714,-105 L 140.429,-105 L 140.429,-108 L 134.143,-108
 L 134.143,-105 L 127.857,-105 L 127.857,-108 L 121.571,-108 L 121.571,-105 L 115.286,-105
 L 115.286,-108 L 109,-108 L 109,-0 L 115.286,-0 z
M 112,-95.2941 L 112,-101.647 L 115,-101.647 L 115,-95.2941 z
M 112,-82.5882 L 112,-88.9412 L 115,-88.9412 L 115,-82.5882 z
M 112,-69.8823 L 112,-76.2353 L 115,-76.2353 L 115,-69.8823 z
M 112,-57.1765 L 112,-63.5294 L 115,-63.5294 L 115,-57.1765 z
M 112,-44.4706 L 112,-50.8235 L 115,-50.8235 L 115,-44.4706 z
M 112,-31.7647 L 112,-38.1176 L 115,-38.1176 L 115,-31.7647 z
M 112,-19.0588 L 112,-25.4118 L 115,-25.4118 L 115,-19.0588 z
M 112,-6.35294 L 112,-12.7059 L 115,-12.7059 L 115,-6.35294 z
M 16.6,-3 L 23.4,-3 L 23.4,-0 L 30.2,-0 L 30.2,-3 L 37,-3
 L 37,-0 L 43.8,-0 L 43.8,-3 L 50.6,-3 L 50.6,-0 L 57.4,-0
 L 57.4,-3 L 64.2,-3 L 64.2,-0 L 71,-0 L 71,-3 L 77.8,-3
 L 77.8,-0 L 84.6,-0 L 84.6,-3 L 91.4,-3 L 91.4,-0 L 98.2,-0
 L 98.2,-3 L 105,-3 L 105,-6.35294 L 108,-6.35294 L 108,-12.7059 L 105,-12.7059
 L 105,-19.0588 L 108,-19.0588 L 108,-25.4118 L 105,-25.4118 L 105,-31.7647 L 108,-31.7647
 L 108,-38.1176 L 105,-38.1176 L 105,-44.4706 L 108,-44.4706 L 108,-50.8235 L 105,-50.8235
 L 105,-57.1765 L 108,-57.1765 L 108,-63.5294 L 105,-63.5294 L 105,-69.8823 L 108,-69.8823
 L 108,-76.2353 L 105,-76.2353 L 105,-82.5882 L 108,-82.5882 L 108,-88.9412 L 105,-88.9412
 L 105,-95.2941 L 108,-95.2941 L 108,-101.647 L 105,-101.647 L 105,-105 L 98.2,-105
 L 98.2,-108 L 91.4,-108 L 91.4,-105 L 84.6,-105 L 84.6,-108 L 77.8,-108
 L 77.8,-105 L 71,-105 L 71,-108 L 64.2,-108 L 64.2,-105 L 57.4,-105
 L 57.4,-108 L 50.6,-108 L 50.6,-105 L 43.8,-105 L 43.8,-108 L 37,-108
 L 37,-105 L 30.2,-105 L 30.2,-108 L 23.4,-108 L 23.4,-105 L 16.6,-105
 L 16.6,-108 L 9.79999,-108 L 9.79999,-105 L 3,-105 L 3,-101.647 L 0,-101.647
 L 0,-95.2941 L 3,-95.2941 L 3,-88.9412 L 0,-88.9412 L 0,-82.5882 L 3,-82.5882
 L 3,-76.2353 L 0,-76.2353 L 0,-69.8823 L 3,-69.8823 L 3,-63.5294 L 0,-63.5294
 L 0,-57.1765 L 3,-57.1765 L 3,-50.8235 L 0,-50.8235 L 0,-44.4706 L 3,-44.4706
 L 3,-38.1176 L 0,-38.1176 L 0,-31.7647 L 3,-31.7647 L 3,-25.4118 L 0,-25.4118
 L 0,-19.0588 L 3,-19.0588 L 3,-12.7059 L 0,-12.7059 L 0,-6.35294 L 3,-6.35294
 L 3,-3 L 9.79999,-3 L 9.79999,-0 L 16.6,-0 z
M 105,38.7143 L 108,38.7143 L 108,32.4286 L 105,32.4286 L 105,26.1429 L 108,26.1429
 L 108,19.8571 L 105,19.8571 L 105,13.5714 L 108,13.5714 L 108,7.28571 L 105,7.28571
 L 105,1 L 3,1 L 3,7.28571 L 0,7.28571 L 0,13.5714 L 3,13.5714
 L 3,19.8571 L 0,19.8571 L 0,26.1429 L 3,26.1429 L 3,32.4286 L 0,32.4286
 L 0,38.7143 L 3,38.7143 L 3,45 L 105,45 z
M 64.2,7 L 64.2,4 L 71,4 L 71,7 z
M 50.6,7 L 50.6,4 L 57.4,4 L 57.4,7 z
M 37,7 L 37,4 L 43.8,4 L 43.8,7 z
M 23.4,7 L 23.4,4 L 30.2,4 L 30.2,7 z
M 9.79999,7 L 9.79999,4 L 16.6,4 L 16.6,7 z
M 77.8,7 L 77.8,4 L 84.6,4 L 84.6,7 z
M 91.4,7 L 91.4,4 L 98.2,4 L 98.2,7 z
" stroke="black" fill="lightgray" stroke-width="0.5"/>
</svg>
