<?xml version="1.0" standalone="no"?>
<!DOCTYPE svg PUBLIC "-//W3C//DTD SVG 1.1//EN" "http://www.w3.org/Graphics/SVG/1.1/DTD/svg11.dtd">
<svg width="282mm" height="279mm" viewBox="-45 -237 282 279" xmlns="http://www.w3.org/2000/svg" version="1.1">
<title>OpenSCAD Model</title>
<path d="
M 25.3333,-199 L 35,-199 L 35,-218 L 38,-218 L 38,-199 L 48.6667,-199
 L 48.6667,-196 L 59.3333,-196 L 59.3333,-199 L 70,-199 L 70,-218 L 73,-218
 L 73,-199 L 82.6667,-199 L 82.6667,-196 L 93.3333,-196 L 93.3333,-199 L 105,-199
 L 105,-218 L 108,-218 L 108,-230.667 L 105,-230.667 L 105,-237 L 3,-237
 L 3,-230.667 L 0,-230.667 L 0,-218 L 3,-218 L 3,-199 L 14.6667,-199
 L 14.6667,-196 L 25.3333,-196 z
M 25.3333,-157 L 35,-157 L 35,-176 L 38,-176 L 38,-157 L 48.6667,-157
 L 48.6667,-154 L 59.3333,-154 L 59.3333,-157 L 70,-157 L 70,-176 L 73,-176
 L 73,-157 L 82.6667,-157 L 82.6667,-154 L 93.3333,-154 L 93.3333,-157 L 105,-157
 L 105,-176 L 108,-176 L 108,-188.667 L 105,-188.667 L 105,-195 L 3,-195
 L 3,-188.667 L 0,-188.667 L 0,-176 L 3,-176 L 3,-157 L 14.6667,-157
 L 14.6667,-154 L 25.3333,-154 z
M 105,-115.286 L 108,-115.286 L 108,-121.571 L 105,-121.571 L 105,-127.857 L 108,-127.857
 L 108,-134.143 L 105,-134.143 L 105,-140.429 L 108,-140.429 L 108,-146.714 L 105,-146.714
 L 105,-153 L 3,-153 L 3,-146.714 L 0,-146.714 L 0,-140.429 L 3,-140.429
 L 3,-134.143 L 0,-134.143 L 0,-127.857 L 3,-127.857 L 3,-121.571 L 0,-121.571
 L 0,-115.286 L 3,-115.286 L 3,-109 L 105,-109 z
M 70,-134 L 70,-146.667 L 73,-146.667 L 73,-134 z
M 35,-134 L 35,-146.667 L 38,-146.667 L 38,-134 z
M 91.4,-112 L 91.4,-115 L 98.2,-115 L 98.2,-112 z
M 77.8,-112 L 77.8,-115 L 84.6,-115 L 84.6,-112 z
M 64.2,-112 L 64.2,-115 L 71,-115 L 71,-112 z
M 50.6,-112 L 50.6,-115 L 57.4,-115 L 57.4,-112 z
M 37,-112 L 37,-115 L 43.8,-115 L 43.8,-112 z
M 23.4,-112 L 23.4,-115 L 30.2,-115 L 30.2,-112 z
M 9.79999,-112 L 9.79999,-115 L 16.6,-115 L 16.6,-112 z
M -1,-108 L -7.28571,-108 L -7.28571,-105 L -13.5714,-105 L -13.5714,-108 L -19.8571,-108
 L -19.8571,-105 L -26.1429,-105 L -26.1429,-108 L -32.4286,-108 L -32.4286,-105 L -38.7143,-105
 L -38.7143,-108 L -45,-108 L -45,-0 L -1,-0 z
M -7,-95.2941 L -7,-101.647 L -4,-101.647 L -4,-95.2941 z
M -7,-82.5882 L -7,-88.9412 L -4,-88.9412 L -4,-82.5882 z
M -7,-69.8823 L -7,-76.2353 L -4,-76.2353 L -4,-69.8823 z
M -38.6667,-71.3333 L -38.6667,-74.3333 L -26,-74.3333 L -26,-71.3333 z
M -7,-57.1765 L -7,-63.5294 L -4,-63.5294 L -4,-57.1765 z
M -7,-44.4706 L -7,-50.8235 L -4,-50.8235 L -4,-44.4706 z
M -38.6667,-37.6667 L -38.6667,-40.6667 L -26,-40.6667 L -26,-37.6667 z
M -7,-31.7647 L -7,-38.1176 L -4,-38.1176 L -4,-31.7647 z
M -7,-19.0588 L -7,-25.4118 L -4,-25.4118 L -4,-19.0588 z
M -7,-6.35294 L -7,-12.7059 L -4,-12.7059 L -4,-6.35294 z
M -38.7143,-3 L -38.7143,-7 L -32.4286,-7 L -32.4286,-3 z
M -13.5714,-3 L -13.5714,-7 L -7.28571,-7 L -7.28571,-3 z
M -26.1429,-3 L -26.1429,-7 L -19.8571,-7 L -19.8571,-3 z
M 105,-6.35294 L 108,-6.35294 L 108,-12.7059 L 105,-12.7059 L 105,-19.0588 L 108,-19.0588
 L 108,-25.4118 L 105,-25.4118 L 105,-31.7647 L 108,-31.7647 L 108,-38.1176 L 105,-38.1176
 L 105,-44.4706 L 108,-44.4706 L 108,-50.8235 L 105,-50.8235 L 105,-57.1765 L 108,-57.1765
 L 108,-63.5294 L 105,-63.5294 L 105,-69.8823 L 108,-69.8823 L 108,-76.2353 L 105,-76.2353
 L 105,-82.5882 L 108,-82.5882 L 108,-88.9412 L 105,-88.9412 L 105,-95.2941 L 108,-95.2941
 L 108,-101.647 L 105,-101.647 L 105,-105 L 98.2,-105 L 98.2,-108 L 91.4,-108
 L 91.4,-105 L 84.6,-105 L 84.6,-108 L 77.8,-108 L 77.8,-105 L 71,-105
 L 71,-108 L 64.2,-108 L 64.2,-105 L 57.4,-105 L 57.4,-108 L 50.6,-108
 L 50.6,-105 L 43.8,-105 L 43.8,-108 L 37,-108 L 37,-105 L 30.2,-105
 L 30.2,-108 L 23.4,-108 L 23.4,-105 L 16.6,-105 L 16.6,-108 L 9.79999,-108
 L 9.79999,-105 L 3,-105 L 3,-101.647 L 0,-101.647 L 0,-95.2941 L 3,-95.2941
 L 3,-88.9412 L 0,-88.9412 L 0,-82.5882 L 3,-82.5882 L 3,-76.2353 L 0,-76.2353
 L 0,-69.8823 L 3,-69.8823 L 3,-63.5294 L 0,-63.5294 L 0,-57.1765 L 3,-57.1765
 L 3,-50.8235 L 0,-50.8235 L 0,-44.4706 L 3,-44.4706 L 3,-38.1176 L 0,-38.1176
 L 0,-31.7647 L 3,-31.7647 L 3,-25.4118 L 0,-25.4118 L 0,-19.0588 L 3,-19.0588
 L 3,-12.7059 L 0,-12.7059 L 0,-6.35294 L 3,-6.35294 L 3,-0 L 105,-0
 z
M 35,-83.5555 L 35,-93.7778 L 38,-93.7778 L 38,-83.5555 z
M 70,-83.5555 L 70,-93.7778 L 73,-93.7778 L 73,-83.5555 z
M 48.6667,-71.3333 L 48.6667,-74.3333 L 59.3333,-74.3333 L 59.3333,-71.3333 z
M 14.6667,-71.3333 L 14.6667,-74.3333 L 25.3333,-74.3333 L 25.3333,-71.3333 z
M 82.6667,-71.3333 L 82.6667,-74.3333 L 93.3333,-74.3333 L 93.3333,-71.3333 z
M 35,-50.8889 L 35,-61.1111 L 38,-61.1111 L 38,-50.8889 z
M 70,-50.8889 L 70,-61.1111 L 73,-61.1111 L 73,-50.8889 z
M 14.6667,-37.6667 L 14.6667,-40.6667 L 25.3333,-40.6667 L 25.3333,-37.6667 z
M 48.6667,-37.6667 L 48.6667,-40.6667 L 59.3333,-40.6667 L 59.3333,-37.6667 z
M 82.6667,-37.6667 L 82.6667,-40.6667 L 93.3333,-40.6667 L 93.3333,-37.6667 z
M 35,-18.2222 L 35,-28.4444 L 38,-28.4444 L 38,-18.2222 z
M 70,-18.2222 L 70,-28.4444 L 73,-28.4444 L 73,-18.2222 z
M 77.8,-3 L 77.8,-7 L 84.6,-7 L 84.6,-3 z
M 91.4,-3 L 91.4,-7 L 98.2,-7 L 98.2,-3 z
M 64.2,-3 L 64.2,-7 L 71,-7 L 71,-3 z
M 50.6,-3 L 50.6,-7 L 57.4,-7 L 57.4,-3 z
M 37,-3 L 37,-7 L 43.8,-7 L 43.8,-3 z
M 23.4,-3 L 23.4,-7 L 30.2,-7 L 30.2,-3 z
M 9.79999,-3 L 9.79999,-7 L 16.6,-7 L 16.6,-3 z
M 153,-108 L 146.714,-108 L 146.714,-105 L 140.429,-105 L 140.429,-108 L 134.143,-108
 L 134.143,-105 L 127.857,-105 L 127.857,-108 L 121.571,-108 L 121.571,-105 L 115.286,-105
 L 115.286,-108 L 109,-108 L 109,-0 L 153,-0 z
M 112,-95.2941 L 112,-101.647 L 115,-101.647 L 115,-95.2941 z
M 112,-82.5882 L 112,-88.9412 L 115,-88.9412 L 115,-82.5882 z
M 112,-69.8823 L 112,-76.2353 L 115,-76.2353 L 115,-69.8823 z
M 134,-71.3333 L 134,-74.3333 L 146.667,-74.3333 L 146.667,-71.3333 z
M 112,-57.1765 L 112,-63.5294 L 115,-63.5294 L 115,-57.1765 z
M 112,-44.4706 L 112,-50.8235 L 115,-50.8235 L 115,-44.4706 z
M 134,-37.6667 L 134,-40.6667 L 146.667,-40.6667 L 146.667,-37.6667 z
M 112,-31.7647 L 112,-38.1176 L 115,-38.1176 L 115,-31.7647 z
M 112,-19.0588 L 112,-25.4118 L 115,-25.4118 L 115,-19.0588 z
M 112,-6.35294 L 112,-12.7059 L 115,-12.7059 L 115,-6.35294 z
M 140.429,-3 L 140.429,-7 L 146.714,-7 L 146.714,-3 z
M 127.857,-3 L 127.857,-7 L 134.143,-7 L 134.143,-3 z
M 115.286,-3 L 115.286,-7 L 121.571,-7 L 121.571,-3 z
M 188.667,-7 L 195,-7 L 195,-37.6667 L 176,-37.6667 L 176,-40.6667 L 195,-40.6667
 L 195,-71.3333 L 176,-71.3333 L 176,-74.3333 L 195,-74.3333 L 195,-105 L 188.667,-105
 L 188.667,-108 L 176,-108 L 176,-105 L 157,-105 L 157,-93.7778 L 154,-93.7778
 L 154,-83.5556 L 157,-83.5556 L 157,-61.1111 L 154,-61.1111 L 154,-50.8889 L 157,-50.8889
 L 157,-28.4445 L 154,-28.4445 L 154,-18.2222 L 157,-18.2222 L 157,-7 L 176,-7
 L 176,-3 L 188.667,-3 z
M 230.667,-7 L 237,-7 L 237,-37.6667 L 218,-37.6667 L 218,-40.6667 L 237,-40.6667
 L 237,-71.3333 L 218,-71.3333 L 218,-74.3333 L 237,-74.3333 L 237,-105 L 230.667,-105
 L 230.667,-108 L 218,-108 L 218,-105 L 199,-105 L 199,-93.7778 L 196,-93.7778
 L 196,-83.5556 L 199,-83.5556 L 199,-61.1111 L 196,-61.1111 L 196,-50.8889 L 199,-50.8889
 L 199,-28.4445 L 196,-28.4445 L 196,-18.2222 L 199,-18.2222 L 199,-7 L 218,-7
 L 218,-3 L 230.667,-3 z
M 105,38.7143 L 108,38.7143 L 108,32.4286 L 105,32.4286 L 105,26.1429 L 108,26.1429
 L 108,19.8571 L 105,19.8571 L 105,13.5714 L 108,13.5714 L 108,7.28571 L 105,7.28571
 L 105,4 L 98.2,4 L 98.2,1 L 91.4,1 L 91.4,4 L 84.6,4
 L 84.6,1 L 77.8,1 L 77.8,4 L 71,4 L 71,1 L 64.2,1
 L 64.2,4 L 57.4,4 L 57.4,1 L 50.6,1 L 50.6,4 L 43.8,4
 L 43.8,1 L 37,1 L 37,4 L 30.2,4 L 30.2,1 L 23.4,1
 L 23.4,4 L 16.6,4 L 16.6,1 L 9.79999,1 L 9.79999,4 L 3,4
 L 3,7.28571 L 0,7.28571 L 0,13.5714 L 3,13.5714 L 3,19.8571 L 0,19.8571
 L 0,26.1429 L 3,26.1429 L 3,32.4286 L 0,32.4286 L 0,38.7143 L 3,38.7143
 L 3,42 L 105,42 z
M 70,38.6667 L 70,26 L 73,26 L 73,38.6667 z
M 35,38.6667 L 35,26 L 38,26 L 38,38.6667 z
" stroke="black" fill="lightgray" stroke-width="0.5"/>
</svg>
