<?xml version="1.0" standalone="no"?>
<!DOCTYPE svg PUBLIC "-//W3C//DTD SVG 1.1//EN" "http://www.w3.org/Graphics/SVG/1.1/DTD/svg11.dtd">
<svg width="243mm" height="198mm" viewBox="-45 -153 243 198" xmlns="http://www.w3.org/2000/svg" version="1.1">
<title>OpenSCAD Model</title>
<path d="
M 9.79999,-112 L 16.6,-112 L 16.6,-109 L 23.4,-109 L 23.4,-112 L 30.2,-112
 L 30.2,-109 L 37,-109 L 37,-112 L 43.8,-112 L 43.8,-109 L 50.6,-109
 L 50.6,-112 L 57.4,-112 L 57.4,-109 L 64.2,-109 L 64.2,-112 L 71,-112
 L 71,-109 L 77.8,-109 L 77.8,-112 L 84.6,-112 L 84.6,-109 L 91.4,-109
 L 91.4,-112 L 98.2,-112 L 98.2,-109 L 105,-109 L 105,-115.286 L 108,-115.286
 L 108,-121.571 L 105,-121.571 L 105,-127.857 L 108,-127.857 L 108,-134.143 L 105,-134.143
 L 105,-140.429 L 108,-140.429 L 108,-146.714 L 105,-146.714 L 105,-153 L 3,-153
 L 3,-146.714 L 0,-146.714 L 0,-140.429 L 3,-140.429 L 3,-134.143 L 0,-134.143
 L 0,-127.857 L 3,-127.857 L 3,-121.571 L 0,-121.571 L 0,-115.286 L 3,-115.286
 L 3,-109 L 9.79999,-109 z
M 52.5,-132.5 L 52.5,-146.167 L 55.5,-146.167 L 55.5,-132.5 z
M -38.7143,-3 L -32.4286,-3 L -32.4286,-0 L -26.1429,-0 L -26.1429,-3 L -19.8571,-3
 L -19.8571,-0 L -13.5714,-0 L -13.5714,-3 L -7.28571,-3 L -7.28571,-0 L -1,-0
 L -1,-6.35294 L -4,-6.35294 L -4,-12.7059 L -1,-12.7059 L -1,-19.0588 L -4,-19.0588
 L -4,-25.4118 L -1,-25.4118 L -1,-31.7647 L -4,-31.7647 L -4,-38.1176 L -1,-38.1176
 L -1,-44.4706 L -4,-44.4706 L -4,-50.8235 L -1,-50.8235 L -1,-57.1765 L -4,-57.1765
 L -4,-63.5294 L -1,-63.5294 L -1,-69.8823 L -4,-69.8823 L -4,-76.2353 L -1,-76.2353
 L -1,-82.5882 L -4,-82.5882 L -4,-88.9412 L -1,-88.9412 L -1,-95.2941 L -4,-95.2941
 L -4,-101.647 L -1,-101.647 L -1,-108 L -7.28571,-108 L -7.28571,-105 L -13.5714,-105
 L -13.5714,-108 L -19.8571,-108 L -19.8571,-105 L -26.1429,-105 L -26.1429,-108 L -32.4286,-108
 L -32.4286,-105 L -38.7143,-105 L -38.7143,-108 L -45,-108 L -45,-0 L -38.7143,-0
 z
M 115.286,-3 L 121.571,-3 L 121.571,-0 L 127.857,-0 L 127.857,-3 L 134.143,-3
 L 134.143,-0 L 140.429,-0 L 140.429,-3 L 146.714,-3 L 146.714,-0 L 153,-0
 L 153,-108 L 146.714,-108 L 146.714,-105 L 140.429,-105 L 140.429,-108 L 134.143,-108
 L 134.143,-105 L 127.857,-105 L 127.857,-108 L 121.571,-108 L 121.571,-105 L 115.286,-105
 L 115.286,-108 L 109,-108 L 109,-101.647 L 112,-101.647 L 112,-95.2941 L 109,-95.2941
 L 109,-88.9412 L 112,-88.9412 L 112,-82.5882 L 109,-82.5882 L 109,-76.2353 L 112,-76.2353
 L 112,-69.8823 L 109,-69.8823 L 109,-63.5294 L 112,-63.5294 L 112,-57.1765 L 109,-57.1765
 L 109,-50.8235 L 112,-50.8235 L 112,-44.4706 L 109,-44.4706 L 109,-38.1176 L 112,-38.1176
 L 112,-31.7647 L 109,-31.7647 L 109,-25.4118 L 112,-25.4118 L 112,-19.0588 L 109,-19.0588
 L 109,-12.7059 L 112,-12.7059 L 112,-6.35294 L 109,-6.35294 L 109,-0 L 115.286,-0
 z
M 16.6,-3 L 23.4,-3 L 23.4,-0 L 30.2,-0 L 30.2,-3 L 37,-3
 L 37,-0 L 43.8,-0 L 43.8,-3 L 50.6,-3 L 50.6,-0 L 57.4,-0
 L 57.4,-3 L 64.2,-3 L 64.2,-0 L 71,-0 L 71,-3 L 77.8,-3
 L 77.8,-0 L 84.6,-0 L 84.6,-3 L 91.4,-3 L 91.4,-0 L 98.2,-0
 L 98.2,-3 L 105,-3 L 105,-6.35294 L 108,-6.35294 L 108,-12.7059 L 105,-12.7059
 L 105,-19.0588 L 108,-19.0588 L 108,-25.4118 L 105,-25.4118 L 105,-31.7647 L 108,-31.7647
 L 108,-38.1176 L 105,-38.1176 L 105,-44.4706 L 108,-44.4706 L 108,-50.8235 L 105,-50.8235
 L 105,-57.1765 L 108,-57.1765 L 108,-63.5294 L 105,-63.5294 L 105,-69.8823 L 108,-69.8823
 L 108,-76.2353 L 105,-76.2353 L 105,-82.5882 L 108,-82.5882 L 108,-88.9412 L 105,-88.9412
 L 105,-95.2941 L 108,-95.2941 L 108,-101.647 L 105,-101.647 L 105,-105 L 98.2,-105
 L 98.2,-108 L 91.4,-108 L 91.4,-105 L 84.6,-105 L 84.6,-108 L 77.8,-108
 L 77.8,-105 L 71,-105 L 71,-108 L 64.2,-108 L 64.2,-105 L 57.4,-105
 L 57.4,-108 L 50.6,-108 L 50.6,-105 L 43.8,-105 L 43.8,-108 L 37,-108
 L 37,-105 L 30.2,-105 L 30.2,-108 L 23.4,-108 L 23.4,-105 L 16.6,-105
 L 16.6,-108 L 9.79999,-108 L 9.79999,-105 L 3,-105 L 3,-101.647 L 0,-101.647
 L 0,-95.2941 L 3,-95.2941 L 3,-88.9412 L 0,-88.9412 L 0,-82.5882 L 3,-82.5882
 L 3,-76.2353 L 0,-76.2353 L 0,-69.8823 L 3,-69.8823 L 3,-63.5294 L 0,-63.5294
 L 0,-57.1765 L 3,-57.1765 L 3,-50.8235 L 0,-50.8235 L 0,-44.4706 L 3,-44.4706
 L 3,-38.1176 L 0,-38.1176 L 0,-31.7647 L 3,-31.7647 L 3,-25.4118 L 0,-25.4118
 L 0,-19.0588 L 3,-19.0588 L 3,-12.7059 L 0,-12.7059 L 0,-6.35294 L 3,-6.35294
 L 3,-3 L 9.79999,-3 L 9.79999,-0 L 16.6,-0 z
M 52.5,-3 L 52.5,-4 L 53.5,-4 L 53.5,-3 z
M 191.167,-3 L 198,-3 L 198,-105 L 191.167,-105 L 191.167,-108 L 177.5,-108
 L 177.5,-105 L 157,-105 L 157,-3 L 177.5,-3 L 177.5,-0 L 191.167,-0
 z
M 105,38.7143 L 108,38.7143 L 108,32.4286 L 105,32.4286 L 105,26.1429 L 108,26.1429
 L 108,19.8571 L 105,19.8571 L 105,13.5714 L 108,13.5714 L 108,7.28571 L 105,7.28571
 L 105,1 L 98.2,1 L 98.2,4 L 91.4,4 L 91.4,1 L 84.6,1
 L 84.6,4 L 77.8,4 L 77.8,1 L 71,1 L 71,4 L 64.2,4
 L 64.2,1 L 57.4,1 L 57.4,4 L 50.6,4 L 50.6,1 L 43.8,1
 L 43.8,4 L 37,4 L 37,1 L 30.2,1 L 30.2,4 L 23.4,4
 L 23.4,1 L 16.6,1 L 16.6,4 L 9.79999,4 L 9.79999,1 L 3,1
 L 3,7.28571 L 0,7.28571 L 0,13.5714 L 3,13.5714 L 3,19.8571 L 0,19.8571
 L 0,26.1429 L 3,26.1429 L 3,32.4286 L 0,32.4286 L 0,38.7143 L 3,38.7143
 L 3,45 L 105,45 z
M 52.5,38.1667 L 52.5,24.5 L 55.5,24.5 L 55.5,38.1667 z
" stroke="black" fill="lightgray" stroke-width="0.5"/>
</svg>
