<?xml version="1.0" standalone="no"?>
<!DOCTYPE svg PUBLIC "-//W3C//DTD SVG 1.1//EN" "http://www.w3.org/Graphics/SVG/1.1/DTD/svg11.dtd">
<svg width="273mm" height="270mm" viewBox="-45 -228 273 270" xmlns="http://www.w3.org/2000/svg" version="1.1">
<title>OpenSCAD Model</title>
<path d="
M 19.625,-208 L 26.25,-208 L 26.25,-218 L 29.25,-218 L 29.25,-208 L 37.375,-208
 L 37.375,-204 L 45.125,-204 L 45.125,-208 L 52.5,-208 L 52.5,-218 L 55.5,-218
 L 55.5,-208 L 62.875,-208 L 62.875,-204 L 70.625,-204 L 70.625,-208 L 78.75,-208
 L 78.75,-218 L 81.75,-218 L 81.75,-208 L 88.375,-208 L 88.375,-204 L 96.125,-204
 L 96.125,-208 L 105,-208 L 105,-218 L 108,-218 L 108,-224.667 L 105,-224.667
 L 105,-228 L 3,-228 L 3,-224.667 L 0,-224.667 L 0,-218 L 3,-218
 L 3,-208 L 11.875,-208 L 11.875,-204 L 19.625,-204 z
M 19.625,-183 L 26.25,-183 L 26.25,-193 L 29.25,-193 L 29.25,-183 L 37.375,-183
 L 37.375,-179 L 45.125,-179 L 45.125,-183 L 52.5,-183 L 52.5,-193 L 55.5,-193
 L 55.5,-183 L 62.875,-183 L 62.875,-179 L 70.625,-179 L 70.625,-183 L 78.75,-183
 L 78.75,-193 L 81.75,-193 L 81.75,-183 L 88.375,-183 L 88.375,-179 L 96.125,-179
 L 96.125,-183 L 105,-183 L 105,-193 L 108,-193 L 108,-199.667 L 105,-199.667
 L 105,-203 L 3,-203 L 3,-199.667 L 0,-199.667 L 0,-193 L 3,-193
 L 3,-183 L 11.875,-183 L 11.875,-179 L 19.625,-179 z
M 19.625,-158 L 26.25,-158 L 26.25,-168 L 29.25,-168 L 29.25,-158 L 37.375,-158
 L 37.375,-154 L 45.125,-154 L 45.125,-158 L 52.5,-158 L 52.5,-168 L 55.5,-168
 L 55.5,-158 L 62.875,-158 L 62.875,-154 L 70.625,-154 L 70.625,-158 L 78.75,-158
 L 78.75,-168 L 81.75,-168 L 81.75,-158 L 88.375,-158 L 88.375,-154 L 96.125,-154
 L 96.125,-158 L 105,-158 L 105,-168 L 108,-168 L 108,-174.667 L 105,-174.667
 L 105,-178 L 3,-178 L 3,-174.667 L 0,-174.667 L 0,-168 L 3,-168
 L 3,-158 L 11.875,-158 L 11.875,-154 L 19.625,-154 z
M 105,-115.286 L 108,-115.286 L 108,-121.571 L 105,-121.571 L 105,-127.857 L 108,-127.857
 L 108,-134.143 L 105,-134.143 L 105,-140.429 L 108,-140.429 L 108,-146.714 L 105,-146.714
 L 105,-153 L 3,-153 L 3,-146.714 L 0,-146.714 L 0,-140.429 L 3,-140.429
 L 3,-134.143 L 0,-134.143 L 0,-127.857 L 3,-127.857 L 3,-121.571 L 0,-121.571
 L 0,-115.286 L 3,-115.286 L 3,-109 L 105,-109 z
M 52.5,-126 L 52.5,-132.667 L 55.5,-132.667 L 55.5,-126 z
M 78.75,-126 L 78.75,-132.667 L 81.75,-132.667 L 81.75,-126 z
M 26.25,-126 L 26.25,-132.667 L 29.25,-132.667 L 29.25,-126 z
M 91.4,-112 L 91.4,-116 L 98.2,-116 L 98.2,-112 z
M 77.8,-112 L 77.8,-116 L 84.6,-116 L 84.6,-112 z
M 64.2,-112 L 64.2,-116 L 71,-116 L 71,-112 z
M 50.6,-112 L 50.6,-116 L 57.4,-116 L 57.4,-112 z
M 37,-112 L 37,-116 L 43.8,-116 L 43.8,-112 z
M 23.4,-112 L 23.4,-116 L 30.2,-116 L 30.2,-112 z
M 9.79999,-112 L 9.79999,-116 L 16.6,-116 L 16.6,-112 z
M 153,-108 L 146.714,-108 L 146.714,-105 L 140.429,-105 L 140.429,-108 L 134.143,-108
 L 134.143,-105 L 127.857,-105 L 127.857,-108 L 121.571,-108 L 121.571,-105 L 115.286,-105
 L 115.286,-108 L 109,-108 L 109,-0 L 153,-0 z
M 112,-95.2941 L 112,-101.647 L 116,-101.647 L 116,-95.2941 z
M 112,-82.5882 L 112,-88.9412 L 116,-88.9412 L 116,-82.5882 z
M 126,-79.75 L 126,-82.75 L 132.667,-82.75 L 132.667,-79.75 z
M 112,-69.8823 L 112,-76.2353 L 116,-76.2353 L 116,-69.8823 z
M 112,-57.1765 L 112,-63.5294 L 116,-63.5294 L 116,-57.1765 z
M 126,-54.5 L 126,-57.5 L 132.667,-57.5 L 132.667,-54.5 z
M 112,-44.4706 L 112,-50.8235 L 116,-50.8235 L 116,-44.4706 z
M 112,-31.7647 L 112,-38.1176 L 116,-38.1176 L 116,-31.7647 z
M 126,-29.25 L 126,-32.25 L 132.667,-32.25 L 132.667,-29.25 z
M 112,-19.0588 L 112,-25.4118 L 116,-25.4118 L 116,-19.0588 z
M 115.286,-3 L 115.286,-6.35294 L 112,-6.35294 L 112,-12.7059 L 116,-12.7059 L 116,-7
 L 121.571,-7 L 121.571,-3 z
M 140.429,-3 L 140.429,-7 L 146.714,-7 L 146.714,-3 z
M 127.857,-3 L 127.857,-7 L 134.143,-7 L 134.143,-3 z
M -1,-108 L -7.28571,-108 L -7.28571,-105 L -13.5714,-105 L -13.5714,-108 L -19.8571,-108
 L -19.8571,-105 L -26.1429,-105 L -26.1429,-108 L -32.4286,-108 L -32.4286,-105 L -38.7143,-105
 L -38.7143,-108 L -45,-108 L -45,-0 L -1,-0 z
M -8,-95.2941 L -8,-101.647 L -4,-101.647 L -4,-95.2941 z
M -8,-82.5882 L -8,-88.9412 L -4,-88.9412 L -4,-82.5882 z
M -24.6667,-79.75 L -24.6667,-82.75 L -18,-82.75 L -18,-79.75 z
M -8,-69.8823 L -8,-76.2353 L -4,-76.2353 L -4,-69.8823 z
M -8,-57.1765 L -8,-63.5294 L -4,-63.5294 L -4,-57.1765 z
M -24.6667,-54.5 L -24.6667,-57.5 L -18,-57.5 L -18,-54.5 z
M -8,-44.4706 L -8,-50.8235 L -4,-50.8235 L -4,-44.4706 z
M -8,-31.7647 L -8,-38.1176 L -4,-38.1176 L -4,-31.7647 z
M -24.6667,-29.25 L -24.6667,-32.25 L -18,-32.25 L -18,-29.25 z
M -8,-19.0588 L -8,-25.4118 L -4,-25.4118 L -4,-19.0588 z
M -13.5714,-3 L -13.5714,-7 L -8,-7 L -8,-12.7059 L -4,-12.7059 L -4,-6.35294
 L -7.28571,-6.35294 L -7.28571,-3 z
M -38.7143,-3 L -38.7143,-7 L -32.4286,-7 L -32.4286,-3 z
M -26.1429,-3 L -26.1429,-7 L -19.8571,-7 L -19.8571,-3 z
M 105,-6.35294 L 108,-6.35294 L 108,-12.7059 L 105,-12.7059 L 105,-19.0588 L 108,-19.0588
 L 108,-25.4118 L 105,-25.4118 L 105,-31.7647 L 108,-31.7647 L 108,-38.1176 L 105,-38.1176
 L 105,-44.4706 L 108,-44.4706 L 108,-50.8235 L 105,-50.8235 L 105,-57.1765 L 108,-57.1765
 L 108,-63.5294 L 105,-63.5294 L 105,-69.8823 L 108,-69.8823 L 108,-76.2353 L 105,-76.2353
 L 105,-82.5882 L 108,-82.5882 L 108,-88.9412 L 105,-88.9412 L 105,-95.2941 L 108,-95.2941
 L 108,-101.647 L 105,-101.647 L 105,-105 L 98.2,-105 L 98.2,-108 L 91.4,-108
 L 91.4,-105 L 84.6,-105 L 84.6,-108 L 77.8,-108 L 77.8,-105 L 71,-105
 L 71,-108 L 64.2,-108 L 64.2,-105 L 57.4,-105 L 57.4,-108 L 50.6,-108
 L 50.6,-105 L 43.8,-105 L 43.8,-108 L 37,-108 L 37,-105 L 30.2,-105
 L 30.2,-108 L 23.4,-108 L 23.4,-105 L 16.6,-105 L 16.6,-108 L 9.79999,-108
 L 9.79999,-105 L 3,-105 L 3,-101.647 L 0,-101.647 L 0,-95.2941 L 3,-95.2941
 L 3,-88.9412 L 0,-88.9412 L 0,-82.5882 L 3,-82.5882 L 3,-76.2353 L 0,-76.2353
 L 0,-69.8823 L 3,-69.8823 L 3,-63.5294 L 0,-63.5294 L 0,-57.1765 L 3,-57.1765
 L 3,-50.8235 L 0,-50.8235 L 0,-44.4706 L 3,-44.4706 L 3,-38.1176 L 0,-38.1176
 L 0,-31.7647 L 3,-31.7647 L 3,-25.4118 L 0,-25.4118 L 0,-19.0588 L 3,-19.0588
 L 3,-12.7059 L 0,-12.7059 L 0,-6.35294 L 3,-6.35294 L 3,-0 L 105,-0
 z
M 26.25,-89.0417 L 26.25,-96.4583 L 29.25,-96.4583 L 29.25,-89.0417 z
M 78.75,-89.0417 L 78.75,-96.4583 L 81.75,-96.4583 L 81.75,-89.0417 z
M 52.5,-89.0417 L 52.5,-96.4583 L 55.5,-96.4583 L 55.5,-89.0417 z
M 11.875,-79.75 L 11.875,-82.75 L 19.625,-82.75 L 19.625,-79.75 z
M 88.375,-79.75 L 88.375,-82.75 L 96.125,-82.75 L 96.125,-79.75 z
M 62.875,-79.75 L 62.875,-82.75 L 70.625,-82.75 L 70.625,-79.75 z
M 37.375,-79.75 L 37.375,-82.75 L 45.125,-82.75 L 45.125,-79.75 z
M 26.25,-64.5417 L 26.25,-71.9583 L 29.25,-71.9583 L 29.25,-64.5417 z
M 78.75,-64.5417 L 78.75,-71.9583 L 81.75,-71.9583 L 81.75,-64.5417 z
M 52.5,-64.5417 L 52.5,-71.9583 L 55.5,-71.9583 L 55.5,-64.5417 z
M 37.375,-54.5 L 37.375,-57.5 L 45.125,-57.5 L 45.125,-54.5 z
M 88.375,-54.5 L 88.375,-57.5 L 96.125,-57.5 L 96.125,-54.5 z
M 11.875,-54.5 L 11.875,-57.5 L 19.625,-57.5 L 19.625,-54.5 z
M 62.875,-54.5 L 62.875,-57.5 L 70.625,-57.5 L 70.625,-54.5 z
M 52.5,-40.0417 L 52.5,-47.4583 L 55.5,-47.4583 L 55.5,-40.0417 z
M 26.25,-40.0417 L 26.25,-47.4583 L 29.25,-47.4583 L 29.25,-40.0417 z
M 78.75,-40.0417 L 78.75,-47.4583 L 81.75,-47.4583 L 81.75,-40.0417 z
M 37.375,-29.25 L 37.375,-32.25 L 45.125,-32.25 L 45.125,-29.25 z
M 88.375,-29.25 L 88.375,-32.25 L 96.125,-32.25 L 96.125,-29.25 z
M 11.875,-29.25 L 11.875,-32.25 L 19.625,-32.25 L 19.625,-29.25 z
M 62.875,-29.25 L 62.875,-32.25 L 70.625,-32.25 L 70.625,-29.25 z
M 26.25,-15.5417 L 26.25,-22.9583 L 29.25,-22.9583 L 29.25,-15.5417 z
M 78.75,-15.5417 L 78.75,-22.9583 L 81.75,-22.9583 L 81.75,-15.5417 z
M 52.5,-15.5417 L 52.5,-22.9583 L 55.5,-22.9583 L 55.5,-15.5417 z
M 91.4,-3 L 91.4,-7 L 98.2,-7 L 98.2,-3 z
M 23.4,-3 L 23.4,-7 L 30.2,-7 L 30.2,-3 z
M 9.79999,-3 L 9.79999,-7 L 16.6,-7 L 16.6,-3 z
M 50.6,-3 L 50.6,-7 L 57.4,-7 L 57.4,-3 z
M 64.2,-3 L 64.2,-7 L 71,-7 L 71,-3 z
M 77.8,-3 L 77.8,-7 L 84.6,-7 L 84.6,-3 z
M 37,-3 L 37,-7 L 43.8,-7 L 43.8,-3 z
M 174.667,-7 L 178,-7 L 178,-29.25 L 168,-29.25 L 168,-32.25 L 178,-32.25
 L 178,-54.5 L 168,-54.5 L 168,-57.5 L 178,-57.5 L 178,-79.75 L 168,-79.75
 L 168,-82.75 L 178,-82.75 L 178,-105 L 174.667,-105 L 174.667,-108 L 168,-108
 L 168,-105 L 158,-105 L 158,-96.4583 L 154,-96.4583 L 154,-89.0417 L 158,-89.0417
 L 158,-71.9583 L 154,-71.9583 L 154,-64.5417 L 158,-64.5417 L 158,-47.4583 L 154,-47.4583
 L 154,-40.0417 L 158,-40.0417 L 158,-22.9583 L 154,-22.9583 L 154,-15.5417 L 158,-15.5417
 L 158,-7 L 168,-7 L 168,-3 L 174.667,-3 z
M 199.667,-7 L 203,-7 L 203,-29.25 L 193,-29.25 L 193,-32.25 L 203,-32.25
 L 203,-54.5 L 193,-54.5 L 193,-57.5 L 203,-57.5 L 203,-79.75 L 193,-79.75
 L 193,-82.75 L 203,-82.75 L 203,-105 L 199.667,-105 L 199.667,-108 L 193,-108
 L 193,-105 L 183,-105 L 183,-96.4583 L 179,-96.4583 L 179,-89.0417 L 183,-89.0417
 L 183,-71.9583 L 179,-71.9583 L 179,-64.5417 L 183,-64.5417 L 183,-47.4583 L 179,-47.4583
 L 179,-40.0417 L 183,-40.0417 L 183,-22.9583 L 179,-22.9583 L 179,-15.5417 L 183,-15.5417
 L 183,-7 L 193,-7 L 193,-3 L 199.667,-3 z
M 224.667,-7 L 228,-7 L 228,-29.25 L 218,-29.25 L 218,-32.25 L 228,-32.25
 L 228,-54.5 L 218,-54.5 L 218,-57.5 L 228,-57.5 L 228,-79.75 L 218,-79.75
 L 218,-82.75 L 228,-82.75 L 228,-105 L 224.667,-105 L 224.667,-108 L 218,-108
 L 218,-105 L 208,-105 L 208,-96.4583 L 204,-96.4583 L 204,-89.0417 L 208,-89.0417
 L 208,-71.9583 L 204,-71.9583 L 204,-64.5417 L 208,-64.5417 L 208,-47.4583 L 204,-47.4583
 L 204,-40.0417 L 208,-40.0417 L 208,-22.9583 L 204,-22.9583 L 204,-15.5417 L 208,-15.5417
 L 208,-7 L 218,-7 L 218,-3 L 224.667,-3 z
M 105,38.7143 L 108,38.7143 L 108,32.4286 L 105,32.4286 L 105,26.1429 L 108,26.1429
 L 108,19.8571 L 105,19.8571 L 105,13.5714 L 108,13.5714 L 108,7.28571 L 105,7.28571
 L 105,5 L 98.2,5 L 98.2,1 L 91.4,1 L 91.4,5 L 84.6,5
 L 84.6,1 L 77.8,1 L 77.8,5 L 71,5 L 71,1 L 64.2,1
 L 64.2,5 L 57.4,5 L 57.4,1 L 50.6,1 L 50.6,5 L 43.8,5
 L 43.8,1 L 37,1 L 37,5 L 30.2,5 L 30.2,1 L 23.4,1
 L 23.4,5 L 16.6,5 L 16.6,1 L 9.79999,1 L 9.79999,5 L 3,5
 L 3,7.28571 L 0,7.28571 L 0,13.5714 L 3,13.5714 L 3,19.8571 L 0,19.8571
 L 0,26.1429 L 3,26.1429 L 3,32.4286 L 0,32.4286 L 0,38.7143 L 3,38.7143
 L 3,42 L 105,42 z
M 78.75,24.6667 L 78.75,18 L 81.75,18 L 81.75,24.6667 z
M 26.25,24.6667 L 26.25,18 L 29.25,18 L 29.25,24.6667 z
M 52.5,24.6667 L 52.5,18 L 55.5,18 L 55.5,24.6667 z
" stroke="black" fill="lightgray" stroke-width="0.5"/>
</svg>
