<?xml version="1.0" standalone="no"?>
<!DOCTYPE svg PUBLIC "-//W3C//DTD SVG 1.1//EN" "http://www.w3.org/Graphics/SVG/1.1/DTD/svg11.dtd">
<svg width="349mm" height="333mm" viewBox="-53 -288 349 333" xmlns="http://www.w3.org/2000/svg" version="1.1">
<title>OpenSCAD Model</title>
<path d="
M 19.625,-248 L 26.25,-248 L 26.25,-268 L 29.25,-268 L 29.25,-248 L 37.375,-248
 L 37.375,-244 L 45.125,-244 L 45.125,-248 L 52.5,-248 L 52.5,-268 L 55.5,-268
 L 55.5,-248 L 62.875,-248 L 62.875,-244 L 70.625,-244 L 70.625,-248 L 78.75,-248
 L 78.75,-268 L 81.75,-268 L 81.75,-248 L 88.375,-248 L 88.375,-244 L 96.125,-244
 L 96.125,-248 L 105,-248 L 105,-268 L 108,-268 L 108,-281.333 L 105,-281.333
 L 105,-288 L 3,-288 L 3,-281.333 L 0,-281.333 L 0,-268 L 3,-268
 L 3,-248 L 11.875,-248 L 11.875,-244 L 19.625,-244 z
M 19.625,-203 L 26.25,-203 L 26.25,-223 L 29.25,-223 L 29.25,-203 L 37.375,-203
 L 37.375,-199 L 45.125,-199 L 45.125,-203 L 52.5,-203 L 52.5,-223 L 55.5,-223
 L 55.5,-203 L 62.875,-203 L 62.875,-199 L 70.625,-199 L 70.625,-203 L 78.75,-203
 L 78.75,-223 L 81.75,-223 L 81.75,-203 L 88.375,-203 L 88.375,-199 L 96.125,-199
 L 96.125,-203 L 105,-203 L 105,-223 L 108,-223 L 108,-236.333 L 105,-236.333
 L 105,-243 L 3,-243 L 3,-236.333 L 0,-236.333 L 0,-223 L 3,-223
 L 3,-203 L 11.875,-203 L 11.875,-199 L 19.625,-199 z
M 19.625,-158 L 26.25,-158 L 26.25,-178 L 29.25,-178 L 29.25,-158 L 37.375,-158
 L 37.375,-154 L 45.125,-154 L 45.125,-158 L 52.5,-158 L 52.5,-178 L 55.5,-178
 L 55.5,-158 L 62.875,-158 L 62.875,-154 L 70.625,-154 L 70.625,-158 L 78.75,-158
 L 78.75,-178 L 81.75,-178 L 81.75,-158 L 88.375,-158 L 88.375,-154 L 96.125,-154
 L 96.125,-158 L 105,-158 L 105,-178 L 108,-178 L 108,-191.333 L 105,-191.333
 L 105,-198 L 3,-198 L 3,-191.333 L 0,-191.333 L 0,-178 L 3,-178
 L 3,-158 L 11.875,-158 L 11.875,-154 L 19.625,-154 z
M 9.79999,-113 L 16.6,-113 L 16.6,-109 L 23.4,-109 L 23.4,-113 L 30.2,-113
 L 30.2,-109 L 37,-109 L 37,-113 L 43.8,-113 L 43.8,-109 L 50.6,-109
 L 50.6,-113 L 57.4,-113 L 57.4,-109 L 64.2,-109 L 64.2,-113 L 71,-113
 L 71,-109 L 77.8,-109 L 77.8,-113 L 84.6,-113 L 84.6,-109 L 91.4,-109
 L 91.4,-113 L 98.2,-113 L 98.2,-109 L 105,-109 L 105,-115.286 L 108,-115.286
 L 108,-121.571 L 105,-121.571 L 105,-127.857 L 108,-127.857 L 108,-134.143 L 105,-134.143
 L 105,-140.429 L 108,-140.429 L 108,-146.714 L 105,-146.714 L 105,-153 L 3,-153
 L 3,-146.714 L 0,-146.714 L 0,-140.429 L 3,-140.429 L 3,-134.143 L 0,-134.143
 L 0,-127.857 L 3,-127.857 L 3,-121.571 L 0,-121.571 L 0,-115.286 L 3,-115.286
 L 3,-109 L 9.79999,-109 z
M 26.25,-133 L 26.25,-146.333 L 29.25,-146.333 L 29.25,-133 z
M 52.5,-133 L 52.5,-146.333 L 55.5,-146.333 L 55.5,-133 z
M 78.75,-133 L 78.75,-146.333 L 81.75,-146.333 L 81.75,-133 z
M 161,-108 L 154.714,-108 L 154.714,-105 L 148.429,-105 L 148.429,-108 L 142.143,-108
 L 142.143,-105 L 135.857,-105 L 135.857,-108 L 129.571,-108 L 129.571,-105 L 123.286,-105
 L 123.286,-108 L 117,-108 L 117,-101.647 L 121,-101.647 L 121,-95.2941 L 117,-95.2941
 L 117,-88.9412 L 121,-88.9412 L 121,-82.5882 L 117,-82.5882 L 117,-76.2353 L 121,-76.2353
 L 121,-69.8823 L 117,-69.8823 L 117,-63.5294 L 121,-63.5294 L 121,-57.1765 L 117,-57.1765
 L 117,-50.8235 L 121,-50.8235 L 121,-44.4706 L 117,-44.4706 L 117,-38.1176 L 121,-38.1176
 L 121,-31.7647 L 117,-31.7647 L 117,-25.4118 L 121,-25.4118 L 121,-19.0588 L 117,-19.0588
 L 117,-12.7059 L 121,-12.7059 L 121,-6.35294 L 117,-6.35294 L 117,-0 L 161,-0
 z
M 141,-79.75 L 141,-82.75 L 154.333,-82.75 L 154.333,-79.75 z
M 141,-54.5 L 141,-57.5 L 154.333,-57.5 L 154.333,-54.5 z
M 141,-29.25 L 141,-32.25 L 154.333,-32.25 L 154.333,-29.25 z
M 148.429,-3 L 148.429,-7 L 154.714,-7 L 154.714,-3 z
M 135.857,-3 L 135.857,-7 L 142.143,-7 L 142.143,-3 z
M 123.286,-3 L 123.286,-7 L 129.571,-7 L 129.571,-3 z
M -9,-6.35294 L -13,-6.35294 L -13,-12.7059 L -9,-12.7059 L -9,-19.0588 L -13,-19.0588
 L -13,-25.4118 L -9,-25.4118 L -9,-31.7647 L -13,-31.7647 L -13,-38.1176 L -9,-38.1176
 L -9,-44.4706 L -13,-44.4706 L -13,-50.8235 L -9,-50.8235 L -9,-57.1765 L -13,-57.1765
 L -13,-63.5294 L -9,-63.5294 L -9,-69.8823 L -13,-69.8823 L -13,-76.2353 L -9,-76.2353
 L -9,-82.5882 L -13,-82.5882 L -13,-88.9412 L -9,-88.9412 L -9,-95.2941 L -13,-95.2941
 L -13,-101.647 L -9,-101.647 L -9,-108 L -15.2857,-108 L -15.2857,-105 L -21.5714,-105
 L -21.5714,-108 L -27.8571,-108 L -27.8571,-105 L -34.1429,-105 L -34.1429,-108 L -40.4286,-108
 L -40.4286,-105 L -46.7143,-105 L -46.7143,-108 L -53,-108 L -53,-0 L -9,-0
 z
M -46.3333,-79.75 L -46.3333,-82.75 L -33,-82.75 L -33,-79.75 z
M -46.3333,-54.5 L -46.3333,-57.5 L -33,-57.5 L -33,-54.5 z
M -46.3333,-29.25 L -46.3333,-32.25 L -33,-32.25 L -33,-29.25 z
M -21.5714,-3 L -21.5714,-7 L -15.2857,-7 L -15.2857,-3 z
M -34.1429,-3 L -34.1429,-7 L -27.8571,-7 L -27.8571,-3 z
M -46.7143,-3 L -46.7143,-7 L -40.4286,-7 L -40.4286,-3 z
M 289.333,-7 L 296,-7 L 296,-29.25 L 276,-29.25 L 276,-32.25 L 296,-32.25
 L 296,-54.5 L 276,-54.5 L 276,-57.5 L 296,-57.5 L 296,-79.75 L 276,-79.75
 L 276,-82.75 L 296,-82.75 L 296,-105 L 289.333,-105 L 289.333,-108 L 276,-108
 L 276,-105 L 256,-105 L 256,-96.4583 L 252,-96.4583 L 252,-89.0417 L 256,-89.0417
 L 256,-71.9583 L 252,-71.9583 L 252,-64.5417 L 256,-64.5417 L 256,-47.4583 L 252,-47.4583
 L 252,-40.0417 L 256,-40.0417 L 256,-22.9583 L 252,-22.9583 L 252,-15.5417 L 256,-15.5417
 L 256,-7 L 276,-7 L 276,-3 L 289.333,-3 z
M 199.333,-7 L 206,-7 L 206,-29.25 L 186,-29.25 L 186,-32.25 L 206,-32.25
 L 206,-54.5 L 186,-54.5 L 186,-57.5 L 206,-57.5 L 206,-79.75 L 186,-79.75
 L 186,-82.75 L 206,-82.75 L 206,-105 L 199.333,-105 L 199.333,-108 L 186,-108
 L 186,-105 L 166,-105 L 166,-96.4583 L 162,-96.4583 L 162,-89.0417 L 166,-89.0417
 L 166,-71.9583 L 162,-71.9583 L 162,-64.5417 L 166,-64.5417 L 166,-47.4583 L 162,-47.4583
 L 162,-40.0417 L 166,-40.0417 L 166,-22.9583 L 162,-22.9583 L 162,-15.5417 L 166,-15.5417
 L 166,-7 L 186,-7 L 186,-3 L 199.333,-3 z
M 244.333,-7 L 251,-7 L 251,-29.25 L 231,-29.25 L 231,-32.25 L 251,-32.25
 L 251,-54.5 L 231,-54.5 L 231,-57.5 L 251,-57.5 L 251,-79.75 L 231,-79.75
 L 231,-82.75 L 251,-82.75 L 251,-105 L 244.333,-105 L 244.333,-108 L 231,-108
 L 231,-105 L 211,-105 L 211,-96.4583 L 207,-96.4583 L 207,-89.0417 L 211,-89.0417
 L 211,-71.9583 L 207,-71.9583 L 207,-64.5417 L 211,-64.5417 L 211,-47.4583 L 207,-47.4583
 L 207,-40.0417 L 211,-40.0417 L 211,-22.9583 L 207,-22.9583 L 207,-15.5417 L 211,-15.5417
 L 211,-7 L 231,-7 L 231,-3 L 244.333,-3 z
M 0,-6.35294 L 3,-6.35294 L 3,-0 L 105,-0 L 105,-6.35294 L 108,-6.35294
 L 108,-0 L 116,-0 L 116,-108 L 108,-108 L 108,-101.647 L 105,-101.647
 L 105,-105 L 98.2,-105 L 98.2,-108 L 91.4,-108 L 91.4,-105 L 84.6,-105
 L 84.6,-108 L 77.8,-108 L 77.8,-105 L 71,-105 L 71,-108 L 64.2,-108
 L 64.2,-105 L 57.4,-105 L 57.4,-108 L 50.6,-108 L 50.6,-105 L 43.8,-105
 L 43.8,-108 L 37,-108 L 37,-105 L 30.2,-105 L 30.2,-108 L 23.4,-108
 L 23.4,-105 L 16.6,-105 L 16.6,-108 L 9.79999,-108 L 9.79999,-105 L 3,-105
 L 3,-101.647 L 0,-101.647 L 0,-108 L -8,-108 L -8,-0 L 0,-0
 z
M 26.25,-89.0417 L 26.25,-96.4583 L 29.25,-96.4583 L 29.25,-89.0417 z
M 78.75,-89.0417 L 78.75,-96.4583 L 81.75,-96.4583 L 81.75,-89.0417 z
M 52.5,-89.0417 L 52.5,-96.4583 L 55.5,-96.4583 L 55.5,-89.0417 z
M 0,-88.9412 L 0,-95.2941 L 3,-95.2941 L 3,-88.9412 z
M 105,-88.9412 L 105,-95.2941 L 108,-95.2941 L 108,-88.9412 z
M 88.375,-79.75 L 88.375,-82.75 L 96.125,-82.75 L 96.125,-79.75 z
M 37.375,-79.75 L 37.375,-82.75 L 45.125,-82.75 L 45.125,-79.75 z
M 62.875,-79.75 L 62.875,-82.75 L 70.625,-82.75 L 70.625,-79.75 z
M 11.875,-79.75 L 11.875,-82.75 L 19.625,-82.75 L 19.625,-79.75 z
M 105,-76.2353 L 105,-82.5882 L 108,-82.5882 L 108,-76.2353 z
M 0,-76.2353 L 0,-82.5882 L 3,-82.5882 L 3,-76.2353 z
M 26.25,-64.5417 L 26.25,-71.9583 L 29.25,-71.9583 L 29.25,-64.5417 z
M 78.75,-64.5417 L 78.75,-71.9583 L 81.75,-71.9583 L 81.75,-64.5417 z
M 52.5,-64.5417 L 52.5,-71.9583 L 55.5,-71.9583 L 55.5,-64.5417 z
M 105,-63.5294 L 105,-69.8823 L 108,-69.8823 L 108,-63.5294 z
M 0,-63.5294 L 0,-69.8823 L 3,-69.8823 L 3,-63.5294 z
M 11.875,-54.5 L 11.875,-57.5 L 19.625,-57.5 L 19.625,-54.5 z
M 88.375,-54.5 L 88.375,-57.5 L 96.125,-57.5 L 96.125,-54.5 z
M 62.875,-54.5 L 62.875,-57.5 L 70.625,-57.5 L 70.625,-54.5 z
M 37.375,-54.5 L 37.375,-57.5 L 45.125,-57.5 L 45.125,-54.5 z
M 0,-50.8235 L 0,-57.1765 L 3,-57.1765 L 3,-50.8235 z
M 105,-50.8235 L 105,-57.1765 L 108,-57.1765 L 108,-50.8235 z
M 26.25,-40.0417 L 26.25,-47.4583 L 29.25,-47.4583 L 29.25,-40.0417 z
M 52.5,-40.0417 L 52.5,-47.4583 L 55.5,-47.4583 L 55.5,-40.0417 z
M 78.75,-40.0417 L 78.75,-47.4583 L 81.75,-47.4583 L 81.75,-40.0417 z
M 0,-38.1176 L 0,-44.4706 L 3,-44.4706 L 3,-38.1176 z
M 105,-38.1176 L 105,-44.4706 L 108,-44.4706 L 108,-38.1176 z
M 37.375,-29.25 L 37.375,-32.25 L 45.125,-32.25 L 45.125,-29.25 z
M 62.875,-29.25 L 62.875,-32.25 L 70.625,-32.25 L 70.625,-29.25 z
M 11.875,-29.25 L 11.875,-32.25 L 19.625,-32.25 L 19.625,-29.25 z
M 88.375,-29.25 L 88.375,-32.25 L 96.125,-32.25 L 96.125,-29.25 z
M 0,-25.4118 L 0,-31.7647 L 3,-31.7647 L 3,-25.4118 z
M 105,-25.4118 L 105,-31.7647 L 108,-31.7647 L 108,-25.4118 z
M 26.25,-15.5417 L 26.25,-22.9583 L 29.25,-22.9583 L 29.25,-15.5417 z
M 78.75,-15.5417 L 78.75,-22.9583 L 81.75,-22.9583 L 81.75,-15.5417 z
M 52.5,-15.5417 L 52.5,-22.9583 L 55.5,-22.9583 L 55.5,-15.5417 z
M 0,-12.7059 L 0,-19.0588 L 3,-19.0588 L 3,-12.7059 z
M 105,-12.7059 L 105,-19.0588 L 108,-19.0588 L 108,-12.7059 z
M 23.4,-3 L 23.4,-7 L 30.2,-7 L 30.2,-3 z
M 91.4,-3 L 91.4,-7 L 98.2,-7 L 98.2,-3 z
M 77.8,-3 L 77.8,-7 L 84.6,-7 L 84.6,-3 z
M 64.2,-3 L 64.2,-7 L 71,-7 L 71,-3 z
M 50.6,-3 L 50.6,-7 L 57.4,-7 L 57.4,-3 z
M 37,-3 L 37,-7 L 43.8,-7 L 43.8,-3 z
M 9.79999,-3 L 9.79999,-7 L 16.6,-7 L 16.6,-3 z
M 105,38.7143 L 108,38.7143 L 108,32.4286 L 105,32.4286 L 105,26.1429 L 108,26.1429
 L 108,19.8571 L 105,19.8571 L 105,13.5714 L 108,13.5714 L 108,7.28571 L 105,7.28571
 L 105,5 L 98.2,5 L 98.2,1 L 91.4,1 L 91.4,5 L 84.6,5
 L 84.6,1 L 77.8,1 L 77.8,5 L 71,5 L 71,1 L 64.2,1
 L 64.2,5 L 57.4,5 L 57.4,1 L 50.6,1 L 50.6,5 L 43.8,5
 L 43.8,1 L 37,1 L 37,5 L 30.2,5 L 30.2,1 L 23.4,1
 L 23.4,5 L 16.6,5 L 16.6,1 L 9.79999,1 L 9.79999,5 L 3,5
 L 3,7.28571 L 0,7.28571 L 0,13.5714 L 3,13.5714 L 3,19.8571 L 0,19.8571
 L 0,26.1429 L 3,26.1429 L 3,32.4286 L 0,32.4286 L 0,38.7143 L 3,38.7143
 L 3,45 L 105,45 z
M 26.25,38.3333 L 26.25,25 L 29.25,25 L 29.25,38.3333 z
M 52.5,38.3333 L 52.5,25 L 55.5,25 L 55.5,38.3333 z
M 78.75,38.3333 L 78.75,25 L 81.75,25 L 81.75,38.3333 z
" stroke="black" fill="lightgray" stroke-width="0.5"/>
</svg>
