<?xml version="1.0" standalone="no"?>
<!DOCTYPE svg PUBLIC "-//W3C//DTD SVG 1.1//EN" "http://www.w3.org/Graphics/SVG/1.1/DTD/svg11.dtd">
<svg width="198mm" height="198mm" viewBox="-99 -99 198 198" xmlns="http://www.w3.org/2000/svg" version="1.1">
<title>OpenSCAD Model</title>
<path d="
M -44.2,-58 L -37.4,-58 L -37.4,-55 L -30.6,-55 L -30.6,-58 L -23.8,-58
 L -23.8,-55 L -17,-55 L -17,-58 L -10.2,-58 L -10.2,-55 L -3.39999,-55
 L -3.39999,-58 L 3.39999,-58 L 3.39999,-55 L 10.2,-55 L 10.2,-58 L 17,-58
 L 17,-55 L 23.8,-55 L 23.8,-58 L 30.6,-58 L 30.6,-55 L 37.4,-55
 L 37.4,-58 L 44.2,-58 L 44.2,-55 L 51,-55 L 51,-61.2857 L 54,-61.2857
 L 54,-67.5714 L 51,-67.5714 L 51,-73.8571 L 54,-73.8571 L 54,-80.1429 L 51,-80.1429
 L 51,-86.4286 L 54,-86.4286 L 54,-92.7143 L 51,-92.7143 L 51,-99 L -51,-99
 L -51,-92.7143 L -54,-92.7143 L -54,-86.4286 L -51,-86.4286 L -51,-80.1429 L -54,-80.1429
 L -54,-73.8571 L -51,-73.8571 L -51,-67.5714 L -54,-67.5714 L -54,-61.2857 L -51,-61.2857
 L -51,-55 L -44.2,-55 z
M -92.7143,51 L -86.4286,51 L -86.4286,54 L -80.1429,54 L -80.1429,51 L -73.8571,51
 L -73.8571,54 L -67.5714,54 L -67.5714,51 L -61.2857,51 L -61.2857,54 L -55,54
 L -55,47.647 L -58,47.647 L -58,41.2941 L -55,41.2941 L -55,34.9412 L -58,34.9412
 L -58,28.5882 L -55,28.5882 L -55,22.2353 L -58,22.2353 L -58,15.8823 L -55,15.8823
 L -55,9.5294 L -58,9.5294 L -58,3.17647 L -55,3.17647 L -55,-3.17647 L -58,-3.17647
 L -58,-9.5294 L -55,-9.5294 L -55,-15.8823 L -58,-15.8823 L -58,-22.2353 L -55,-22.2353
 L -55,-28.5882 L -58,-28.5882 L -58,-34.9412 L -55,-34.9412 L -55,-41.2941 L -58,-41.2941
 L -58,-47.647 L -55,-47.647 L -55,-54 L -61.2857,-54 L -61.2857,-51 L -67.5714,-51
 L -67.5714,-54 L -73.8571,-54 L -73.8571,-51 L -80.1429,-51 L -80.1429,-54 L -86.4286,-54
 L -86.4286,-51 L -92.7143,-51 L -92.7143,-54 L -99,-54 L -99,54 L -92.7143,54
 z
M -37.4,51 L -30.6,51 L -30.6,54 L -23.8,54 L -23.8,51 L -17,51
 L -17,54 L -10.2,54 L -10.2,51 L -3.39999,51 L -3.39999,54 L 3.39999,54
 L 3.39999,51 L 10.2,51 L 10.2,54 L 17,54 L 17,51 L 23.8,51
 L 23.8,54 L 30.6,54 L 30.6,51 L 37.4,51 L 37.4,54 L 44.2,54
 L 44.2,51 L 51,51 L 51,47.647 L 54,47.647 L 54,41.2941 L 51,41.2941
 L 51,34.9412 L 54,34.9412 L 54,28.5882 L 51,28.5882 L 51,22.2353 L 54,22.2353
 L 54,15.8823 L 51,15.8823 L 51,9.5294 L 54,9.5294 L 54,3.17647 L 51,3.17647
 L 51,-3.17645 L 54,-3.17645 L 54,-9.5294 L 51,-9.5294 L 51,-15.8823 L 54,-15.8823
 L 54,-22.2353 L 51,-22.2353 L 51,-28.5882 L 54,-28.5882 L 54,-34.9412 L 51,-34.9412
 L 51,-41.2941 L 54,-41.2941 L 54,-47.647 L 51,-47.647 L 51,-51 L 44.2,-51
 L 44.2,-54 L 37.4,-54 L 37.4,-51 L 30.6,-51 L 30.6,-54 L 23.8,-54
 L 23.8,-51 L 17,-51 L 17,-54 L 10.2,-54 L 10.2,-51 L 3.39999,-51
 L 3.39999,-54 L -3.39999,-54 L -3.39999,-51 L -10.2,-51 L -10.2,-54 L -17,-54
 L -17,-51 L -23.8,-51 L -23.8,-54 L -30.6,-54 L -30.6,-51 L -37.4,-51
 L -37.4,-54 L -44.2,-54 L -44.2,-51 L -51,-51 L -51,-47.647 L -54,-47.647
 L -54,-41.2941 L -51,-41.2941 L -51,-34.9412 L -54,-34.9412 L -54,-28.5882 L -51,-28.5882
 L -51,-22.2353 L -54,-22.2353 L -54,-15.8823 L -51,-15.8823 L -51,-9.5294 L -54,-9.5294
 L -54,-3.17645 L -51,-3.17645 L -51,3.17647 L -54,3.17647 L -54,9.5294 L -51,9.5294
 L -51,15.8823 L -54,15.8823 L -54,22.2353 L -51,22.2353 L -51,28.5882 L -54,28.5882
 L -54,34.9412 L -51,34.9412 L -51,41.2941 L -54,41.2941 L -54,47.647 L -51,47.647
 L -51,51 L -44.2,51 L -44.2,54 L -37.4,54 z
M 61.2857,51 L 67.5714,51 L 67.5714,54 L 73.8571,54 L 73.8571,51 L 80.1429,51
 L 80.1429,54 L 86.4286,54 L 86.4286,51 L 92.7143,51 L 92.7143,54 L 99,54
 L 99,-54 L 92.7143,-54 L 92.7143,-51 L 86.4286,-51 L 86.4286,-54 L 80.1429,-54
 L 80.1429,-51 L 73.8571,-51 L 73.8571,-54 L 67.5714,-54 L 67.5714,-51 L 61.2857,-51
 L 61.2857,-54 L 55,-54 L 55,-47.647 L 58,-47.647 L 58,-41.2941 L 55,-41.2941
 L 55,-34.9412 L 58,-34.9412 L 58,-28.5882 L 55,-28.5882 L 55,-22.2353 L 58,-22.2353
 L 58,-15.8823 L 55,-15.8823 L 55,-9.5294 L 58,-9.5294 L 58,-3.17647 L 55,-3.17647
 L 55,3.17647 L 58,3.17647 L 58,9.5294 L 55,9.5294 L 55,15.8823 L 58,15.8823
 L 58,22.2353 L 55,22.2353 L 55,28.5882 L 58,28.5882 L 58,34.9412 L 55,34.9412
 L 55,41.2941 L 58,41.2941 L 58,47.647 L 55,47.647 L 55,54 L 61.2857,54
 z
M 51,92.7143 L 54,92.7143 L 54,86.4286 L 51,86.4286 L 51,80.1429 L 54,80.1429
 L 54,73.8571 L 51,73.8571 L 51,67.5714 L 54,67.5714 L 54,61.2857 L 51,61.2857
 L 51,55 L 44.2,55 L 44.2,58 L 37.4,58 L 37.4,55 L 30.6,55
 L 30.6,58 L 23.8,58 L 23.8,55 L 17,55 L 17,58 L 10.2,58
 L 10.2,55 L 3.39999,55 L 3.39999,58 L -3.39999,58 L -3.39999,55 L -10.2,55
 L -10.2,58 L -17,58 L -17,55 L -23.8,55 L -23.8,58 L -30.6,58
 L -30.6,55 L -37.4,55 L -37.4,58 L -44.2,58 L -44.2,55 L -51,55
 L -51,61.2857 L -54,61.2857 L -54,67.5714 L -51,67.5714 L -51,73.8571 L -54,73.8571
 L -54,80.1429 L -51,80.1429 L -51,86.4286 L -54,86.4286 L -54,92.7143 L -51,92.7143
 L -51,99 L 51,99 z
" stroke="black" fill="lightgray" stroke-width="0.5"/>
</svg>
