<?xml version="1.0" standalone="no"?>
<!DOCTYPE svg PUBLIC "-//W3C//DTD SVG 1.1//EN" "http://www.w3.org/Graphics/SVG/1.1/DTD/svg11.dtd">
<svg width="241mm" height="241mm" viewBox="-99 -142 241 241" xmlns="http://www.w3.org/2000/svg" version="1.1">
<title>OpenSCAD Model</title>
<path d="
M -29.5,-104 L -19,-104 L -19,-123 L -16,-123 L -16,-104 L -4.5,-104
 L -4.5,-101 L 4.5,-101 L 4.5,-104 L 16,-104 L 16,-123 L 19,-123
 L 19,-104 L 29.5,-104 L 29.5,-101 L 38.5,-101 L 38.5,-104 L 51,-104
 L 51,-124 L 54,-124 L 54,-133 L 51,-133 L 51,-142 L -51,-142
 L -51,-133 L -54,-133 L -54,-124 L -51,-124 L -51,-104 L -38.5,-104
 L -38.5,-101 L -29.5,-101 z
M 51,-61.2857 L 54,-61.2857 L 54,-67.5714 L 51,-67.5714 L 51,-73.8571 L 54,-73.8571
 L 54,-80.1429 L 51,-80.1429 L 51,-86.4286 L 54,-86.4286 L 54,-92.7143 L 51,-92.7143
 L 51,-99 L -51,-99 L -51,-92.7143 L -54,-92.7143 L -54,-86.4286 L -51,-86.4286
 L -51,-80.1429 L -54,-80.1429 L -54,-73.8571 L -51,-73.8571 L -51,-67.5714 L -54,-67.5714
 L -54,-61.2857 L -51,-61.2857 L -51,-55 L 51,-55 z
M -19,-81 L -19,-90 L -16,-90 L -16,-81 z
M 16,-81 L 16,-90 L 19,-90 L 19,-81 z
M 37.4,-58 L 37.4,-61 L 44.2,-61 L 44.2,-58 z
M 23.8,-58 L 23.8,-61 L 30.6,-61 L 30.6,-58 z
M 10.2,-58 L 10.2,-61 L 17,-61 L 17,-58 z
M -3.39999,-58 L -3.39999,-61 L 3.39999,-61 L 3.39999,-58 z
M -17,-58 L -17,-61 L -10.2,-61 L -10.2,-58 z
M -30.6,-58 L -30.6,-61 L -23.8,-61 L -23.8,-58 z
M -44.2,-58 L -44.2,-61 L -37.4,-61 L -37.4,-58 z
M 51,47.647 L 54,47.647 L 54,41.2941 L 51,41.2941 L 51,34.9412 L 54,34.9412
 L 54,28.5882 L 51,28.5882 L 51,22.2353 L 54,22.2353 L 54,15.8823 L 51,15.8823
 L 51,9.5294 L 54,9.5294 L 54,3.17647 L 51,3.17647 L 51,-3.17645 L 54,-3.17645
 L 54,-9.5294 L 51,-9.5294 L 51,-15.8823 L 54,-15.8823 L 54,-22.2353 L 51,-22.2353
 L 51,-28.5882 L 54,-28.5882 L 54,-34.9412 L 51,-34.9412 L 51,-41.2941 L 54,-41.2941
 L 54,-47.647 L 51,-47.647 L 51,-51 L 44.2,-51 L 44.2,-54 L 37.4,-54
 L 37.4,-51 L 30.6,-51 L 30.6,-54 L 23.8,-54 L 23.8,-51 L 17,-51
 L 17,-54 L 10.2,-54 L 10.2,-51 L 3.39999,-51 L 3.39999,-54 L -3.39999,-54
 L -3.39999,-51 L -10.2,-51 L -10.2,-54 L -17,-54 L -17,-51 L -23.8,-51
 L -23.8,-54 L -30.6,-54 L -30.6,-51 L -37.4,-51 L -37.4,-54 L -44.2,-54
 L -44.2,-51 L -51,-51 L -51,-47.647 L -54,-47.647 L -54,-41.2941 L -51,-41.2941
 L -51,-34.9412 L -54,-34.9412 L -54,-28.5882 L -51,-28.5882 L -51,-22.2353 L -54,-22.2353
 L -54,-15.8823 L -51,-15.8823 L -51,-9.5294 L -54,-9.5294 L -54,-3.17645 L -51,-3.17645
 L -51,3.17647 L -54,3.17647 L -54,9.5294 L -51,9.5294 L -51,15.8823 L -54,15.8823
 L -54,22.2353 L -51,22.2353 L -51,28.5882 L -54,28.5882 L -54,34.9412 L -51,34.9412
 L -51,41.2941 L -54,41.2941 L -54,47.647 L -51,47.647 L -51,54 L 51,54
 z
M -19,-30.1667 L -19,-39.1667 L -16,-39.1667 L -16,-30.1667 z
M 16,-30.1667 L 16,-39.1667 L 19,-39.1667 L 19,-30.1667 z
M -38.5,-17.3333 L -38.5,-20.3333 L -29.5,-20.3333 L -29.5,-17.3333 z
M 29.5,-17.3333 L 29.5,-20.3333 L 38.5,-20.3333 L 38.5,-17.3333 z
M -4.5,-17.3333 L -4.5,-20.3333 L 4.5,-20.3333 L 4.5,-17.3333 z
M -19,2.5 L -19,-6.5 L -16,-6.5 L -16,2.5 z
M 16,2.5 L 16,-6.5 L 19,-6.5 L 19,2.5 z
M 29.5,16.3333 L 29.5,13.3333 L 38.5,13.3333 L 38.5,16.3333 z
M -4.5,16.3333 L -4.5,13.3333 L 4.5,13.3333 L 4.5,16.3333 z
M -38.5,16.3333 L -38.5,13.3333 L -29.5,13.3333 L -29.5,16.3333 z
M -19,35.1667 L -19,26.1667 L -16,26.1667 L -16,35.1667 z
M 16,35.1667 L 16,26.1667 L 19,26.1667 L 19,35.1667 z
M 37.4,51 L 37.4,47 L 44.2,47 L 44.2,51 z
M 23.8,51 L 23.8,47 L 30.6,47 L 30.6,51 z
M 10.2,51 L 10.2,47 L 17,47 L 17,51 z
M -3.39999,51 L -3.39999,47 L 3.39999,47 L 3.39999,51 z
M -17,51 L -17,47 L -10.2,47 L -10.2,51 z
M -30.6,51 L -30.6,47 L -23.8,47 L -23.8,51 z
M -44.2,51 L -44.2,47 L -37.4,47 L -37.4,51 z
M 99,-54 L 92.7143,-54 L 92.7143,-51 L 86.4286,-51 L 86.4286,-54 L 80.1429,-54
 L 80.1429,-51 L 73.8571,-51 L 73.8571,-54 L 67.5714,-54 L 67.5714,-51 L 61.2857,-51
 L 61.2857,-54 L 55,-54 L 55,54 L 99,54 z
M 58,-41.2941 L 58,-47.647 L 61,-47.647 L 61,-41.2941 z
M 58,-28.5882 L 58,-34.9412 L 61,-34.9412 L 61,-28.5882 z
M 58,-15.8823 L 58,-22.2353 L 61,-22.2353 L 61,-15.8823 z
M 81,-17.3333 L 81,-20.3333 L 90,-20.3333 L 90,-17.3333 z
M 58,-3.17647 L 58,-9.5294 L 61,-9.5294 L 61,-3.17647 z
M 58,9.5294 L 58,3.17647 L 61,3.17647 L 61,9.5294 z
M 81,16.3333 L 81,13.3333 L 90,13.3333 L 90,16.3333 z
M 58,22.2353 L 58,15.8823 L 61,15.8823 L 61,22.2353 z
M 58,34.9412 L 58,28.5882 L 61,28.5882 L 61,34.9412 z
M 58,47.647 L 58,41.2941 L 61,41.2941 L 61,47.647 z
M 86.4286,51 L 86.4286,47 L 92.7143,47 L 92.7143,51 z
M 61.2857,51 L 61.2857,47 L 67.5714,47 L 67.5714,51 z
M 73.8571,51 L 73.8571,47 L 80.1429,47 L 80.1429,51 z
M -55,-54 L -61.2857,-54 L -61.2857,-51 L -67.5714,-51 L -67.5714,-54 L -73.8571,-54
 L -73.8571,-51 L -80.1429,-51 L -80.1429,-54 L -86.4286,-54 L -86.4286,-51 L -92.7143,-51
 L -92.7143,-54 L -99,-54 L -99,54 L -55,54 z
M -61,-41.2941 L -61,-47.647 L -58,-47.647 L -58,-41.2941 z
M -61,-28.5882 L -61,-34.9412 L -58,-34.9412 L -58,-28.5882 z
M -61,-15.8823 L -61,-22.2353 L -58,-22.2353 L -58,-15.8823 z
M -90,-17.3333 L -90,-20.3333 L -81,-20.3333 L -81,-17.3333 z
M -61,-3.17647 L -61,-9.5294 L -58,-9.5294 L -58,-3.17647 z
M -61,9.5294 L -61,3.17647 L -58,3.17647 L -58,9.5294 z
M -90,16.3333 L -90,13.3333 L -81,13.3333 L -81,16.3333 z
M -61,22.2353 L -61,15.8823 L -58,15.8823 L -58,22.2353 z
M -61,34.9412 L -61,28.5882 L -58,28.5882 L -58,34.9412 z
M -61,47.647 L -61,41.2941 L -58,41.2941 L -58,47.647 z
M -80.1429,51 L -80.1429,47 L -73.8571,47 L -73.8571,51 z
M -92.7143,51 L -92.7143,47 L -86.4286,47 L -86.4286,51 z
M -67.5714,51 L -67.5714,47 L -61.2857,47 L -61.2857,51 z
M 133,47 L 142,47 L 142,16.3333 L 123,16.3333 L 123,13.3333 L 142,13.3333
 L 142,-17.3333 L 123,-17.3333 L 123,-20.3333 L 142,-20.3333 L 142,-51 L 133,-51
 L 133,-54 L 124,-54 L 124,-51 L 104,-51 L 104,-39.1667 L 101,-39.1667
 L 101,-30.1667 L 104,-30.1667 L 104,-6.5 L 101,-6.5 L 101,2.5 L 104,2.5
 L 104,26.1667 L 101,26.1667 L 101,35.1667 L 104,35.1667 L 104,47 L 124,47
 L 124,51 L 133,51 z
M 51,92.7143 L 54,92.7143 L 54,86.4286 L 51,86.4286 L 51,80.1429 L 54,80.1429
 L 54,73.8571 L 51,73.8571 L 51,67.5714 L 54,67.5714 L 54,61.2857 L 51,61.2857
 L 51,61 L 44.2,61 L 44.2,58 L 37.4,58 L 37.4,61 L 30.6,61
 L 30.6,58 L 23.8,58 L 23.8,61 L 17,61 L 17,58 L 10.2,58
 L 10.2,61 L 3.39999,61 L 3.39999,58 L -3.39999,58 L -3.39999,61 L -10.2,61
 L -10.2,58 L -17,58 L -17,61 L -23.8,61 L -23.8,58 L -30.6,58
 L -30.6,61 L -37.4,61 L -37.4,58 L -44.2,58 L -44.2,61 L -51,61
 L -51,61.2857 L -54,61.2857 L -54,67.5714 L -51,67.5714 L -51,73.8571 L -54,73.8571
 L -54,80.1429 L -51,80.1429 L -51,86.4286 L -54,86.4286 L -54,92.7143 L -51,92.7143
 L -51,99 L 51,99 z
M 16,90 L 16,81 L 19,81 L 19,90 z
M -19,90 L -19,81 L -16,81 L -16,90 z
" stroke="black" fill="lightgray" stroke-width="0.5"/>
</svg>
