  0
SECTION
  2
BLOCKS
  0
ENDSEC
  0
SECTION
  2
ENTITIES
  0
LINE
  8
0
 10
-29.5
 20
104
 11
-19
 21
104
  0
LINE
  8
0
 10
-19
 20
104
 11
-19
 21
123
  0
LINE
  8
0
 10
-19
 20
123
 11
-16
 21
123
  0
LINE
  8
0
 10
-16
 20
123
 11
-16
 21
104
  0
LINE
  8
0
 10
-16
 20
104
 11
-4.5
 21
104
  0
LINE
  8
0
 10
-4.5
 20
104
 11
-4.5
 21
101
  0
LINE
  8
0
 10
-4.5
 20
101
 11
4.5
 21
101
  0
LINE
  8
0
 10
4.5
 20
101
 11
4.5
 21
104
  0
LINE
  8
0
 10
4.5
 20
104
 11
16
 21
104
  0
LINE
  8
0
 10
16
 20
104
 11
16
 21
123
  0
LINE
  8
0
 10
16
 20
123
 11
19
 21
123
  0
LINE
  8
0
 10
19
 20
123
 11
19
 21
104
  0
LINE
  8
0
 10
19
 20
104
 11
29.5
 21
104
  0
LINE
  8
0
 10
29.5
 20
104
 11
29.5
 21
101
  0
LINE
  8
0
 10
29.5
 20
101
 11
38.5
 21
101
  0
LINE
  8
0
 10
38.5
 20
101
 11
38.5
 21
104
  0
LINE
  8
0
 10
38.5
 20
104
 11
51
 21
104
  0
LINE
  8
0
 10
51
 20
104
 11
51
 21
124
  0
LINE
  8
0
 10
51
 20
124
 11
54
 21
124
  0
LINE
  8
0
 10
54
 20
124
 11
54
 21
133
  0
LINE
  8
0
 10
54
 20
133
 11
51
 21
133
  0
LINE
  8
0
 10
51
 20
133
 11
51
 21
142
  0
LINE
  8
0
 10
51
 20
142
 11
-51
 21
142
  0
LINE
  8
0
 10
-51
 20
142
 11
-51
 21
133
  0
LINE
  8
0
 10
-51
 20
133
 11
-54
 21
133
  0
LINE
  8
0
 10
-54
 20
133
 11
-54
 21
124
  0
LINE
  8
0
 10
-54
 20
124
 11
-51
 21
124
  0
LINE
  8
0
 10
-51
 20
124
 11
-51
 21
104
  0
LINE
  8
0
 10
-51
 20
104
 11
-38.5
 21
104
  0
LINE
  8
0
 10
-38.5
 20
104
 11
-38.5
 21
101
  0
LINE
  8
0
 10
-38.5
 20
101
 11
-29.5
 21
101
  0
LINE
  8
0
 10
-29.5
 20
101
 11
-29.5
 21
104
  0
LINE
  8
0
 10
51
 20
61.2857
 11
54
 21
61.2857
  0
LINE
  8
0
 10
54
 20
61.2857
 11
54
 21
67.5714
  0
LINE
  8
0
 10
54
 20
67.5714
 11
51
 21
67.5714
  0
LINE
  8
0
 10
51
 20
67.5714
 11
51
 21
73.8571
  0
LINE
  8
0
 10
51
 20
73.8571
 11
54
 21
73.8571
  0
LINE
  8
0
 10
54
 20
73.8571
 11
54
 21
80.1429
  0
LINE
  8
0
 10
54
 20
80.1429
 11
51
 21
80.1429
  0
LINE
  8
0
 10
51
 20
80.1429
 11
51
 21
86.4286
  0
LINE
  8
0
 10
51
 20
86.4286
 11
54
 21
86.4286
  0
LINE
  8
0
 10
54
 20
86.4286
 11
54
 21
92.7143
  0
LINE
  8
0
 10
54
 20
92.7143
 11
51
 21
92.7143
  0
LINE
  8
0
 10
51
 20
92.7143
 11
51
 21
99
  0
LINE
  8
0
 10
51
 20
99
 11
-51
 21
99
  0
LINE
  8
0
 10
-51
 20
99
 11
-51
 21
92.7143
  0
LINE
  8
0
 10
-51
 20
92.7143
 11
-54
 21
92.7143
  0
LINE
  8
0
 10
-54
 20
92.7143
 11
-54
 21
86.4286
  0
LINE
  8
0
 10
-54
 20
86.4286
 11
-51
 21
86.4286
  0
LINE
  8
0
 10
-51
 20
86.4286
 11
-51
 21
80.1429
  0
LINE
  8
0
 10
-51
 20
80.1429
 11
-54
 21
80.1429
  0
LINE
  8
0
 10
-54
 20
80.1429
 11
-54
 21
73.8571
  0
LINE
  8
0
 10
-54
 20
73.8571
 11
-51
 21
73.8571
  0
LINE
  8
0
 10
-51
 20
73.8571
 11
-51
 21
67.5714
  0
LINE
  8
0
 10
-51
 20
67.5714
 11
-54
 21
67.5714
  0
LINE
  8
0
 10
-54
 20
67.5714
 11
-54
 21
61.2857
  0
LINE
  8
0
 10
-54
 20
61.2857
 11
-51
 21
61.2857
  0
LINE
  8
0
 10
-51
 20
61.2857
 11
-51
 21
55
  0
LINE
  8
0
 10
-51
 20
55
 11
51
 21
55
  0
LINE
  8
0
 10
51
 20
55
 11
51
 21
61.2857
  0
LINE
  8
0
 10
-19
 20
81
 11
-19
 21
90
  0
LINE
  8
0
 10
-19
 20
90
 11
-16
 21
90
  0
LINE
  8
0
 10
-16
 20
90
 11
-16
 21
81
  0
LINE
  8
0
 10
-16
 20
81
 11
-19
 21
81
  0
LINE
  8
0
 10
16
 20
81
 11
16
 21
90
  0
LINE
  8
0
 10
16
 20
90
 11
19
 21
90
  0
LINE
  8
0
 10
19
 20
90
 11
19
 21
81
  0
LINE
  8
0
 10
19
 20
81
 11
16
 21
81
  0
LINE
  8
0
 10
37.4
 20
58
 11
37.4
 21
61
  0
LINE
  8
0
 10
37.4
 20
61
 11
44.2
 21
61
  0
LINE
  8
0
 10
44.2
 20
61
 11
44.2
 21
58
  0
LINE
  8
0
 10
44.2
 20
58
 11
37.4
 21
58
  0
LINE
  8
0
 10
23.8
 20
58
 11
23.8
 21
61
  0
LINE
  8
0
 10
23.8
 20
61
 11
30.6
 21
61
  0
LINE
  8
0
 10
30.6
 20
61
 11
30.6
 21
58
  0
LINE
  8
0
 10
30.6
 20
58
 11
23.8
 21
58
  0
LINE
  8
0
 10
10.2
 20
58
 11
10.2
 21
61
  0
LINE
  8
0
 10
10.2
 20
61
 11
17
 21
61
  0
LINE
  8
0
 10
17
 20
61
 11
17
 21
58
  0
LINE
  8
0
 10
17
 20
58
 11
10.2
 21
58
  0
LINE
  8
0
 10
-3.39999
 20
58
 11
-3.39999
 21
61
  0
LINE
  8
0
 10
-3.39999
 20
61
 11
3.39999
 21
61
  0
LINE
  8
0
 10
3.39999
 20
61
 11
3.39999
 21
58
  0
LINE
  8
0
 10
3.39999
 20
58
 11
-3.39999
 21
58
  0
LINE
  8
0
 10
-17
 20
58
 11
-17
 21
61
  0
LINE
  8
0
 10
-17
 20
61
 11
-10.2
 21
61
  0
LINE
  8
0
 10
-10.2
 20
61
 11
-10.2
 21
58
  0
LINE
  8
0
 10
-10.2
 20
58
 11
-17
 21
58
  0
LINE
  8
0
 10
-30.6
 20
58
 11
-30.6
 21
61
  0
LINE
  8
0
 10
-30.6
 20
61
 11
-23.8
 21
61
  0
LINE
  8
0
 10
-23.8
 20
61
 11
-23.8
 21
58
  0
LINE
  8
0
 10
-23.8
 20
58
 11
-30.6
 21
58
  0
LINE
  8
0
 10
-44.2
 20
58
 11
-44.2
 21
61
  0
LINE
  8
0
 10
-44.2
 20
61
 11
-37.4
 21
61
  0
LINE
  8
0
 10
-37.4
 20
61
 11
-37.4
 21
58
  0
LINE
  8
0
 10
-37.4
 20
58
 11
-44.2
 21
58
  0
LINE
  8
0
 10
51
 20
-47.647
 11
54
 21
-47.647
  0
LINE
  8
0
 10
54
 20
-47.647
 11
54
 21
-41.2941
  0
LINE
  8
0
 10
54
 20
-41.2941
 11
51
 21
-41.2941
  0
LINE
  8
0
 10
51
 20
-41.2941
 11
51
 21
-34.9412
  0
LINE
  8
0
 10
51
 20
-34.9412
 11
54
 21
-34.9412
  0
LINE
  8
0
 10
54
 20
-34.9412
 11
54
 21
-28.5882
  0
LINE
  8
0
 10
54
 20
-28.5882
 11
51
 21
-28.5882
  0
LINE
  8
0
 10
51
 20
-28.5882
 11
51
 21
-22.2353
  0
LINE
  8
0
 10
51
 20
-22.2353
 11
54
 21
-22.2353
  0
LINE
  8
0
 10
54
 20
-22.2353
 11
54
 21
-15.8823
  0
LINE
  8
0
 10
54
 20
-15.8823
 11
51
 21
-15.8823
  0
LINE
  8
0
 10
51
 20
-15.8823
 11
51
 21
-9.5294
  0
LINE
  8
0
 10
51
 20
-9.5294
 11
54
 21
-9.5294
  0
LINE
  8
0
 10
54
 20
-9.5294
 11
54
 21
-3.17647
  0
LINE
  8
0
 10
54
 20
-3.17647
 11
51
 21
-3.17647
  0
LINE
  8
0
 10
51
 20
-3.17647
 11
51
 21
3.17645
  0
LINE
  8
0
 10
51
 20
3.17645
 11
54
 21
3.17645
  0
LINE
  8
0
 10
54
 20
3.17645
 11
54
 21
9.5294
  0
LINE
  8
0
 10
54
 20
9.5294
 11
51
 21
9.5294
  0
LINE
  8
0
 10
51
 20
9.5294
 11
51
 21
15.8823
  0
LINE
  8
0
 10
51
 20
15.8823
 11
54
 21
15.8823
  0
LINE
  8
0
 10
54
 20
15.8823
 11
54
 21
22.2353
  0
LINE
  8
0
 10
54
 20
22.2353
 11
51
 21
22.2353
  0
LINE
  8
0
 10
51
 20
22.2353
 11
51
 21
28.5882
  0
LINE
  8
0
 10
51
 20
28.5882
 11
54
 21
28.5882
  0
LINE
  8
0
 10
54
 20
28.5882
 11
54
 21
34.9412
  0
LINE
  8
0
 10
54
 20
34.9412
 11
51
 21
34.9412
  0
LINE
  8
0
 10
51
 20
34.9412
 11
51
 21
41.2941
  0
LINE
  8
0
 10
51
 20
41.2941
 11
54
 21
41.2941
  0
LINE
  8
0
 10
54
 20
41.2941
 11
54
 21
47.647
  0
LINE
  8
0
 10
54
 20
47.647
 11
51
 21
47.647
  0
LINE
  8
0
 10
51
 20
47.647
 11
51
 21
51
  0
LINE
  8
0
 10
51
 20
51
 11
44.2
 21
51
  0
LINE
  8
0
 10
44.2
 20
51
 11
44.2
 21
54
  0
LINE
  8
0
 10
44.2
 20
54
 11
37.4
 21
54
  0
LINE
  8
0
 10
37.4
 20
54
 11
37.4
 21
51
  0
LINE
  8
0
 10
37.4
 20
51
 11
30.6
 21
51
  0
LINE
  8
0
 10
30.6
 20
51
 11
30.6
 21
54
  0
LINE
  8
0
 10
30.6
 20
54
 11
23.8
 21
54
  0
LINE
  8
0
 10
23.8
 20
54
 11
23.8
 21
51
  0
LINE
  8
0
 10
23.8
 20
51
 11
17
 21
51
  0
LINE
  8
0
 10
17
 20
51
 11
17
 21
54
  0
LINE
  8
0
 10
17
 20
54
 11
10.2
 21
54
  0
LINE
  8
0
 10
10.2
 20
54
 11
10.2
 21
51
  0
LINE
  8
0
 10
10.2
 20
51
 11
3.39999
 21
51
  0
LINE
  8
0
 10
3.39999
 20
51
 11
3.39999
 21
54
  0
LINE
  8
0
 10
3.39999
 20
54
 11
-3.39999
 21
54
  0
LINE
  8
0
 10
-3.39999
 20
54
 11
-3.39999
 21
51
  0
LINE
  8
0
 10
-3.39999
 20
51
 11
-10.2
 21
51
  0
LINE
  8
0
 10
-10.2
 20
51
 11
-10.2
 21
54
  0
LINE
  8
0
 10
-10.2
 20
54
 11
-17
 21
54
  0
LINE
  8
0
 10
-17
 20
54
 11
-17
 21
51
  0
LINE
  8
0
 10
-17
 20
51
 11
-23.8
 21
51
  0
LINE
  8
0
 10
-23.8
 20
51
 11
-23.8
 21
54
  0
LINE
  8
0
 10
-23.8
 20
54
 11
-30.6
 21
54
  0
LINE
  8
0
 10
-30.6
 20
54
 11
-30.6
 21
51
  0
LINE
  8
0
 10
-30.6
 20
51
 11
-37.4
 21
51
  0
LINE
  8
0
 10
-37.4
 20
51
 11
-37.4
 21
54
  0
LINE
  8
0
 10
-37.4
 20
54
 11
-44.2
 21
54
  0
LINE
  8
0
 10
-44.2
 20
54
 11
-44.2
 21
51
  0
LINE
  8
0
 10
-44.2
 20
51
 11
-51
 21
51
  0
LINE
  8
0
 10
-51
 20
51
 11
-51
 21
47.647
  0
LINE
  8
0
 10
-51
 20
47.647
 11
-54
 21
47.647
  0
LINE
  8
0
 10
-54
 20
47.647
 11
-54
 21
41.2941
  0
LINE
  8
0
 10
-54
 20
41.2941
 11
-51
 21
41.2941
  0
LINE
  8
0
 10
-51
 20
41.2941
 11
-51
 21
34.9412
  0
LINE
  8
0
 10
-51
 20
34.9412
 11
-54
 21
34.9412
  0
LINE
  8
0
 10
-54
 20
34.9412
 11
-54
 21
28.5882
  0
LINE
  8
0
 10
-54
 20
28.5882
 11
-51
 21
28.5882
  0
LINE
  8
0
 10
-51
 20
28.5882
 11
-51
 21
22.2353
  0
LINE
  8
0
 10
-51
 20
22.2353
 11
-54
 21
22.2353
  0
LINE
  8
0
 10
-54
 20
22.2353
 11
-54
 21
15.8823
  0
LINE
  8
0
 10
-54
 20
15.8823
 11
-51
 21
15.8823
  0
LINE
  8
0
 10
-51
 20
15.8823
 11
-51
 21
9.5294
  0
LINE
  8
0
 10
-51
 20
9.5294
 11
-54
 21
9.5294
  0
LINE
  8
0
 10
-54
 20
9.5294
 11
-54
 21
3.17645
  0
LINE
  8
0
 10
-54
 20
3.17645
 11
-51
 21
3.17645
  0
LINE
  8
0
 10
-51
 20
3.17645
 11
-51
 21
-3.17647
  0
LINE
  8
0
 10
-51
 20
-3.17647
 11
-54
 21
-3.17647
  0
LINE
  8
0
 10
-54
 20
-3.17647
 11
-54
 21
-9.5294
  0
LINE
  8
0
 10
-54
 20
-9.5294
 11
-51
 21
-9.5294
  0
LINE
  8
0
 10
-51
 20
-9.5294
 11
-51
 21
-15.8823
  0
LINE
  8
0
 10
-51
 20
-15.8823
 11
-54
 21
-15.8823
  0
LINE
  8
0
 10
-54
 20
-15.8823
 11
-54
 21
-22.2353
  0
LINE
  8
0
 10
-54
 20
-22.2353
 11
-51
 21
-22.2353
  0
LINE
  8
0
 10
-51
 20
-22.2353
 11
-51
 21
-28.5882
  0
LINE
  8
0
 10
-51
 20
-28.5882
 11
-54
 21
-28.5882
  0
LINE
  8
0
 10
-54
 20
-28.5882
 11
-54
 21
-34.9412
  0
LINE
  8
0
 10
-54
 20
-34.9412
 11
-51
 21
-34.9412
  0
LINE
  8
0
 10
-51
 20
-34.9412
 11
-51
 21
-41.2941
  0
LINE
  8
0
 10
-51
 20
-41.2941
 11
-54
 21
-41.2941
  0
LINE
  8
0
 10
-54
 20
-41.2941
 11
-54
 21
-47.647
  0
LINE
  8
0
 10
-54
 20
-47.647
 11
-51
 21
-47.647
  0
LINE
  8
0
 10
-51
 20
-47.647
 11
-51
 21
-54
  0
LINE
  8
0
 10
-51
 20
-54
 11
51
 21
-54
  0
LINE
  8
0
 10
51
 20
-54
 11
51
 21
-47.647
  0
LINE
  8
0
 10
-19
 20
30.1667
 11
-19
 21
39.1667
  0
LINE
  8
0
 10
-19
 20
39.1667
 11
-16
 21
39.1667
  0
LINE
  8
0
 10
-16
 20
39.1667
 11
-16
 21
30.1667
  0
LINE
  8
0
 10
-16
 20
30.1667
 11
-19
 21
30.1667
  0
LINE
  8
0
 10
16
 20
30.1667
 11
16
 21
39.1667
  0
LINE
  8
0
 10
16
 20
39.1667
 11
19
 21
39.1667
  0
LINE
  8
0
 10
19
 20
39.1667
 11
19
 21
30.1667
  0
LINE
  8
0
 10
19
 20
30.1667
 11
16
 21
30.1667
  0
LINE
  8
0
 10
-38.5
 20
17.3333
 11
-38.5
 21
20.3333
  0
LINE
  8
0
 10
-38.5
 20
20.3333
 11
-29.5
 21
20.3333
  0
LINE
  8
0
 10
-29.5
 20
20.3333
 11
-29.5
 21
17.3333
  0
LINE
  8
0
 10
-29.5
 20
17.3333
 11
-38.5
 21
17.3333
  0
LINE
  8
0
 10
29.5
 20
17.3333
 11
29.5
 21
20.3333
  0
LINE
  8
0
 10
29.5
 20
20.3333
 11
38.5
 21
20.3333
  0
LINE
  8
0
 10
38.5
 20
20.3333
 11
38.5
 21
17.3333
  0
LINE
  8
0
 10
38.5
 20
17.3333
 11
29.5
 21
17.3333
  0
LINE
  8
0
 10
-4.5
 20
17.3333
 11
-4.5
 21
20.3333
  0
LINE
  8
0
 10
-4.5
 20
20.3333
 11
4.5
 21
20.3333
  0
LINE
  8
0
 10
4.5
 20
20.3333
 11
4.5
 21
17.3333
  0
LINE
  8
0
 10
4.5
 20
17.3333
 11
-4.5
 21
17.3333
  0
LINE
  8
0
 10
-19
 20
-2.5
 11
-19
 21
6.5
  0
LINE
  8
0
 10
-19
 20
6.5
 11
-16
 21
6.5
  0
LINE
  8
0
 10
-16
 20
6.5
 11
-16
 21
-2.5
  0
LINE
  8
0
 10
-16
 20
-2.5
 11
-19
 21
-2.5
  0
LINE
  8
0
 10
16
 20
-2.5
 11
16
 21
6.5
  0
LINE
  8
0
 10
16
 20
6.5
 11
19
 21
6.5
  0
LINE
  8
0
 10
19
 20
6.5
 11
19
 21
-2.5
  0
LINE
  8
0
 10
19
 20
-2.5
 11
16
 21
-2.5
  0
LINE
  8
0
 10
29.5
 20
-16.3333
 11
29.5
 21
-13.3333
  0
LINE
  8
0
 10
29.5
 20
-13.3333
 11
38.5
 21
-13.3333
  0
LINE
  8
0
 10
38.5
 20
-13.3333
 11
38.5
 21
-16.3333
  0
LINE
  8
0
 10
38.5
 20
-16.3333
 11
29.5
 21
-16.3333
  0
LINE
  8
0
 10
-4.5
 20
-16.3333
 11
-4.5
 21
-13.3333
  0
LINE
  8
0
 10
-4.5
 20
-13.3333
 11
4.5
 21
-13.3333
  0
LINE
  8
0
 10
4.5
 20
-13.3333
 11
4.5
 21
-16.3333
  0
LINE
  8
0
 10
4.5
 20
-16.3333
 11
-4.5
 21
-16.3333
  0
LINE
  8
0
 10
-38.5
 20
-16.3333
 11
-38.5
 21
-13.3333
  0
LINE
  8
0
 10
-38.5
 20
-13.3333
 11
-29.5
 21
-13.3333
  0
LINE
  8
0
 10
-29.5
 20
-13.3333
 11
-29.5
 21
-16.3333
  0
LINE
  8
0
 10
-29.5
 20
-16.3333
 11
-38.5
 21
-16.3333
  0
LINE
  8
0
 10
-19
 20
-35.1667
 11
-19
 21
-26.1667
  0
LINE
  8
0
 10
-19
 20
-26.1667
 11
-16
 21
-26.1667
  0
LINE
  8
0
 10
-16
 20
-26.1667
 11
-16
 21
-35.1667
  0
LINE
  8
0
 10
-16
 20
-35.1667
 11
-19
 21
-35.1667
  0
LINE
  8
0
 10
16
 20
-35.1667
 11
16
 21
-26.1667
  0
LINE
  8
0
 10
16
 20
-26.1667
 11
19
 21
-26.1667
  0
LINE
  8
0
 10
19
 20
-26.1667
 11
19
 21
-35.1667
  0
LINE
  8
0
 10
19
 20
-35.1667
 11
16
 21
-35.1667
  0
LINE
  8
0
 10
37.4
 20
-51
 11
37.4
 21
-47
  0
LINE
  8
0
 10
37.4
 20
-47
 11
44.2
 21
-47
  0
LINE
  8
0
 10
44.2
 20
-47
 11
44.2
 21
-51
  0
LINE
  8
0
 10
44.2
 20
-51
 11
37.4
 21
-51
  0
LINE
  8
0
 10
23.8
 20
-51
 11
23.8
 21
-47
  0
LINE
  8
0
 10
23.8
 20
-47
 11
30.6
 21
-47
  0
LINE
  8
0
 10
30.6
 20
-47
 11
30.6
 21
-51
  0
LINE
  8
0
 10
30.6
 20
-51
 11
23.8
 21
-51
  0
LINE
  8
0
 10
10.2
 20
-51
 11
10.2
 21
-47
  0
LINE
  8
0
 10
10.2
 20
-47
 11
17
 21
-47
  0
LINE
  8
0
 10
17
 20
-47
 11
17
 21
-51
  0
LINE
  8
0
 10
17
 20
-51
 11
10.2
 21
-51
  0
LINE
  8
0
 10
-3.39999
 20
-51
 11
-3.39999
 21
-47
  0
LINE
  8
0
 10
-3.39999
 20
-47
 11
3.39999
 21
-47
  0
LINE
  8
0
 10
3.39999
 20
-47
 11
3.39999
 21
-51
  0
LINE
  8
0
 10
3.39999
 20
-51
 11
-3.39999
 21
-51
  0
LINE
  8
0
 10
-17
 20
-51
 11
-17
 21
-47
  0
LINE
  8
0
 10
-17
 20
-47
 11
-10.2
 21
-47
  0
LINE
  8
0
 10
-10.2
 20
-47
 11
-10.2
 21
-51
  0
LINE
  8
0
 10
-10.2
 20
-51
 11
-17
 21
-51
  0
LINE
  8
0
 10
-30.6
 20
-51
 11
-30.6
 21
-47
  0
LINE
  8
0
 10
-30.6
 20
-47
 11
-23.8
 21
-47
  0
LINE
  8
0
 10
-23.8
 20
-47
 11
-23.8
 21
-51
  0
LINE
  8
0
 10
-23.8
 20
-51
 11
-30.6
 21
-51
  0
LINE
  8
0
 10
-44.2
 20
-51
 11
-44.2
 21
-47
  0
LINE
  8
0
 10
-44.2
 20
-47
 11
-37.4
 21
-47
  0
LINE
  8
0
 10
-37.4
 20
-47
 11
-37.4
 21
-51
  0
LINE
  8
0
 10
-37.4
 20
-51
 11
-44.2
 21
-51
  0
LINE
  8
0
 10
99
 20
54
 11
92.7143
 21
54
  0
LINE
  8
0
 10
92.7143
 20
54
 11
92.7143
 21
51
  0
LINE
  8
0
 10
92.7143
 20
51
 11
86.4286
 21
51
  0
LINE
  8
0
 10
86.4286
 20
51
 11
86.4286
 21
54
  0
LINE
  8
0
 10
86.4286
 20
54
 11
80.1429
 21
54
  0
LINE
  8
0
 10
80.1429
 20
54
 11
80.1429
 21
51
  0
LINE
  8
0
 10
80.1429
 20
51
 11
73.8571
 21
51
  0
LINE
  8
0
 10
73.8571
 20
51
 11
73.8571
 21
54
  0
LINE
  8
0
 10
73.8571
 20
54
 11
67.5714
 21
54
  0
LINE
  8
0
 10
67.5714
 20
54
 11
67.5714
 21
51
  0
LINE
  8
0
 10
67.5714
 20
51
 11
61.2857
 21
51
  0
LINE
  8
0
 10
61.2857
 20
51
 11
61.2857
 21
54
  0
LINE
  8
0
 10
61.2857
 20
54
 11
55
 21
54
  0
LINE
  8
0
 10
55
 20
54
 11
55
 21
-54
  0
LINE
  8
0
 10
55
 20
-54
 11
99
 21
-54
  0
LINE
  8
0
 10
99
 20
-54
 11
99
 21
54
  0
LINE
  8
0
 10
58
 20
41.2941
 11
58
 21
47.647
  0
LINE
  8
0
 10
58
 20
47.647
 11
61
 21
47.647
  0
LINE
  8
0
 10
61
 20
47.647
 11
61
 21
41.2941
  0
LINE
  8
0
 10
61
 20
41.2941
 11
58
 21
41.2941
  0
LINE
  8
0
 10
58
 20
28.5882
 11
58
 21
34.9412
  0
LINE
  8
0
 10
58
 20
34.9412
 11
61
 21
34.9412
  0
LINE
  8
0
 10
61
 20
34.9412
 11
61
 21
28.5882
  0
LINE
  8
0
 10
61
 20
28.5882
 11
58
 21
28.5882
  0
LINE
  8
0
 10
58
 20
15.8823
 11
58
 21
22.2353
  0
LINE
  8
0
 10
58
 20
22.2353
 11
61
 21
22.2353
  0
LINE
  8
0
 10
61
 20
22.2353
 11
61
 21
15.8823
  0
LINE
  8
0
 10
61
 20
15.8823
 11
58
 21
15.8823
  0
LINE
  8
0
 10
81
 20
17.3333
 11
81
 21
20.3333
  0
LINE
  8
0
 10
81
 20
20.3333
 11
90
 21
20.3333
  0
LINE
  8
0
 10
90
 20
20.3333
 11
90
 21
17.3333
  0
LINE
  8
0
 10
90
 20
17.3333
 11
81
 21
17.3333
  0
LINE
  8
0
 10
58
 20
3.17647
 11
58
 21
9.5294
  0
LINE
  8
0
 10
58
 20
9.5294
 11
61
 21
9.5294
  0
LINE
  8
0
 10
61
 20
9.5294
 11
61
 21
3.17647
  0
LINE
  8
0
 10
61
 20
3.17647
 11
58
 21
3.17647
  0
LINE
  8
0
 10
58
 20
-9.5294
 11
58
 21
-3.17647
  0
LINE
  8
0
 10
58
 20
-3.17647
 11
61
 21
-3.17647
  0
LINE
  8
0
 10
61
 20
-3.17647
 11
61
 21
-9.5294
  0
LINE
  8
0
 10
61
 20
-9.5294
 11
58
 21
-9.5294
  0
LINE
  8
0
 10
81
 20
-16.3333
 11
81
 21
-13.3333
  0
LINE
  8
0
 10
81
 20
-13.3333
 11
90
 21
-13.3333
  0
LINE
  8
0
 10
90
 20
-13.3333
 11
90
 21
-16.3333
  0
LINE
  8
0
 10
90
 20
-16.3333
 11
81
 21
-16.3333
  0
LINE
  8
0
 10
58
 20
-22.2353
 11
58
 21
-15.8823
  0
LINE
  8
0
 10
58
 20
-15.8823
 11
61
 21
-15.8823
  0
LINE
  8
0
 10
61
 20
-15.8823
 11
61
 21
-22.2353
  0
LINE
  8
0
 10
61
 20
-22.2353
 11
58
 21
-22.2353
  0
LINE
  8
0
 10
58
 20
-34.9412
 11
58
 21
-28.5882
  0
LINE
  8
0
 10
58
 20
-28.5882
 11
61
 21
-28.5882
  0
LINE
  8
0
 10
61
 20
-28.5882
 11
61
 21
-34.9412
  0
LINE
  8
0
 10
61
 20
-34.9412
 11
58
 21
-34.9412
  0
LINE
  8
0
 10
58
 20
-47.647
 11
58
 21
-41.2941
  0
LINE
  8
0
 10
58
 20
-41.2941
 11
61
 21
-41.2941
  0
LINE
  8
0
 10
61
 20
-41.2941
 11
61
 21
-47.647
  0
LINE
  8
0
 10
61
 20
-47.647
 11
58
 21
-47.647
  0
LINE
  8
0
 10
86.4286
 20
-51
 11
86.4286
 21
-47
  0
LINE
  8
0
 10
86.4286
 20
-47
 11
92.7143
 21
-47
  0
LINE
  8
0
 10
92.7143
 20
-47
 11
92.7143
 21
-51
  0
LINE
  8
0
 10
92.7143
 20
-51
 11
86.4286
 21
-51
  0
LINE
  8
0
 10
61.2857
 20
-51
 11
61.2857
 21
-47
  0
LINE
  8
0
 10
61.2857
 20
-47
 11
67.5714
 21
-47
  0
LINE
  8
0
 10
67.5714
 20
-47
 11
67.5714
 21
-51
  0
LINE
  8
0
 10
67.5714
 20
-51
 11
61.2857
 21
-51
  0
LINE
  8
0
 10
73.8571
 20
-51
 11
73.8571
 21
-47
  0
LINE
  8
0
 10
73.8571
 20
-47
 11
80.1429
 21
-47
  0
LINE
  8
0
 10
80.1429
 20
-47
 11
80.1429
 21
-51
  0
LINE
  8
0
 10
80.1429
 20
-51
 11
73.8571
 21
-51
  0
LINE
  8
0
 10
-55
 20
54
 11
-61.2857
 21
54
  0
LINE
  8
0
 10
-61.2857
 20
54
 11
-61.2857
 21
51
  0
LINE
  8
0
 10
-61.2857
 20
51
 11
-67.5714
 21
51
  0
LINE
  8
0
 10
-67.5714
 20
51
 11
-67.5714
 21
54
  0
LINE
  8
0
 10
-67.5714
 20
54
 11
-73.8571
 21
54
  0
LINE
  8
0
 10
-73.8571
 20
54
 11
-73.8571
 21
51
  0
LINE
  8
0
 10
-73.8571
 20
51
 11
-80.1429
 21
51
  0
LINE
  8
0
 10
-80.1429
 20
51
 11
-80.1429
 21
54
  0
LINE
  8
0
 10
-80.1429
 20
54
 11
-86.4286
 21
54
  0
LINE
  8
0
 10
-86.4286
 20
54
 11
-86.4286
 21
51
  0
LINE
  8
0
 10
-86.4286
 20
51
 11
-92.7143
 21
51
  0
LINE
  8
0
 10
-92.7143
 20
51
 11
-92.7143
 21
54
  0
LINE
  8
0
 10
-92.7143
 20
54
 11
-99
 21
54
  0
LINE
  8
0
 10
-99
 20
54
 11
-99
 21
-54
  0
LINE
  8
0
 10
-99
 20
-54
 11
-55
 21
-54
  0
LINE
  8
0
 10
-55
 20
-54
 11
-55
 21
54
  0
LINE
  8
0
 10
-61
 20
41.2941
 11
-61
 21
47.647
  0
LINE
  8
0
 10
-61
 20
47.647
 11
-58
 21
47.647
  0
LINE
  8
0
 10
-58
 20
47.647
 11
-58
 21
41.2941
  0
LINE
  8
0
 10
-58
 20
41.2941
 11
-61
 21
41.2941
  0
LINE
  8
0
 10
-61
 20
28.5882
 11
-61
 21
34.9412
  0
LINE
  8
0
 10
-61
 20
34.9412
 11
-58
 21
34.9412
  0
LINE
  8
0
 10
-58
 20
34.9412
 11
-58
 21
28.5882
  0
LINE
  8
0
 10
-58
 20
28.5882
 11
-61
 21
28.5882
  0
LINE
  8
0
 10
-61
 20
15.8823
 11
-61
 21
22.2353
  0
LINE
  8
0
 10
-61
 20
22.2353
 11
-58
 21
22.2353
  0
LINE
  8
0
 10
-58
 20
22.2353
 11
-58
 21
15.8823
  0
LINE
  8
0
 10
-58
 20
15.8823
 11
-61
 21
15.8823
  0
LINE
  8
0
 10
-90
 20
17.3333
 11
-90
 21
20.3333
  0
LINE
  8
0
 10
-90
 20
20.3333
 11
-81
 21
20.3333
  0
LINE
  8
0
 10
-81
 20
20.3333
 11
-81
 21
17.3333
  0
LINE
  8
0
 10
-81
 20
17.3333
 11
-90
 21
17.3333
  0
LINE
  8
0
 10
-61
 20
3.17647
 11
-61
 21
9.5294
  0
LINE
  8
0
 10
-61
 20
9.5294
 11
-58
 21
9.5294
  0
LINE
  8
0
 10
-58
 20
9.5294
 11
-58
 21
3.17647
  0
LINE
  8
0
 10
-58
 20
3.17647
 11
-61
 21
3.17647
  0
LINE
  8
0
 10
-61
 20
-9.5294
 11
-61
 21
-3.17647
  0
LINE
  8
0
 10
-61
 20
-3.17647
 11
-58
 21
-3.17647
  0
LINE
  8
0
 10
-58
 20
-3.17647
 11
-58
 21
-9.5294
  0
LINE
  8
0
 10
-58
 20
-9.5294
 11
-61
 21
-9.5294
  0
LINE
  8
0
 10
-90
 20
-16.3333
 11
-90
 21
-13.3333
  0
LINE
  8
0
 10
-90
 20
-13.3333
 11
-81
 21
-13.3333
  0
LINE
  8
0
 10
-81
 20
-13.3333
 11
-81
 21
-16.3333
  0
LINE
  8
0
 10
-81
 20
-16.3333
 11
-90
 21
-16.3333
  0
LINE
  8
0
 10
-61
 20
-22.2353
 11
-61
 21
-15.8823
  0
LINE
  8
0
 10
-61
 20
-15.8823
 11
-58
 21
-15.8823
  0
LINE
  8
0
 10
-58
 20
-15.8823
 11
-58
 21
-22.2353
  0
LINE
  8
0
 10
-58
 20
-22.2353
 11
-61
 21
-22.2353
  0
LINE
  8
0
 10
-61
 20
-34.9412
 11
-61
 21
-28.5882
  0
LINE
  8
0
 10
-61
 20
-28.5882
 11
-58
 21
-28.5882
  0
LINE
  8
0
 10
-58
 20
-28.5882
 11
-58
 21
-34.9412
  0
LINE
  8
0
 10
-58
 20
-34.9412
 11
-61
 21
-34.9412
  0
LINE
  8
0
 10
-61
 20
-47.647
 11
-61
 21
-41.2941
  0
LINE
  8
0
 10
-61
 20
-41.2941
 11
-58
 21
-41.2941
  0
LINE
  8
0
 10
-58
 20
-41.2941
 11
-58
 21
-47.647
  0
LINE
  8
0
 10
-58
 20
-47.647
 11
-61
 21
-47.647
  0
LINE
  8
0
 10
-80.1429
 20
-51
 11
-80.1429
 21
-47
  0
LINE
  8
0
 10
-80.1429
 20
-47
 11
-73.8571
 21
-47
  0
LINE
  8
0
 10
-73.8571
 20
-47
 11
-73.8571
 21
-51
  0
LINE
  8
0
 10
-73.8571
 20
-51
 11
-80.1429
 21
-51
  0
LINE
  8
0
 10
-92.7143
 20
-51
 11
-92.7143
 21
-47
  0
LINE
  8
0
 10
-92.7143
 20
-47
 11
-86.4286
 21
-47
  0
LINE
  8
0
 10
-86.4286
 20
-47
 11
-86.4286
 21
-51
  0
LINE
  8
0
 10
-86.4286
 20
-51
 11
-92.7143
 21
-51
  0
LINE
  8
0
 10
-67.5714
 20
-51
 11
-67.5714
 21
-47
  0
LINE
  8
0
 10
-67.5714
 20
-47
 11
-61.2857
 21
-47
  0
LINE
  8
0
 10
-61.2857
 20
-47
 11
-61.2857
 21
-51
  0
LINE
  8
0
 10
-61.2857
 20
-51
 11
-67.5714
 21
-51
  0
LINE
  8
0
 10
133
 20
-47
 11
142
 21
-47
  0
LINE
  8
0
 10
142
 20
-47
 11
142
 21
-16.3333
  0
LINE
  8
0
 10
142
 20
-16.3333
 11
123
 21
-16.3333
  0
LINE
  8
0
 10
123
 20
-16.3333
 11
123
 21
-13.3333
  0
LINE
  8
0
 10
123
 20
-13.3333
 11
142
 21
-13.3333
  0
LINE
  8
0
 10
142
 20
-13.3333
 11
142
 21
17.3333
  0
LINE
  8
0
 10
142
 20
17.3333
 11
123
 21
17.3333
  0
LINE
  8
0
 10
123
 20
17.3333
 11
123
 21
20.3333
  0
LINE
  8
0
 10
123
 20
20.3333
 11
142
 21
20.3333
  0
LINE
  8
0
 10
142
 20
20.3333
 11
142
 21
51
  0
LINE
  8
0
 10
142
 20
51
 11
133
 21
51
  0
LINE
  8
0
 10
133
 20
51
 11
133
 21
54
  0
LINE
  8
0
 10
133
 20
54
 11
124
 21
54
  0
LINE
  8
0
 10
124
 20
54
 11
124
 21
51
  0
LINE
  8
0
 10
124
 20
51
 11
104
 21
51
  0
LINE
  8
0
 10
104
 20
51
 11
104
 21
39.1667
  0
LINE
  8
0
 10
104
 20
39.1667
 11
101
 21
39.1667
  0
LINE
  8
0
 10
101
 20
39.1667
 11
101
 21
30.1667
  0
LINE
  8
0
 10
101
 20
30.1667
 11
104
 21
30.1667
  0
LINE
  8
0
 10
104
 20
30.1667
 11
104
 21
6.5
  0
LINE
  8
0
 10
104
 20
6.5
 11
101
 21
6.5
  0
LINE
  8
0
 10
101
 20
6.5
 11
101
 21
-2.5
  0
LINE
  8
0
 10
101
 20
-2.5
 11
104
 21
-2.5
  0
LINE
  8
0
 10
104
 20
-2.5
 11
104
 21
-26.1667
  0
LINE
  8
0
 10
104
 20
-26.1667
 11
101
 21
-26.1667
  0
LINE
  8
0
 10
101
 20
-26.1667
 11
101
 21
-35.1667
  0
LINE
  8
0
 10
101
 20
-35.1667
 11
104
 21
-35.1667
  0
LINE
  8
0
 10
104
 20
-35.1667
 11
104
 21
-47
  0
LINE
  8
0
 10
104
 20
-47
 11
124
 21
-47
  0
LINE
  8
0
 10
124
 20
-47
 11
124
 21
-51
  0
LINE
  8
0
 10
124
 20
-51
 11
133
 21
-51
  0
LINE
  8
0
 10
133
 20
-51
 11
133
 21
-47
  0
LINE
  8
0
 10
51
 20
-92.7143
 11
54
 21
-92.7143
  0
LINE
  8
0
 10
54
 20
-92.7143
 11
54
 21
-86.4286
  0
LINE
  8
0
 10
54
 20
-86.4286
 11
51
 21
-86.4286
  0
LINE
  8
0
 10
51
 20
-86.4286
 11
51
 21
-80.1429
  0
LINE
  8
0
 10
51
 20
-80.1429
 11
54
 21
-80.1429
  0
LINE
  8
0
 10
54
 20
-80.1429
 11
54
 21
-73.8571
  0
LINE
  8
0
 10
54
 20
-73.8571
 11
51
 21
-73.8571
  0
LINE
  8
0
 10
51
 20
-73.8571
 11
51
 21
-67.5714
  0
LINE
  8
0
 10
51
 20
-67.5714
 11
54
 21
-67.5714
  0
LINE
  8
0
 10
54
 20
-67.5714
 11
54
 21
-61.2857
  0
LINE
  8
0
 10
54
 20
-61.2857
 11
51
 21
-61.2857
  0
LINE
  8
0
 10
51
 20
-61.2857
 11
51
 21
-61
  0
LINE
  8
0
 10
51
 20
-61
 11
44.2
 21
-61
  0
LINE
  8
0
 10
44.2
 20
-61
 11
44.2
 21
-58
  0
LINE
  8
0
 10
44.2
 20
-58
 11
37.4
 21
-58
  0
LINE
  8
0
 10
37.4
 20
-58
 11
37.4
 21
-61
  0
LINE
  8
0
 10
37.4
 20
-61
 11
30.6
 21
-61
  0
LINE
  8
0
 10
30.6
 20
-61
 11
30.6
 21
-58
  0
LINE
  8
0
 10
30.6
 20
-58
 11
23.8
 21
-58
  0
LINE
  8
0
 10
23.8
 20
-58
 11
23.8
 21
-61
  0
LINE
  8
0
 10
23.8
 20
-61
 11
17
 21
-61
  0
LINE
  8
0
 10
17
 20
-61
 11
17
 21
-58
  0
LINE
  8
0
 10
17
 20
-58
 11
10.2
 21
-58
  0
LINE
  8
0
 10
10.2
 20
-58
 11
10.2
 21
-61
  0
LINE
  8
0
 10
10.2
 20
-61
 11
3.39999
 21
-61
  0
LINE
  8
0
 10
3.39999
 20
-61
 11
3.39999
 21
-58
  0
LINE
  8
0
 10
3.39999
 20
-58
 11
-3.39999
 21
-58
  0
LINE
  8
0
 10
-3.39999
 20
-58
 11
-3.39999
 21
-61
  0
LINE
  8
0
 10
-3.39999
 20
-61
 11
-10.2
 21
-61
  0
LINE
  8
0
 10
-10.2
 20
-61
 11
-10.2
 21
-58
  0
LINE
  8
0
 10
-10.2
 20
-58
 11
-17
 21
-58
  0
LINE
  8
0
 10
-17
 20
-58
 11
-17
 21
-61
  0
LINE
  8
0
 10
-17
 20
-61
 11
-23.8
 21
-61
  0
LINE
  8
0
 10
-23.8
 20
-61
 11
-23.8
 21
-58
  0
LINE
  8
0
 10
-23.8
 20
-58
 11
-30.6
 21
-58
  0
LINE
  8
0
 10
-30.6
 20
-58
 11
-30.6
 21
-61
  0
LINE
  8
0
 10
-30.6
 20
-61
 11
-37.4
 21
-61
  0
LINE
  8
0
 10
-37.4
 20
-61
 11
-37.4
 21
-58
  0
LINE
  8
0
 10
-37.4
 20
-58
 11
-44.2
 21
-58
  0
LINE
  8
0
 10
-44.2
 20
-58
 11
-44.2
 21
-61
  0
LINE
  8
0
 10
-44.2
 20
-61
 11
-51
 21
-61
  0
LINE
  8
0
 10
-51
 20
-61
 11
-51
 21
-61.2857
  0
LINE
  8
0
 10
-51
 20
-61.2857
 11
-54
 21
-61.2857
  0
LINE
  8
0
 10
-54
 20
-61.2857
 11
-54
 21
-67.5714
  0
LINE
  8
0
 10
-54
 20
-67.5714
 11
-51
 21
-67.5714
  0
LINE
  8
0
 10
-51
 20
-67.5714
 11
-51
 21
-73.8571
  0
LINE
  8
0
 10
-51
 20
-73.8571
 11
-54
 21
-73.8571
  0
LINE
  8
0
 10
-54
 20
-73.8571
 11
-54
 21
-80.1429
  0
LINE
  8
0
 10
-54
 20
-80.1429
 11
-51
 21
-80.1429
  0
LINE
  8
0
 10
-51
 20
-80.1429
 11
-51
 21
-86.4286
  0
LINE
  8
0
 10
-51
 20
-86.4286
 11
-54
 21
-86.4286
  0
LINE
  8
0
 10
-54
 20
-86.4286
 11
-54
 21
-92.7143
  0
LINE
  8
0
 10
-54
 20
-92.7143
 11
-51
 21
-92.7143
  0
LINE
  8
0
 10
-51
 20
-92.7143
 11
-51
 21
-99
  0
LINE
  8
0
 10
-51
 20
-99
 11
51
 21
-99
  0
LINE
  8
0
 10
51
 20
-99
 11
51
 21
-92.7143
  0
LINE
  8
0
 10
16
 20
-90
 11
16
 21
-81
  0
LINE
  8
0
 10
16
 20
-81
 11
19
 21
-81
  0
LINE
  8
0
 10
19
 20
-81
 11
19
 21
-90
  0
LINE
  8
0
 10
19
 20
-90
 11
16
 21
-90
  0
LINE
  8
0
 10
-19
 20
-90
 11
-19
 21
-81
  0
LINE
  8
0
 10
-19
 20
-81
 11
-16
 21
-81
  0
LINE
  8
0
 10
-16
 20
-81
 11
-16
 21
-90
  0
LINE
  8
0
 10
-16
 20
-90
 11
-19
 21
-90
  0
ENDSEC
  0
SECTION
  2
OBJECTS
  0
DICTIONARY
  0
ENDSEC
  0
EOF
