<?xml version="1.0" standalone="no"?>
<!DOCTYPE svg PUBLIC "-//W3C//DTD SVG 1.1//EN" "http://www.w3.org/Graphics/SVG/1.1/DTD/svg11.dtd">
<svg width="241mm" height="241mm" viewBox="-99 -142 241 241" xmlns="http://www.w3.org/2000/svg" version="1.1">
<title>OpenSCAD Model</title>
<path d="
M -33.75,-104.5 L -27.75,-104.5 L -27.75,-123 L -24.75,-123 L -24.75,-104.5 L -17.25,-104.5
 L -17.25,-100.5 L -8.25,-100.5 L -8.25,-104.5 L -1.5,-104.5 L -1.5,-123 L 1.5,-123
 L 1.5,-104.5 L 8.25,-104.5 L 8.25,-100.5 L 17.25,-100.5 L 17.25,-104.5 L 24.75,-104.5
 L 24.75,-123 L 27.75,-123 L 27.75,-104.5 L 33.75,-104.5 L 33.75,-100.5 L 42.75,-100.5
 L 42.75,-104.5 L 51,-104.5 L 51,-123.5 L 54,-123.5 L 54,-132.5 L 51,-132.5
 L 51,-141.5 L -51,-141.5 L -51,-132.5 L -54,-132.5 L -54,-123.5 L -51,-123.5
 L -51,-104.5 L -42.75,-104.5 L -42.75,-100.5 L -33.75,-100.5 z
M 51,-61.2857 L 54,-61.2857 L 54,-67.5714 L 51,-67.5714 L 51,-73.8571 L 54,-73.8571
 L 54,-80.1429 L 51,-80.1429 L 51,-86.4286 L 54,-86.4286 L 54,-92.7143 L 51,-92.7143
 L 51,-99 L -51,-99 L -51,-92.7143 L -54,-92.7143 L -54,-86.4286 L -51,-86.4286
 L -51,-80.1429 L -54,-80.1429 L -54,-73.8571 L -51,-73.8571 L -51,-67.5714 L -54,-67.5714
 L -54,-61.2857 L -51,-61.2857 L -51,-55 L 51,-55 z
M -27.75,-81 L -27.75,-90 L -24.75,-90 L -24.75,-81 z
M -1.5,-81 L -1.5,-90 L 1.5,-90 L 1.5,-81 z
M 24.75,-81 L 24.75,-90 L 27.75,-90 L 27.75,-81 z
M -3.39999,-58 L -3.39999,-62 L 3.39999,-62 L 3.39999,-58 z
M -44.2,-58 L -44.2,-62 L -37.4,-62 L -37.4,-58 z
M -30.6,-58 L -30.6,-62 L -23.8,-62 L -23.8,-58 z
M -17,-58 L -17,-62 L -10.2,-62 L -10.2,-58 z
M 10.2,-58 L 10.2,-62 L 17,-62 L 17,-58 z
M 23.8,-58 L 23.8,-62 L 30.6,-62 L 30.6,-58 z
M 37.4,-58 L 37.4,-62 L 44.2,-62 L 44.2,-58 z
M -55,-54 L -61.2857,-54 L -61.2857,-51 L -67.5714,-51 L -67.5714,-54 L -73.8571,-54
 L -73.8571,-51 L -80.1429,-51 L -80.1429,-54 L -86.4286,-54 L -86.4286,-51 L -92.7143,-51
 L -92.7143,-54 L -99,-54 L -99,54 L -55,54 z
M -62,-41.2941 L -62,-47.647 L -58,-47.647 L -58,-41.2941 z
M -62,-28.5882 L -62,-34.9412 L -58,-34.9412 L -58,-28.5882 z
M -90,-25.75 L -90,-28.75 L -81,-28.75 L -81,-25.75 z
M -62,-15.8823 L -62,-22.2353 L -58,-22.2353 L -58,-15.8823 z
M -62,-3.17647 L -62,-9.5294 L -58,-9.5294 L -58,-3.17647 z
M -90,-0.5 L -90,-3.5 L -81,-3.5 L -81,-0.5 z
M -62,9.5294 L -62,3.17647 L -58,3.17647 L -58,9.5294 z
M -62,22.2353 L -62,15.8823 L -58,15.8823 L -58,22.2353 z
M -90,24.75 L -90,21.75 L -81,21.75 L -81,24.75 z
M -62,34.9412 L -62,28.5882 L -58,28.5882 L -58,34.9412 z
M -67.5714,51 L -67.5714,47 L -62,47 L -62,41.2941 L -58,41.2941 L -58,47.647
 L -61.2857,47.647 L -61.2857,51 z
M -92.7143,51 L -92.7143,47 L -86.4286,47 L -86.4286,51 z
M -80.1429,51 L -80.1429,47 L -73.8571,47 L -73.8571,51 z
M 51,47.647 L 54,47.647 L 54,41.2941 L 51,41.2941 L 51,34.9412 L 54,34.9412
 L 54,28.5882 L 51,28.5882 L 51,22.2353 L 54,22.2353 L 54,15.8823 L 51,15.8823
 L 51,9.5294 L 54,9.5294 L 54,3.17647 L 51,3.17647 L 51,-3.17645 L 54,-3.17645
 L 54,-9.5294 L 51,-9.5294 L 51,-15.8823 L 54,-15.8823 L 54,-22.2353 L 51,-22.2353
 L 51,-28.5882 L 54,-28.5882 L 54,-34.9412 L 51,-34.9412 L 51,-41.2941 L 54,-41.2941
 L 54,-47.647 L 51,-47.647 L 51,-51 L 44.2,-51 L 44.2,-54 L 37.4,-54
 L 37.4,-51 L 30.6,-51 L 30.6,-54 L 23.8,-54 L 23.8,-51 L 17,-51
 L 17,-54 L 10.2,-54 L 10.2,-51 L 3.39999,-51 L 3.39999,-54 L -3.39999,-54
 L -3.39999,-51 L -10.2,-51 L -10.2,-54 L -17,-54 L -17,-51 L -23.8,-51
 L -23.8,-54 L -30.6,-54 L -30.6,-51 L -37.4,-51 L -37.4,-54 L -44.2,-54
 L -44.2,-51 L -51,-51 L -51,-47.647 L -54,-47.647 L -54,-41.2941 L -51,-41.2941
 L -51,-34.9412 L -54,-34.9412 L -54,-28.5882 L -51,-28.5882 L -51,-22.2353 L -54,-22.2353
 L -54,-15.8823 L -51,-15.8823 L -51,-9.5294 L -54,-9.5294 L -54,-3.17645 L -51,-3.17645
 L -51,3.17647 L -54,3.17647 L -54,9.5294 L -51,9.5294 L -51,15.8823 L -54,15.8823
 L -54,22.2353 L -51,22.2353 L -51,28.5882 L -54,28.5882 L -54,34.9412 L -51,34.9412
 L -51,41.2941 L -54,41.2941 L -54,47.647 L -51,47.647 L -51,54 L 51,54
 z
M -1.5,-34.25 L -1.5,-43.25 L 1.5,-43.25 L 1.5,-34.25 z
M -27.75,-34.25 L -27.75,-43.25 L -24.75,-43.25 L -24.75,-34.25 z
M 24.75,-34.25 L 24.75,-43.25 L 27.75,-43.25 L 27.75,-34.25 z
M -17.25,-25.75 L -17.25,-28.75 L -8.25,-28.75 L -8.25,-25.75 z
M 8.25,-25.75 L 8.25,-28.75 L 17.25,-28.75 L 17.25,-25.75 z
M 33.75,-25.75 L 33.75,-28.75 L 42.75,-28.75 L 42.75,-25.75 z
M -42.75,-25.75 L -42.75,-28.75 L -33.75,-28.75 L -33.75,-25.75 z
M -27.75,-9.75 L -27.75,-18.75 L -24.75,-18.75 L -24.75,-9.75 z
M -1.5,-9.75 L -1.5,-18.75 L 1.5,-18.75 L 1.5,-9.75 z
M 24.75,-9.75 L 24.75,-18.75 L 27.75,-18.75 L 27.75,-9.75 z
M 8.25,-0.5 L 8.25,-3.5 L 17.25,-3.5 L 17.25,-0.5 z
M -42.75,-0.5 L -42.75,-3.5 L -33.75,-3.5 L -33.75,-0.5 z
M 33.75,-0.5 L 33.75,-3.5 L 42.75,-3.5 L 42.75,-0.5 z
M -17.25,-0.5 L -17.25,-3.5 L -8.25,-3.5 L -8.25,-0.5 z
M 24.75,14.75 L 24.75,5.75 L 27.75,5.75 L 27.75,14.75 z
M -27.75,14.75 L -27.75,5.75 L -24.75,5.75 L -24.75,14.75 z
M -1.5,14.75 L -1.5,5.75 L 1.5,5.75 L 1.5,14.75 z
M -42.75,24.75 L -42.75,21.75 L -33.75,21.75 L -33.75,24.75 z
M -17.25,24.75 L -17.25,21.75 L -8.25,21.75 L -8.25,24.75 z
M 8.25,24.75 L 8.25,21.75 L 17.25,21.75 L 17.25,24.75 z
M 33.75,24.75 L 33.75,21.75 L 42.75,21.75 L 42.75,24.75 z
M -1.5,39.25 L -1.5,30.25 L 1.5,30.25 L 1.5,39.25 z
M 24.75,39.25 L 24.75,30.25 L 27.75,30.25 L 27.75,39.25 z
M -27.75,39.25 L -27.75,30.25 L -24.75,30.25 L -24.75,39.25 z
M 37.4,51 L 37.4,47 L 44.2,47 L 44.2,51 z
M 23.8,51 L 23.8,47 L 30.6,47 L 30.6,51 z
M 10.2,51 L 10.2,47 L 17,47 L 17,51 z
M -3.39999,51 L -3.39999,47 L 3.39999,47 L 3.39999,51 z
M -17,51 L -17,47 L -10.2,47 L -10.2,51 z
M -30.6,51 L -30.6,47 L -23.8,47 L -23.8,51 z
M -44.2,51 L -44.2,47 L -37.4,47 L -37.4,51 z
M 132.5,47 L 141.5,47 L 141.5,24.75 L 123,24.75 L 123,21.75 L 141.5,21.75
 L 141.5,-0.5 L 123,-0.5 L 123,-3.5 L 141.5,-3.5 L 141.5,-25.75 L 123,-25.75
 L 123,-28.75 L 141.5,-28.75 L 141.5,-51 L 132.5,-51 L 132.5,-54 L 123.5,-54
 L 123.5,-51 L 104.5,-51 L 104.5,-43.25 L 100.5,-43.25 L 100.5,-34.25 L 104.5,-34.25
 L 104.5,-18.75 L 100.5,-18.75 L 100.5,-9.75 L 104.5,-9.75 L 104.5,5.75 L 100.5,5.75
 L 100.5,14.75 L 104.5,14.75 L 104.5,30.25 L 100.5,30.25 L 100.5,39.25 L 104.5,39.25
 L 104.5,47 L 123.5,47 L 123.5,51 L 132.5,51 z
M 99,-54 L 92.7143,-54 L 92.7143,-51 L 86.4286,-51 L 86.4286,-54 L 80.1429,-54
 L 80.1429,-51 L 73.8571,-51 L 73.8571,-54 L 67.5714,-54 L 67.5714,-51 L 61.2857,-51
 L 61.2857,-54 L 55,-54 L 55,54 L 99,54 z
M 58,-41.2941 L 58,-47.647 L 62,-47.647 L 62,-41.2941 z
M 58,-28.5882 L 58,-34.9412 L 62,-34.9412 L 62,-28.5882 z
M 81,-25.75 L 81,-28.75 L 90,-28.75 L 90,-25.75 z
M 58,-15.8823 L 58,-22.2353 L 62,-22.2353 L 62,-15.8823 z
M 58,-3.17647 L 58,-9.5294 L 62,-9.5294 L 62,-3.17647 z
M 81,-0.5 L 81,-3.5 L 90,-3.5 L 90,-0.5 z
M 58,9.5294 L 58,3.17647 L 62,3.17647 L 62,9.5294 z
M 58,22.2353 L 58,15.8823 L 62,15.8823 L 62,22.2353 z
M 81,24.75 L 81,21.75 L 90,21.75 L 90,24.75 z
M 58,34.9412 L 58,28.5882 L 62,28.5882 L 62,34.9412 z
M 61.2857,51 L 61.2857,47.647 L 58,47.647 L 58,41.2941 L 62,41.2941 L 62,47
 L 67.5714,47 L 67.5714,51 z
M 73.8571,51 L 73.8571,47 L 80.1429,47 L 80.1429,51 z
M 86.4286,51 L 86.4286,47 L 92.7143,47 L 92.7143,51 z
M 51,92.7143 L 54,92.7143 L 54,86.4286 L 51,86.4286 L 51,80.1429 L 54,80.1429
 L 54,73.8571 L 51,73.8571 L 51,67.5714 L 54,67.5714 L 54,61.2857 L 51,61.2857
 L 51,62 L 44.2,62 L 44.2,58 L 37.4,58 L 37.4,62 L 30.6,62
 L 30.6,58 L 23.8,58 L 23.8,62 L 17,62 L 17,58 L 10.2,58
 L 10.2,62 L 3.39999,62 L 3.39999,58 L -3.39999,58 L -3.39999,62 L -10.2,62
 L -10.2,58 L -17,58 L -17,62 L -23.8,62 L -23.8,58 L -30.6,58
 L -30.6,62 L -37.4,62 L -37.4,58 L -44.2,58 L -44.2,62 L -51,62
 L -51,61.2857 L -54,61.2857 L -54,67.5714 L -51,67.5714 L -51,73.8571 L -54,73.8571
 L -54,80.1429 L -51,80.1429 L -51,86.4286 L -54,86.4286 L -54,92.7143 L -51,92.7143
 L -51,99 L 51,99 z
M 24.75,90 L 24.75,81 L 27.75,81 L 27.75,90 z
M -1.5,90 L -1.5,81 L 1.5,81 L 1.5,90 z
M -27.75,90 L -27.75,81 L -24.75,81 L -24.75,90 z
" stroke="black" fill="lightgray" stroke-width="0.5"/>
</svg>
