<?xml version="1.0" standalone="no"?>
<!DOCTYPE svg PUBLIC "-//W3C//DTD SVG 1.1//EN" "http://www.w3.org/Graphics/SVG/1.1/DTD/svg11.dtd">
<svg width="295mm" height="295mm" viewBox="-99 -196 295 295" xmlns="http://www.w3.org/2000/svg" version="1.1">
<title>OpenSCAD Model</title>
<path d="
M -29.5,-160.5 L -19,-160.5 L -19,-178 L -16,-178 L -16,-160.5 L -4.5,-160.5
 L -4.5,-154.5 L 4.5,-154.5 L 4.5,-160.5 L 16,-160.5 L 16,-178 L 19,-178
 L 19,-160.5 L 29.5,-160.5 L 29.5,-154.5 L 38.5,-154.5 L 38.5,-160.5 L 51,-160.5
 L 51,-176.5 L 54,-176.5 L 54,-185.5 L 51,-185.5 L 51,-195.5 L -51,-195.5
 L -51,-185.5 L -54,-185.5 L -54,-176.5 L -51,-176.5 L -51,-160.5 L -38.5,-160.5
 L -38.5,-154.5 L -29.5,-154.5 z
M -29.5,-109.5 L -19,-109.5 L -19,-127 L -16,-127 L -16,-109.5 L -4.5,-109.5
 L -4.5,-103.5 L 4.5,-103.5 L 4.5,-109.5 L 16,-109.5 L 16,-127 L 19,-127
 L 19,-109.5 L 29.5,-109.5 L 29.5,-103.5 L 38.5,-103.5 L 38.5,-109.5 L 51,-109.5
 L 51,-125.5 L 54,-125.5 L 54,-134.5 L 51,-134.5 L 51,-144.5 L -51,-144.5
 L -51,-134.5 L -54,-134.5 L -54,-125.5 L -51,-125.5 L -51,-109.5 L -38.5,-109.5
 L -38.5,-103.5 L -29.5,-103.5 z
M 51,-61.2857 L 54,-61.2857 L 54,-67.5714 L 51,-67.5714 L 51,-73.8571 L 54,-73.8571
 L 54,-80.1429 L 51,-80.1429 L 51,-86.4286 L 54,-86.4286 L 54,-92.7143 L 51,-92.7143
 L 51,-99 L -51,-99 L -51,-92.7143 L -54,-92.7143 L -54,-86.4286 L -51,-86.4286
 L -51,-80.1429 L -54,-80.1429 L -54,-73.8571 L -51,-73.8571 L -51,-67.5714 L -54,-67.5714
 L -54,-61.2857 L -51,-61.2857 L -51,-55 L 51,-55 z
M -19,-78.5 L -19,-87.5 L -16,-87.5 L -16,-78.5 z
M 16,-78.5 L 16,-87.5 L 19,-87.5 L 19,-78.5 z
M 37.4,-56.5 L 37.4,-62.5 L 44.2,-62.5 L 44.2,-56.5 z
M 23.8,-56.5 L 23.8,-62.5 L 30.6,-62.5 L 30.6,-56.5 z
M 10.2,-56.5 L 10.2,-62.5 L 17,-62.5 L 17,-56.5 z
M -3.39999,-56.5 L -3.39999,-62.5 L 3.39999,-62.5 L 3.39999,-56.5 z
M -17,-56.5 L -17,-62.5 L -10.2,-62.5 L -10.2,-56.5 z
M -30.6,-56.5 L -30.6,-62.5 L -23.8,-62.5 L -23.8,-56.5 z
M -44.2,-56.5 L -44.2,-62.5 L -37.4,-62.5 L -37.4,-56.5 z
M 99,-54 L 92.7143,-54 L 92.7143,-51 L 86.4286,-51 L 86.4286,-54 L 80.1429,-54
 L 80.1429,-51 L 73.8571,-51 L 73.8571,-54 L 67.5714,-54 L 67.5714,-51 L 61.2857,-51
 L 61.2857,-54 L 55,-54 L 55,54 L 99,54 z
M 56.5,-41.2941 L 56.5,-47.647 L 62.5,-47.647 L 62.5,-41.2941 z
M 56.5,-28.5882 L 56.5,-34.9412 L 62.5,-34.9412 L 62.5,-28.5882 z
M 56.5,-15.8823 L 56.5,-22.2353 L 62.5,-22.2353 L 62.5,-15.8823 z
M 78.5,-17.3333 L 78.5,-20.3333 L 87.5,-20.3333 L 87.5,-17.3333 z
M 56.5,-3.17647 L 56.5,-9.5294 L 62.5,-9.5294 L 62.5,-3.17647 z
M 56.5,9.5294 L 56.5,3.17647 L 62.5,3.17647 L 62.5,9.5294 z
M 78.5,16.3333 L 78.5,13.3333 L 87.5,13.3333 L 87.5,16.3333 z
M 56.5,22.2353 L 56.5,15.8823 L 62.5,15.8823 L 62.5,22.2353 z
M 56.5,34.9412 L 56.5,28.5882 L 62.5,28.5882 L 62.5,34.9412 z
M 61.2857,51 L 61.2857,47.647 L 56.5,47.647 L 56.5,41.2941 L 62.5,41.2941 L 62.5,47
 L 67.5714,47 L 67.5714,51 z
M 86.4286,51 L 86.4286,47 L 92.7143,47 L 92.7143,51 z
M 73.8571,51 L 73.8571,47 L 80.1429,47 L 80.1429,51 z
M -55,-54 L -61.2857,-54 L -61.2857,-51 L -67.5714,-51 L -67.5714,-54 L -73.8571,-54
 L -73.8571,-51 L -80.1429,-51 L -80.1429,-54 L -86.4286,-54 L -86.4286,-51 L -92.7143,-51
 L -92.7143,-54 L -99,-54 L -99,54 L -55,54 z
M -62.5,-41.2941 L -62.5,-47.647 L -56.5,-47.647 L -56.5,-41.2941 z
M -62.5,-28.5882 L -62.5,-34.9412 L -56.5,-34.9412 L -56.5,-28.5882 z
M -62.5,-15.8823 L -62.5,-22.2353 L -56.5,-22.2353 L -56.5,-15.8823 z
M -87.5,-17.3333 L -87.5,-20.3333 L -78.5,-20.3333 L -78.5,-17.3333 z
M -62.5,-3.17647 L -62.5,-9.5294 L -56.5,-9.5294 L -56.5,-3.17647 z
M -62.5,9.5294 L -62.5,3.17647 L -56.5,3.17647 L -56.5,9.5294 z
M -87.5,16.3333 L -87.5,13.3333 L -78.5,13.3333 L -78.5,16.3333 z
M -62.5,22.2353 L -62.5,15.8823 L -56.5,15.8823 L -56.5,22.2353 z
M -62.5,34.9412 L -62.5,28.5882 L -56.5,28.5882 L -56.5,34.9412 z
M -67.5714,51 L -67.5714,47 L -62.5,47 L -62.5,41.2941 L -56.5,41.2941 L -56.5,47.647
 L -61.2857,47.647 L -61.2857,51 z
M -92.7143,51 L -92.7143,47 L -86.4286,47 L -86.4286,51 z
M -80.1429,51 L -80.1429,47 L -73.8571,47 L -73.8571,51 z
M 51,47.647 L 54,47.647 L 54,41.2941 L 51,41.2941 L 51,34.9412 L 54,34.9412
 L 54,28.5882 L 51,28.5882 L 51,22.2353 L 54,22.2353 L 54,15.8823 L 51,15.8823
 L 51,9.5294 L 54,9.5294 L 54,3.17647 L 51,3.17647 L 51,-3.17645 L 54,-3.17645
 L 54,-9.5294 L 51,-9.5294 L 51,-15.8823 L 54,-15.8823 L 54,-22.2353 L 51,-22.2353
 L 51,-28.5882 L 54,-28.5882 L 54,-34.9412 L 51,-34.9412 L 51,-41.2941 L 54,-41.2941
 L 54,-47.647 L 51,-47.647 L 51,-51 L 44.2,-51 L 44.2,-54 L 37.4,-54
 L 37.4,-51 L 30.6,-51 L 30.6,-54 L 23.8,-54 L 23.8,-51 L 17,-51
 L 17,-54 L 10.2,-54 L 10.2,-51 L 3.39999,-51 L 3.39999,-54 L -3.39999,-54
 L -3.39999,-51 L -10.2,-51 L -10.2,-54 L -17,-54 L -17,-51 L -23.8,-51
 L -23.8,-54 L -30.6,-54 L -30.6,-51 L -37.4,-51 L -37.4,-54 L -44.2,-54
 L -44.2,-51 L -51,-51 L -51,-47.647 L -54,-47.647 L -54,-41.2941 L -51,-41.2941
 L -51,-34.9412 L -54,-34.9412 L -54,-28.5882 L -51,-28.5882 L -51,-22.2353 L -54,-22.2353
 L -54,-15.8823 L -51,-15.8823 L -51,-9.5294 L -54,-9.5294 L -54,-3.17645 L -51,-3.17645
 L -51,3.17647 L -54,3.17647 L -54,9.5294 L -51,9.5294 L -51,15.8823 L -54,15.8823
 L -54,22.2353 L -51,22.2353 L -51,28.5882 L -54,28.5882 L -54,34.9412 L -51,34.9412
 L -51,41.2941 L -54,41.2941 L -54,47.647 L -51,47.647 L -51,54 L 51,54
 z
M 16,-30.1667 L 16,-39.1667 L 19,-39.1667 L 19,-30.1667 z
M -19,-30.1667 L -19,-39.1667 L -16,-39.1667 L -16,-30.1667 z
M -4.5,-17.3333 L -4.5,-20.3333 L 4.5,-20.3333 L 4.5,-17.3333 z
M -38.5,-17.3333 L -38.5,-20.3333 L -29.5,-20.3333 L -29.5,-17.3333 z
M 29.5,-17.3333 L 29.5,-20.3333 L 38.5,-20.3333 L 38.5,-17.3333 z
M -19,2.5 L -19,-6.5 L -16,-6.5 L -16,2.5 z
M 16,2.5 L 16,-6.5 L 19,-6.5 L 19,2.5 z
M -38.5,16.3333 L -38.5,13.3333 L -29.5,13.3333 L -29.5,16.3333 z
M -4.5,16.3333 L -4.5,13.3333 L 4.5,13.3333 L 4.5,16.3333 z
M 29.5,16.3333 L 29.5,13.3333 L 38.5,13.3333 L 38.5,16.3333 z
M 16,35.1667 L 16,26.1667 L 19,26.1667 L 19,35.1667 z
M -19,35.1667 L -19,26.1667 L -16,26.1667 L -16,35.1667 z
M -30.6,51 L -30.6,47 L -23.8,47 L -23.8,51 z
M -44.2,51 L -44.2,47 L -37.4,47 L -37.4,51 z
M -17,51 L -17,47 L -10.2,47 L -10.2,51 z
M -3.39999,51 L -3.39999,47 L 3.39999,47 L 3.39999,51 z
M 10.2,51 L 10.2,47 L 17,47 L 17,51 z
M 23.8,51 L 23.8,47 L 30.6,47 L 30.6,51 z
M 37.4,51 L 37.4,47 L 44.2,47 L 44.2,51 z
M 185.5,49 L 195.5,49 L 195.5,20.3333 L 178,20.3333 L 178,17.3333 L 195.5,17.3333
 L 195.5,-13.3333 L 178,-13.3333 L 178,-16.3333 L 195.5,-16.3333 L 195.5,-49 L 185.5,-49
 L 185.5,-52 L 176.5,-52 L 176.5,-49 L 160.5,-49 L 160.5,-37.1667 L 154.5,-37.1667
 L 154.5,-28.1667 L 160.5,-28.1667 L 160.5,-4.5 L 154.5,-4.5 L 154.5,4.5 L 160.5,4.5
 L 160.5,28.1667 L 154.5,28.1667 L 154.5,37.1667 L 160.5,37.1667 L 160.5,49 L 176.5,49
 L 176.5,52 L 185.5,52 z
M 134.5,49 L 144.5,49 L 144.5,20.3333 L 127,20.3333 L 127,17.3333 L 144.5,17.3333
 L 144.5,-13.3333 L 127,-13.3333 L 127,-16.3333 L 144.5,-16.3333 L 144.5,-49 L 134.5,-49
 L 134.5,-52 L 125.5,-52 L 125.5,-49 L 109.5,-49 L 109.5,-37.1667 L 103.5,-37.1667
 L 103.5,-28.1667 L 109.5,-28.1667 L 109.5,-4.5 L 103.5,-4.5 L 103.5,4.5 L 109.5,4.5
 L 109.5,28.1667 L 103.5,28.1667 L 103.5,37.1667 L 109.5,37.1667 L 109.5,49 L 125.5,49
 L 125.5,52 L 134.5,52 z
M 51,92.7143 L 54,92.7143 L 54,86.4286 L 51,86.4286 L 51,80.1429 L 54,80.1429
 L 54,73.8571 L 51,73.8571 L 51,67.5714 L 54,67.5714 L 54,61.2857 L 51,61.2857
 L 51,62.5 L 44.2,62.5 L 44.2,58 L 37.4,58 L 37.4,62.5 L 30.6,62.5
 L 30.6,58 L 23.8,58 L 23.8,62.5 L 17,62.5 L 17,58 L 10.2,58
 L 10.2,62.5 L 3.39999,62.5 L 3.39999,58 L -3.39999,58 L -3.39999,62.5 L -10.2,62.5
 L -10.2,58 L -17,58 L -17,62.5 L -23.8,62.5 L -23.8,58 L -30.6,58
 L -30.6,62.5 L -37.4,62.5 L -37.4,58 L -44.2,58 L -44.2,62.5 L -51,62.5
 L -51,61.2857 L -54,61.2857 L -54,67.5714 L -51,67.5714 L -51,73.8571 L -54,73.8571
 L -54,80.1429 L -51,80.1429 L -51,86.4286 L -54,86.4286 L -54,92.7143 L -51,92.7143
 L -51,99 L 51,99 z
M 16,87.5 L 16,78.5 L 19,78.5 L 19,87.5 z
M -19,87.5 L -19,78.5 L -16,78.5 L -16,87.5 z
" stroke="black" fill="lightgray" stroke-width="0.5"/>
</svg>
