  0
SECTION
  2
BLOCKS
  0
ENDSEC
  0
SECTION
  2
ENTITIES
  0
LINE
  8
0
 10
-33.75
 20
104.5
 11
-27.75
 21
104.5
  0
LINE
  8
0
 10
-27.75
 20
104.5
 11
-27.75
 21
123
  0
LINE
  8
0
 10
-27.75
 20
123
 11
-24.75
 21
123
  0
LINE
  8
0
 10
-24.75
 20
123
 11
-24.75
 21
104.5
  0
LINE
  8
0
 10
-24.75
 20
104.5
 11
-17.25
 21
104.5
  0
LINE
  8
0
 10
-17.25
 20
104.5
 11
-17.25
 21
100.5
  0
LINE
  8
0
 10
-17.25
 20
100.5
 11
-8.25
 21
100.5
  0
LINE
  8
0
 10
-8.25
 20
100.5
 11
-8.25
 21
104.5
  0
LINE
  8
0
 10
-8.25
 20
104.5
 11
-1.5
 21
104.5
  0
LINE
  8
0
 10
-1.5
 20
104.5
 11
-1.5
 21
123
  0
LINE
  8
0
 10
-1.5
 20
123
 11
1.5
 21
123
  0
LINE
  8
0
 10
1.5
 20
123
 11
1.5
 21
104.5
  0
LINE
  8
0
 10
1.5
 20
104.5
 11
8.25
 21
104.5
  0
LINE
  8
0
 10
8.25
 20
104.5
 11
8.25
 21
100.5
  0
LINE
  8
0
 10
8.25
 20
100.5
 11
17.25
 21
100.5
  0
LINE
  8
0
 10
17.25
 20
100.5
 11
17.25
 21
104.5
  0
LINE
  8
0
 10
17.25
 20
104.5
 11
24.75
 21
104.5
  0
LINE
  8
0
 10
24.75
 20
104.5
 11
24.75
 21
123
  0
LINE
  8
0
 10
24.75
 20
123
 11
27.75
 21
123
  0
LINE
  8
0
 10
27.75
 20
123
 11
27.75
 21
104.5
  0
LINE
  8
0
 10
27.75
 20
104.5
 11
33.75
 21
104.5
  0
LINE
  8
0
 10
33.75
 20
104.5
 11
33.75
 21
100.5
  0
LINE
  8
0
 10
33.75
 20
100.5
 11
42.75
 21
100.5
  0
LINE
  8
0
 10
42.75
 20
100.5
 11
42.75
 21
104.5
  0
LINE
  8
0
 10
42.75
 20
104.5
 11
51
 21
104.5
  0
LINE
  8
0
 10
51
 20
104.5
 11
51
 21
123.5
  0
LINE
  8
0
 10
51
 20
123.5
 11
54
 21
123.5
  0
LINE
  8
0
 10
54
 20
123.5
 11
54
 21
132.5
  0
LINE
  8
0
 10
54
 20
132.5
 11
51
 21
132.5
  0
LINE
  8
0
 10
51
 20
132.5
 11
51
 21
141.5
  0
LINE
  8
0
 10
51
 20
141.5
 11
-51
 21
141.5
  0
LINE
  8
0
 10
-51
 20
141.5
 11
-51
 21
132.5
  0
LINE
  8
0
 10
-51
 20
132.5
 11
-54
 21
132.5
  0
LINE
  8
0
 10
-54
 20
132.5
 11
-54
 21
123.5
  0
LINE
  8
0
 10
-54
 20
123.5
 11
-51
 21
123.5
  0
LINE
  8
0
 10
-51
 20
123.5
 11
-51
 21
104.5
  0
LINE
  8
0
 10
-51
 20
104.5
 11
-42.75
 21
104.5
  0
LINE
  8
0
 10
-42.75
 20
104.5
 11
-42.75
 21
100.5
  0
LINE
  8
0
 10
-42.75
 20
100.5
 11
-33.75
 21
100.5
  0
LINE
  8
0
 10
-33.75
 20
100.5
 11
-33.75
 21
104.5
  0
LINE
  8
0
 10
51
 20
61.2857
 11
54
 21
61.2857
  0
LINE
  8
0
 10
54
 20
61.2857
 11
54
 21
67.5714
  0
LINE
  8
0
 10
54
 20
67.5714
 11
51
 21
67.5714
  0
LINE
  8
0
 10
51
 20
67.5714
 11
51
 21
73.8571
  0
LINE
  8
0
 10
51
 20
73.8571
 11
54
 21
73.8571
  0
LINE
  8
0
 10
54
 20
73.8571
 11
54
 21
80.1429
  0
LINE
  8
0
 10
54
 20
80.1429
 11
51
 21
80.1429
  0
LINE
  8
0
 10
51
 20
80.1429
 11
51
 21
86.4286
  0
LINE
  8
0
 10
51
 20
86.4286
 11
54
 21
86.4286
  0
LINE
  8
0
 10
54
 20
86.4286
 11
54
 21
92.7143
  0
LINE
  8
0
 10
54
 20
92.7143
 11
51
 21
92.7143
  0
LINE
  8
0
 10
51
 20
92.7143
 11
51
 21
99
  0
LINE
  8
0
 10
51
 20
99
 11
-51
 21
99
  0
LINE
  8
0
 10
-51
 20
99
 11
-51
 21
92.7143
  0
LINE
  8
0
 10
-51
 20
92.7143
 11
-54
 21
92.7143
  0
LINE
  8
0
 10
-54
 20
92.7143
 11
-54
 21
86.4286
  0
LINE
  8
0
 10
-54
 20
86.4286
 11
-51
 21
86.4286
  0
LINE
  8
0
 10
-51
 20
86.4286
 11
-51
 21
80.1429
  0
LINE
  8
0
 10
-51
 20
80.1429
 11
-54
 21
80.1429
  0
LINE
  8
0
 10
-54
 20
80.1429
 11
-54
 21
73.8571
  0
LINE
  8
0
 10
-54
 20
73.8571
 11
-51
 21
73.8571
  0
LINE
  8
0
 10
-51
 20
73.8571
 11
-51
 21
67.5714
  0
LINE
  8
0
 10
-51
 20
67.5714
 11
-54
 21
67.5714
  0
LINE
  8
0
 10
-54
 20
67.5714
 11
-54
 21
61.2857
  0
LINE
  8
0
 10
-54
 20
61.2857
 11
-51
 21
61.2857
  0
LINE
  8
0
 10
-51
 20
61.2857
 11
-51
 21
55
  0
LINE
  8
0
 10
-51
 20
55
 11
51
 21
55
  0
LINE
  8
0
 10
51
 20
55
 11
51
 21
61.2857
  0
LINE
  8
0
 10
-27.75
 20
81
 11
-27.75
 21
90
  0
LINE
  8
0
 10
-27.75
 20
90
 11
-24.75
 21
90
  0
LINE
  8
0
 10
-24.75
 20
90
 11
-24.75
 21
81
  0
LINE
  8
0
 10
-24.75
 20
81
 11
-27.75
 21
81
  0
LINE
  8
0
 10
-1.5
 20
81
 11
-1.5
 21
90
  0
LINE
  8
0
 10
-1.5
 20
90
 11
1.5
 21
90
  0
LINE
  8
0
 10
1.5
 20
90
 11
1.5
 21
81
  0
LINE
  8
0
 10
1.5
 20
81
 11
-1.5
 21
81
  0
LINE
  8
0
 10
24.75
 20
81
 11
24.75
 21
90
  0
LINE
  8
0
 10
24.75
 20
90
 11
27.75
 21
90
  0
LINE
  8
0
 10
27.75
 20
90
 11
27.75
 21
81
  0
LINE
  8
0
 10
27.75
 20
81
 11
24.75
 21
81
  0
LINE
  8
0
 10
-3.39999
 20
58
 11
-3.39999
 21
62
  0
LINE
  8
0
 10
-3.39999
 20
62
 11
3.39999
 21
62
  0
LINE
  8
0
 10
3.39999
 20
62
 11
3.39999
 21
58
  0
LINE
  8
0
 10
3.39999
 20
58
 11
-3.39999
 21
58
  0
LINE
  8
0
 10
-44.2
 20
58
 11
-44.2
 21
62
  0
LINE
  8
0
 10
-44.2
 20
62
 11
-37.4
 21
62
  0
LINE
  8
0
 10
-37.4
 20
62
 11
-37.4
 21
58
  0
LINE
  8
0
 10
-37.4
 20
58
 11
-44.2
 21
58
  0
LINE
  8
0
 10
-30.6
 20
58
 11
-30.6
 21
62
  0
LINE
  8
0
 10
-30.6
 20
62
 11
-23.8
 21
62
  0
LINE
  8
0
 10
-23.8
 20
62
 11
-23.8
 21
58
  0
LINE
  8
0
 10
-23.8
 20
58
 11
-30.6
 21
58
  0
LINE
  8
0
 10
-17
 20
58
 11
-17
 21
62
  0
LINE
  8
0
 10
-17
 20
62
 11
-10.2
 21
62
  0
LINE
  8
0
 10
-10.2
 20
62
 11
-10.2
 21
58
  0
LINE
  8
0
 10
-10.2
 20
58
 11
-17
 21
58
  0
LINE
  8
0
 10
10.2
 20
58
 11
10.2
 21
62
  0
LINE
  8
0
 10
10.2
 20
62
 11
17
 21
62
  0
LINE
  8
0
 10
17
 20
62
 11
17
 21
58
  0
LINE
  8
0
 10
17
 20
58
 11
10.2
 21
58
  0
LINE
  8
0
 10
23.8
 20
58
 11
23.8
 21
62
  0
LINE
  8
0
 10
23.8
 20
62
 11
30.6
 21
62
  0
LINE
  8
0
 10
30.6
 20
62
 11
30.6
 21
58
  0
LINE
  8
0
 10
30.6
 20
58
 11
23.8
 21
58
  0
LINE
  8
0
 10
37.4
 20
58
 11
37.4
 21
62
  0
LINE
  8
0
 10
37.4
 20
62
 11
44.2
 21
62
  0
LINE
  8
0
 10
44.2
 20
62
 11
44.2
 21
58
  0
LINE
  8
0
 10
44.2
 20
58
 11
37.4
 21
58
  0
LINE
  8
0
 10
-55
 20
54
 11
-61.2857
 21
54
  0
LINE
  8
0
 10
-61.2857
 20
54
 11
-61.2857
 21
51
  0
LINE
  8
0
 10
-61.2857
 20
51
 11
-67.5714
 21
51
  0
LINE
  8
0
 10
-67.5714
 20
51
 11
-67.5714
 21
54
  0
LINE
  8
0
 10
-67.5714
 20
54
 11
-73.8571
 21
54
  0
LINE
  8
0
 10
-73.8571
 20
54
 11
-73.8571
 21
51
  0
LINE
  8
0
 10
-73.8571
 20
51
 11
-80.1429
 21
51
  0
LINE
  8
0
 10
-80.1429
 20
51
 11
-80.1429
 21
54
  0
LINE
  8
0
 10
-80.1429
 20
54
 11
-86.4286
 21
54
  0
LINE
  8
0
 10
-86.4286
 20
54
 11
-86.4286
 21
51
  0
LINE
  8
0
 10
-86.4286
 20
51
 11
-92.7143
 21
51
  0
LINE
  8
0
 10
-92.7143
 20
51
 11
-92.7143
 21
54
  0
LINE
  8
0
 10
-92.7143
 20
54
 11
-99
 21
54
  0
LINE
  8
0
 10
-99
 20
54
 11
-99
 21
-54
  0
LINE
  8
0
 10
-99
 20
-54
 11
-55
 21
-54
  0
LINE
  8
0
 10
-55
 20
-54
 11
-55
 21
54
  0
LINE
  8
0
 10
-62
 20
41.2941
 11
-62
 21
47.647
  0
LINE
  8
0
 10
-62
 20
47.647
 11
-58
 21
47.647
  0
LINE
  8
0
 10
-58
 20
47.647
 11
-58
 21
41.2941
  0
LINE
  8
0
 10
-58
 20
41.2941
 11
-62
 21
41.2941
  0
LINE
  8
0
 10
-62
 20
28.5882
 11
-62
 21
34.9412
  0
LINE
  8
0
 10
-62
 20
34.9412
 11
-58
 21
34.9412
  0
LINE
  8
0
 10
-58
 20
34.9412
 11
-58
 21
28.5882
  0
LINE
  8
0
 10
-58
 20
28.5882
 11
-62
 21
28.5882
  0
LINE
  8
0
 10
-90
 20
25.75
 11
-90
 21
28.75
  0
LINE
  8
0
 10
-90
 20
28.75
 11
-81
 21
28.75
  0
LINE
  8
0
 10
-81
 20
28.75
 11
-81
 21
25.75
  0
LINE
  8
0
 10
-81
 20
25.75
 11
-90
 21
25.75
  0
LINE
  8
0
 10
-62
 20
15.8823
 11
-62
 21
22.2353
  0
LINE
  8
0
 10
-62
 20
22.2353
 11
-58
 21
22.2353
  0
LINE
  8
0
 10
-58
 20
22.2353
 11
-58
 21
15.8823
  0
LINE
  8
0
 10
-58
 20
15.8823
 11
-62
 21
15.8823
  0
LINE
  8
0
 10
-62
 20
3.17647
 11
-62
 21
9.5294
  0
LINE
  8
0
 10
-62
 20
9.5294
 11
-58
 21
9.5294
  0
LINE
  8
0
 10
-58
 20
9.5294
 11
-58
 21
3.17647
  0
LINE
  8
0
 10
-58
 20
3.17647
 11
-62
 21
3.17647
  0
LINE
  8
0
 10
-90
 20
0.5
 11
-90
 21
3.5
  0
LINE
  8
0
 10
-90
 20
3.5
 11
-81
 21
3.5
  0
LINE
  8
0
 10
-81
 20
3.5
 11
-81
 21
0.5
  0
LINE
  8
0
 10
-81
 20
0.5
 11
-90
 21
0.5
  0
LINE
  8
0
 10
-62
 20
-9.5294
 11
-62
 21
-3.17647
  0
LINE
  8
0
 10
-62
 20
-3.17647
 11
-58
 21
-3.17647
  0
LINE
  8
0
 10
-58
 20
-3.17647
 11
-58
 21
-9.5294
  0
LINE
  8
0
 10
-58
 20
-9.5294
 11
-62
 21
-9.5294
  0
LINE
  8
0
 10
-62
 20
-22.2353
 11
-62
 21
-15.8823
  0
LINE
  8
0
 10
-62
 20
-15.8823
 11
-58
 21
-15.8823
  0
LINE
  8
0
 10
-58
 20
-15.8823
 11
-58
 21
-22.2353
  0
LINE
  8
0
 10
-58
 20
-22.2353
 11
-62
 21
-22.2353
  0
LINE
  8
0
 10
-90
 20
-24.75
 11
-90
 21
-21.75
  0
LINE
  8
0
 10
-90
 20
-21.75
 11
-81
 21
-21.75
  0
LINE
  8
0
 10
-81
 20
-21.75
 11
-81
 21
-24.75
  0
LINE
  8
0
 10
-81
 20
-24.75
 11
-90
 21
-24.75
  0
LINE
  8
0
 10
-62
 20
-34.9412
 11
-62
 21
-28.5882
  0
LINE
  8
0
 10
-62
 20
-28.5882
 11
-58
 21
-28.5882
  0
LINE
  8
0
 10
-58
 20
-28.5882
 11
-58
 21
-34.9412
  0
LINE
  8
0
 10
-58
 20
-34.9412
 11
-62
 21
-34.9412
  0
LINE
  8
0
 10
-67.5714
 20
-51
 11
-67.5714
 21
-47
  0
LINE
  8
0
 10
-67.5714
 20
-47
 11
-62
 21
-47
  0
LINE
  8
0
 10
-62
 20
-47
 11
-62
 21
-41.2941
  0
LINE
  8
0
 10
-62
 20
-41.2941
 11
-58
 21
-41.2941
  0
LINE
  8
0
 10
-58
 20
-41.2941
 11
-58
 21
-47.647
  0
LINE
  8
0
 10
-58
 20
-47.647
 11
-61.2857
 21
-47.647
  0
LINE
  8
0
 10
-61.2857
 20
-47.647
 11
-61.2857
 21
-51
  0
LINE
  8
0
 10
-61.2857
 20
-51
 11
-67.5714
 21
-51
  0
LINE
  8
0
 10
-92.7143
 20
-51
 11
-92.7143
 21
-47
  0
LINE
  8
0
 10
-92.7143
 20
-47
 11
-86.4286
 21
-47
  0
LINE
  8
0
 10
-86.4286
 20
-47
 11
-86.4286
 21
-51
  0
LINE
  8
0
 10
-86.4286
 20
-51
 11
-92.7143
 21
-51
  0
LINE
  8
0
 10
-80.1429
 20
-51
 11
-80.1429
 21
-47
  0
LINE
  8
0
 10
-80.1429
 20
-47
 11
-73.8571
 21
-47
  0
LINE
  8
0
 10
-73.8571
 20
-47
 11
-73.8571
 21
-51
  0
LINE
  8
0
 10
-73.8571
 20
-51
 11
-80.1429
 21
-51
  0
LINE
  8
0
 10
51
 20
-47.647
 11
54
 21
-47.647
  0
LINE
  8
0
 10
54
 20
-47.647
 11
54
 21
-41.2941
  0
LINE
  8
0
 10
54
 20
-41.2941
 11
51
 21
-41.2941
  0
LINE
  8
0
 10
51
 20
-41.2941
 11
51
 21
-34.9412
  0
LINE
  8
0
 10
51
 20
-34.9412
 11
54
 21
-34.9412
  0
LINE
  8
0
 10
54
 20
-34.9412
 11
54
 21
-28.5882
  0
LINE
  8
0
 10
54
 20
-28.5882
 11
51
 21
-28.5882
  0
LINE
  8
0
 10
51
 20
-28.5882
 11
51
 21
-22.2353
  0
LINE
  8
0
 10
51
 20
-22.2353
 11
54
 21
-22.2353
  0
LINE
  8
0
 10
54
 20
-22.2353
 11
54
 21
-15.8823
  0
LINE
  8
0
 10
54
 20
-15.8823
 11
51
 21
-15.8823
  0
LINE
  8
0
 10
51
 20
-15.8823
 11
51
 21
-9.5294
  0
LINE
  8
0
 10
51
 20
-9.5294
 11
54
 21
-9.5294
  0
LINE
  8
0
 10
54
 20
-9.5294
 11
54
 21
-3.17647
  0
LINE
  8
0
 10
54
 20
-3.17647
 11
51
 21
-3.17647
  0
LINE
  8
0
 10
51
 20
-3.17647
 11
51
 21
3.17645
  0
LINE
  8
0
 10
51
 20
3.17645
 11
54
 21
3.17645
  0
LINE
  8
0
 10
54
 20
3.17645
 11
54
 21
9.5294
  0
LINE
  8
0
 10
54
 20
9.5294
 11
51
 21
9.5294
  0
LINE
  8
0
 10
51
 20
9.5294
 11
51
 21
15.8823
  0
LINE
  8
0
 10
51
 20
15.8823
 11
54
 21
15.8823
  0
LINE
  8
0
 10
54
 20
15.8823
 11
54
 21
22.2353
  0
LINE
  8
0
 10
54
 20
22.2353
 11
51
 21
22.2353
  0
LINE
  8
0
 10
51
 20
22.2353
 11
51
 21
28.5882
  0
LINE
  8
0
 10
51
 20
28.5882
 11
54
 21
28.5882
  0
LINE
  8
0
 10
54
 20
28.5882
 11
54
 21
34.9412
  0
LINE
  8
0
 10
54
 20
34.9412
 11
51
 21
34.9412
  0
LINE
  8
0
 10
51
 20
34.9412
 11
51
 21
41.2941
  0
LINE
  8
0
 10
51
 20
41.2941
 11
54
 21
41.2941
  0
LINE
  8
0
 10
54
 20
41.2941
 11
54
 21
47.647
  0
LINE
  8
0
 10
54
 20
47.647
 11
51
 21
47.647
  0
LINE
  8
0
 10
51
 20
47.647
 11
51
 21
51
  0
LINE
  8
0
 10
51
 20
51
 11
44.2
 21
51
  0
LINE
  8
0
 10
44.2
 20
51
 11
44.2
 21
54
  0
LINE
  8
0
 10
44.2
 20
54
 11
37.4
 21
54
  0
LINE
  8
0
 10
37.4
 20
54
 11
37.4
 21
51
  0
LINE
  8
0
 10
37.4
 20
51
 11
30.6
 21
51
  0
LINE
  8
0
 10
30.6
 20
51
 11
30.6
 21
54
  0
LINE
  8
0
 10
30.6
 20
54
 11
23.8
 21
54
  0
LINE
  8
0
 10
23.8
 20
54
 11
23.8
 21
51
  0
LINE
  8
0
 10
23.8
 20
51
 11
17
 21
51
  0
LINE
  8
0
 10
17
 20
51
 11
17
 21
54
  0
LINE
  8
0
 10
17
 20
54
 11
10.2
 21
54
  0
LINE
  8
0
 10
10.2
 20
54
 11
10.2
 21
51
  0
LINE
  8
0
 10
10.2
 20
51
 11
3.39999
 21
51
  0
LINE
  8
0
 10
3.39999
 20
51
 11
3.39999
 21
54
  0
LINE
  8
0
 10
3.39999
 20
54
 11
-3.39999
 21
54
  0
LINE
  8
0
 10
-3.39999
 20
54
 11
-3.39999
 21
51
  0
LINE
  8
0
 10
-3.39999
 20
51
 11
-10.2
 21
51
  0
LINE
  8
0
 10
-10.2
 20
51
 11
-10.2
 21
54
  0
LINE
  8
0
 10
-10.2
 20
54
 11
-17
 21
54
  0
LINE
  8
0
 10
-17
 20
54
 11
-17
 21
51
  0
LINE
  8
0
 10
-17
 20
51
 11
-23.8
 21
51
  0
LINE
  8
0
 10
-23.8
 20
51
 11
-23.8
 21
54
  0
LINE
  8
0
 10
-23.8
 20
54
 11
-30.6
 21
54
  0
LINE
  8
0
 10
-30.6
 20
54
 11
-30.6
 21
51
  0
LINE
  8
0
 10
-30.6
 20
51
 11
-37.4
 21
51
  0
LINE
  8
0
 10
-37.4
 20
51
 11
-37.4
 21
54
  0
LINE
  8
0
 10
-37.4
 20
54
 11
-44.2
 21
54
  0
LINE
  8
0
 10
-44.2
 20
54
 11
-44.2
 21
51
  0
LINE
  8
0
 10
-44.2
 20
51
 11
-51
 21
51
  0
LINE
  8
0
 10
-51
 20
51
 11
-51
 21
47.647
  0
LINE
  8
0
 10
-51
 20
47.647
 11
-54
 21
47.647
  0
LINE
  8
0
 10
-54
 20
47.647
 11
-54
 21
41.2941
  0
LINE
  8
0
 10
-54
 20
41.2941
 11
-51
 21
41.2941
  0
LINE
  8
0
 10
-51
 20
41.2941
 11
-51
 21
34.9412
  0
LINE
  8
0
 10
-51
 20
34.9412
 11
-54
 21
34.9412
  0
LINE
  8
0
 10
-54
 20
34.9412
 11
-54
 21
28.5882
  0
LINE
  8
0
 10
-54
 20
28.5882
 11
-51
 21
28.5882
  0
LINE
  8
0
 10
-51
 20
28.5882
 11
-51
 21
22.2353
  0
LINE
  8
0
 10
-51
 20
22.2353
 11
-54
 21
22.2353
  0
LINE
  8
0
 10
-54
 20
22.2353
 11
-54
 21
15.8823
  0
LINE
  8
0
 10
-54
 20
15.8823
 11
-51
 21
15.8823
  0
LINE
  8
0
 10
-51
 20
15.8823
 11
-51
 21
9.5294
  0
LINE
  8
0
 10
-51
 20
9.5294
 11
-54
 21
9.5294
  0
LINE
  8
0
 10
-54
 20
9.5294
 11
-54
 21
3.17645
  0
LINE
  8
0
 10
-54
 20
3.17645
 11
-51
 21
3.17645
  0
LINE
  8
0
 10
-51
 20
3.17645
 11
-51
 21
-3.17647
  0
LINE
  8
0
 10
-51
 20
-3.17647
 11
-54
 21
-3.17647
  0
LINE
  8
0
 10
-54
 20
-3.17647
 11
-54
 21
-9.5294
  0
LINE
  8
0
 10
-54
 20
-9.5294
 11
-51
 21
-9.5294
  0
LINE
  8
0
 10
-51
 20
-9.5294
 11
-51
 21
-15.8823
  0
LINE
  8
0
 10
-51
 20
-15.8823
 11
-54
 21
-15.8823
  0
LINE
  8
0
 10
-54
 20
-15.8823
 11
-54
 21
-22.2353
  0
LINE
  8
0
 10
-54
 20
-22.2353
 11
-51
 21
-22.2353
  0
LINE
  8
0
 10
-51
 20
-22.2353
 11
-51
 21
-28.5882
  0
LINE
  8
0
 10
-51
 20
-28.5882
 11
-54
 21
-28.5882
  0
LINE
  8
0
 10
-54
 20
-28.5882
 11
-54
 21
-34.9412
  0
LINE
  8
0
 10
-54
 20
-34.9412
 11
-51
 21
-34.9412
  0
LINE
  8
0
 10
-51
 20
-34.9412
 11
-51
 21
-41.2941
  0
LINE
  8
0
 10
-51
 20
-41.2941
 11
-54
 21
-41.2941
  0
LINE
  8
0
 10
-54
 20
-41.2941
 11
-54
 21
-47.647
  0
LINE
  8
0
 10
-54
 20
-47.647
 11
-51
 21
-47.647
  0
LINE
  8
0
 10
-51
 20
-47.647
 11
-51
 21
-54
  0
LINE
  8
0
 10
-51
 20
-54
 11
51
 21
-54
  0
LINE
  8
0
 10
51
 20
-54
 11
51
 21
-47.647
  0
LINE
  8
0
 10
-1.5
 20
34.25
 11
-1.5
 21
43.25
  0
LINE
  8
0
 10
-1.5
 20
43.25
 11
1.5
 21
43.25
  0
LINE
  8
0
 10
1.5
 20
43.25
 11
1.5
 21
34.25
  0
LINE
  8
0
 10
1.5
 20
34.25
 11
-1.5
 21
34.25
  0
LINE
  8
0
 10
-27.75
 20
34.25
 11
-27.75
 21
43.25
  0
LINE
  8
0
 10
-27.75
 20
43.25
 11
-24.75
 21
43.25
  0
LINE
  8
0
 10
-24.75
 20
43.25
 11
-24.75
 21
34.25
  0
LINE
  8
0
 10
-24.75
 20
34.25
 11
-27.75
 21
34.25
  0
LINE
  8
0
 10
24.75
 20
34.25
 11
24.75
 21
43.25
  0
LINE
  8
0
 10
24.75
 20
43.25
 11
27.75
 21
43.25
  0
LINE
  8
0
 10
27.75
 20
43.25
 11
27.75
 21
34.25
  0
LINE
  8
0
 10
27.75
 20
34.25
 11
24.75
 21
34.25
  0
LINE
  8
0
 10
-17.25
 20
25.75
 11
-17.25
 21
28.75
  0
LINE
  8
0
 10
-17.25
 20
28.75
 11
-8.25
 21
28.75
  0
LINE
  8
0
 10
-8.25
 20
28.75
 11
-8.25
 21
25.75
  0
LINE
  8
0
 10
-8.25
 20
25.75
 11
-17.25
 21
25.75
  0
LINE
  8
0
 10
8.25
 20
25.75
 11
8.25
 21
28.75
  0
LINE
  8
0
 10
8.25
 20
28.75
 11
17.25
 21
28.75
  0
LINE
  8
0
 10
17.25
 20
28.75
 11
17.25
 21
25.75
  0
LINE
  8
0
 10
17.25
 20
25.75
 11
8.25
 21
25.75
  0
LINE
  8
0
 10
33.75
 20
25.75
 11
33.75
 21
28.75
  0
LINE
  8
0
 10
33.75
 20
28.75
 11
42.75
 21
28.75
  0
LINE
  8
0
 10
42.75
 20
28.75
 11
42.75
 21
25.75
  0
LINE
  8
0
 10
42.75
 20
25.75
 11
33.75
 21
25.75
  0
LINE
  8
0
 10
-42.75
 20
25.75
 11
-42.75
 21
28.75
  0
LINE
  8
0
 10
-42.75
 20
28.75
 11
-33.75
 21
28.75
  0
LINE
  8
0
 10
-33.75
 20
28.75
 11
-33.75
 21
25.75
  0
LINE
  8
0
 10
-33.75
 20
25.75
 11
-42.75
 21
25.75
  0
LINE
  8
0
 10
-27.75
 20
9.75
 11
-27.75
 21
18.75
  0
LINE
  8
0
 10
-27.75
 20
18.75
 11
-24.75
 21
18.75
  0
LINE
  8
0
 10
-24.75
 20
18.75
 11
-24.75
 21
9.75
  0
LINE
  8
0
 10
-24.75
 20
9.75
 11
-27.75
 21
9.75
  0
LINE
  8
0
 10
-1.5
 20
9.75
 11
-1.5
 21
18.75
  0
LINE
  8
0
 10
-1.5
 20
18.75
 11
1.5
 21
18.75
  0
LINE
  8
0
 10
1.5
 20
18.75
 11
1.5
 21
9.75
  0
LINE
  8
0
 10
1.5
 20
9.75
 11
-1.5
 21
9.75
  0
LINE
  8
0
 10
24.75
 20
9.75
 11
24.75
 21
18.75
  0
LINE
  8
0
 10
24.75
 20
18.75
 11
27.75
 21
18.75
  0
LINE
  8
0
 10
27.75
 20
18.75
 11
27.75
 21
9.75
  0
LINE
  8
0
 10
27.75
 20
9.75
 11
24.75
 21
9.75
  0
LINE
  8
0
 10
8.25
 20
0.5
 11
8.25
 21
3.5
  0
LINE
  8
0
 10
8.25
 20
3.5
 11
17.25
 21
3.5
  0
LINE
  8
0
 10
17.25
 20
3.5
 11
17.25
 21
0.5
  0
LINE
  8
0
 10
17.25
 20
0.5
 11
8.25
 21
0.5
  0
LINE
  8
0
 10
-42.75
 20
0.5
 11
-42.75
 21
3.5
  0
LINE
  8
0
 10
-42.75
 20
3.5
 11
-33.75
 21
3.5
  0
LINE
  8
0
 10
-33.75
 20
3.5
 11
-33.75
 21
0.5
  0
LINE
  8
0
 10
-33.75
 20
0.5
 11
-42.75
 21
0.5
  0
LINE
  8
0
 10
33.75
 20
0.5
 11
33.75
 21
3.5
  0
LINE
  8
0
 10
33.75
 20
3.5
 11
42.75
 21
3.5
  0
LINE
  8
0
 10
42.75
 20
3.5
 11
42.75
 21
0.5
  0
LINE
  8
0
 10
42.75
 20
0.5
 11
33.75
 21
0.5
  0
LINE
  8
0
 10
-17.25
 20
0.5
 11
-17.25
 21
3.5
  0
LINE
  8
0
 10
-17.25
 20
3.5
 11
-8.25
 21
3.5
  0
LINE
  8
0
 10
-8.25
 20
3.5
 11
-8.25
 21
0.5
  0
LINE
  8
0
 10
-8.25
 20
0.5
 11
-17.25
 21
0.5
  0
LINE
  8
0
 10
24.75
 20
-14.75
 11
24.75
 21
-5.75
  0
LINE
  8
0
 10
24.75
 20
-5.75
 11
27.75
 21
-5.75
  0
LINE
  8
0
 10
27.75
 20
-5.75
 11
27.75
 21
-14.75
  0
LINE
  8
0
 10
27.75
 20
-14.75
 11
24.75
 21
-14.75
  0
LINE
  8
0
 10
-27.75
 20
-14.75
 11
-27.75
 21
-5.75
  0
LINE
  8
0
 10
-27.75
 20
-5.75
 11
-24.75
 21
-5.75
  0
LINE
  8
0
 10
-24.75
 20
-5.75
 11
-24.75
 21
-14.75
  0
LINE
  8
0
 10
-24.75
 20
-14.75
 11
-27.75
 21
-14.75
  0
LINE
  8
0
 10
-1.5
 20
-14.75
 11
-1.5
 21
-5.75
  0
LINE
  8
0
 10
-1.5
 20
-5.75
 11
1.5
 21
-5.75
  0
LINE
  8
0
 10
1.5
 20
-5.75
 11
1.5
 21
-14.75
  0
LINE
  8
0
 10
1.5
 20
-14.75
 11
-1.5
 21
-14.75
  0
LINE
  8
0
 10
-42.75
 20
-24.75
 11
-42.75
 21
-21.75
  0
LINE
  8
0
 10
-42.75
 20
-21.75
 11
-33.75
 21
-21.75
  0
LINE
  8
0
 10
-33.75
 20
-21.75
 11
-33.75
 21
-24.75
  0
LINE
  8
0
 10
-33.75
 20
-24.75
 11
-42.75
 21
-24.75
  0
LINE
  8
0
 10
-17.25
 20
-24.75
 11
-17.25
 21
-21.75
  0
LINE
  8
0
 10
-17.25
 20
-21.75
 11
-8.25
 21
-21.75
  0
LINE
  8
0
 10
-8.25
 20
-21.75
 11
-8.25
 21
-24.75
  0
LINE
  8
0
 10
-8.25
 20
-24.75
 11
-17.25
 21
-24.75
  0
LINE
  8
0
 10
8.25
 20
-24.75
 11
8.25
 21
-21.75
  0
LINE
  8
0
 10
8.25
 20
-21.75
 11
17.25
 21
-21.75
  0
LINE
  8
0
 10
17.25
 20
-21.75
 11
17.25
 21
-24.75
  0
LINE
  8
0
 10
17.25
 20
-24.75
 11
8.25
 21
-24.75
  0
LINE
  8
0
 10
33.75
 20
-24.75
 11
33.75
 21
-21.75
  0
LINE
  8
0
 10
33.75
 20
-21.75
 11
42.75
 21
-21.75
  0
LINE
  8
0
 10
42.75
 20
-21.75
 11
42.75
 21
-24.75
  0
LINE
  8
0
 10
42.75
 20
-24.75
 11
33.75
 21
-24.75
  0
LINE
  8
0
 10
-1.5
 20
-39.25
 11
-1.5
 21
-30.25
  0
LINE
  8
0
 10
-1.5
 20
-30.25
 11
1.5
 21
-30.25
  0
LINE
  8
0
 10
1.5
 20
-30.25
 11
1.5
 21
-39.25
  0
LINE
  8
0
 10
1.5
 20
-39.25
 11
-1.5
 21
-39.25
  0
LINE
  8
0
 10
24.75
 20
-39.25
 11
24.75
 21
-30.25
  0
LINE
  8
0
 10
24.75
 20
-30.25
 11
27.75
 21
-30.25
  0
LINE
  8
0
 10
27.75
 20
-30.25
 11
27.75
 21
-39.25
  0
LINE
  8
0
 10
27.75
 20
-39.25
 11
24.75
 21
-39.25
  0
LINE
  8
0
 10
-27.75
 20
-39.25
 11
-27.75
 21
-30.25
  0
LINE
  8
0
 10
-27.75
 20
-30.25
 11
-24.75
 21
-30.25
  0
LINE
  8
0
 10
-24.75
 20
-30.25
 11
-24.75
 21
-39.25
  0
LINE
  8
0
 10
-24.75
 20
-39.25
 11
-27.75
 21
-39.25
  0
LINE
  8
0
 10
37.4
 20
-51
 11
37.4
 21
-47
  0
LINE
  8
0
 10
37.4
 20
-47
 11
44.2
 21
-47
  0
LINE
  8
0
 10
44.2
 20
-47
 11
44.2
 21
-51
  0
LINE
  8
0
 10
44.2
 20
-51
 11
37.4
 21
-51
  0
LINE
  8
0
 10
23.8
 20
-51
 11
23.8
 21
-47
  0
LINE
  8
0
 10
23.8
 20
-47
 11
30.6
 21
-47
  0
LINE
  8
0
 10
30.6
 20
-47
 11
30.6
 21
-51
  0
LINE
  8
0
 10
30.6
 20
-51
 11
23.8
 21
-51
  0
LINE
  8
0
 10
10.2
 20
-51
 11
10.2
 21
-47
  0
LINE
  8
0
 10
10.2
 20
-47
 11
17
 21
-47
  0
LINE
  8
0
 10
17
 20
-47
 11
17
 21
-51
  0
LINE
  8
0
 10
17
 20
-51
 11
10.2
 21
-51
  0
LINE
  8
0
 10
-3.39999
 20
-51
 11
-3.39999
 21
-47
  0
LINE
  8
0
 10
-3.39999
 20
-47
 11
3.39999
 21
-47
  0
LINE
  8
0
 10
3.39999
 20
-47
 11
3.39999
 21
-51
  0
LINE
  8
0
 10
3.39999
 20
-51
 11
-3.39999
 21
-51
  0
LINE
  8
0
 10
-17
 20
-51
 11
-17
 21
-47
  0
LINE
  8
0
 10
-17
 20
-47
 11
-10.2
 21
-47
  0
LINE
  8
0
 10
-10.2
 20
-47
 11
-10.2
 21
-51
  0
LINE
  8
0
 10
-10.2
 20
-51
 11
-17
 21
-51
  0
LINE
  8
0
 10
-30.6
 20
-51
 11
-30.6
 21
-47
  0
LINE
  8
0
 10
-30.6
 20
-47
 11
-23.8
 21
-47
  0
LINE
  8
0
 10
-23.8
 20
-47
 11
-23.8
 21
-51
  0
LINE
  8
0
 10
-23.8
 20
-51
 11
-30.6
 21
-51
  0
LINE
  8
0
 10
-44.2
 20
-51
 11
-44.2
 21
-47
  0
LINE
  8
0
 10
-44.2
 20
-47
 11
-37.4
 21
-47
  0
LINE
  8
0
 10
-37.4
 20
-47
 11
-37.4
 21
-51
  0
LINE
  8
0
 10
-37.4
 20
-51
 11
-44.2
 21
-51
  0
LINE
  8
0
 10
132.5
 20
-47
 11
141.5
 21
-47
  0
LINE
  8
0
 10
141.5
 20
-47
 11
141.5
 21
-24.75
  0
LINE
  8
0
 10
141.5
 20
-24.75
 11
123
 21
-24.75
  0
LINE
  8
0
 10
123
 20
-24.75
 11
123
 21
-21.75
  0
LINE
  8
0
 10
123
 20
-21.75
 11
141.5
 21
-21.75
  0
LINE
  8
0
 10
141.5
 20
-21.75
 11
141.5
 21
0.5
  0
LINE
  8
0
 10
141.5
 20
0.5
 11
123
 21
0.5
  0
LINE
  8
0
 10
123
 20
0.5
 11
123
 21
3.5
  0
LINE
  8
0
 10
123
 20
3.5
 11
141.5
 21
3.5
  0
LINE
  8
0
 10
141.5
 20
3.5
 11
141.5
 21
25.75
  0
LINE
  8
0
 10
141.5
 20
25.75
 11
123
 21
25.75
  0
LINE
  8
0
 10
123
 20
25.75
 11
123
 21
28.75
  0
LINE
  8
0
 10
123
 20
28.75
 11
141.5
 21
28.75
  0
LINE
  8
0
 10
141.5
 20
28.75
 11
141.5
 21
51
  0
LINE
  8
0
 10
141.5
 20
51
 11
132.5
 21
51
  0
LINE
  8
0
 10
132.5
 20
51
 11
132.5
 21
54
  0
LINE
  8
0
 10
132.5
 20
54
 11
123.5
 21
54
  0
LINE
  8
0
 10
123.5
 20
54
 11
123.5
 21
51
  0
LINE
  8
0
 10
123.5
 20
51
 11
104.5
 21
51
  0
LINE
  8
0
 10
104.5
 20
51
 11
104.5
 21
43.25
  0
LINE
  8
0
 10
104.5
 20
43.25
 11
100.5
 21
43.25
  0
LINE
  8
0
 10
100.5
 20
43.25
 11
100.5
 21
34.25
  0
LINE
  8
0
 10
100.5
 20
34.25
 11
104.5
 21
34.25
  0
LINE
  8
0
 10
104.5
 20
34.25
 11
104.5
 21
18.75
  0
LINE
  8
0
 10
104.5
 20
18.75
 11
100.5
 21
18.75
  0
LINE
  8
0
 10
100.5
 20
18.75
 11
100.5
 21
9.75
  0
LINE
  8
0
 10
100.5
 20
9.75
 11
104.5
 21
9.75
  0
LINE
  8
0
 10
104.5
 20
9.75
 11
104.5
 21
-5.75
  0
LINE
  8
0
 10
104.5
 20
-5.75
 11
100.5
 21
-5.75
  0
LINE
  8
0
 10
100.5
 20
-5.75
 11
100.5
 21
-14.75
  0
LINE
  8
0
 10
100.5
 20
-14.75
 11
104.5
 21
-14.75
  0
LINE
  8
0
 10
104.5
 20
-14.75
 11
104.5
 21
-30.25
  0
LINE
  8
0
 10
104.5
 20
-30.25
 11
100.5
 21
-30.25
  0
LINE
  8
0
 10
100.5
 20
-30.25
 11
100.5
 21
-39.25
  0
LINE
  8
0
 10
100.5
 20
-39.25
 11
104.5
 21
-39.25
  0
LINE
  8
0
 10
104.5
 20
-39.25
 11
104.5
 21
-47
  0
LINE
  8
0
 10
104.5
 20
-47
 11
123.5
 21
-47
  0
LINE
  8
0
 10
123.5
 20
-47
 11
123.5
 21
-51
  0
LINE
  8
0
 10
123.5
 20
-51
 11
132.5
 21
-51
  0
LINE
  8
0
 10
132.5
 20
-51
 11
132.5
 21
-47
  0
LINE
  8
0
 10
99
 20
54
 11
92.7143
 21
54
  0
LINE
  8
0
 10
92.7143
 20
54
 11
92.7143
 21
51
  0
LINE
  8
0
 10
92.7143
 20
51
 11
86.4286
 21
51
  0
LINE
  8
0
 10
86.4286
 20
51
 11
86.4286
 21
54
  0
LINE
  8
0
 10
86.4286
 20
54
 11
80.1429
 21
54
  0
LINE
  8
0
 10
80.1429
 20
54
 11
80.1429
 21
51
  0
LINE
  8
0
 10
80.1429
 20
51
 11
73.8571
 21
51
  0
LINE
  8
0
 10
73.8571
 20
51
 11
73.8571
 21
54
  0
LINE
  8
0
 10
73.8571
 20
54
 11
67.5714
 21
54
  0
LINE
  8
0
 10
67.5714
 20
54
 11
67.5714
 21
51
  0
LINE
  8
0
 10
67.5714
 20
51
 11
61.2857
 21
51
  0
LINE
  8
0
 10
61.2857
 20
51
 11
61.2857
 21
54
  0
LINE
  8
0
 10
61.2857
 20
54
 11
55
 21
54
  0
LINE
  8
0
 10
55
 20
54
 11
55
 21
-54
  0
LINE
  8
0
 10
55
 20
-54
 11
99
 21
-54
  0
LINE
  8
0
 10
99
 20
-54
 11
99
 21
54
  0
LINE
  8
0
 10
58
 20
41.2941
 11
58
 21
47.647
  0
LINE
  8
0
 10
58
 20
47.647
 11
62
 21
47.647
  0
LINE
  8
0
 10
62
 20
47.647
 11
62
 21
41.2941
  0
LINE
  8
0
 10
62
 20
41.2941
 11
58
 21
41.2941
  0
LINE
  8
0
 10
58
 20
28.5882
 11
58
 21
34.9412
  0
LINE
  8
0
 10
58
 20
34.9412
 11
62
 21
34.9412
  0
LINE
  8
0
 10
62
 20
34.9412
 11
62
 21
28.5882
  0
LINE
  8
0
 10
62
 20
28.5882
 11
58
 21
28.5882
  0
LINE
  8
0
 10
81
 20
25.75
 11
81
 21
28.75
  0
LINE
  8
0
 10
81
 20
28.75
 11
90
 21
28.75
  0
LINE
  8
0
 10
90
 20
28.75
 11
90
 21
25.75
  0
LINE
  8
0
 10
90
 20
25.75
 11
81
 21
25.75
  0
LINE
  8
0
 10
58
 20
15.8823
 11
58
 21
22.2353
  0
LINE
  8
0
 10
58
 20
22.2353
 11
62
 21
22.2353
  0
LINE
  8
0
 10
62
 20
22.2353
 11
62
 21
15.8823
  0
LINE
  8
0
 10
62
 20
15.8823
 11
58
 21
15.8823
  0
LINE
  8
0
 10
58
 20
3.17647
 11
58
 21
9.5294
  0
LINE
  8
0
 10
58
 20
9.5294
 11
62
 21
9.5294
  0
LINE
  8
0
 10
62
 20
9.5294
 11
62
 21
3.17647
  0
LINE
  8
0
 10
62
 20
3.17647
 11
58
 21
3.17647
  0
LINE
  8
0
 10
81
 20
0.5
 11
81
 21
3.5
  0
LINE
  8
0
 10
81
 20
3.5
 11
90
 21
3.5
  0
LINE
  8
0
 10
90
 20
3.5
 11
90
 21
0.5
  0
LINE
  8
0
 10
90
 20
0.5
 11
81
 21
0.5
  0
LINE
  8
0
 10
58
 20
-9.5294
 11
58
 21
-3.17647
  0
LINE
  8
0
 10
58
 20
-3.17647
 11
62
 21
-3.17647
  0
LINE
  8
0
 10
62
 20
-3.17647
 11
62
 21
-9.5294
  0
LINE
  8
0
 10
62
 20
-9.5294
 11
58
 21
-9.5294
  0
LINE
  8
0
 10
58
 20
-22.2353
 11
58
 21
-15.8823
  0
LINE
  8
0
 10
58
 20
-15.8823
 11
62
 21
-15.8823
  0
LINE
  8
0
 10
62
 20
-15.8823
 11
62
 21
-22.2353
  0
LINE
  8
0
 10
62
 20
-22.2353
 11
58
 21
-22.2353
  0
LINE
  8
0
 10
81
 20
-24.75
 11
81
 21
-21.75
  0
LINE
  8
0
 10
81
 20
-21.75
 11
90
 21
-21.75
  0
LINE
  8
0
 10
90
 20
-21.75
 11
90
 21
-24.75
  0
LINE
  8
0
 10
90
 20
-24.75
 11
81
 21
-24.75
  0
LINE
  8
0
 10
58
 20
-34.9412
 11
58
 21
-28.5882
  0
LINE
  8
0
 10
58
 20
-28.5882
 11
62
 21
-28.5882
  0
LINE
  8
0
 10
62
 20
-28.5882
 11
62
 21
-34.9412
  0
LINE
  8
0
 10
62
 20
-34.9412
 11
58
 21
-34.9412
  0
LINE
  8
0
 10
61.2857
 20
-51
 11
61.2857
 21
-47.647
  0
LINE
  8
0
 10
61.2857
 20
-47.647
 11
58
 21
-47.647
  0
LINE
  8
0
 10
58
 20
-47.647
 11
58
 21
-41.2941
  0
LINE
  8
0
 10
58
 20
-41.2941
 11
62
 21
-41.2941
  0
LINE
  8
0
 10
62
 20
-41.2941
 11
62
 21
-47
  0
LINE
  8
0
 10
62
 20
-47
 11
67.5714
 21
-47
  0
LINE
  8
0
 10
67.5714
 20
-47
 11
67.5714
 21
-51
  0
LINE
  8
0
 10
67.5714
 20
-51
 11
61.2857
 21
-51
  0
LINE
  8
0
 10
73.8571
 20
-51
 11
73.8571
 21
-47
  0
LINE
  8
0
 10
73.8571
 20
-47
 11
80.1429
 21
-47
  0
LINE
  8
0
 10
80.1429
 20
-47
 11
80.1429
 21
-51
  0
LINE
  8
0
 10
80.1429
 20
-51
 11
73.8571
 21
-51
  0
LINE
  8
0
 10
86.4286
 20
-51
 11
86.4286
 21
-47
  0
LINE
  8
0
 10
86.4286
 20
-47
 11
92.7143
 21
-47
  0
LINE
  8
0
 10
92.7143
 20
-47
 11
92.7143
 21
-51
  0
LINE
  8
0
 10
92.7143
 20
-51
 11
86.4286
 21
-51
  0
LINE
  8
0
 10
51
 20
-92.7143
 11
54
 21
-92.7143
  0
LINE
  8
0
 10
54
 20
-92.7143
 11
54
 21
-86.4286
  0
LINE
  8
0
 10
54
 20
-86.4286
 11
51
 21
-86.4286
  0
LINE
  8
0
 10
51
 20
-86.4286
 11
51
 21
-80.1429
  0
LINE
  8
0
 10
51
 20
-80.1429
 11
54
 21
-80.1429
  0
LINE
  8
0
 10
54
 20
-80.1429
 11
54
 21
-73.8571
  0
LINE
  8
0
 10
54
 20
-73.8571
 11
51
 21
-73.8571
  0
LINE
  8
0
 10
51
 20
-73.8571
 11
51
 21
-67.5714
  0
LINE
  8
0
 10
51
 20
-67.5714
 11
54
 21
-67.5714
  0
LINE
  8
0
 10
54
 20
-67.5714
 11
54
 21
-61.2857
  0
LINE
  8
0
 10
54
 20
-61.2857
 11
51
 21
-61.2857
  0
LINE
  8
0
 10
51
 20
-61.2857
 11
51
 21
-62
  0
LINE
  8
0
 10
51
 20
-62
 11
44.2
 21
-62
  0
LINE
  8
0
 10
44.2
 20
-62
 11
44.2
 21
-58
  0
LINE
  8
0
 10
44.2
 20
-58
 11
37.4
 21
-58
  0
LINE
  8
0
 10
37.4
 20
-58
 11
37.4
 21
-62
  0
LINE
  8
0
 10
37.4
 20
-62
 11
30.6
 21
-62
  0
LINE
  8
0
 10
30.6
 20
-62
 11
30.6
 21
-58
  0
LINE
  8
0
 10
30.6
 20
-58
 11
23.8
 21
-58
  0
LINE
  8
0
 10
23.8
 20
-58
 11
23.8
 21
-62
  0
LINE
  8
0
 10
23.8
 20
-62
 11
17
 21
-62
  0
LINE
  8
0
 10
17
 20
-62
 11
17
 21
-58
  0
LINE
  8
0
 10
17
 20
-58
 11
10.2
 21
-58
  0
LINE
  8
0
 10
10.2
 20
-58
 11
10.2
 21
-62
  0
LINE
  8
0
 10
10.2
 20
-62
 11
3.39999
 21
-62
  0
LINE
  8
0
 10
3.39999
 20
-62
 11
3.39999
 21
-58
  0
LINE
  8
0
 10
3.39999
 20
-58
 11
-3.39999
 21
-58
  0
LINE
  8
0
 10
-3.39999
 20
-58
 11
-3.39999
 21
-62
  0
LINE
  8
0
 10
-3.39999
 20
-62
 11
-10.2
 21
-62
  0
LINE
  8
0
 10
-10.2
 20
-62
 11
-10.2
 21
-58
  0
LINE
  8
0
 10
-10.2
 20
-58
 11
-17
 21
-58
  0
LINE
  8
0
 10
-17
 20
-58
 11
-17
 21
-62
  0
LINE
  8
0
 10
-17
 20
-62
 11
-23.8
 21
-62
  0
LINE
  8
0
 10
-23.8
 20
-62
 11
-23.8
 21
-58
  0
LINE
  8
0
 10
-23.8
 20
-58
 11
-30.6
 21
-58
  0
LINE
  8
0
 10
-30.6
 20
-58
 11
-30.6
 21
-62
  0
LINE
  8
0
 10
-30.6
 20
-62
 11
-37.4
 21
-62
  0
LINE
  8
0
 10
-37.4
 20
-62
 11
-37.4
 21
-58
  0
LINE
  8
0
 10
-37.4
 20
-58
 11
-44.2
 21
-58
  0
LINE
  8
0
 10
-44.2
 20
-58
 11
-44.2
 21
-62
  0
LINE
  8
0
 10
-44.2
 20
-62
 11
-51
 21
-62
  0
LINE
  8
0
 10
-51
 20
-62
 11
-51
 21
-61.2857
  0
LINE
  8
0
 10
-51
 20
-61.2857
 11
-54
 21
-61.2857
  0
LINE
  8
0
 10
-54
 20
-61.2857
 11
-54
 21
-67.5714
  0
LINE
  8
0
 10
-54
 20
-67.5714
 11
-51
 21
-67.5714
  0
LINE
  8
0
 10
-51
 20
-67.5714
 11
-51
 21
-73.8571
  0
LINE
  8
0
 10
-51
 20
-73.8571
 11
-54
 21
-73.8571
  0
LINE
  8
0
 10
-54
 20
-73.8571
 11
-54
 21
-80.1429
  0
LINE
  8
0
 10
-54
 20
-80.1429
 11
-51
 21
-80.1429
  0
LINE
  8
0
 10
-51
 20
-80.1429
 11
-51
 21
-86.4286
  0
LINE
  8
0
 10
-51
 20
-86.4286
 11
-54
 21
-86.4286
  0
LINE
  8
0
 10
-54
 20
-86.4286
 11
-54
 21
-92.7143
  0
LINE
  8
0
 10
-54
 20
-92.7143
 11
-51
 21
-92.7143
  0
LINE
  8
0
 10
-51
 20
-92.7143
 11
-51
 21
-99
  0
LINE
  8
0
 10
-51
 20
-99
 11
51
 21
-99
  0
LINE
  8
0
 10
51
 20
-99
 11
51
 21
-92.7143
  0
LINE
  8
0
 10
24.75
 20
-90
 11
24.75
 21
-81
  0
LINE
  8
0
 10
24.75
 20
-81
 11
27.75
 21
-81
  0
LINE
  8
0
 10
27.75
 20
-81
 11
27.75
 21
-90
  0
LINE
  8
0
 10
27.75
 20
-90
 11
24.75
 21
-90
  0
LINE
  8
0
 10
-1.5
 20
-90
 11
-1.5
 21
-81
  0
LINE
  8
0
 10
-1.5
 20
-81
 11
1.5
 21
-81
  0
LINE
  8
0
 10
1.5
 20
-81
 11
1.5
 21
-90
  0
LINE
  8
0
 10
1.5
 20
-90
 11
-1.5
 21
-90
  0
LINE
  8
0
 10
-27.75
 20
-90
 11
-27.75
 21
-81
  0
LINE
  8
0
 10
-27.75
 20
-81
 11
-24.75
 21
-81
  0
LINE
  8
0
 10
-24.75
 20
-81
 11
-24.75
 21
-90
  0
LINE
  8
0
 10
-24.75
 20
-90
 11
-27.75
 21
-90
  0
ENDSEC
  0
SECTION
  2
OBJECTS
  0
DICTIONARY
  0
ENDSEC
  0
EOF
