<?xml version="1.0" standalone="no"?>
<!DOCTYPE svg PUBLIC "-//W3C//DTD SVG 1.1//EN" "http://www.w3.org/Graphics/SVG/1.1/DTD/svg11.dtd">
<svg width="349mm" height="333mm" viewBox="-107 -234 349 333" xmlns="http://www.w3.org/2000/svg" version="1.1">
<title>OpenSCAD Model</title>
<path d="
M -33.75,-194 L -27.75,-194 L -27.75,-214 L -24.75,-214 L -24.75,-194 L -17.25,-194
 L -17.25,-190 L -8.25,-190 L -8.25,-194 L -1.5,-194 L -1.5,-214 L 1.5,-214
 L 1.5,-194 L 8.25,-194 L 8.25,-190 L 17.25,-190 L 17.25,-194 L 24.75,-194
 L 24.75,-214 L 27.75,-214 L 27.75,-194 L 33.75,-194 L 33.75,-190 L 42.75,-190
 L 42.75,-194 L 51,-194 L 51,-216 L 54,-216 L 54,-225 L 51,-225
 L 51,-234 L -51,-234 L -51,-225 L -54,-225 L -54,-216 L -51,-216
 L -51,-194 L -42.75,-194 L -42.75,-190 L -33.75,-190 z
M -33.75,-149 L -27.75,-149 L -27.75,-169 L -24.75,-169 L -24.75,-149 L -17.25,-149
 L -17.25,-145 L -8.25,-145 L -8.25,-149 L -1.5,-149 L -1.5,-169 L 1.5,-169
 L 1.5,-149 L 8.25,-149 L 8.25,-145 L 17.25,-145 L 17.25,-149 L 24.75,-149
 L 24.75,-169 L 27.75,-169 L 27.75,-149 L 33.75,-149 L 33.75,-145 L 42.75,-145
 L 42.75,-149 L 51,-149 L 51,-171 L 54,-171 L 54,-180 L 51,-180
 L 51,-189 L -51,-189 L -51,-180 L -54,-180 L -54,-171 L -51,-171
 L -51,-149 L -42.75,-149 L -42.75,-145 L -33.75,-145 z
M -33.75,-104 L -27.75,-104 L -27.75,-124 L -24.75,-124 L -24.75,-104 L -17.25,-104
 L -17.25,-100 L -8.25,-100 L -8.25,-104 L -1.5,-104 L -1.5,-124 L 1.5,-124
 L 1.5,-104 L 8.25,-104 L 8.25,-100 L 17.25,-100 L 17.25,-104 L 24.75,-104
 L 24.75,-124 L 27.75,-124 L 27.75,-104 L 33.75,-104 L 33.75,-100 L 42.75,-100
 L 42.75,-104 L 51,-104 L 51,-126 L 54,-126 L 54,-135 L 51,-135
 L 51,-144 L -51,-144 L -51,-135 L -54,-135 L -54,-126 L -51,-126
 L -51,-104 L -42.75,-104 L -42.75,-100 L -33.75,-100 z
M -44.2,-59 L -37.4,-59 L -37.4,-55 L -30.6,-55 L -30.6,-59 L -23.8,-59
 L -23.8,-55 L -17,-55 L -17,-59 L -10.2,-59 L -10.2,-55 L -3.39999,-55
 L -3.39999,-59 L 3.39999,-59 L 3.39999,-55 L 10.2,-55 L 10.2,-59 L 17,-59
 L 17,-55 L 23.8,-55 L 23.8,-59 L 30.6,-59 L 30.6,-55 L 37.4,-55
 L 37.4,-59 L 44.2,-59 L 44.2,-55 L 51,-55 L 51,-61.2857 L 54,-61.2857
 L 54,-67.5714 L 51,-67.5714 L 51,-73.8571 L 54,-73.8571 L 54,-80.1429 L 51,-80.1429
 L 51,-86.4286 L 54,-86.4286 L 54,-92.7143 L 51,-92.7143 L 51,-99 L -51,-99
 L -51,-92.7143 L -54,-92.7143 L -54,-86.4286 L -51,-86.4286 L -51,-80.1429 L -54,-80.1429
 L -54,-73.8571 L -51,-73.8571 L -51,-67.5714 L -54,-67.5714 L -54,-61.2857 L -51,-61.2857
 L -51,-55 L -44.2,-55 z
M -27.75,-81 L -27.75,-90 L -24.75,-90 L -24.75,-81 z
M -1.5,-81 L -1.5,-90 L 1.5,-90 L 1.5,-81 z
M 24.75,-81 L 24.75,-90 L 27.75,-90 L 27.75,-81 z
M -63,47.647 L -67,47.647 L -67,41.2941 L -63,41.2941 L -63,34.9412 L -67,34.9412
 L -67,28.5882 L -63,28.5882 L -63,22.2353 L -67,22.2353 L -67,15.8823 L -63,15.8823
 L -63,9.5294 L -67,9.5294 L -67,3.17647 L -63,3.17647 L -63,-3.17647 L -67,-3.17647
 L -67,-9.5294 L -63,-9.5294 L -63,-15.8823 L -67,-15.8823 L -67,-22.2353 L -63,-22.2353
 L -63,-28.5882 L -67,-28.5882 L -67,-34.9412 L -63,-34.9412 L -63,-41.2941 L -67,-41.2941
 L -67,-47.647 L -63,-47.647 L -63,-54 L -69.2857,-54 L -69.2857,-51 L -75.5714,-51
 L -75.5714,-54 L -81.8571,-54 L -81.8571,-51 L -88.1429,-51 L -88.1429,-54 L -94.4286,-54
 L -94.4286,-51 L -100.714,-51 L -100.714,-54 L -107,-54 L -107,54 L -63,54
 z
M -98,-25.75 L -98,-28.75 L -89,-28.75 L -89,-25.75 z
M -98,-0.5 L -98,-3.5 L -89,-3.5 L -89,-0.5 z
M -98,24.75 L -98,21.75 L -89,21.75 L -89,24.75 z
M -100.714,51 L -100.714,47 L -94.4286,47 L -94.4286,51 z
M -88.1429,51 L -88.1429,47 L -81.8571,47 L -81.8571,51 z
M -75.5714,51 L -75.5714,47 L -69.2857,47 L -69.2857,51 z
M 107,-54 L 100.714,-54 L 100.714,-51 L 94.4286,-51 L 94.4286,-54 L 88.1429,-54
 L 88.1429,-51 L 81.8571,-51 L 81.8571,-54 L 75.5714,-54 L 75.5714,-51 L 69.2857,-51
 L 69.2857,-54 L 63,-54 L 63,-47.647 L 67,-47.647 L 67,-41.2941 L 63,-41.2941
 L 63,-34.9412 L 67,-34.9412 L 67,-28.5882 L 63,-28.5882 L 63,-22.2353 L 67,-22.2353
 L 67,-15.8823 L 63,-15.8823 L 63,-9.5294 L 67,-9.5294 L 67,-3.17647 L 63,-3.17647
 L 63,3.17647 L 67,3.17647 L 67,9.5294 L 63,9.5294 L 63,15.8823 L 67,15.8823
 L 67,22.2353 L 63,22.2353 L 63,28.5882 L 67,28.5882 L 67,34.9412 L 63,34.9412
 L 63,41.2941 L 67,41.2941 L 67,47.647 L 63,47.647 L 63,54 L 107,54
 z
M 89,-25.75 L 89,-28.75 L 98,-28.75 L 98,-25.75 z
M 89,-0.5 L 89,-3.5 L 98,-3.5 L 98,-0.5 z
M 89,24.75 L 89,21.75 L 98,21.75 L 98,24.75 z
M 69.2857,51 L 69.2857,47 L 75.5714,47 L 75.5714,51 z
M 94.4286,51 L 94.4286,47 L 100.714,47 L 100.714,51 z
M 81.8571,51 L 81.8571,47 L 88.1429,47 L 88.1429,51 z
M 143,47 L 152,47 L 152,24.75 L 132,24.75 L 132,21.75 L 152,21.75
 L 152,-0.5 L 132,-0.5 L 132,-3.5 L 152,-3.5 L 152,-25.75 L 132,-25.75
 L 132,-28.75 L 152,-28.75 L 152,-51 L 143,-51 L 143,-54 L 134,-54
 L 134,-51 L 112,-51 L 112,-43.25 L 108,-43.25 L 108,-34.25 L 112,-34.25
 L 112,-18.75 L 108,-18.75 L 108,-9.75 L 112,-9.75 L 112,5.75 L 108,5.75
 L 108,14.75 L 112,14.75 L 112,30.25 L 108,30.25 L 108,39.25 L 112,39.25
 L 112,47 L 134,47 L 134,51 L 143,51 z
M 188,47 L 197,47 L 197,24.75 L 177,24.75 L 177,21.75 L 197,21.75
 L 197,-0.5 L 177,-0.5 L 177,-3.5 L 197,-3.5 L 197,-25.75 L 177,-25.75
 L 177,-28.75 L 197,-28.75 L 197,-51 L 188,-51 L 188,-54 L 179,-54
 L 179,-51 L 157,-51 L 157,-43.25 L 153,-43.25 L 153,-34.25 L 157,-34.25
 L 157,-18.75 L 153,-18.75 L 153,-9.75 L 157,-9.75 L 157,5.75 L 153,5.75
 L 153,14.75 L 157,14.75 L 157,30.25 L 153,30.25 L 153,39.25 L 157,39.25
 L 157,47 L 179,47 L 179,51 L 188,51 z
M 233,47 L 242,47 L 242,24.75 L 222,24.75 L 222,21.75 L 242,21.75
 L 242,-0.5 L 222,-0.5 L 222,-3.5 L 242,-3.5 L 242,-25.75 L 222,-25.75
 L 222,-28.75 L 242,-28.75 L 242,-51 L 233,-51 L 233,-54 L 224,-54
 L 224,-51 L 202,-51 L 202,-43.25 L 198,-43.25 L 198,-34.25 L 202,-34.25
 L 202,-18.75 L 198,-18.75 L 198,-9.75 L 202,-9.75 L 202,5.75 L 198,5.75
 L 198,14.75 L 202,14.75 L 202,30.25 L 198,30.25 L 198,39.25 L 202,39.25
 L 202,47 L 224,47 L 224,51 L 233,51 z
M -54,47.647 L -51,47.647 L -51,53.9995 L 51,53.9995 L 51,47.647 L 54,47.647
 L 54,53.9995 L 62,53.9995 L 62,-53.9995 L 54,-53.9995 L 54,-47.647 L 51,-47.647
 L 51,-51 L 44.2,-51 L 44.2,-53.9995 L 37.4,-53.9995 L 37.4,-51 L 30.6,-51
 L 30.6,-53.9995 L 23.8,-53.9995 L 23.8,-51 L 17,-51 L 17,-53.9995 L 10.2,-53.9995
 L 10.2,-51 L 3.39999,-51 L 3.39999,-53.9995 L -3.39999,-53.9995 L -3.39999,-51 L -10.2,-51
 L -10.2,-53.9995 L -17,-53.9995 L -17,-51 L -23.8,-51 L -23.8,-53.9995 L -30.6,-53.9995
 L -30.6,-51 L -37.4,-51 L -37.4,-53.9995 L -44.2,-53.9995 L -44.2,-51 L -51,-51
 L -51,-47.647 L -54,-47.647 L -54,-53.9995 L -62,-53.9995 L -62,53.9995 L -54,53.9995
 z
M -1.5,-34.25 L -1.5,-43.25 L 1.5,-43.25 L 1.5,-34.25 z
M 24.75,-34.25 L 24.75,-43.25 L 27.75,-43.25 L 27.75,-34.25 z
M -27.75,-34.25 L -27.75,-43.25 L -24.75,-43.25 L -24.75,-34.25 z
M 51,-34.9412 L 51,-41.2941 L 54,-41.2941 L 54,-34.9412 z
M -54,-34.9412 L -54,-41.2941 L -51,-41.2941 L -51,-34.9412 z
M -42.75,-25.75 L -42.75,-28.75 L -33.75,-28.75 L -33.75,-25.75 z
M -17.25,-25.75 L -17.25,-28.75 L -8.25,-28.75 L -8.25,-25.75 z
M 8.25,-25.75 L 8.25,-28.75 L 17.25,-28.75 L 17.25,-25.75 z
M 33.75,-25.75 L 33.75,-28.75 L 42.75,-28.75 L 42.75,-25.75 z
M 51,-22.2353 L 51,-28.5882 L 54,-28.5882 L 54,-22.2353 z
M -54,-22.2353 L -54,-28.5882 L -51,-28.5882 L -51,-22.2353 z
M -1.5,-9.75 L -1.5,-18.75 L 1.5,-18.75 L 1.5,-9.75 z
M -27.75,-9.75 L -27.75,-18.75 L -24.75,-18.75 L -24.75,-9.75 z
M 24.75,-9.75 L 24.75,-18.75 L 27.75,-18.75 L 27.75,-9.75 z
M 51,-9.5294 L 51,-15.8823 L 54,-15.8823 L 54,-9.5294 z
M -54,-9.5294 L -54,-15.8823 L -51,-15.8823 L -51,-9.5294 z
M -17.25,-0.5 L -17.25,-3.5 L -8.25,-3.5 L -8.25,-0.5 z
M 33.75,-0.5 L 33.75,-3.5 L 42.75,-3.5 L 42.75,-0.5 z
M -42.75,-0.5 L -42.75,-3.5 L -33.75,-3.5 L -33.75,-0.5 z
M 8.25,-0.5 L 8.25,-3.5 L 17.25,-3.5 L 17.25,-0.5 z
M -54,3.17647 L -54,-3.17645 L -51,-3.17645 L -51,3.17647 z
M 51,3.17647 L 51,-3.17645 L 54,-3.17645 L 54,3.17647 z
M 24.75,14.75 L 24.75,5.75 L 27.75,5.75 L 27.75,14.75 z
M -27.75,14.75 L -27.75,5.75 L -24.75,5.75 L -24.75,14.75 z
M -1.5,14.75 L -1.5,5.75 L 1.5,5.75 L 1.5,14.75 z
M -54,15.8823 L -54,9.5294 L -51,9.5294 L -51,15.8823 z
M 51,15.8823 L 51,9.5294 L 54,9.5294 L 54,15.8823 z
M -42.75,24.75 L -42.75,21.75 L -33.75,21.75 L -33.75,24.75 z
M -17.25,24.75 L -17.25,21.75 L -8.25,21.75 L -8.25,24.75 z
M 8.25,24.75 L 8.25,21.75 L 17.25,21.75 L 17.25,24.75 z
M 33.75,24.75 L 33.75,21.75 L 42.75,21.75 L 42.75,24.75 z
M -54,28.5882 L -54,22.2353 L -51,22.2353 L -51,28.5882 z
M 51,28.5882 L 51,22.2353 L 54,22.2353 L 54,28.5882 z
M -27.75,39.25 L -27.75,30.25 L -24.75,30.25 L -24.75,39.25 z
M -1.5,39.25 L -1.5,30.25 L 1.5,30.25 L 1.5,39.25 z
M 24.75,39.25 L 24.75,30.25 L 27.75,30.25 L 27.75,39.25 z
M 51,41.2941 L 51,34.9412 L 54,34.9412 L 54,41.2941 z
M -54,41.2941 L -54,34.9412 L -51,34.9412 L -51,41.2941 z
M -44.2,51 L -44.2,47 L -37.4,47 L -37.4,51 z
M -30.6,51 L -30.6,47 L -23.8,47 L -23.8,51 z
M -17,51 L -17,47 L -10.2,47 L -10.2,51 z
M -3.39999,51 L -3.39999,47 L 3.39999,47 L 3.39999,51 z
M 10.2,51 L 10.2,47 L 17,47 L 17,51 z
M 23.8,51 L 23.8,47 L 30.6,47 L 30.6,51 z
M 37.4,51 L 37.4,47 L 44.2,47 L 44.2,51 z
M 51,92.7143 L 54,92.7143 L 54,86.4286 L 51,86.4286 L 51,80.1429 L 54,80.1429
 L 54,73.8571 L 51,73.8571 L 51,67.5714 L 54,67.5714 L 54,61.2857 L 51,61.2857
 L 51,59 L 44.2,59 L 44.2,55 L 37.4,55 L 37.4,59 L 30.6,59
 L 30.6,55 L 23.8,55 L 23.8,59 L 17,59 L 17,55 L 10.2,55
 L 10.2,59 L 3.39999,59 L 3.39999,55 L -3.39999,55 L -3.39999,59 L -10.2,59
 L -10.2,55 L -17,55 L -17,59 L -23.8,59 L -23.8,55 L -30.6,55
 L -30.6,59 L -37.4,59 L -37.4,55 L -44.2,55 L -44.2,59 L -51,59
 L -51,61.2857 L -54,61.2857 L -54,67.5714 L -51,67.5714 L -51,73.8571 L -54,73.8571
 L -54,80.1429 L -51,80.1429 L -51,86.4286 L -54,86.4286 L -54,92.7143 L -51,92.7143
 L -51,99 L 51,99 z
M 24.75,90 L 24.75,81 L 27.75,81 L 27.75,90 z
M -1.5,90 L -1.5,81 L 1.5,81 L 1.5,90 z
M -27.75,90 L -27.75,81 L -24.75,81 L -24.75,90 z
" stroke="black" fill="lightgray" stroke-width="0.5"/>
</svg>
