  0
SECTION
  2
BLOCKS
  0
ENDSEC
  0
SECTION
  2
ENTITIES
  0
LINE
  8
0
 10
-33.75
 20
194
 11
-27.75
 21
194
  0
LINE
  8
0
 10
-27.75
 20
194
 11
-27.75
 21
214
  0
LINE
  8
0
 10
-27.75
 20
214
 11
-24.75
 21
214
  0
LINE
  8
0
 10
-24.75
 20
214
 11
-24.75
 21
194
  0
LINE
  8
0
 10
-24.75
 20
194
 11
-17.25
 21
194
  0
LINE
  8
0
 10
-17.25
 20
194
 11
-17.25
 21
190
  0
LINE
  8
0
 10
-17.25
 20
190
 11
-8.25
 21
190
  0
LINE
  8
0
 10
-8.25
 20
190
 11
-8.25
 21
194
  0
LINE
  8
0
 10
-8.25
 20
194
 11
-1.5
 21
194
  0
LINE
  8
0
 10
-1.5
 20
194
 11
-1.5
 21
214
  0
LINE
  8
0
 10
-1.5
 20
214
 11
1.5
 21
214
  0
LINE
  8
0
 10
1.5
 20
214
 11
1.5
 21
194
  0
LINE
  8
0
 10
1.5
 20
194
 11
8.25
 21
194
  0
LINE
  8
0
 10
8.25
 20
194
 11
8.25
 21
190
  0
LINE
  8
0
 10
8.25
 20
190
 11
17.25
 21
190
  0
LINE
  8
0
 10
17.25
 20
190
 11
17.25
 21
194
  0
LINE
  8
0
 10
17.25
 20
194
 11
24.75
 21
194
  0
LINE
  8
0
 10
24.75
 20
194
 11
24.75
 21
214
  0
LINE
  8
0
 10
24.75
 20
214
 11
27.75
 21
214
  0
LINE
  8
0
 10
27.75
 20
214
 11
27.75
 21
194
  0
LINE
  8
0
 10
27.75
 20
194
 11
33.75
 21
194
  0
LINE
  8
0
 10
33.75
 20
194
 11
33.75
 21
190
  0
LINE
  8
0
 10
33.75
 20
190
 11
42.75
 21
190
  0
LINE
  8
0
 10
42.75
 20
190
 11
42.75
 21
194
  0
LINE
  8
0
 10
42.75
 20
194
 11
51
 21
194
  0
LINE
  8
0
 10
51
 20
194
 11
51
 21
216
  0
LINE
  8
0
 10
51
 20
216
 11
54
 21
216
  0
LINE
  8
0
 10
54
 20
216
 11
54
 21
225
  0
LINE
  8
0
 10
54
 20
225
 11
51
 21
225
  0
LINE
  8
0
 10
51
 20
225
 11
51
 21
234
  0
LINE
  8
0
 10
51
 20
234
 11
-51
 21
234
  0
LINE
  8
0
 10
-51
 20
234
 11
-51
 21
225
  0
LINE
  8
0
 10
-51
 20
225
 11
-54
 21
225
  0
LINE
  8
0
 10
-54
 20
225
 11
-54
 21
216
  0
LINE
  8
0
 10
-54
 20
216
 11
-51
 21
216
  0
LINE
  8
0
 10
-51
 20
216
 11
-51
 21
194
  0
LINE
  8
0
 10
-51
 20
194
 11
-42.75
 21
194
  0
LINE
  8
0
 10
-42.75
 20
194
 11
-42.75
 21
190
  0
LINE
  8
0
 10
-42.75
 20
190
 11
-33.75
 21
190
  0
LINE
  8
0
 10
-33.75
 20
190
 11
-33.75
 21
194
  0
LINE
  8
0
 10
-33.75
 20
149
 11
-27.75
 21
149
  0
LINE
  8
0
 10
-27.75
 20
149
 11
-27.75
 21
169
  0
LINE
  8
0
 10
-27.75
 20
169
 11
-24.75
 21
169
  0
LINE
  8
0
 10
-24.75
 20
169
 11
-24.75
 21
149
  0
LINE
  8
0
 10
-24.75
 20
149
 11
-17.25
 21
149
  0
LINE
  8
0
 10
-17.25
 20
149
 11
-17.25
 21
145
  0
LINE
  8
0
 10
-17.25
 20
145
 11
-8.25
 21
145
  0
LINE
  8
0
 10
-8.25
 20
145
 11
-8.25
 21
149
  0
LINE
  8
0
 10
-8.25
 20
149
 11
-1.5
 21
149
  0
LINE
  8
0
 10
-1.5
 20
149
 11
-1.5
 21
169
  0
LINE
  8
0
 10
-1.5
 20
169
 11
1.5
 21
169
  0
LINE
  8
0
 10
1.5
 20
169
 11
1.5
 21
149
  0
LINE
  8
0
 10
1.5
 20
149
 11
8.25
 21
149
  0
LINE
  8
0
 10
8.25
 20
149
 11
8.25
 21
145
  0
LINE
  8
0
 10
8.25
 20
145
 11
17.25
 21
145
  0
LINE
  8
0
 10
17.25
 20
145
 11
17.25
 21
149
  0
LINE
  8
0
 10
17.25
 20
149
 11
24.75
 21
149
  0
LINE
  8
0
 10
24.75
 20
149
 11
24.75
 21
169
  0
LINE
  8
0
 10
24.75
 20
169
 11
27.75
 21
169
  0
LINE
  8
0
 10
27.75
 20
169
 11
27.75
 21
149
  0
LINE
  8
0
 10
27.75
 20
149
 11
33.75
 21
149
  0
LINE
  8
0
 10
33.75
 20
149
 11
33.75
 21
145
  0
LINE
  8
0
 10
33.75
 20
145
 11
42.75
 21
145
  0
LINE
  8
0
 10
42.75
 20
145
 11
42.75
 21
149
  0
LINE
  8
0
 10
42.75
 20
149
 11
51
 21
149
  0
LINE
  8
0
 10
51
 20
149
 11
51
 21
171
  0
LINE
  8
0
 10
51
 20
171
 11
54
 21
171
  0
LINE
  8
0
 10
54
 20
171
 11
54
 21
180
  0
LINE
  8
0
 10
54
 20
180
 11
51
 21
180
  0
LINE
  8
0
 10
51
 20
180
 11
51
 21
189
  0
LINE
  8
0
 10
51
 20
189
 11
-51
 21
189
  0
LINE
  8
0
 10
-51
 20
189
 11
-51
 21
180
  0
LINE
  8
0
 10
-51
 20
180
 11
-54
 21
180
  0
LINE
  8
0
 10
-54
 20
180
 11
-54
 21
171
  0
LINE
  8
0
 10
-54
 20
171
 11
-51
 21
171
  0
LINE
  8
0
 10
-51
 20
171
 11
-51
 21
149
  0
LINE
  8
0
 10
-51
 20
149
 11
-42.75
 21
149
  0
LINE
  8
0
 10
-42.75
 20
149
 11
-42.75
 21
145
  0
LINE
  8
0
 10
-42.75
 20
145
 11
-33.75
 21
145
  0
LINE
  8
0
 10
-33.75
 20
145
 11
-33.75
 21
149
  0
LINE
  8
0
 10
-33.75
 20
104
 11
-27.75
 21
104
  0
LINE
  8
0
 10
-27.75
 20
104
 11
-27.75
 21
124
  0
LINE
  8
0
 10
-27.75
 20
124
 11
-24.75
 21
124
  0
LINE
  8
0
 10
-24.75
 20
124
 11
-24.75
 21
104
  0
LINE
  8
0
 10
-24.75
 20
104
 11
-17.25
 21
104
  0
LINE
  8
0
 10
-17.25
 20
104
 11
-17.25
 21
100
  0
LINE
  8
0
 10
-17.25
 20
100
 11
-8.25
 21
100
  0
LINE
  8
0
 10
-8.25
 20
100
 11
-8.25
 21
104
  0
LINE
  8
0
 10
-8.25
 20
104
 11
-1.5
 21
104
  0
LINE
  8
0
 10
-1.5
 20
104
 11
-1.5
 21
124
  0
LINE
  8
0
 10
-1.5
 20
124
 11
1.5
 21
124
  0
LINE
  8
0
 10
1.5
 20
124
 11
1.5
 21
104
  0
LINE
  8
0
 10
1.5
 20
104
 11
8.25
 21
104
  0
LINE
  8
0
 10
8.25
 20
104
 11
8.25
 21
100
  0
LINE
  8
0
 10
8.25
 20
100
 11
17.25
 21
100
  0
LINE
  8
0
 10
17.25
 20
100
 11
17.25
 21
104
  0
LINE
  8
0
 10
17.25
 20
104
 11
24.75
 21
104
  0
LINE
  8
0
 10
24.75
 20
104
 11
24.75
 21
124
  0
LINE
  8
0
 10
24.75
 20
124
 11
27.75
 21
124
  0
LINE
  8
0
 10
27.75
 20
124
 11
27.75
 21
104
  0
LINE
  8
0
 10
27.75
 20
104
 11
33.75
 21
104
  0
LINE
  8
0
 10
33.75
 20
104
 11
33.75
 21
100
  0
LINE
  8
0
 10
33.75
 20
100
 11
42.75
 21
100
  0
LINE
  8
0
 10
42.75
 20
100
 11
42.75
 21
104
  0
LINE
  8
0
 10
42.75
 20
104
 11
51
 21
104
  0
LINE
  8
0
 10
51
 20
104
 11
51
 21
126
  0
LINE
  8
0
 10
51
 20
126
 11
54
 21
126
  0
LINE
  8
0
 10
54
 20
126
 11
54
 21
135
  0
LINE
  8
0
 10
54
 20
135
 11
51
 21
135
  0
LINE
  8
0
 10
51
 20
135
 11
51
 21
144
  0
LINE
  8
0
 10
51
 20
144
 11
-51
 21
144
  0
LINE
  8
0
 10
-51
 20
144
 11
-51
 21
135
  0
LINE
  8
0
 10
-51
 20
135
 11
-54
 21
135
  0
LINE
  8
0
 10
-54
 20
135
 11
-54
 21
126
  0
LINE
  8
0
 10
-54
 20
126
 11
-51
 21
126
  0
LINE
  8
0
 10
-51
 20
126
 11
-51
 21
104
  0
LINE
  8
0
 10
-51
 20
104
 11
-42.75
 21
104
  0
LINE
  8
0
 10
-42.75
 20
104
 11
-42.75
 21
100
  0
LINE
  8
0
 10
-42.75
 20
100
 11
-33.75
 21
100
  0
LINE
  8
0
 10
-33.75
 20
100
 11
-33.75
 21
104
  0
LINE
  8
0
 10
-44.2
 20
59
 11
-37.4
 21
59
  0
LINE
  8
0
 10
-37.4
 20
59
 11
-37.4
 21
55
  0
LINE
  8
0
 10
-37.4
 20
55
 11
-30.6
 21
55
  0
LINE
  8
0
 10
-30.6
 20
55
 11
-30.6
 21
59
  0
LINE
  8
0
 10
-30.6
 20
59
 11
-23.8
 21
59
  0
LINE
  8
0
 10
-23.8
 20
59
 11
-23.8
 21
55
  0
LINE
  8
0
 10
-23.8
 20
55
 11
-17
 21
55
  0
LINE
  8
0
 10
-17
 20
55
 11
-17
 21
59
  0
LINE
  8
0
 10
-17
 20
59
 11
-10.2
 21
59
  0
LINE
  8
0
 10
-10.2
 20
59
 11
-10.2
 21
55
  0
LINE
  8
0
 10
-10.2
 20
55
 11
-3.39999
 21
55
  0
LINE
  8
0
 10
-3.39999
 20
55
 11
-3.39999
 21
59
  0
LINE
  8
0
 10
-3.39999
 20
59
 11
3.39999
 21
59
  0
LINE
  8
0
 10
3.39999
 20
59
 11
3.39999
 21
55
  0
LINE
  8
0
 10
3.39999
 20
55
 11
10.2
 21
55
  0
LINE
  8
0
 10
10.2
 20
55
 11
10.2
 21
59
  0
LINE
  8
0
 10
10.2
 20
59
 11
17
 21
59
  0
LINE
  8
0
 10
17
 20
59
 11
17
 21
55
  0
LINE
  8
0
 10
17
 20
55
 11
23.8
 21
55
  0
LINE
  8
0
 10
23.8
 20
55
 11
23.8
 21
59
  0
LINE
  8
0
 10
23.8
 20
59
 11
30.6
 21
59
  0
LINE
  8
0
 10
30.6
 20
59
 11
30.6
 21
55
  0
LINE
  8
0
 10
30.6
 20
55
 11
37.4
 21
55
  0
LINE
  8
0
 10
37.4
 20
55
 11
37.4
 21
59
  0
LINE
  8
0
 10
37.4
 20
59
 11
44.2
 21
59
  0
LINE
  8
0
 10
44.2
 20
59
 11
44.2
 21
55
  0
LINE
  8
0
 10
44.2
 20
55
 11
51
 21
55
  0
LINE
  8
0
 10
51
 20
55
 11
51
 21
61.2857
  0
LINE
  8
0
 10
51
 20
61.2857
 11
54
 21
61.2857
  0
LINE
  8
0
 10
54
 20
61.2857
 11
54
 21
67.5714
  0
LINE
  8
0
 10
54
 20
67.5714
 11
51
 21
67.5714
  0
LINE
  8
0
 10
51
 20
67.5714
 11
51
 21
73.8571
  0
LINE
  8
0
 10
51
 20
73.8571
 11
54
 21
73.8571
  0
LINE
  8
0
 10
54
 20
73.8571
 11
54
 21
80.1429
  0
LINE
  8
0
 10
54
 20
80.1429
 11
51
 21
80.1429
  0
LINE
  8
0
 10
51
 20
80.1429
 11
51
 21
86.4286
  0
LINE
  8
0
 10
51
 20
86.4286
 11
54
 21
86.4286
  0
LINE
  8
0
 10
54
 20
86.4286
 11
54
 21
92.7143
  0
LINE
  8
0
 10
54
 20
92.7143
 11
51
 21
92.7143
  0
LINE
  8
0
 10
51
 20
92.7143
 11
51
 21
99
  0
LINE
  8
0
 10
51
 20
99
 11
-51
 21
99
  0
LINE
  8
0
 10
-51
 20
99
 11
-51
 21
92.7143
  0
LINE
  8
0
 10
-51
 20
92.7143
 11
-54
 21
92.7143
  0
LINE
  8
0
 10
-54
 20
92.7143
 11
-54
 21
86.4286
  0
LINE
  8
0
 10
-54
 20
86.4286
 11
-51
 21
86.4286
  0
LINE
  8
0
 10
-51
 20
86.4286
 11
-51
 21
80.1429
  0
LINE
  8
0
 10
-51
 20
80.1429
 11
-54
 21
80.1429
  0
LINE
  8
0
 10
-54
 20
80.1429
 11
-54
 21
73.8571
  0
LINE
  8
0
 10
-54
 20
73.8571
 11
-51
 21
73.8571
  0
LINE
  8
0
 10
-51
 20
73.8571
 11
-51
 21
67.5714
  0
LINE
  8
0
 10
-51
 20
67.5714
 11
-54
 21
67.5714
  0
LINE
  8
0
 10
-54
 20
67.5714
 11
-54
 21
61.2857
  0
LINE
  8
0
 10
-54
 20
61.2857
 11
-51
 21
61.2857
  0
LINE
  8
0
 10
-51
 20
61.2857
 11
-51
 21
55
  0
LINE
  8
0
 10
-51
 20
55
 11
-44.2
 21
55
  0
LINE
  8
0
 10
-44.2
 20
55
 11
-44.2
 21
59
  0
LINE
  8
0
 10
-27.75
 20
81
 11
-27.75
 21
90
  0
LINE
  8
0
 10
-27.75
 20
90
 11
-24.75
 21
90
  0
LINE
  8
0
 10
-24.75
 20
90
 11
-24.75
 21
81
  0
LINE
  8
0
 10
-24.75
 20
81
 11
-27.75
 21
81
  0
LINE
  8
0
 10
-1.5
 20
81
 11
-1.5
 21
90
  0
LINE
  8
0
 10
-1.5
 20
90
 11
1.5
 21
90
  0
LINE
  8
0
 10
1.5
 20
90
 11
1.5
 21
81
  0
LINE
  8
0
 10
1.5
 20
81
 11
-1.5
 21
81
  0
LINE
  8
0
 10
24.75
 20
81
 11
24.75
 21
90
  0
LINE
  8
0
 10
24.75
 20
90
 11
27.75
 21
90
  0
LINE
  8
0
 10
27.75
 20
90
 11
27.75
 21
81
  0
LINE
  8
0
 10
27.75
 20
81
 11
24.75
 21
81
  0
LINE
  8
0
 10
-63
 20
-47.647
 11
-67
 21
-47.647
  0
LINE
  8
0
 10
-67
 20
-47.647
 11
-67
 21
-41.2941
  0
LINE
  8
0
 10
-67
 20
-41.2941
 11
-63
 21
-41.2941
  0
LINE
  8
0
 10
-63
 20
-41.2941
 11
-63
 21
-34.9412
  0
LINE
  8
0
 10
-63
 20
-34.9412
 11
-67
 21
-34.9412
  0
LINE
  8
0
 10
-67
 20
-34.9412
 11
-67
 21
-28.5882
  0
LINE
  8
0
 10
-67
 20
-28.5882
 11
-63
 21
-28.5882
  0
LINE
  8
0
 10
-63
 20
-28.5882
 11
-63
 21
-22.2353
  0
LINE
  8
0
 10
-63
 20
-22.2353
 11
-67
 21
-22.2353
  0
LINE
  8
0
 10
-67
 20
-22.2353
 11
-67
 21
-15.8823
  0
LINE
  8
0
 10
-67
 20
-15.8823
 11
-63
 21
-15.8823
  0
LINE
  8
0
 10
-63
 20
-15.8823
 11
-63
 21
-9.5294
  0
LINE
  8
0
 10
-63
 20
-9.5294
 11
-67
 21
-9.5294
  0
LINE
  8
0
 10
-67
 20
-9.5294
 11
-67
 21
-3.17647
  0
LINE
  8
0
 10
-67
 20
-3.17647
 11
-63
 21
-3.17647
  0
LINE
  8
0
 10
-63
 20
-3.17647
 11
-63
 21
3.17647
  0
LINE
  8
0
 10
-63
 20
3.17647
 11
-67
 21
3.17647
  0
LINE
  8
0
 10
-67
 20
3.17647
 11
-67
 21
9.5294
  0
LINE
  8
0
 10
-67
 20
9.5294
 11
-63
 21
9.5294
  0
LINE
  8
0
 10
-63
 20
9.5294
 11
-63
 21
15.8823
  0
LINE
  8
0
 10
-63
 20
15.8823
 11
-67
 21
15.8823
  0
LINE
  8
0
 10
-67
 20
15.8823
 11
-67
 21
22.2353
  0
LINE
  8
0
 10
-67
 20
22.2353
 11
-63
 21
22.2353
  0
LINE
  8
0
 10
-63
 20
22.2353
 11
-63
 21
28.5882
  0
LINE
  8
0
 10
-63
 20
28.5882
 11
-67
 21
28.5882
  0
LINE
  8
0
 10
-67
 20
28.5882
 11
-67
 21
34.9412
  0
LINE
  8
0
 10
-67
 20
34.9412
 11
-63
 21
34.9412
  0
LINE
  8
0
 10
-63
 20
34.9412
 11
-63
 21
41.2941
  0
LINE
  8
0
 10
-63
 20
41.2941
 11
-67
 21
41.2941
  0
LINE
  8
0
 10
-67
 20
41.2941
 11
-67
 21
47.647
  0
LINE
  8
0
 10
-67
 20
47.647
 11
-63
 21
47.647
  0
LINE
  8
0
 10
-63
 20
47.647
 11
-63
 21
54
  0
LINE
  8
0
 10
-63
 20
54
 11
-69.2857
 21
54
  0
LINE
  8
0
 10
-69.2857
 20
54
 11
-69.2857
 21
51
  0
LINE
  8
0
 10
-69.2857
 20
51
 11
-75.5714
 21
51
  0
LINE
  8
0
 10
-75.5714
 20
51
 11
-75.5714
 21
54
  0
LINE
  8
0
 10
-75.5714
 20
54
 11
-81.8571
 21
54
  0
LINE
  8
0
 10
-81.8571
 20
54
 11
-81.8571
 21
51
  0
LINE
  8
0
 10
-81.8571
 20
51
 11
-88.1429
 21
51
  0
LINE
  8
0
 10
-88.1429
 20
51
 11
-88.1429
 21
54
  0
LINE
  8
0
 10
-88.1429
 20
54
 11
-94.4286
 21
54
  0
LINE
  8
0
 10
-94.4286
 20
54
 11
-94.4286
 21
51
  0
LINE
  8
0
 10
-94.4286
 20
51
 11
-100.714
 21
51
  0
LINE
  8
0
 10
-100.714
 20
51
 11
-100.714
 21
54
  0
LINE
  8
0
 10
-100.714
 20
54
 11
-107
 21
54
  0
LINE
  8
0
 10
-107
 20
54
 11
-107
 21
-54
  0
LINE
  8
0
 10
-107
 20
-54
 11
-63
 21
-54
  0
LINE
  8
0
 10
-63
 20
-54
 11
-63
 21
-47.647
  0
LINE
  8
0
 10
-98
 20
25.75
 11
-98
 21
28.75
  0
LINE
  8
0
 10
-98
 20
28.75
 11
-89
 21
28.75
  0
LINE
  8
0
 10
-89
 20
28.75
 11
-89
 21
25.75
  0
LINE
  8
0
 10
-89
 20
25.75
 11
-98
 21
25.75
  0
LINE
  8
0
 10
-98
 20
0.5
 11
-98
 21
3.5
  0
LINE
  8
0
 10
-98
 20
3.5
 11
-89
 21
3.5
  0
LINE
  8
0
 10
-89
 20
3.5
 11
-89
 21
0.5
  0
LINE
  8
0
 10
-89
 20
0.5
 11
-98
 21
0.5
  0
LINE
  8
0
 10
-98
 20
-24.75
 11
-98
 21
-21.75
  0
LINE
  8
0
 10
-98
 20
-21.75
 11
-89
 21
-21.75
  0
LINE
  8
0
 10
-89
 20
-21.75
 11
-89
 21
-24.75
  0
LINE
  8
0
 10
-89
 20
-24.75
 11
-98
 21
-24.75
  0
LINE
  8
0
 10
-100.714
 20
-51
 11
-100.714
 21
-47
  0
LINE
  8
0
 10
-100.714
 20
-47
 11
-94.4286
 21
-47
  0
LINE
  8
0
 10
-94.4286
 20
-47
 11
-94.4286
 21
-51
  0
LINE
  8
0
 10
-94.4286
 20
-51
 11
-100.714
 21
-51
  0
LINE
  8
0
 10
-88.1429
 20
-51
 11
-88.1429
 21
-47
  0
LINE
  8
0
 10
-88.1429
 20
-47
 11
-81.8571
 21
-47
  0
LINE
  8
0
 10
-81.8571
 20
-47
 11
-81.8571
 21
-51
  0
LINE
  8
0
 10
-81.8571
 20
-51
 11
-88.1429
 21
-51
  0
LINE
  8
0
 10
-75.5714
 20
-51
 11
-75.5714
 21
-47
  0
LINE
  8
0
 10
-75.5714
 20
-47
 11
-69.2857
 21
-47
  0
LINE
  8
0
 10
-69.2857
 20
-47
 11
-69.2857
 21
-51
  0
LINE
  8
0
 10
-69.2857
 20
-51
 11
-75.5714
 21
-51
  0
LINE
  8
0
 10
107
 20
54
 11
100.714
 21
54
  0
LINE
  8
0
 10
100.714
 20
54
 11
100.714
 21
51
  0
LINE
  8
0
 10
100.714
 20
51
 11
94.4286
 21
51
  0
LINE
  8
0
 10
94.4286
 20
51
 11
94.4286
 21
54
  0
LINE
  8
0
 10
94.4286
 20
54
 11
88.1429
 21
54
  0
LINE
  8
0
 10
88.1429
 20
54
 11
88.1429
 21
51
  0
LINE
  8
0
 10
88.1429
 20
51
 11
81.8571
 21
51
  0
LINE
  8
0
 10
81.8571
 20
51
 11
81.8571
 21
54
  0
LINE
  8
0
 10
81.8571
 20
54
 11
75.5714
 21
54
  0
LINE
  8
0
 10
75.5714
 20
54
 11
75.5714
 21
51
  0
LINE
  8
0
 10
75.5714
 20
51
 11
69.2857
 21
51
  0
LINE
  8
0
 10
69.2857
 20
51
 11
69.2857
 21
54
  0
LINE
  8
0
 10
69.2857
 20
54
 11
63
 21
54
  0
LINE
  8
0
 10
63
 20
54
 11
63
 21
47.647
  0
LINE
  8
0
 10
63
 20
47.647
 11
67
 21
47.647
  0
LINE
  8
0
 10
67
 20
47.647
 11
67
 21
41.2941
  0
LINE
  8
0
 10
67
 20
41.2941
 11
63
 21
41.2941
  0
LINE
  8
0
 10
63
 20
41.2941
 11
63
 21
34.9412
  0
LINE
  8
0
 10
63
 20
34.9412
 11
67
 21
34.9412
  0
LINE
  8
0
 10
67
 20
34.9412
 11
67
 21
28.5882
  0
LINE
  8
0
 10
67
 20
28.5882
 11
63
 21
28.5882
  0
LINE
  8
0
 10
63
 20
28.5882
 11
63
 21
22.2353
  0
LINE
  8
0
 10
63
 20
22.2353
 11
67
 21
22.2353
  0
LINE
  8
0
 10
67
 20
22.2353
 11
67
 21
15.8823
  0
LINE
  8
0
 10
67
 20
15.8823
 11
63
 21
15.8823
  0
LINE
  8
0
 10
63
 20
15.8823
 11
63
 21
9.5294
  0
LINE
  8
0
 10
63
 20
9.5294
 11
67
 21
9.5294
  0
LINE
  8
0
 10
67
 20
9.5294
 11
67
 21
3.17647
  0
LINE
  8
0
 10
67
 20
3.17647
 11
63
 21
3.17647
  0
LINE
  8
0
 10
63
 20
3.17647
 11
63
 21
-3.17647
  0
LINE
  8
0
 10
63
 20
-3.17647
 11
67
 21
-3.17647
  0
LINE
  8
0
 10
67
 20
-3.17647
 11
67
 21
-9.5294
  0
LINE
  8
0
 10
67
 20
-9.5294
 11
63
 21
-9.5294
  0
LINE
  8
0
 10
63
 20
-9.5294
 11
63
 21
-15.8823
  0
LINE
  8
0
 10
63
 20
-15.8823
 11
67
 21
-15.8823
  0
LINE
  8
0
 10
67
 20
-15.8823
 11
67
 21
-22.2353
  0
LINE
  8
0
 10
67
 20
-22.2353
 11
63
 21
-22.2353
  0
LINE
  8
0
 10
63
 20
-22.2353
 11
63
 21
-28.5882
  0
LINE
  8
0
 10
63
 20
-28.5882
 11
67
 21
-28.5882
  0
LINE
  8
0
 10
67
 20
-28.5882
 11
67
 21
-34.9412
  0
LINE
  8
0
 10
67
 20
-34.9412
 11
63
 21
-34.9412
  0
LINE
  8
0
 10
63
 20
-34.9412
 11
63
 21
-41.2941
  0
LINE
  8
0
 10
63
 20
-41.2941
 11
67
 21
-41.2941
  0
LINE
  8
0
 10
67
 20
-41.2941
 11
67
 21
-47.647
  0
LINE
  8
0
 10
67
 20
-47.647
 11
63
 21
-47.647
  0
LINE
  8
0
 10
63
 20
-47.647
 11
63
 21
-54
  0
LINE
  8
0
 10
63
 20
-54
 11
107
 21
-54
  0
LINE
  8
0
 10
107
 20
-54
 11
107
 21
54
  0
LINE
  8
0
 10
89
 20
25.75
 11
89
 21
28.75
  0
LINE
  8
0
 10
89
 20
28.75
 11
98
 21
28.75
  0
LINE
  8
0
 10
98
 20
28.75
 11
98
 21
25.75
  0
LINE
  8
0
 10
98
 20
25.75
 11
89
 21
25.75
  0
LINE
  8
0
 10
89
 20
0.5
 11
89
 21
3.5
  0
LINE
  8
0
 10
89
 20
3.5
 11
98
 21
3.5
  0
LINE
  8
0
 10
98
 20
3.5
 11
98
 21
0.5
  0
LINE
  8
0
 10
98
 20
0.5
 11
89
 21
0.5
  0
LINE
  8
0
 10
89
 20
-24.75
 11
89
 21
-21.75
  0
LINE
  8
0
 10
89
 20
-21.75
 11
98
 21
-21.75
  0
LINE
  8
0
 10
98
 20
-21.75
 11
98
 21
-24.75
  0
LINE
  8
0
 10
98
 20
-24.75
 11
89
 21
-24.75
  0
LINE
  8
0
 10
69.2857
 20
-51
 11
69.2857
 21
-47
  0
LINE
  8
0
 10
69.2857
 20
-47
 11
75.5714
 21
-47
  0
LINE
  8
0
 10
75.5714
 20
-47
 11
75.5714
 21
-51
  0
LINE
  8
0
 10
75.5714
 20
-51
 11
69.2857
 21
-51
  0
LINE
  8
0
 10
94.4286
 20
-51
 11
94.4286
 21
-47
  0
LINE
  8
0
 10
94.4286
 20
-47
 11
100.714
 21
-47
  0
LINE
  8
0
 10
100.714
 20
-47
 11
100.714
 21
-51
  0
LINE
  8
0
 10
100.714
 20
-51
 11
94.4286
 21
-51
  0
LINE
  8
0
 10
81.8571
 20
-51
 11
81.8571
 21
-47
  0
LINE
  8
0
 10
81.8571
 20
-47
 11
88.1429
 21
-47
  0
LINE
  8
0
 10
88.1429
 20
-47
 11
88.1429
 21
-51
  0
LINE
  8
0
 10
88.1429
 20
-51
 11
81.8571
 21
-51
  0
LINE
  8
0
 10
143
 20
-47
 11
152
 21
-47
  0
LINE
  8
0
 10
152
 20
-47
 11
152
 21
-24.75
  0
LINE
  8
0
 10
152
 20
-24.75
 11
132
 21
-24.75
  0
LINE
  8
0
 10
132
 20
-24.75
 11
132
 21
-21.75
  0
LINE
  8
0
 10
132
 20
-21.75
 11
152
 21
-21.75
  0
LINE
  8
0
 10
152
 20
-21.75
 11
152
 21
0.5
  0
LINE
  8
0
 10
152
 20
0.5
 11
132
 21
0.5
  0
LINE
  8
0
 10
132
 20
0.5
 11
132
 21
3.5
  0
LINE
  8
0
 10
132
 20
3.5
 11
152
 21
3.5
  0
LINE
  8
0
 10
152
 20
3.5
 11
152
 21
25.75
  0
LINE
  8
0
 10
152
 20
25.75
 11
132
 21
25.75
  0
LINE
  8
0
 10
132
 20
25.75
 11
132
 21
28.75
  0
LINE
  8
0
 10
132
 20
28.75
 11
152
 21
28.75
  0
LINE
  8
0
 10
152
 20
28.75
 11
152
 21
51
  0
LINE
  8
0
 10
152
 20
51
 11
143
 21
51
  0
LINE
  8
0
 10
143
 20
51
 11
143
 21
54
  0
LINE
  8
0
 10
143
 20
54
 11
134
 21
54
  0
LINE
  8
0
 10
134
 20
54
 11
134
 21
51
  0
LINE
  8
0
 10
134
 20
51
 11
112
 21
51
  0
LINE
  8
0
 10
112
 20
51
 11
112
 21
43.25
  0
LINE
  8
0
 10
112
 20
43.25
 11
108
 21
43.25
  0
LINE
  8
0
 10
108
 20
43.25
 11
108
 21
34.25
  0
LINE
  8
0
 10
108
 20
34.25
 11
112
 21
34.25
  0
LINE
  8
0
 10
112
 20
34.25
 11
112
 21
18.75
  0
LINE
  8
0
 10
112
 20
18.75
 11
108
 21
18.75
  0
LINE
  8
0
 10
108
 20
18.75
 11
108
 21
9.75
  0
LINE
  8
0
 10
108
 20
9.75
 11
112
 21
9.75
  0
LINE
  8
0
 10
112
 20
9.75
 11
112
 21
-5.75
  0
LINE
  8
0
 10
112
 20
-5.75
 11
108
 21
-5.75
  0
LINE
  8
0
 10
108
 20
-5.75
 11
108
 21
-14.75
  0
LINE
  8
0
 10
108
 20
-14.75
 11
112
 21
-14.75
  0
LINE
  8
0
 10
112
 20
-14.75
 11
112
 21
-30.25
  0
LINE
  8
0
 10
112
 20
-30.25
 11
108
 21
-30.25
  0
LINE
  8
0
 10
108
 20
-30.25
 11
108
 21
-39.25
  0
LINE
  8
0
 10
108
 20
-39.25
 11
112
 21
-39.25
  0
LINE
  8
0
 10
112
 20
-39.25
 11
112
 21
-47
  0
LINE
  8
0
 10
112
 20
-47
 11
134
 21
-47
  0
LINE
  8
0
 10
134
 20
-47
 11
134
 21
-51
  0
LINE
  8
0
 10
134
 20
-51
 11
143
 21
-51
  0
LINE
  8
0
 10
143
 20
-51
 11
143
 21
-47
  0
LINE
  8
0
 10
188
 20
-47
 11
197
 21
-47
  0
LINE
  8
0
 10
197
 20
-47
 11
197
 21
-24.75
  0
LINE
  8
0
 10
197
 20
-24.75
 11
177
 21
-24.75
  0
LINE
  8
0
 10
177
 20
-24.75
 11
177
 21
-21.75
  0
LINE
  8
0
 10
177
 20
-21.75
 11
197
 21
-21.75
  0
LINE
  8
0
 10
197
 20
-21.75
 11
197
 21
0.5
  0
LINE
  8
0
 10
197
 20
0.5
 11
177
 21
0.5
  0
LINE
  8
0
 10
177
 20
0.5
 11
177
 21
3.5
  0
LINE
  8
0
 10
177
 20
3.5
 11
197
 21
3.5
  0
LINE
  8
0
 10
197
 20
3.5
 11
197
 21
25.75
  0
LINE
  8
0
 10
197
 20
25.75
 11
177
 21
25.75
  0
LINE
  8
0
 10
177
 20
25.75
 11
177
 21
28.75
  0
LINE
  8
0
 10
177
 20
28.75
 11
197
 21
28.75
  0
LINE
  8
0
 10
197
 20
28.75
 11
197
 21
51
  0
LINE
  8
0
 10
197
 20
51
 11
188
 21
51
  0
LINE
  8
0
 10
188
 20
51
 11
188
 21
54
  0
LINE
  8
0
 10
188
 20
54
 11
179
 21
54
  0
LINE
  8
0
 10
179
 20
54
 11
179
 21
51
  0
LINE
  8
0
 10
179
 20
51
 11
157
 21
51
  0
LINE
  8
0
 10
157
 20
51
 11
157
 21
43.25
  0
LINE
  8
0
 10
157
 20
43.25
 11
153
 21
43.25
  0
LINE
  8
0
 10
153
 20
43.25
 11
153
 21
34.25
  0
LINE
  8
0
 10
153
 20
34.25
 11
157
 21
34.25
  0
LINE
  8
0
 10
157
 20
34.25
 11
157
 21
18.75
  0
LINE
  8
0
 10
157
 20
18.75
 11
153
 21
18.75
  0
LINE
  8
0
 10
153
 20
18.75
 11
153
 21
9.75
  0
LINE
  8
0
 10
153
 20
9.75
 11
157
 21
9.75
  0
LINE
  8
0
 10
157
 20
9.75
 11
157
 21
-5.75
  0
LINE
  8
0
 10
157
 20
-5.75
 11
153
 21
-5.75
  0
LINE
  8
0
 10
153
 20
-5.75
 11
153
 21
-14.75
  0
LINE
  8
0
 10
153
 20
-14.75
 11
157
 21
-14.75
  0
LINE
  8
0
 10
157
 20
-14.75
 11
157
 21
-30.25
  0
LINE
  8
0
 10
157
 20
-30.25
 11
153
 21
-30.25
  0
LINE
  8
0
 10
153
 20
-30.25
 11
153
 21
-39.25
  0
LINE
  8
0
 10
153
 20
-39.25
 11
157
 21
-39.25
  0
LINE
  8
0
 10
157
 20
-39.25
 11
157
 21
-47
  0
LINE
  8
0
 10
157
 20
-47
 11
179
 21
-47
  0
LINE
  8
0
 10
179
 20
-47
 11
179
 21
-51
  0
LINE
  8
0
 10
179
 20
-51
 11
188
 21
-51
  0
LINE
  8
0
 10
188
 20
-51
 11
188
 21
-47
  0
LINE
  8
0
 10
233
 20
-47
 11
242
 21
-47
  0
LINE
  8
0
 10
242
 20
-47
 11
242
 21
-24.75
  0
LINE
  8
0
 10
242
 20
-24.75
 11
222
 21
-24.75
  0
LINE
  8
0
 10
222
 20
-24.75
 11
222
 21
-21.75
  0
LINE
  8
0
 10
222
 20
-21.75
 11
242
 21
-21.75
  0
LINE
  8
0
 10
242
 20
-21.75
 11
242
 21
0.5
  0
LINE
  8
0
 10
242
 20
0.5
 11
222
 21
0.5
  0
LINE
  8
0
 10
222
 20
0.5
 11
222
 21
3.5
  0
LINE
  8
0
 10
222
 20
3.5
 11
242
 21
3.5
  0
LINE
  8
0
 10
242
 20
3.5
 11
242
 21
25.75
  0
LINE
  8
0
 10
242
 20
25.75
 11
222
 21
25.75
  0
LINE
  8
0
 10
222
 20
25.75
 11
222
 21
28.75
  0
LINE
  8
0
 10
222
 20
28.75
 11
242
 21
28.75
  0
LINE
  8
0
 10
242
 20
28.75
 11
242
 21
51
  0
LINE
  8
0
 10
242
 20
51
 11
233
 21
51
  0
LINE
  8
0
 10
233
 20
51
 11
233
 21
54
  0
LINE
  8
0
 10
233
 20
54
 11
224
 21
54
  0
LINE
  8
0
 10
224
 20
54
 11
224
 21
51
  0
LINE
  8
0
 10
224
 20
51
 11
202
 21
51
  0
LINE
  8
0
 10
202
 20
51
 11
202
 21
43.25
  0
LINE
  8
0
 10
202
 20
43.25
 11
198
 21
43.25
  0
LINE
  8
0
 10
198
 20
43.25
 11
198
 21
34.25
  0
LINE
  8
0
 10
198
 20
34.25
 11
202
 21
34.25
  0
LINE
  8
0
 10
202
 20
34.25
 11
202
 21
18.75
  0
LINE
  8
0
 10
202
 20
18.75
 11
198
 21
18.75
  0
LINE
  8
0
 10
198
 20
18.75
 11
198
 21
9.75
  0
LINE
  8
0
 10
198
 20
9.75
 11
202
 21
9.75
  0
LINE
  8
0
 10
202
 20
9.75
 11
202
 21
-5.75
  0
LINE
  8
0
 10
202
 20
-5.75
 11
198
 21
-5.75
  0
LINE
  8
0
 10
198
 20
-5.75
 11
198
 21
-14.75
  0
LINE
  8
0
 10
198
 20
-14.75
 11
202
 21
-14.75
  0
LINE
  8
0
 10
202
 20
-14.75
 11
202
 21
-30.25
  0
LINE
  8
0
 10
202
 20
-30.25
 11
198
 21
-30.25
  0
LINE
  8
0
 10
198
 20
-30.25
 11
198
 21
-39.25
  0
LINE
  8
0
 10
198
 20
-39.25
 11
202
 21
-39.25
  0
LINE
  8
0
 10
202
 20
-39.25
 11
202
 21
-47
  0
LINE
  8
0
 10
202
 20
-47
 11
224
 21
-47
  0
LINE
  8
0
 10
224
 20
-47
 11
224
 21
-51
  0
LINE
  8
0
 10
224
 20
-51
 11
233
 21
-51
  0
LINE
  8
0
 10
233
 20
-51
 11
233
 21
-47
  0
LINE
  8
0
 10
-54
 20
-47.647
 11
-51
 21
-47.647
  0
LINE
  8
0
 10
-51
 20
-47.647
 11
-51
 21
-53.9995
  0
LINE
  8
0
 10
-51
 20
-53.9995
 11
51
 21
-53.9995
  0
LINE
  8
0
 10
51
 20
-53.9995
 11
51
 21
-47.647
  0
LINE
  8
0
 10
51
 20
-47.647
 11
54
 21
-47.647
  0
LINE
  8
0
 10
54
 20
-47.647
 11
54
 21
-53.9995
  0
LINE
  8
0
 10
54
 20
-53.9995
 11
62
 21
-53.9995
  0
LINE
  8
0
 10
62
 20
-53.9995
 11
62
 21
53.9995
  0
LINE
  8
0
 10
62
 20
53.9995
 11
54
 21
53.9995
  0
LINE
  8
0
 10
54
 20
53.9995
 11
54
 21
47.647
  0
LINE
  8
0
 10
54
 20
47.647
 11
51
 21
47.647
  0
LINE
  8
0
 10
51
 20
47.647
 11
51
 21
51
  0
LINE
  8
0
 10
51
 20
51
 11
44.2
 21
51
  0
LINE
  8
0
 10
44.2
 20
51
 11
44.2
 21
53.9995
  0
LINE
  8
0
 10
44.2
 20
53.9995
 11
37.4
 21
53.9995
  0
LINE
  8
0
 10
37.4
 20
53.9995
 11
37.4
 21
51
  0
LINE
  8
0
 10
37.4
 20
51
 11
30.6
 21
51
  0
LINE
  8
0
 10
30.6
 20
51
 11
30.6
 21
53.9995
  0
LINE
  8
0
 10
30.6
 20
53.9995
 11
23.8
 21
53.9995
  0
LINE
  8
0
 10
23.8
 20
53.9995
 11
23.8
 21
51
  0
LINE
  8
0
 10
23.8
 20
51
 11
17
 21
51
  0
LINE
  8
0
 10
17
 20
51
 11
17
 21
53.9995
  0
LINE
  8
0
 10
17
 20
53.9995
 11
10.2
 21
53.9995
  0
LINE
  8
0
 10
10.2
 20
53.9995
 11
10.2
 21
51
  0
LINE
  8
0
 10
10.2
 20
51
 11
3.39999
 21
51
  0
LINE
  8
0
 10
3.39999
 20
51
 11
3.39999
 21
53.9995
  0
LINE
  8
0
 10
3.39999
 20
53.9995
 11
-3.39999
 21
53.9995
  0
LINE
  8
0
 10
-3.39999
 20
53.9995
 11
-3.39999
 21
51
  0
LINE
  8
0
 10
-3.39999
 20
51
 11
-10.2
 21
51
  0
LINE
  8
0
 10
-10.2
 20
51
 11
-10.2
 21
53.9995
  0
LINE
  8
0
 10
-10.2
 20
53.9995
 11
-17
 21
53.9995
  0
LINE
  8
0
 10
-17
 20
53.9995
 11
-17
 21
51
  0
LINE
  8
0
 10
-17
 20
51
 11
-23.8
 21
51
  0
LINE
  8
0
 10
-23.8
 20
51
 11
-23.8
 21
53.9995
  0
LINE
  8
0
 10
-23.8
 20
53.9995
 11
-30.6
 21
53.9995
  0
LINE
  8
0
 10
-30.6
 20
53.9995
 11
-30.6
 21
51
  0
LINE
  8
0
 10
-30.6
 20
51
 11
-37.4
 21
51
  0
LINE
  8
0
 10
-37.4
 20
51
 11
-37.4
 21
53.9995
  0
LINE
  8
0
 10
-37.4
 20
53.9995
 11
-44.2
 21
53.9995
  0
LINE
  8
0
 10
-44.2
 20
53.9995
 11
-44.2
 21
51
  0
LINE
  8
0
 10
-44.2
 20
51
 11
-51
 21
51
  0
LINE
  8
0
 10
-51
 20
51
 11
-51
 21
47.647
  0
LINE
  8
0
 10
-51
 20
47.647
 11
-54
 21
47.647
  0
LINE
  8
0
 10
-54
 20
47.647
 11
-54
 21
53.9995
  0
LINE
  8
0
 10
-54
 20
53.9995
 11
-62
 21
53.9995
  0
LINE
  8
0
 10
-62
 20
53.9995
 11
-62
 21
-53.9995
  0
LINE
  8
0
 10
-62
 20
-53.9995
 11
-54
 21
-53.9995
  0
LINE
  8
0
 10
-54
 20
-53.9995
 11
-54
 21
-47.647
  0
LINE
  8
0
 10
-1.5
 20
34.25
 11
-1.5
 21
43.25
  0
LINE
  8
0
 10
-1.5
 20
43.25
 11
1.5
 21
43.25
  0
LINE
  8
0
 10
1.5
 20
43.25
 11
1.5
 21
34.25
  0
LINE
  8
0
 10
1.5
 20
34.25
 11
-1.5
 21
34.25
  0
LINE
  8
0
 10
24.75
 20
34.25
 11
24.75
 21
43.25
  0
LINE
  8
0
 10
24.75
 20
43.25
 11
27.75
 21
43.25
  0
LINE
  8
0
 10
27.75
 20
43.25
 11
27.75
 21
34.25
  0
LINE
  8
0
 10
27.75
 20
34.25
 11
24.75
 21
34.25
  0
LINE
  8
0
 10
-27.75
 20
34.25
 11
-27.75
 21
43.25
  0
LINE
  8
0
 10
-27.75
 20
43.25
 11
-24.75
 21
43.25
  0
LINE
  8
0
 10
-24.75
 20
43.25
 11
-24.75
 21
34.25
  0
LINE
  8
0
 10
-24.75
 20
34.25
 11
-27.75
 21
34.25
  0
LINE
  8
0
 10
51
 20
34.9412
 11
51
 21
41.2941
  0
LINE
  8
0
 10
51
 20
41.2941
 11
54
 21
41.2941
  0
LINE
  8
0
 10
54
 20
41.2941
 11
54
 21
34.9412
  0
LINE
  8
0
 10
54
 20
34.9412
 11
51
 21
34.9412
  0
LINE
  8
0
 10
-54
 20
34.9412
 11
-54
 21
41.2941
  0
LINE
  8
0
 10
-54
 20
41.2941
 11
-51
 21
41.2941
  0
LINE
  8
0
 10
-51
 20
41.2941
 11
-51
 21
34.9412
  0
LINE
  8
0
 10
-51
 20
34.9412
 11
-54
 21
34.9412
  0
LINE
  8
0
 10
-42.75
 20
25.75
 11
-42.75
 21
28.75
  0
LINE
  8
0
 10
-42.75
 20
28.75
 11
-33.75
 21
28.75
  0
LINE
  8
0
 10
-33.75
 20
28.75
 11
-33.75
 21
25.75
  0
LINE
  8
0
 10
-33.75
 20
25.75
 11
-42.75
 21
25.75
  0
LINE
  8
0
 10
-17.25
 20
25.75
 11
-17.25
 21
28.75
  0
LINE
  8
0
 10
-17.25
 20
28.75
 11
-8.25
 21
28.75
  0
LINE
  8
0
 10
-8.25
 20
28.75
 11
-8.25
 21
25.75
  0
LINE
  8
0
 10
-8.25
 20
25.75
 11
-17.25
 21
25.75
  0
LINE
  8
0
 10
8.25
 20
25.75
 11
8.25
 21
28.75
  0
LINE
  8
0
 10
8.25
 20
28.75
 11
17.25
 21
28.75
  0
LINE
  8
0
 10
17.25
 20
28.75
 11
17.25
 21
25.75
  0
LINE
  8
0
 10
17.25
 20
25.75
 11
8.25
 21
25.75
  0
LINE
  8
0
 10
33.75
 20
25.75
 11
33.75
 21
28.75
  0
LINE
  8
0
 10
33.75
 20
28.75
 11
42.75
 21
28.75
  0
LINE
  8
0
 10
42.75
 20
28.75
 11
42.75
 21
25.75
  0
LINE
  8
0
 10
42.75
 20
25.75
 11
33.75
 21
25.75
  0
LINE
  8
0
 10
51
 20
22.2353
 11
51
 21
28.5882
  0
LINE
  8
0
 10
51
 20
28.5882
 11
54
 21
28.5882
  0
LINE
  8
0
 10
54
 20
28.5882
 11
54
 21
22.2353
  0
LINE
  8
0
 10
54
 20
22.2353
 11
51
 21
22.2353
  0
LINE
  8
0
 10
-54
 20
22.2353
 11
-54
 21
28.5882
  0
LINE
  8
0
 10
-54
 20
28.5882
 11
-51
 21
28.5882
  0
LINE
  8
0
 10
-51
 20
28.5882
 11
-51
 21
22.2353
  0
LINE
  8
0
 10
-51
 20
22.2353
 11
-54
 21
22.2353
  0
LINE
  8
0
 10
-1.5
 20
9.75
 11
-1.5
 21
18.75
  0
LINE
  8
0
 10
-1.5
 20
18.75
 11
1.5
 21
18.75
  0
LINE
  8
0
 10
1.5
 20
18.75
 11
1.5
 21
9.75
  0
LINE
  8
0
 10
1.5
 20
9.75
 11
-1.5
 21
9.75
  0
LINE
  8
0
 10
-27.75
 20
9.75
 11
-27.75
 21
18.75
  0
LINE
  8
0
 10
-27.75
 20
18.75
 11
-24.75
 21
18.75
  0
LINE
  8
0
 10
-24.75
 20
18.75
 11
-24.75
 21
9.75
  0
LINE
  8
0
 10
-24.75
 20
9.75
 11
-27.75
 21
9.75
  0
LINE
  8
0
 10
24.75
 20
9.75
 11
24.75
 21
18.75
  0
LINE
  8
0
 10
24.75
 20
18.75
 11
27.75
 21
18.75
  0
LINE
  8
0
 10
27.75
 20
18.75
 11
27.75
 21
9.75
  0
LINE
  8
0
 10
27.75
 20
9.75
 11
24.75
 21
9.75
  0
LINE
  8
0
 10
51
 20
9.5294
 11
51
 21
15.8823
  0
LINE
  8
0
 10
51
 20
15.8823
 11
54
 21
15.8823
  0
LINE
  8
0
 10
54
 20
15.8823
 11
54
 21
9.5294
  0
LINE
  8
0
 10
54
 20
9.5294
 11
51
 21
9.5294
  0
LINE
  8
0
 10
-54
 20
9.5294
 11
-54
 21
15.8823
  0
LINE
  8
0
 10
-54
 20
15.8823
 11
-51
 21
15.8823
  0
LINE
  8
0
 10
-51
 20
15.8823
 11
-51
 21
9.5294
  0
LINE
  8
0
 10
-51
 20
9.5294
 11
-54
 21
9.5294
  0
LINE
  8
0
 10
-17.25
 20
0.5
 11
-17.25
 21
3.5
  0
LINE
  8
0
 10
-17.25
 20
3.5
 11
-8.25
 21
3.5
  0
LINE
  8
0
 10
-8.25
 20
3.5
 11
-8.25
 21
0.5
  0
LINE
  8
0
 10
-8.25
 20
0.5
 11
-17.25
 21
0.5
  0
LINE
  8
0
 10
33.75
 20
0.5
 11
33.75
 21
3.5
  0
LINE
  8
0
 10
33.75
 20
3.5
 11
42.75
 21
3.5
  0
LINE
  8
0
 10
42.75
 20
3.5
 11
42.75
 21
0.5
  0
LINE
  8
0
 10
42.75
 20
0.5
 11
33.75
 21
0.5
  0
LINE
  8
0
 10
-42.75
 20
0.5
 11
-42.75
 21
3.5
  0
LINE
  8
0
 10
-42.75
 20
3.5
 11
-33.75
 21
3.5
  0
LINE
  8
0
 10
-33.75
 20
3.5
 11
-33.75
 21
0.5
  0
LINE
  8
0
 10
-33.75
 20
0.5
 11
-42.75
 21
0.5
  0
LINE
  8
0
 10
8.25
 20
0.5
 11
8.25
 21
3.5
  0
LINE
  8
0
 10
8.25
 20
3.5
 11
17.25
 21
3.5
  0
LINE
  8
0
 10
17.25
 20
3.5
 11
17.25
 21
0.5
  0
LINE
  8
0
 10
17.25
 20
0.5
 11
8.25
 21
0.5
  0
LINE
  8
0
 10
-54
 20
-3.17647
 11
-54
 21
3.17645
  0
LINE
  8
0
 10
-54
 20
3.17645
 11
-51
 21
3.17645
  0
LINE
  8
0
 10
-51
 20
3.17645
 11
-51
 21
-3.17647
  0
LINE
  8
0
 10
-51
 20
-3.17647
 11
-54
 21
-3.17647
  0
LINE
  8
0
 10
51
 20
-3.17647
 11
51
 21
3.17645
  0
LINE
  8
0
 10
51
 20
3.17645
 11
54
 21
3.17645
  0
LINE
  8
0
 10
54
 20
3.17645
 11
54
 21
-3.17647
  0
LINE
  8
0
 10
54
 20
-3.17647
 11
51
 21
-3.17647
  0
LINE
  8
0
 10
24.75
 20
-14.75
 11
24.75
 21
-5.75
  0
LINE
  8
0
 10
24.75
 20
-5.75
 11
27.75
 21
-5.75
  0
LINE
  8
0
 10
27.75
 20
-5.75
 11
27.75
 21
-14.75
  0
LINE
  8
0
 10
27.75
 20
-14.75
 11
24.75
 21
-14.75
  0
LINE
  8
0
 10
-27.75
 20
-14.75
 11
-27.75
 21
-5.75
  0
LINE
  8
0
 10
-27.75
 20
-5.75
 11
-24.75
 21
-5.75
  0
LINE
  8
0
 10
-24.75
 20
-5.75
 11
-24.75
 21
-14.75
  0
LINE
  8
0
 10
-24.75
 20
-14.75
 11
-27.75
 21
-14.75
  0
LINE
  8
0
 10
-1.5
 20
-14.75
 11
-1.5
 21
-5.75
  0
LINE
  8
0
 10
-1.5
 20
-5.75
 11
1.5
 21
-5.75
  0
LINE
  8
0
 10
1.5
 20
-5.75
 11
1.5
 21
-14.75
  0
LINE
  8
0
 10
1.5
 20
-14.75
 11
-1.5
 21
-14.75
  0
LINE
  8
0
 10
-54
 20
-15.8823
 11
-54
 21
-9.5294
  0
LINE
  8
0
 10
-54
 20
-9.5294
 11
-51
 21
-9.5294
  0
LINE
  8
0
 10
-51
 20
-9.5294
 11
-51
 21
-15.8823
  0
LINE
  8
0
 10
-51
 20
-15.8823
 11
-54
 21
-15.8823
  0
LINE
  8
0
 10
51
 20
-15.8823
 11
51
 21
-9.5294
  0
LINE
  8
0
 10
51
 20
-9.5294
 11
54
 21
-9.5294
  0
LINE
  8
0
 10
54
 20
-9.5294
 11
54
 21
-15.8823
  0
LINE
  8
0
 10
54
 20
-15.8823
 11
51
 21
-15.8823
  0
LINE
  8
0
 10
-42.75
 20
-24.75
 11
-42.75
 21
-21.75
  0
LINE
  8
0
 10
-42.75
 20
-21.75
 11
-33.75
 21
-21.75
  0
LINE
  8
0
 10
-33.75
 20
-21.75
 11
-33.75
 21
-24.75
  0
LINE
  8
0
 10
-33.75
 20
-24.75
 11
-42.75
 21
-24.75
  0
LINE
  8
0
 10
-17.25
 20
-24.75
 11
-17.25
 21
-21.75
  0
LINE
  8
0
 10
-17.25
 20
-21.75
 11
-8.25
 21
-21.75
  0
LINE
  8
0
 10
-8.25
 20
-21.75
 11
-8.25
 21
-24.75
  0
LINE
  8
0
 10
-8.25
 20
-24.75
 11
-17.25
 21
-24.75
  0
LINE
  8
0
 10
8.25
 20
-24.75
 11
8.25
 21
-21.75
  0
LINE
  8
0
 10
8.25
 20
-21.75
 11
17.25
 21
-21.75
  0
LINE
  8
0
 10
17.25
 20
-21.75
 11
17.25
 21
-24.75
  0
LINE
  8
0
 10
17.25
 20
-24.75
 11
8.25
 21
-24.75
  0
LINE
  8
0
 10
33.75
 20
-24.75
 11
33.75
 21
-21.75
  0
LINE
  8
0
 10
33.75
 20
-21.75
 11
42.75
 21
-21.75
  0
LINE
  8
0
 10
42.75
 20
-21.75
 11
42.75
 21
-24.75
  0
LINE
  8
0
 10
42.75
 20
-24.75
 11
33.75
 21
-24.75
  0
LINE
  8
0
 10
-54
 20
-28.5882
 11
-54
 21
-22.2353
  0
LINE
  8
0
 10
-54
 20
-22.2353
 11
-51
 21
-22.2353
  0
LINE
  8
0
 10
-51
 20
-22.2353
 11
-51
 21
-28.5882
  0
LINE
  8
0
 10
-51
 20
-28.5882
 11
-54
 21
-28.5882
  0
LINE
  8
0
 10
51
 20
-28.5882
 11
51
 21
-22.2353
  0
LINE
  8
0
 10
51
 20
-22.2353
 11
54
 21
-22.2353
  0
LINE
  8
0
 10
54
 20
-22.2353
 11
54
 21
-28.5882
  0
LINE
  8
0
 10
54
 20
-28.5882
 11
51
 21
-28.5882
  0
LINE
  8
0
 10
-27.75
 20
-39.25
 11
-27.75
 21
-30.25
  0
LINE
  8
0
 10
-27.75
 20
-30.25
 11
-24.75
 21
-30.25
  0
LINE
  8
0
 10
-24.75
 20
-30.25
 11
-24.75
 21
-39.25
  0
LINE
  8
0
 10
-24.75
 20
-39.25
 11
-27.75
 21
-39.25
  0
LINE
  8
0
 10
-1.5
 20
-39.25
 11
-1.5
 21
-30.25
  0
LINE
  8
0
 10
-1.5
 20
-30.25
 11
1.5
 21
-30.25
  0
LINE
  8
0
 10
1.5
 20
-30.25
 11
1.5
 21
-39.25
  0
LINE
  8
0
 10
1.5
 20
-39.25
 11
-1.5
 21
-39.25
  0
LINE
  8
0
 10
24.75
 20
-39.25
 11
24.75
 21
-30.25
  0
LINE
  8
0
 10
24.75
 20
-30.25
 11
27.75
 21
-30.25
  0
LINE
  8
0
 10
27.75
 20
-30.25
 11
27.75
 21
-39.25
  0
LINE
  8
0
 10
27.75
 20
-39.25
 11
24.75
 21
-39.25
  0
LINE
  8
0
 10
51
 20
-41.2941
 11
51
 21
-34.9412
  0
LINE
  8
0
 10
51
 20
-34.9412
 11
54
 21
-34.9412
  0
LINE
  8
0
 10
54
 20
-34.9412
 11
54
 21
-41.2941
  0
LINE
  8
0
 10
54
 20
-41.2941
 11
51
 21
-41.2941
  0
LINE
  8
0
 10
-54
 20
-41.2941
 11
-54
 21
-34.9412
  0
LINE
  8
0
 10
-54
 20
-34.9412
 11
-51
 21
-34.9412
  0
LINE
  8
0
 10
-51
 20
-34.9412
 11
-51
 21
-41.2941
  0
LINE
  8
0
 10
-51
 20
-41.2941
 11
-54
 21
-41.2941
  0
LINE
  8
0
 10
-44.2
 20
-51
 11
-44.2
 21
-47
  0
LINE
  8
0
 10
-44.2
 20
-47
 11
-37.4
 21
-47
  0
LINE
  8
0
 10
-37.4
 20
-47
 11
-37.4
 21
-51
  0
LINE
  8
0
 10
-37.4
 20
-51
 11
-44.2
 21
-51
  0
LINE
  8
0
 10
-30.6
 20
-51
 11
-30.6
 21
-47
  0
LINE
  8
0
 10
-30.6
 20
-47
 11
-23.8
 21
-47
  0
LINE
  8
0
 10
-23.8
 20
-47
 11
-23.8
 21
-51
  0
LINE
  8
0
 10
-23.8
 20
-51
 11
-30.6
 21
-51
  0
LINE
  8
0
 10
-17
 20
-51
 11
-17
 21
-47
  0
LINE
  8
0
 10
-17
 20
-47
 11
-10.2
 21
-47
  0
LINE
  8
0
 10
-10.2
 20
-47
 11
-10.2
 21
-51
  0
LINE
  8
0
 10
-10.2
 20
-51
 11
-17
 21
-51
  0
LINE
  8
0
 10
-3.39999
 20
-51
 11
-3.39999
 21
-47
  0
LINE
  8
0
 10
-3.39999
 20
-47
 11
3.39999
 21
-47
  0
LINE
  8
0
 10
3.39999
 20
-47
 11
3.39999
 21
-51
  0
LINE
  8
0
 10
3.39999
 20
-51
 11
-3.39999
 21
-51
  0
LINE
  8
0
 10
10.2
 20
-51
 11
10.2
 21
-47
  0
LINE
  8
0
 10
10.2
 20
-47
 11
17
 21
-47
  0
LINE
  8
0
 10
17
 20
-47
 11
17
 21
-51
  0
LINE
  8
0
 10
17
 20
-51
 11
10.2
 21
-51
  0
LINE
  8
0
 10
23.8
 20
-51
 11
23.8
 21
-47
  0
LINE
  8
0
 10
23.8
 20
-47
 11
30.6
 21
-47
  0
LINE
  8
0
 10
30.6
 20
-47
 11
30.6
 21
-51
  0
LINE
  8
0
 10
30.6
 20
-51
 11
23.8
 21
-51
  0
LINE
  8
0
 10
37.4
 20
-51
 11
37.4
 21
-47
  0
LINE
  8
0
 10
37.4
 20
-47
 11
44.2
 21
-47
  0
LINE
  8
0
 10
44.2
 20
-47
 11
44.2
 21
-51
  0
LINE
  8
0
 10
44.2
 20
-51
 11
37.4
 21
-51
  0
LINE
  8
0
 10
51
 20
-92.7143
 11
54
 21
-92.7143
  0
LINE
  8
0
 10
54
 20
-92.7143
 11
54
 21
-86.4286
  0
LINE
  8
0
 10
54
 20
-86.4286
 11
51
 21
-86.4286
  0
LINE
  8
0
 10
51
 20
-86.4286
 11
51
 21
-80.1429
  0
LINE
  8
0
 10
51
 20
-80.1429
 11
54
 21
-80.1429
  0
LINE
  8
0
 10
54
 20
-80.1429
 11
54
 21
-73.8571
  0
LINE
  8
0
 10
54
 20
-73.8571
 11
51
 21
-73.8571
  0
LINE
  8
0
 10
51
 20
-73.8571
 11
51
 21
-67.5714
  0
LINE
  8
0
 10
51
 20
-67.5714
 11
54
 21
-67.5714
  0
LINE
  8
0
 10
54
 20
-67.5714
 11
54
 21
-61.2857
  0
LINE
  8
0
 10
54
 20
-61.2857
 11
51
 21
-61.2857
  0
LINE
  8
0
 10
51
 20
-61.2857
 11
51
 21
-59
  0
LINE
  8
0
 10
51
 20
-59
 11
44.2
 21
-59
  0
LINE
  8
0
 10
44.2
 20
-59
 11
44.2
 21
-55
  0
LINE
  8
0
 10
44.2
 20
-55
 11
37.4
 21
-55
  0
LINE
  8
0
 10
37.4
 20
-55
 11
37.4
 21
-59
  0
LINE
  8
0
 10
37.4
 20
-59
 11
30.6
 21
-59
  0
LINE
  8
0
 10
30.6
 20
-59
 11
30.6
 21
-55
  0
LINE
  8
0
 10
30.6
 20
-55
 11
23.8
 21
-55
  0
LINE
  8
0
 10
23.8
 20
-55
 11
23.8
 21
-59
  0
LINE
  8
0
 10
23.8
 20
-59
 11
17
 21
-59
  0
LINE
  8
0
 10
17
 20
-59
 11
17
 21
-55
  0
LINE
  8
0
 10
17
 20
-55
 11
10.2
 21
-55
  0
LINE
  8
0
 10
10.2
 20
-55
 11
10.2
 21
-59
  0
LINE
  8
0
 10
10.2
 20
-59
 11
3.39999
 21
-59
  0
LINE
  8
0
 10
3.39999
 20
-59
 11
3.39999
 21
-55
  0
LINE
  8
0
 10
3.39999
 20
-55
 11
-3.39999
 21
-55
  0
LINE
  8
0
 10
-3.39999
 20
-55
 11
-3.39999
 21
-59
  0
LINE
  8
0
 10
-3.39999
 20
-59
 11
-10.2
 21
-59
  0
LINE
  8
0
 10
-10.2
 20
-59
 11
-10.2
 21
-55
  0
LINE
  8
0
 10
-10.2
 20
-55
 11
-17
 21
-55
  0
LINE
  8
0
 10
-17
 20
-55
 11
-17
 21
-59
  0
LINE
  8
0
 10
-17
 20
-59
 11
-23.8
 21
-59
  0
LINE
  8
0
 10
-23.8
 20
-59
 11
-23.8
 21
-55
  0
LINE
  8
0
 10
-23.8
 20
-55
 11
-30.6
 21
-55
  0
LINE
  8
0
 10
-30.6
 20
-55
 11
-30.6
 21
-59
  0
LINE
  8
0
 10
-30.6
 20
-59
 11
-37.4
 21
-59
  0
LINE
  8
0
 10
-37.4
 20
-59
 11
-37.4
 21
-55
  0
LINE
  8
0
 10
-37.4
 20
-55
 11
-44.2
 21
-55
  0
LINE
  8
0
 10
-44.2
 20
-55
 11
-44.2
 21
-59
  0
LINE
  8
0
 10
-44.2
 20
-59
 11
-51
 21
-59
  0
LINE
  8
0
 10
-51
 20
-59
 11
-51
 21
-61.2857
  0
LINE
  8
0
 10
-51
 20
-61.2857
 11
-54
 21
-61.2857
  0
LINE
  8
0
 10
-54
 20
-61.2857
 11
-54
 21
-67.5714
  0
LINE
  8
0
 10
-54
 20
-67.5714
 11
-51
 21
-67.5714
  0
LINE
  8
0
 10
-51
 20
-67.5714
 11
-51
 21
-73.8571
  0
LINE
  8
0
 10
-51
 20
-73.8571
 11
-54
 21
-73.8571
  0
LINE
  8
0
 10
-54
 20
-73.8571
 11
-54
 21
-80.1429
  0
LINE
  8
0
 10
-54
 20
-80.1429
 11
-51
 21
-80.1429
  0
LINE
  8
0
 10
-51
 20
-80.1429
 11
-51
 21
-86.4286
  0
LINE
  8
0
 10
-51
 20
-86.4286
 11
-54
 21
-86.4286
  0
LINE
  8
0
 10
-54
 20
-86.4286
 11
-54
 21
-92.7143
  0
LINE
  8
0
 10
-54
 20
-92.7143
 11
-51
 21
-92.7143
  0
LINE
  8
0
 10
-51
 20
-92.7143
 11
-51
 21
-99
  0
LINE
  8
0
 10
-51
 20
-99
 11
51
 21
-99
  0
LINE
  8
0
 10
51
 20
-99
 11
51
 21
-92.7143
  0
LINE
  8
0
 10
24.75
 20
-90
 11
24.75
 21
-81
  0
LINE
  8
0
 10
24.75
 20
-81
 11
27.75
 21
-81
  0
LINE
  8
0
 10
27.75
 20
-81
 11
27.75
 21
-90
  0
LINE
  8
0
 10
27.75
 20
-90
 11
24.75
 21
-90
  0
LINE
  8
0
 10
-1.5
 20
-90
 11
-1.5
 21
-81
  0
LINE
  8
0
 10
-1.5
 20
-81
 11
1.5
 21
-81
  0
LINE
  8
0
 10
1.5
 20
-81
 11
1.5
 21
-90
  0
LINE
  8
0
 10
1.5
 20
-90
 11
-1.5
 21
-90
  0
LINE
  8
0
 10
-27.75
 20
-90
 11
-27.75
 21
-81
  0
LINE
  8
0
 10
-27.75
 20
-81
 11
-24.75
 21
-81
  0
LINE
  8
0
 10
-24.75
 20
-81
 11
-24.75
 21
-90
  0
LINE
  8
0
 10
-24.75
 20
-90
 11
-27.75
 21
-90
  0
ENDSEC
  0
SECTION
  2
OBJECTS
  0
DICTIONARY
  0
ENDSEC
  0
EOF
