  0
SECTION
  2
BLOCKS
  0
ENDSEC
  0
SECTION
  2
ENTITIES
  0
LINE
  8
0
 10
-33.75
 20
154
 11
-27.75
 21
154
  0
LINE
  8
0
 10
-27.75
 20
154
 11
-27.75
 21
164
  0
LINE
  8
0
 10
-27.75
 20
164
 11
-24.75
 21
164
  0
LINE
  8
0
 10
-24.75
 20
164
 11
-24.75
 21
154
  0
LINE
  8
0
 10
-24.75
 20
154
 11
-17.25
 21
154
  0
LINE
  8
0
 10
-17.25
 20
154
 11
-17.25
 21
150
  0
LINE
  8
0
 10
-17.25
 20
150
 11
-8.25
 21
150
  0
LINE
  8
0
 10
-8.25
 20
150
 11
-8.25
 21
154
  0
LINE
  8
0
 10
-8.25
 20
154
 11
-1.5
 21
154
  0
LINE
  8
0
 10
-1.5
 20
154
 11
-1.5
 21
164
  0
LINE
  8
0
 10
-1.5
 20
164
 11
1.5
 21
164
  0
LINE
  8
0
 10
1.5
 20
164
 11
1.5
 21
154
  0
LINE
  8
0
 10
1.5
 20
154
 11
8.25
 21
154
  0
LINE
  8
0
 10
8.25
 20
154
 11
8.25
 21
150
  0
LINE
  8
0
 10
8.25
 20
150
 11
17.25
 21
150
  0
LINE
  8
0
 10
17.25
 20
150
 11
17.25
 21
154
  0
LINE
  8
0
 10
17.25
 20
154
 11
24.75
 21
154
  0
LINE
  8
0
 10
24.75
 20
154
 11
24.75
 21
164
  0
LINE
  8
0
 10
24.75
 20
164
 11
27.75
 21
164
  0
LINE
  8
0
 10
27.75
 20
164
 11
27.75
 21
154
  0
LINE
  8
0
 10
27.75
 20
154
 11
33.75
 21
154
  0
LINE
  8
0
 10
33.75
 20
154
 11
33.75
 21
150
  0
LINE
  8
0
 10
33.75
 20
150
 11
42.75
 21
150
  0
LINE
  8
0
 10
42.75
 20
150
 11
42.75
 21
154
  0
LINE
  8
0
 10
42.75
 20
154
 11
51
 21
154
  0
LINE
  8
0
 10
51
 20
154
 11
51
 21
164
  0
LINE
  8
0
 10
51
 20
164
 11
54
 21
164
  0
LINE
  8
0
 10
54
 20
164
 11
54
 21
174
  0
LINE
  8
0
 10
54
 20
174
 11
-54
 21
174
  0
LINE
  8
0
 10
-54
 20
174
 11
-54
 21
164
  0
LINE
  8
0
 10
-54
 20
164
 11
-51
 21
164
  0
LINE
  8
0
 10
-51
 20
164
 11
-51
 21
154
  0
LINE
  8
0
 10
-51
 20
154
 11
-42.75
 21
154
  0
LINE
  8
0
 10
-42.75
 20
154
 11
-42.75
 21
150
  0
LINE
  8
0
 10
-42.75
 20
150
 11
-33.75
 21
150
  0
LINE
  8
0
 10
-33.75
 20
150
 11
-33.75
 21
154
  0
LINE
  8
0
 10
-33.75
 20
129
 11
-27.75
 21
129
  0
LINE
  8
0
 10
-27.75
 20
129
 11
-27.75
 21
139
  0
LINE
  8
0
 10
-27.75
 20
139
 11
-24.75
 21
139
  0
LINE
  8
0
 10
-24.75
 20
139
 11
-24.75
 21
129
  0
LINE
  8
0
 10
-24.75
 20
129
 11
-17.25
 21
129
  0
LINE
  8
0
 10
-17.25
 20
129
 11
-17.25
 21
125
  0
LINE
  8
0
 10
-17.25
 20
125
 11
-8.25
 21
125
  0
LINE
  8
0
 10
-8.25
 20
125
 11
-8.25
 21
129
  0
LINE
  8
0
 10
-8.25
 20
129
 11
-1.5
 21
129
  0
LINE
  8
0
 10
-1.5
 20
129
 11
-1.5
 21
139
  0
LINE
  8
0
 10
-1.5
 20
139
 11
1.5
 21
139
  0
LINE
  8
0
 10
1.5
 20
139
 11
1.5
 21
129
  0
LINE
  8
0
 10
1.5
 20
129
 11
8.25
 21
129
  0
LINE
  8
0
 10
8.25
 20
129
 11
8.25
 21
125
  0
LINE
  8
0
 10
8.25
 20
125
 11
17.25
 21
125
  0
LINE
  8
0
 10
17.25
 20
125
 11
17.25
 21
129
  0
LINE
  8
0
 10
17.25
 20
129
 11
24.75
 21
129
  0
LINE
  8
0
 10
24.75
 20
129
 11
24.75
 21
139
  0
LINE
  8
0
 10
24.75
 20
139
 11
27.75
 21
139
  0
LINE
  8
0
 10
27.75
 20
139
 11
27.75
 21
129
  0
LINE
  8
0
 10
27.75
 20
129
 11
33.75
 21
129
  0
LINE
  8
0
 10
33.75
 20
129
 11
33.75
 21
125
  0
LINE
  8
0
 10
33.75
 20
125
 11
42.75
 21
125
  0
LINE
  8
0
 10
42.75
 20
125
 11
42.75
 21
129
  0
LINE
  8
0
 10
42.75
 20
129
 11
51
 21
129
  0
LINE
  8
0
 10
51
 20
129
 11
51
 21
139
  0
LINE
  8
0
 10
51
 20
139
 11
54
 21
139
  0
LINE
  8
0
 10
54
 20
139
 11
54
 21
149
  0
LINE
  8
0
 10
54
 20
149
 11
-54
 21
149
  0
LINE
  8
0
 10
-54
 20
149
 11
-54
 21
139
  0
LINE
  8
0
 10
-54
 20
139
 11
-51
 21
139
  0
LINE
  8
0
 10
-51
 20
139
 11
-51
 21
129
  0
LINE
  8
0
 10
-51
 20
129
 11
-42.75
 21
129
  0
LINE
  8
0
 10
-42.75
 20
129
 11
-42.75
 21
125
  0
LINE
  8
0
 10
-42.75
 20
125
 11
-33.75
 21
125
  0
LINE
  8
0
 10
-33.75
 20
125
 11
-33.75
 21
129
  0
LINE
  8
0
 10
-33.75
 20
104
 11
-27.75
 21
104
  0
LINE
  8
0
 10
-27.75
 20
104
 11
-27.75
 21
114
  0
LINE
  8
0
 10
-27.75
 20
114
 11
-24.75
 21
114
  0
LINE
  8
0
 10
-24.75
 20
114
 11
-24.75
 21
104
  0
LINE
  8
0
 10
-24.75
 20
104
 11
-17.25
 21
104
  0
LINE
  8
0
 10
-17.25
 20
104
 11
-17.25
 21
100
  0
LINE
  8
0
 10
-17.25
 20
100
 11
-8.25
 21
100
  0
LINE
  8
0
 10
-8.25
 20
100
 11
-8.25
 21
104
  0
LINE
  8
0
 10
-8.25
 20
104
 11
-1.5
 21
104
  0
LINE
  8
0
 10
-1.5
 20
104
 11
-1.5
 21
114
  0
LINE
  8
0
 10
-1.5
 20
114
 11
1.5
 21
114
  0
LINE
  8
0
 10
1.5
 20
114
 11
1.5
 21
104
  0
LINE
  8
0
 10
1.5
 20
104
 11
8.25
 21
104
  0
LINE
  8
0
 10
8.25
 20
104
 11
8.25
 21
100
  0
LINE
  8
0
 10
8.25
 20
100
 11
17.25
 21
100
  0
LINE
  8
0
 10
17.25
 20
100
 11
17.25
 21
104
  0
LINE
  8
0
 10
17.25
 20
104
 11
24.75
 21
104
  0
LINE
  8
0
 10
24.75
 20
104
 11
24.75
 21
114
  0
LINE
  8
0
 10
24.75
 20
114
 11
27.75
 21
114
  0
LINE
  8
0
 10
27.75
 20
114
 11
27.75
 21
104
  0
LINE
  8
0
 10
27.75
 20
104
 11
33.75
 21
104
  0
LINE
  8
0
 10
33.75
 20
104
 11
33.75
 21
100
  0
LINE
  8
0
 10
33.75
 20
100
 11
42.75
 21
100
  0
LINE
  8
0
 10
42.75
 20
100
 11
42.75
 21
104
  0
LINE
  8
0
 10
42.75
 20
104
 11
51
 21
104
  0
LINE
  8
0
 10
51
 20
104
 11
51
 21
114
  0
LINE
  8
0
 10
51
 20
114
 11
54
 21
114
  0
LINE
  8
0
 10
54
 20
114
 11
54
 21
124
  0
LINE
  8
0
 10
54
 20
124
 11
-54
 21
124
  0
LINE
  8
0
 10
-54
 20
124
 11
-54
 21
114
  0
LINE
  8
0
 10
-54
 20
114
 11
-51
 21
114
  0
LINE
  8
0
 10
-51
 20
114
 11
-51
 21
104
  0
LINE
  8
0
 10
-51
 20
104
 11
-42.75
 21
104
  0
LINE
  8
0
 10
-42.75
 20
104
 11
-42.75
 21
100
  0
LINE
  8
0
 10
-42.75
 20
100
 11
-33.75
 21
100
  0
LINE
  8
0
 10
-33.75
 20
100
 11
-33.75
 21
104
  0
LINE
  8
0
 10
51
 20
61.2857
 11
54
 21
61.2857
  0
LINE
  8
0
 10
54
 20
61.2857
 11
54
 21
67.5714
  0
LINE
  8
0
 10
54
 20
67.5714
 11
51
 21
67.5714
  0
LINE
  8
0
 10
51
 20
67.5714
 11
51
 21
73.8571
  0
LINE
  8
0
 10
51
 20
73.8571
 11
54
 21
73.8571
  0
LINE
  8
0
 10
54
 20
73.8571
 11
54
 21
80.1429
  0
LINE
  8
0
 10
54
 20
80.1429
 11
51
 21
80.1429
  0
LINE
  8
0
 10
51
 20
80.1429
 11
51
 21
86.4286
  0
LINE
  8
0
 10
51
 20
86.4286
 11
54
 21
86.4286
  0
LINE
  8
0
 10
54
 20
86.4286
 11
54
 21
92.7143
  0
LINE
  8
0
 10
54
 20
92.7143
 11
51
 21
92.7143
  0
LINE
  8
0
 10
51
 20
92.7143
 11
51
 21
99
  0
LINE
  8
0
 10
51
 20
99
 11
-51
 21
99
  0
LINE
  8
0
 10
-51
 20
99
 11
-51
 21
92.7143
  0
LINE
  8
0
 10
-51
 20
92.7143
 11
-54
 21
92.7143
  0
LINE
  8
0
 10
-54
 20
92.7143
 11
-54
 21
86.4286
  0
LINE
  8
0
 10
-54
 20
86.4286
 11
-51
 21
86.4286
  0
LINE
  8
0
 10
-51
 20
86.4286
 11
-51
 21
80.1429
  0
LINE
  8
0
 10
-51
 20
80.1429
 11
-54
 21
80.1429
  0
LINE
  8
0
 10
-54
 20
80.1429
 11
-54
 21
73.8571
  0
LINE
  8
0
 10
-54
 20
73.8571
 11
-51
 21
73.8571
  0
LINE
  8
0
 10
-51
 20
73.8571
 11
-51
 21
67.5714
  0
LINE
  8
0
 10
-51
 20
67.5714
 11
-54
 21
67.5714
  0
LINE
  8
0
 10
-54
 20
67.5714
 11
-54
 21
61.2857
  0
LINE
  8
0
 10
-54
 20
61.2857
 11
-51
 21
61.2857
  0
LINE
  8
0
 10
-51
 20
61.2857
 11
-51
 21
55
  0
LINE
  8
0
 10
-51
 20
55
 11
51
 21
55
  0
LINE
  8
0
 10
51
 20
55
 11
51
 21
61.2857
  0
LINE
  8
0
 10
24.75
 20
72
 11
24.75
 21
82
  0
LINE
  8
0
 10
24.75
 20
82
 11
27.75
 21
82
  0
LINE
  8
0
 10
27.75
 20
82
 11
27.75
 21
72
  0
LINE
  8
0
 10
27.75
 20
72
 11
24.75
 21
72
  0
LINE
  8
0
 10
-1.5
 20
72
 11
-1.5
 21
82
  0
LINE
  8
0
 10
-1.5
 20
82
 11
1.5
 21
82
  0
LINE
  8
0
 10
1.5
 20
82
 11
1.5
 21
72
  0
LINE
  8
0
 10
1.5
 20
72
 11
-1.5
 21
72
  0
LINE
  8
0
 10
-27.75
 20
72
 11
-27.75
 21
82
  0
LINE
  8
0
 10
-27.75
 20
82
 11
-24.75
 21
82
  0
LINE
  8
0
 10
-24.75
 20
82
 11
-24.75
 21
72
  0
LINE
  8
0
 10
-24.75
 20
72
 11
-27.75
 21
72
  0
LINE
  8
0
 10
37.4
 20
58
 11
37.4
 21
62
  0
LINE
  8
0
 10
37.4
 20
62
 11
44.2
 21
62
  0
LINE
  8
0
 10
44.2
 20
62
 11
44.2
 21
58
  0
LINE
  8
0
 10
44.2
 20
58
 11
37.4
 21
58
  0
LINE
  8
0
 10
23.8
 20
58
 11
23.8
 21
62
  0
LINE
  8
0
 10
23.8
 20
62
 11
30.6
 21
62
  0
LINE
  8
0
 10
30.6
 20
62
 11
30.6
 21
58
  0
LINE
  8
0
 10
30.6
 20
58
 11
23.8
 21
58
  0
LINE
  8
0
 10
10.2
 20
58
 11
10.2
 21
62
  0
LINE
  8
0
 10
10.2
 20
62
 11
17
 21
62
  0
LINE
  8
0
 10
17
 20
62
 11
17
 21
58
  0
LINE
  8
0
 10
17
 20
58
 11
10.2
 21
58
  0
LINE
  8
0
 10
-3.39999
 20
58
 11
-3.39999
 21
62
  0
LINE
  8
0
 10
-3.39999
 20
62
 11
3.39999
 21
62
  0
LINE
  8
0
 10
3.39999
 20
62
 11
3.39999
 21
58
  0
LINE
  8
0
 10
3.39999
 20
58
 11
-3.39999
 21
58
  0
LINE
  8
0
 10
-17
 20
58
 11
-17
 21
62
  0
LINE
  8
0
 10
-17
 20
62
 11
-10.2
 21
62
  0
LINE
  8
0
 10
-10.2
 20
62
 11
-10.2
 21
58
  0
LINE
  8
0
 10
-10.2
 20
58
 11
-17
 21
58
  0
LINE
  8
0
 10
-30.6
 20
58
 11
-30.6
 21
62
  0
LINE
  8
0
 10
-30.6
 20
62
 11
-23.8
 21
62
  0
LINE
  8
0
 10
-23.8
 20
62
 11
-23.8
 21
58
  0
LINE
  8
0
 10
-23.8
 20
58
 11
-30.6
 21
58
  0
LINE
  8
0
 10
-44.2
 20
58
 11
-44.2
 21
62
  0
LINE
  8
0
 10
-44.2
 20
62
 11
-37.4
 21
62
  0
LINE
  8
0
 10
-37.4
 20
62
 11
-37.4
 21
58
  0
LINE
  8
0
 10
-37.4
 20
58
 11
-44.2
 21
58
  0
LINE
  8
0
 10
149
 20
-24.75
 11
139
 21
-24.75
  0
LINE
  8
0
 10
139
 20
-24.75
 11
139
 21
-21.75
  0
LINE
  8
0
 10
139
 20
-21.75
 11
149
 21
-21.75
  0
LINE
  8
0
 10
149
 20
-21.75
 11
149
 21
0.5
  0
LINE
  8
0
 10
149
 20
0.5
 11
139
 21
0.5
  0
LINE
  8
0
 10
139
 20
0.5
 11
139
 21
3.5
  0
LINE
  8
0
 10
139
 20
3.5
 11
149
 21
3.5
  0
LINE
  8
0
 10
149
 20
3.5
 11
149
 21
25.75
  0
LINE
  8
0
 10
149
 20
25.75
 11
139
 21
25.75
  0
LINE
  8
0
 10
139
 20
25.75
 11
139
 21
28.75
  0
LINE
  8
0
 10
139
 20
28.75
 11
149
 21
28.75
  0
LINE
  8
0
 10
149
 20
28.75
 11
149
 21
54
  0
LINE
  8
0
 10
149
 20
54
 11
139
 21
54
  0
LINE
  8
0
 10
139
 20
54
 11
139
 21
51
  0
LINE
  8
0
 10
139
 20
51
 11
129
 21
51
  0
LINE
  8
0
 10
129
 20
51
 11
129
 21
43.25
  0
LINE
  8
0
 10
129
 20
43.25
 11
125
 21
43.25
  0
LINE
  8
0
 10
125
 20
43.25
 11
125
 21
34.25
  0
LINE
  8
0
 10
125
 20
34.25
 11
129
 21
34.25
  0
LINE
  8
0
 10
129
 20
34.25
 11
129
 21
18.75
  0
LINE
  8
0
 10
129
 20
18.75
 11
125
 21
18.75
  0
LINE
  8
0
 10
125
 20
18.75
 11
125
 21
9.75
  0
LINE
  8
0
 10
125
 20
9.75
 11
129
 21
9.75
  0
LINE
  8
0
 10
129
 20
9.75
 11
129
 21
-5.75
  0
LINE
  8
0
 10
129
 20
-5.75
 11
125
 21
-5.75
  0
LINE
  8
0
 10
125
 20
-5.75
 11
125
 21
-14.75
  0
LINE
  8
0
 10
125
 20
-14.75
 11
129
 21
-14.75
  0
LINE
  8
0
 10
129
 20
-14.75
 11
129
 21
-30.25
  0
LINE
  8
0
 10
129
 20
-30.25
 11
125
 21
-30.25
  0
LINE
  8
0
 10
125
 20
-30.25
 11
125
 21
-39.25
  0
LINE
  8
0
 10
125
 20
-39.25
 11
129
 21
-39.25
  0
LINE
  8
0
 10
129
 20
-39.25
 11
129
 21
-47
  0
LINE
  8
0
 10
129
 20
-47
 11
139
 21
-47
  0
LINE
  8
0
 10
139
 20
-47
 11
139
 21
-51
  0
LINE
  8
0
 10
139
 20
-51
 11
149
 21
-51
  0
LINE
  8
0
 10
149
 20
-51
 11
149
 21
-24.75
  0
LINE
  8
0
 10
-55
 20
54
 11
-61.2857
 21
54
  0
LINE
  8
0
 10
-61.2857
 20
54
 11
-61.2857
 21
51
  0
LINE
  8
0
 10
-61.2857
 20
51
 11
-67.5714
 21
51
  0
LINE
  8
0
 10
-67.5714
 20
51
 11
-67.5714
 21
54
  0
LINE
  8
0
 10
-67.5714
 20
54
 11
-73.8571
 21
54
  0
LINE
  8
0
 10
-73.8571
 20
54
 11
-73.8571
 21
51
  0
LINE
  8
0
 10
-73.8571
 20
51
 11
-80.1429
 21
51
  0
LINE
  8
0
 10
-80.1429
 20
51
 11
-80.1429
 21
54
  0
LINE
  8
0
 10
-80.1429
 20
54
 11
-86.4286
 21
54
  0
LINE
  8
0
 10
-86.4286
 20
54
 11
-86.4286
 21
51
  0
LINE
  8
0
 10
-86.4286
 20
51
 11
-92.7143
 21
51
  0
LINE
  8
0
 10
-92.7143
 20
51
 11
-92.7143
 21
54
  0
LINE
  8
0
 10
-92.7143
 20
54
 11
-99
 21
54
  0
LINE
  8
0
 10
-99
 20
54
 11
-99
 21
-54
  0
LINE
  8
0
 10
-99
 20
-54
 11
-55
 21
-54
  0
LINE
  8
0
 10
-55
 20
-54
 11
-55
 21
54
  0
LINE
  8
0
 10
-62
 20
41.2941
 11
-62
 21
47.647
  0
LINE
  8
0
 10
-62
 20
47.647
 11
-58
 21
47.647
  0
LINE
  8
0
 10
-58
 20
47.647
 11
-58
 21
41.2941
  0
LINE
  8
0
 10
-58
 20
41.2941
 11
-62
 21
41.2941
  0
LINE
  8
0
 10
-62
 20
28.5882
 11
-62
 21
34.9412
  0
LINE
  8
0
 10
-62
 20
34.9412
 11
-58
 21
34.9412
  0
LINE
  8
0
 10
-58
 20
34.9412
 11
-58
 21
28.5882
  0
LINE
  8
0
 10
-58
 20
28.5882
 11
-62
 21
28.5882
  0
LINE
  8
0
 10
-82
 20
25.75
 11
-82
 21
28.75
  0
LINE
  8
0
 10
-82
 20
28.75
 11
-72
 21
28.75
  0
LINE
  8
0
 10
-72
 20
28.75
 11
-72
 21
25.75
  0
LINE
  8
0
 10
-72
 20
25.75
 11
-82
 21
25.75
  0
LINE
  8
0
 10
-62
 20
15.8823
 11
-62
 21
22.2353
  0
LINE
  8
0
 10
-62
 20
22.2353
 11
-58
 21
22.2353
  0
LINE
  8
0
 10
-58
 20
22.2353
 11
-58
 21
15.8823
  0
LINE
  8
0
 10
-58
 20
15.8823
 11
-62
 21
15.8823
  0
LINE
  8
0
 10
-62
 20
3.17647
 11
-62
 21
9.5294
  0
LINE
  8
0
 10
-62
 20
9.5294
 11
-58
 21
9.5294
  0
LINE
  8
0
 10
-58
 20
9.5294
 11
-58
 21
3.17647
  0
LINE
  8
0
 10
-58
 20
3.17647
 11
-62
 21
3.17647
  0
LINE
  8
0
 10
-82
 20
0.5
 11
-82
 21
3.5
  0
LINE
  8
0
 10
-82
 20
3.5
 11
-72
 21
3.5
  0
LINE
  8
0
 10
-72
 20
3.5
 11
-72
 21
0.5
  0
LINE
  8
0
 10
-72
 20
0.5
 11
-82
 21
0.5
  0
LINE
  8
0
 10
-62
 20
-9.5294
 11
-62
 21
-3.17647
  0
LINE
  8
0
 10
-62
 20
-3.17647
 11
-58
 21
-3.17647
  0
LINE
  8
0
 10
-58
 20
-3.17647
 11
-58
 21
-9.5294
  0
LINE
  8
0
 10
-58
 20
-9.5294
 11
-62
 21
-9.5294
  0
LINE
  8
0
 10
-62
 20
-22.2353
 11
-62
 21
-15.8823
  0
LINE
  8
0
 10
-62
 20
-15.8823
 11
-58
 21
-15.8823
  0
LINE
  8
0
 10
-58
 20
-15.8823
 11
-58
 21
-22.2353
  0
LINE
  8
0
 10
-58
 20
-22.2353
 11
-62
 21
-22.2353
  0
LINE
  8
0
 10
-82
 20
-24.75
 11
-82
 21
-21.75
  0
LINE
  8
0
 10
-82
 20
-21.75
 11
-72
 21
-21.75
  0
LINE
  8
0
 10
-72
 20
-21.75
 11
-72
 21
-24.75
  0
LINE
  8
0
 10
-72
 20
-24.75
 11
-82
 21
-24.75
  0
LINE
  8
0
 10
-62
 20
-34.9412
 11
-62
 21
-28.5882
  0
LINE
  8
0
 10
-62
 20
-28.5882
 11
-58
 21
-28.5882
  0
LINE
  8
0
 10
-58
 20
-28.5882
 11
-58
 21
-34.9412
  0
LINE
  8
0
 10
-58
 20
-34.9412
 11
-62
 21
-34.9412
  0
LINE
  8
0
 10
-67.5714
 20
-51
 11
-67.5714
 21
-47
  0
LINE
  8
0
 10
-67.5714
 20
-47
 11
-62
 21
-47
  0
LINE
  8
0
 10
-62
 20
-47
 11
-62
 21
-41.2941
  0
LINE
  8
0
 10
-62
 20
-41.2941
 11
-58
 21
-41.2941
  0
LINE
  8
0
 10
-58
 20
-41.2941
 11
-58
 21
-47.647
  0
LINE
  8
0
 10
-58
 20
-47.647
 11
-61.2857
 21
-47.647
  0
LINE
  8
0
 10
-61.2857
 20
-47.647
 11
-61.2857
 21
-51
  0
LINE
  8
0
 10
-61.2857
 20
-51
 11
-67.5714
 21
-51
  0
LINE
  8
0
 10
-80.1429
 20
-51
 11
-80.1429
 21
-47
  0
LINE
  8
0
 10
-80.1429
 20
-47
 11
-73.8571
 21
-47
  0
LINE
  8
0
 10
-73.8571
 20
-47
 11
-73.8571
 21
-51
  0
LINE
  8
0
 10
-73.8571
 20
-51
 11
-80.1429
 21
-51
  0
LINE
  8
0
 10
-92.7143
 20
-51
 11
-92.7143
 21
-47
  0
LINE
  8
0
 10
-92.7143
 20
-47
 11
-86.4286
 21
-47
  0
LINE
  8
0
 10
-86.4286
 20
-47
 11
-86.4286
 21
-51
  0
LINE
  8
0
 10
-86.4286
 20
-51
 11
-92.7143
 21
-51
  0
LINE
  8
0
 10
99
 20
54
 11
92.7143
 21
54
  0
LINE
  8
0
 10
92.7143
 20
54
 11
92.7143
 21
51
  0
LINE
  8
0
 10
92.7143
 20
51
 11
86.4286
 21
51
  0
LINE
  8
0
 10
86.4286
 20
51
 11
86.4286
 21
54
  0
LINE
  8
0
 10
86.4286
 20
54
 11
80.1429
 21
54
  0
LINE
  8
0
 10
80.1429
 20
54
 11
80.1429
 21
51
  0
LINE
  8
0
 10
80.1429
 20
51
 11
73.8571
 21
51
  0
LINE
  8
0
 10
73.8571
 20
51
 11
73.8571
 21
54
  0
LINE
  8
0
 10
73.8571
 20
54
 11
67.5714
 21
54
  0
LINE
  8
0
 10
67.5714
 20
54
 11
67.5714
 21
51
  0
LINE
  8
0
 10
67.5714
 20
51
 11
61.2857
 21
51
  0
LINE
  8
0
 10
61.2857
 20
51
 11
61.2857
 21
54
  0
LINE
  8
0
 10
61.2857
 20
54
 11
55
 21
54
  0
LINE
  8
0
 10
55
 20
54
 11
55
 21
-54
  0
LINE
  8
0
 10
55
 20
-54
 11
99
 21
-54
  0
LINE
  8
0
 10
99
 20
-54
 11
99
 21
54
  0
LINE
  8
0
 10
58
 20
41.2941
 11
58
 21
47.647
  0
LINE
  8
0
 10
58
 20
47.647
 11
62
 21
47.647
  0
LINE
  8
0
 10
62
 20
47.647
 11
62
 21
41.2941
  0
LINE
  8
0
 10
62
 20
41.2941
 11
58
 21
41.2941
  0
LINE
  8
0
 10
58
 20
28.5882
 11
58
 21
34.9412
  0
LINE
  8
0
 10
58
 20
34.9412
 11
62
 21
34.9412
  0
LINE
  8
0
 10
62
 20
34.9412
 11
62
 21
28.5882
  0
LINE
  8
0
 10
62
 20
28.5882
 11
58
 21
28.5882
  0
LINE
  8
0
 10
72
 20
25.75
 11
72
 21
28.75
  0
LINE
  8
0
 10
72
 20
28.75
 11
82
 21
28.75
  0
LINE
  8
0
 10
82
 20
28.75
 11
82
 21
25.75
  0
LINE
  8
0
 10
82
 20
25.75
 11
72
 21
25.75
  0
LINE
  8
0
 10
58
 20
15.8823
 11
58
 21
22.2353
  0
LINE
  8
0
 10
58
 20
22.2353
 11
62
 21
22.2353
  0
LINE
  8
0
 10
62
 20
22.2353
 11
62
 21
15.8823
  0
LINE
  8
0
 10
62
 20
15.8823
 11
58
 21
15.8823
  0
LINE
  8
0
 10
58
 20
3.17647
 11
58
 21
9.5294
  0
LINE
  8
0
 10
58
 20
9.5294
 11
62
 21
9.5294
  0
LINE
  8
0
 10
62
 20
9.5294
 11
62
 21
3.17647
  0
LINE
  8
0
 10
62
 20
3.17647
 11
58
 21
3.17647
  0
LINE
  8
0
 10
72
 20
0.5
 11
72
 21
3.5
  0
LINE
  8
0
 10
72
 20
3.5
 11
82
 21
3.5
  0
LINE
  8
0
 10
82
 20
3.5
 11
82
 21
0.5
  0
LINE
  8
0
 10
82
 20
0.5
 11
72
 21
0.5
  0
LINE
  8
0
 10
58
 20
-9.5294
 11
58
 21
-3.17647
  0
LINE
  8
0
 10
58
 20
-3.17647
 11
62
 21
-3.17647
  0
LINE
  8
0
 10
62
 20
-3.17647
 11
62
 21
-9.5294
  0
LINE
  8
0
 10
62
 20
-9.5294
 11
58
 21
-9.5294
  0
LINE
  8
0
 10
58
 20
-22.2353
 11
58
 21
-15.8823
  0
LINE
  8
0
 10
58
 20
-15.8823
 11
62
 21
-15.8823
  0
LINE
  8
0
 10
62
 20
-15.8823
 11
62
 21
-22.2353
  0
LINE
  8
0
 10
62
 20
-22.2353
 11
58
 21
-22.2353
  0
LINE
  8
0
 10
72
 20
-24.75
 11
72
 21
-21.75
  0
LINE
  8
0
 10
72
 20
-21.75
 11
82
 21
-21.75
  0
LINE
  8
0
 10
82
 20
-21.75
 11
82
 21
-24.75
  0
LINE
  8
0
 10
82
 20
-24.75
 11
72
 21
-24.75
  0
LINE
  8
0
 10
58
 20
-34.9412
 11
58
 21
-28.5882
  0
LINE
  8
0
 10
58
 20
-28.5882
 11
62
 21
-28.5882
  0
LINE
  8
0
 10
62
 20
-28.5882
 11
62
 21
-34.9412
  0
LINE
  8
0
 10
62
 20
-34.9412
 11
58
 21
-34.9412
  0
LINE
  8
0
 10
61.2857
 20
-51
 11
61.2857
 21
-47.647
  0
LINE
  8
0
 10
61.2857
 20
-47.647
 11
58
 21
-47.647
  0
LINE
  8
0
 10
58
 20
-47.647
 11
58
 21
-41.2941
  0
LINE
  8
0
 10
58
 20
-41.2941
 11
62
 21
-41.2941
  0
LINE
  8
0
 10
62
 20
-41.2941
 11
62
 21
-47
  0
LINE
  8
0
 10
62
 20
-47
 11
67.5714
 21
-47
  0
LINE
  8
0
 10
67.5714
 20
-47
 11
67.5714
 21
-51
  0
LINE
  8
0
 10
67.5714
 20
-51
 11
61.2857
 21
-51
  0
LINE
  8
0
 10
86.4286
 20
-51
 11
86.4286
 21
-47
  0
LINE
  8
0
 10
86.4286
 20
-47
 11
92.7143
 21
-47
  0
LINE
  8
0
 10
92.7143
 20
-47
 11
92.7143
 21
-51
  0
LINE
  8
0
 10
92.7143
 20
-51
 11
86.4286
 21
-51
  0
LINE
  8
0
 10
73.8571
 20
-51
 11
73.8571
 21
-47
  0
LINE
  8
0
 10
73.8571
 20
-47
 11
80.1429
 21
-47
  0
LINE
  8
0
 10
80.1429
 20
-47
 11
80.1429
 21
-51
  0
LINE
  8
0
 10
80.1429
 20
-51
 11
73.8571
 21
-51
  0
LINE
  8
0
 10
124
 20
-24.75
 11
114
 21
-24.75
  0
LINE
  8
0
 10
114
 20
-24.75
 11
114
 21
-21.75
  0
LINE
  8
0
 10
114
 20
-21.75
 11
124
 21
-21.75
  0
LINE
  8
0
 10
124
 20
-21.75
 11
124
 21
0.5
  0
LINE
  8
0
 10
124
 20
0.5
 11
114
 21
0.5
  0
LINE
  8
0
 10
114
 20
0.5
 11
114
 21
3.5
  0
LINE
  8
0
 10
114
 20
3.5
 11
124
 21
3.5
  0
LINE
  8
0
 10
124
 20
3.5
 11
124
 21
25.75
  0
LINE
  8
0
 10
124
 20
25.75
 11
114
 21
25.75
  0
LINE
  8
0
 10
114
 20
25.75
 11
114
 21
28.75
  0
LINE
  8
0
 10
114
 20
28.75
 11
124
 21
28.75
  0
LINE
  8
0
 10
124
 20
28.75
 11
124
 21
54
  0
LINE
  8
0
 10
124
 20
54
 11
114
 21
54
  0
LINE
  8
0
 10
114
 20
54
 11
114
 21
51
  0
LINE
  8
0
 10
114
 20
51
 11
104
 21
51
  0
LINE
  8
0
 10
104
 20
51
 11
104
 21
43.25
  0
LINE
  8
0
 10
104
 20
43.25
 11
100
 21
43.25
  0
LINE
  8
0
 10
100
 20
43.25
 11
100
 21
34.25
  0
LINE
  8
0
 10
100
 20
34.25
 11
104
 21
34.25
  0
LINE
  8
0
 10
104
 20
34.25
 11
104
 21
18.75
  0
LINE
  8
0
 10
104
 20
18.75
 11
100
 21
18.75
  0
LINE
  8
0
 10
100
 20
18.75
 11
100
 21
9.75
  0
LINE
  8
0
 10
100
 20
9.75
 11
104
 21
9.75
  0
LINE
  8
0
 10
104
 20
9.75
 11
104
 21
-5.75
  0
LINE
  8
0
 10
104
 20
-5.75
 11
100
 21
-5.75
  0
LINE
  8
0
 10
100
 20
-5.75
 11
100
 21
-14.75
  0
LINE
  8
0
 10
100
 20
-14.75
 11
104
 21
-14.75
  0
LINE
  8
0
 10
104
 20
-14.75
 11
104
 21
-30.25
  0
LINE
  8
0
 10
104
 20
-30.25
 11
100
 21
-30.25
  0
LINE
  8
0
 10
100
 20
-30.25
 11
100
 21
-39.25
  0
LINE
  8
0
 10
100
 20
-39.25
 11
104
 21
-39.25
  0
LINE
  8
0
 10
104
 20
-39.25
 11
104
 21
-47
  0
LINE
  8
0
 10
104
 20
-47
 11
114
 21
-47
  0
LINE
  8
0
 10
114
 20
-47
 11
114
 21
-51
  0
LINE
  8
0
 10
114
 20
-51
 11
124
 21
-51
  0
LINE
  8
0
 10
124
 20
-51
 11
124
 21
-24.75
  0
LINE
  8
0
 10
174
 20
-24.75
 11
164
 21
-24.75
  0
LINE
  8
0
 10
164
 20
-24.75
 11
164
 21
-21.75
  0
LINE
  8
0
 10
164
 20
-21.75
 11
174
 21
-21.75
  0
LINE
  8
0
 10
174
 20
-21.75
 11
174
 21
0.5
  0
LINE
  8
0
 10
174
 20
0.5
 11
164
 21
0.5
  0
LINE
  8
0
 10
164
 20
0.5
 11
164
 21
3.5
  0
LINE
  8
0
 10
164
 20
3.5
 11
174
 21
3.5
  0
LINE
  8
0
 10
174
 20
3.5
 11
174
 21
25.75
  0
LINE
  8
0
 10
174
 20
25.75
 11
164
 21
25.75
  0
LINE
  8
0
 10
164
 20
25.75
 11
164
 21
28.75
  0
LINE
  8
0
 10
164
 20
28.75
 11
174
 21
28.75
  0
LINE
  8
0
 10
174
 20
28.75
 11
174
 21
54
  0
LINE
  8
0
 10
174
 20
54
 11
164
 21
54
  0
LINE
  8
0
 10
164
 20
54
 11
164
 21
51
  0
LINE
  8
0
 10
164
 20
51
 11
154
 21
51
  0
LINE
  8
0
 10
154
 20
51
 11
154
 21
43.25
  0
LINE
  8
0
 10
154
 20
43.25
 11
150
 21
43.25
  0
LINE
  8
0
 10
150
 20
43.25
 11
150
 21
34.25
  0
LINE
  8
0
 10
150
 20
34.25
 11
154
 21
34.25
  0
LINE
  8
0
 10
154
 20
34.25
 11
154
 21
18.75
  0
LINE
  8
0
 10
154
 20
18.75
 11
150
 21
18.75
  0
LINE
  8
0
 10
150
 20
18.75
 11
150
 21
9.75
  0
LINE
  8
0
 10
150
 20
9.75
 11
154
 21
9.75
  0
LINE
  8
0
 10
154
 20
9.75
 11
154
 21
-5.75
  0
LINE
  8
0
 10
154
 20
-5.75
 11
150
 21
-5.75
  0
LINE
  8
0
 10
150
 20
-5.75
 11
150
 21
-14.75
  0
LINE
  8
0
 10
150
 20
-14.75
 11
154
 21
-14.75
  0
LINE
  8
0
 10
154
 20
-14.75
 11
154
 21
-30.25
  0
LINE
  8
0
 10
154
 20
-30.25
 11
150
 21
-30.25
  0
LINE
  8
0
 10
150
 20
-30.25
 11
150
 21
-39.25
  0
LINE
  8
0
 10
150
 20
-39.25
 11
154
 21
-39.25
  0
LINE
  8
0
 10
154
 20
-39.25
 11
154
 21
-47
  0
LINE
  8
0
 10
154
 20
-47
 11
164
 21
-47
  0
LINE
  8
0
 10
164
 20
-47
 11
164
 21
-51
  0
LINE
  8
0
 10
164
 20
-51
 11
174
 21
-51
  0
LINE
  8
0
 10
174
 20
-51
 11
174
 21
-24.75
  0
LINE
  8
0
 10
51
 20
-47.647
 11
54
 21
-47.647
  0
LINE
  8
0
 10
54
 20
-47.647
 11
54
 21
-41.2941
  0
LINE
  8
0
 10
54
 20
-41.2941
 11
51
 21
-41.2941
  0
LINE
  8
0
 10
51
 20
-41.2941
 11
51
 21
-34.9412
  0
LINE
  8
0
 10
51
 20
-34.9412
 11
54
 21
-34.9412
  0
LINE
  8
0
 10
54
 20
-34.9412
 11
54
 21
-28.5882
  0
LINE
  8
0
 10
54
 20
-28.5882
 11
51
 21
-28.5882
  0
LINE
  8
0
 10
51
 20
-28.5882
 11
51
 21
-22.2353
  0
LINE
  8
0
 10
51
 20
-22.2353
 11
54
 21
-22.2353
  0
LINE
  8
0
 10
54
 20
-22.2353
 11
54
 21
-15.8823
  0
LINE
  8
0
 10
54
 20
-15.8823
 11
51
 21
-15.8823
  0
LINE
  8
0
 10
51
 20
-15.8823
 11
51
 21
-9.5294
  0
LINE
  8
0
 10
51
 20
-9.5294
 11
54
 21
-9.5294
  0
LINE
  8
0
 10
54
 20
-9.5294
 11
54
 21
-3.17647
  0
LINE
  8
0
 10
54
 20
-3.17647
 11
51
 21
-3.17647
  0
LINE
  8
0
 10
51
 20
-3.17647
 11
51
 21
3.17645
  0
LINE
  8
0
 10
51
 20
3.17645
 11
54
 21
3.17645
  0
LINE
  8
0
 10
54
 20
3.17645
 11
54
 21
9.5294
  0
LINE
  8
0
 10
54
 20
9.5294
 11
51
 21
9.5294
  0
LINE
  8
0
 10
51
 20
9.5294
 11
51
 21
15.8823
  0
LINE
  8
0
 10
51
 20
15.8823
 11
54
 21
15.8823
  0
LINE
  8
0
 10
54
 20
15.8823
 11
54
 21
22.2353
  0
LINE
  8
0
 10
54
 20
22.2353
 11
51
 21
22.2353
  0
LINE
  8
0
 10
51
 20
22.2353
 11
51
 21
28.5882
  0
LINE
  8
0
 10
51
 20
28.5882
 11
54
 21
28.5882
  0
LINE
  8
0
 10
54
 20
28.5882
 11
54
 21
34.9412
  0
LINE
  8
0
 10
54
 20
34.9412
 11
51
 21
34.9412
  0
LINE
  8
0
 10
51
 20
34.9412
 11
51
 21
41.2941
  0
LINE
  8
0
 10
51
 20
41.2941
 11
54
 21
41.2941
  0
LINE
  8
0
 10
54
 20
41.2941
 11
54
 21
47.647
  0
LINE
  8
0
 10
54
 20
47.647
 11
51
 21
47.647
  0
LINE
  8
0
 10
51
 20
47.647
 11
51
 21
51
  0
LINE
  8
0
 10
51
 20
51
 11
44.2
 21
51
  0
LINE
  8
0
 10
44.2
 20
51
 11
44.2
 21
53.9995
  0
LINE
  8
0
 10
44.2
 20
53.9995
 11
37.4
 21
53.9995
  0
LINE
  8
0
 10
37.4
 20
53.9995
 11
37.4
 21
51
  0
LINE
  8
0
 10
37.4
 20
51
 11
30.6
 21
51
  0
LINE
  8
0
 10
30.6
 20
51
 11
30.6
 21
53.9995
  0
LINE
  8
0
 10
30.6
 20
53.9995
 11
23.8
 21
53.9995
  0
LINE
  8
0
 10
23.8
 20
53.9995
 11
23.8
 21
51
  0
LINE
  8
0
 10
23.8
 20
51
 11
17
 21
51
  0
LINE
  8
0
 10
17
 20
51
 11
17
 21
53.9995
  0
LINE
  8
0
 10
17
 20
53.9995
 11
10.2
 21
53.9995
  0
LINE
  8
0
 10
10.2
 20
53.9995
 11
10.2
 21
51
  0
LINE
  8
0
 10
10.2
 20
51
 11
3.39999
 21
51
  0
LINE
  8
0
 10
3.39999
 20
51
 11
3.39999
 21
53.9995
  0
LINE
  8
0
 10
3.39999
 20
53.9995
 11
-3.39999
 21
53.9995
  0
LINE
  8
0
 10
-3.39999
 20
53.9995
 11
-3.39999
 21
51
  0
LINE
  8
0
 10
-3.39999
 20
51
 11
-10.2
 21
51
  0
LINE
  8
0
 10
-10.2
 20
51
 11
-10.2
 21
53.9995
  0
LINE
  8
0
 10
-10.2
 20
53.9995
 11
-17
 21
53.9995
  0
LINE
  8
0
 10
-17
 20
53.9995
 11
-17
 21
51
  0
LINE
  8
0
 10
-17
 20
51
 11
-23.8
 21
51
  0
LINE
  8
0
 10
-23.8
 20
51
 11
-23.8
 21
53.9995
  0
LINE
  8
0
 10
-23.8
 20
53.9995
 11
-30.6
 21
53.9995
  0
LINE
  8
0
 10
-30.6
 20
53.9995
 11
-30.6
 21
51
  0
LINE
  8
0
 10
-30.6
 20
51
 11
-37.4
 21
51
  0
LINE
  8
0
 10
-37.4
 20
51
 11
-37.4
 21
53.9995
  0
LINE
  8
0
 10
-37.4
 20
53.9995
 11
-44.2
 21
53.9995
  0
LINE
  8
0
 10
-44.2
 20
53.9995
 11
-44.2
 21
51
  0
LINE
  8
0
 10
-44.2
 20
51
 11
-51
 21
51
  0
LINE
  8
0
 10
-51
 20
51
 11
-51
 21
47.647
  0
LINE
  8
0
 10
-51
 20
47.647
 11
-54
 21
47.647
  0
LINE
  8
0
 10
-54
 20
47.647
 11
-54
 21
41.2941
  0
LINE
  8
0
 10
-54
 20
41.2941
 11
-51
 21
41.2941
  0
LINE
  8
0
 10
-51
 20
41.2941
 11
-51
 21
34.9412
  0
LINE
  8
0
 10
-51
 20
34.9412
 11
-54
 21
34.9412
  0
LINE
  8
0
 10
-54
 20
34.9412
 11
-54
 21
28.5882
  0
LINE
  8
0
 10
-54
 20
28.5882
 11
-51
 21
28.5882
  0
LINE
  8
0
 10
-51
 20
28.5882
 11
-51
 21
22.2353
  0
LINE
  8
0
 10
-51
 20
22.2353
 11
-54
 21
22.2353
  0
LINE
  8
0
 10
-54
 20
22.2353
 11
-54
 21
15.8823
  0
LINE
  8
0
 10
-54
 20
15.8823
 11
-51
 21
15.8823
  0
LINE
  8
0
 10
-51
 20
15.8823
 11
-51
 21
9.5294
  0
LINE
  8
0
 10
-51
 20
9.5294
 11
-54
 21
9.5294
  0
LINE
  8
0
 10
-54
 20
9.5294
 11
-54
 21
3.17645
  0
LINE
  8
0
 10
-54
 20
3.17645
 11
-51
 21
3.17645
  0
LINE
  8
0
 10
-51
 20
3.17645
 11
-51
 21
-3.17647
  0
LINE
  8
0
 10
-51
 20
-3.17647
 11
-54
 21
-3.17647
  0
LINE
  8
0
 10
-54
 20
-3.17647
 11
-54
 21
-9.5294
  0
LINE
  8
0
 10
-54
 20
-9.5294
 11
-51
 21
-9.5294
  0
LINE
  8
0
 10
-51
 20
-9.5294
 11
-51
 21
-15.8823
  0
LINE
  8
0
 10
-51
 20
-15.8823
 11
-54
 21
-15.8823
  0
LINE
  8
0
 10
-54
 20
-15.8823
 11
-54
 21
-22.2353
  0
LINE
  8
0
 10
-54
 20
-22.2353
 11
-51
 21
-22.2353
  0
LINE
  8
0
 10
-51
 20
-22.2353
 11
-51
 21
-28.5882
  0
LINE
  8
0
 10
-51
 20
-28.5882
 11
-54
 21
-28.5882
  0
LINE
  8
0
 10
-54
 20
-28.5882
 11
-54
 21
-34.9412
  0
LINE
  8
0
 10
-54
 20
-34.9412
 11
-51
 21
-34.9412
  0
LINE
  8
0
 10
-51
 20
-34.9412
 11
-51
 21
-41.2941
  0
LINE
  8
0
 10
-51
 20
-41.2941
 11
-54
 21
-41.2941
  0
LINE
  8
0
 10
-54
 20
-41.2941
 11
-54
 21
-47.647
  0
LINE
  8
0
 10
-54
 20
-47.647
 11
-51
 21
-47.647
  0
LINE
  8
0
 10
-51
 20
-47.647
 11
-51
 21
-53.9995
  0
LINE
  8
0
 10
-51
 20
-53.9995
 11
51
 21
-53.9995
  0
LINE
  8
0
 10
51
 20
-53.9995
 11
51
 21
-47.647
  0
LINE
  8
0
 10
-1.5
 20
34.25
 11
-1.5
 21
43.25
  0
LINE
  8
0
 10
-1.5
 20
43.25
 11
1.5
 21
43.25
  0
LINE
  8
0
 10
1.5
 20
43.25
 11
1.5
 21
34.25
  0
LINE
  8
0
 10
1.5
 20
34.25
 11
-1.5
 21
34.25
  0
LINE
  8
0
 10
-27.75
 20
34.25
 11
-27.75
 21
43.25
  0
LINE
  8
0
 10
-27.75
 20
43.25
 11
-24.75
 21
43.25
  0
LINE
  8
0
 10
-24.75
 20
43.25
 11
-24.75
 21
34.25
  0
LINE
  8
0
 10
-24.75
 20
34.25
 11
-27.75
 21
34.25
  0
LINE
  8
0
 10
24.75
 20
34.25
 11
24.75
 21
43.25
  0
LINE
  8
0
 10
24.75
 20
43.25
 11
27.75
 21
43.25
  0
LINE
  8
0
 10
27.75
 20
43.25
 11
27.75
 21
34.25
  0
LINE
  8
0
 10
27.75
 20
34.25
 11
24.75
 21
34.25
  0
LINE
  8
0
 10
33.75
 20
25.75
 11
33.75
 21
28.75
  0
LINE
  8
0
 10
33.75
 20
28.75
 11
42.75
 21
28.75
  0
LINE
  8
0
 10
42.75
 20
28.75
 11
42.75
 21
25.75
  0
LINE
  8
0
 10
42.75
 20
25.75
 11
33.75
 21
25.75
  0
LINE
  8
0
 10
8.25
 20
25.75
 11
8.25
 21
28.75
  0
LINE
  8
0
 10
8.25
 20
28.75
 11
17.25
 21
28.75
  0
LINE
  8
0
 10
17.25
 20
28.75
 11
17.25
 21
25.75
  0
LINE
  8
0
 10
17.25
 20
25.75
 11
8.25
 21
25.75
  0
LINE
  8
0
 10
-17.25
 20
25.75
 11
-17.25
 21
28.75
  0
LINE
  8
0
 10
-17.25
 20
28.75
 11
-8.25
 21
28.75
  0
LINE
  8
0
 10
-8.25
 20
28.75
 11
-8.25
 21
25.75
  0
LINE
  8
0
 10
-8.25
 20
25.75
 11
-17.25
 21
25.75
  0
LINE
  8
0
 10
-42.75
 20
25.75
 11
-42.75
 21
28.75
  0
LINE
  8
0
 10
-42.75
 20
28.75
 11
-33.75
 21
28.75
  0
LINE
  8
0
 10
-33.75
 20
28.75
 11
-33.75
 21
25.75
  0
LINE
  8
0
 10
-33.75
 20
25.75
 11
-42.75
 21
25.75
  0
LINE
  8
0
 10
24.75
 20
9.75
 11
24.75
 21
18.75
  0
LINE
  8
0
 10
24.75
 20
18.75
 11
27.75
 21
18.75
  0
LINE
  8
0
 10
27.75
 20
18.75
 11
27.75
 21
9.75
  0
LINE
  8
0
 10
27.75
 20
9.75
 11
24.75
 21
9.75
  0
LINE
  8
0
 10
-1.5
 20
9.75
 11
-1.5
 21
18.75
  0
LINE
  8
0
 10
-1.5
 20
18.75
 11
1.5
 21
18.75
  0
LINE
  8
0
 10
1.5
 20
18.75
 11
1.5
 21
9.75
  0
LINE
  8
0
 10
1.5
 20
9.75
 11
-1.5
 21
9.75
  0
LINE
  8
0
 10
-27.75
 20
9.75
 11
-27.75
 21
18.75
  0
LINE
  8
0
 10
-27.75
 20
18.75
 11
-24.75
 21
18.75
  0
LINE
  8
0
 10
-24.75
 20
18.75
 11
-24.75
 21
9.75
  0
LINE
  8
0
 10
-24.75
 20
9.75
 11
-27.75
 21
9.75
  0
LINE
  8
0
 10
-42.75
 20
0.5
 11
-42.75
 21
3.5
  0
LINE
  8
0
 10
-42.75
 20
3.5
 11
-33.75
 21
3.5
  0
LINE
  8
0
 10
-33.75
 20
3.5
 11
-33.75
 21
0.5
  0
LINE
  8
0
 10
-33.75
 20
0.5
 11
-42.75
 21
0.5
  0
LINE
  8
0
 10
8.25
 20
0.5
 11
8.25
 21
3.5
  0
LINE
  8
0
 10
8.25
 20
3.5
 11
17.25
 21
3.5
  0
LINE
  8
0
 10
17.25
 20
3.5
 11
17.25
 21
0.5
  0
LINE
  8
0
 10
17.25
 20
0.5
 11
8.25
 21
0.5
  0
LINE
  8
0
 10
-17.25
 20
0.5
 11
-17.25
 21
3.5
  0
LINE
  8
0
 10
-17.25
 20
3.5
 11
-8.25
 21
3.5
  0
LINE
  8
0
 10
-8.25
 20
3.5
 11
-8.25
 21
0.5
  0
LINE
  8
0
 10
-8.25
 20
0.5
 11
-17.25
 21
0.5
  0
LINE
  8
0
 10
33.75
 20
0.5
 11
33.75
 21
3.5
  0
LINE
  8
0
 10
33.75
 20
3.5
 11
42.75
 21
3.5
  0
LINE
  8
0
 10
42.75
 20
3.5
 11
42.75
 21
0.5
  0
LINE
  8
0
 10
42.75
 20
0.5
 11
33.75
 21
0.5
  0
LINE
  8
0
 10
24.75
 20
-14.75
 11
24.75
 21
-5.75
  0
LINE
  8
0
 10
24.75
 20
-5.75
 11
27.75
 21
-5.75
  0
LINE
  8
0
 10
27.75
 20
-5.75
 11
27.75
 21
-14.75
  0
LINE
  8
0
 10
27.75
 20
-14.75
 11
24.75
 21
-14.75
  0
LINE
  8
0
 10
-27.75
 20
-14.75
 11
-27.75
 21
-5.75
  0
LINE
  8
0
 10
-27.75
 20
-5.75
 11
-24.75
 21
-5.75
  0
LINE
  8
0
 10
-24.75
 20
-5.75
 11
-24.75
 21
-14.75
  0
LINE
  8
0
 10
-24.75
 20
-14.75
 11
-27.75
 21
-14.75
  0
LINE
  8
0
 10
-1.5
 20
-14.75
 11
-1.5
 21
-5.75
  0
LINE
  8
0
 10
-1.5
 20
-5.75
 11
1.5
 21
-5.75
  0
LINE
  8
0
 10
1.5
 20
-5.75
 11
1.5
 21
-14.75
  0
LINE
  8
0
 10
1.5
 20
-14.75
 11
-1.5
 21
-14.75
  0
LINE
  8
0
 10
-42.75
 20
-24.75
 11
-42.75
 21
-21.75
  0
LINE
  8
0
 10
-42.75
 20
-21.75
 11
-33.75
 21
-21.75
  0
LINE
  8
0
 10
-33.75
 20
-21.75
 11
-33.75
 21
-24.75
  0
LINE
  8
0
 10
-33.75
 20
-24.75
 11
-42.75
 21
-24.75
  0
LINE
  8
0
 10
8.25
 20
-24.75
 11
8.25
 21
-21.75
  0
LINE
  8
0
 10
8.25
 20
-21.75
 11
17.25
 21
-21.75
  0
LINE
  8
0
 10
17.25
 20
-21.75
 11
17.25
 21
-24.75
  0
LINE
  8
0
 10
17.25
 20
-24.75
 11
8.25
 21
-24.75
  0
LINE
  8
0
 10
33.75
 20
-24.75
 11
33.75
 21
-21.75
  0
LINE
  8
0
 10
33.75
 20
-21.75
 11
42.75
 21
-21.75
  0
LINE
  8
0
 10
42.75
 20
-21.75
 11
42.75
 21
-24.75
  0
LINE
  8
0
 10
42.75
 20
-24.75
 11
33.75
 21
-24.75
  0
LINE
  8
0
 10
-17.25
 20
-24.75
 11
-17.25
 21
-21.75
  0
LINE
  8
0
 10
-17.25
 20
-21.75
 11
-8.25
 21
-21.75
  0
LINE
  8
0
 10
-8.25
 20
-21.75
 11
-8.25
 21
-24.75
  0
LINE
  8
0
 10
-8.25
 20
-24.75
 11
-17.25
 21
-24.75
  0
LINE
  8
0
 10
-27.75
 20
-39.25
 11
-27.75
 21
-30.25
  0
LINE
  8
0
 10
-27.75
 20
-30.25
 11
-24.75
 21
-30.25
  0
LINE
  8
0
 10
-24.75
 20
-30.25
 11
-24.75
 21
-39.25
  0
LINE
  8
0
 10
-24.75
 20
-39.25
 11
-27.75
 21
-39.25
  0
LINE
  8
0
 10
-1.5
 20
-39.25
 11
-1.5
 21
-30.25
  0
LINE
  8
0
 10
-1.5
 20
-30.25
 11
1.5
 21
-30.25
  0
LINE
  8
0
 10
1.5
 20
-30.25
 11
1.5
 21
-39.25
  0
LINE
  8
0
 10
1.5
 20
-39.25
 11
-1.5
 21
-39.25
  0
LINE
  8
0
 10
24.75
 20
-39.25
 11
24.75
 21
-30.25
  0
LINE
  8
0
 10
24.75
 20
-30.25
 11
27.75
 21
-30.25
  0
LINE
  8
0
 10
27.75
 20
-30.25
 11
27.75
 21
-39.25
  0
LINE
  8
0
 10
27.75
 20
-39.25
 11
24.75
 21
-39.25
  0
LINE
  8
0
 10
37.4
 20
-51
 11
37.4
 21
-47
  0
LINE
  8
0
 10
37.4
 20
-47
 11
44.2
 21
-47
  0
LINE
  8
0
 10
44.2
 20
-47
 11
44.2
 21
-51
  0
LINE
  8
0
 10
44.2
 20
-51
 11
37.4
 21
-51
  0
LINE
  8
0
 10
23.8
 20
-51
 11
23.8
 21
-47
  0
LINE
  8
0
 10
23.8
 20
-47
 11
30.6
 21
-47
  0
LINE
  8
0
 10
30.6
 20
-47
 11
30.6
 21
-51
  0
LINE
  8
0
 10
30.6
 20
-51
 11
23.8
 21
-51
  0
LINE
  8
0
 10
10.2
 20
-51
 11
10.2
 21
-47
  0
LINE
  8
0
 10
10.2
 20
-47
 11
17
 21
-47
  0
LINE
  8
0
 10
17
 20
-47
 11
17
 21
-51
  0
LINE
  8
0
 10
17
 20
-51
 11
10.2
 21
-51
  0
LINE
  8
0
 10
-3.39999
 20
-51
 11
-3.39999
 21
-47
  0
LINE
  8
0
 10
-3.39999
 20
-47
 11
3.39999
 21
-47
  0
LINE
  8
0
 10
3.39999
 20
-47
 11
3.39999
 21
-51
  0
LINE
  8
0
 10
3.39999
 20
-51
 11
-3.39999
 21
-51
  0
LINE
  8
0
 10
-44.2
 20
-51
 11
-44.2
 21
-47
  0
LINE
  8
0
 10
-44.2
 20
-47
 11
-37.4
 21
-47
  0
LINE
  8
0
 10
-37.4
 20
-47
 11
-37.4
 21
-51
  0
LINE
  8
0
 10
-37.4
 20
-51
 11
-44.2
 21
-51
  0
LINE
  8
0
 10
-30.6
 20
-51
 11
-30.6
 21
-47
  0
LINE
  8
0
 10
-30.6
 20
-47
 11
-23.8
 21
-47
  0
LINE
  8
0
 10
-23.8
 20
-47
 11
-23.8
 21
-51
  0
LINE
  8
0
 10
-23.8
 20
-51
 11
-30.6
 21
-51
  0
LINE
  8
0
 10
-17
 20
-51
 11
-17
 21
-47
  0
LINE
  8
0
 10
-17
 20
-47
 11
-10.2
 21
-47
  0
LINE
  8
0
 10
-10.2
 20
-47
 11
-10.2
 21
-51
  0
LINE
  8
0
 10
-10.2
 20
-51
 11
-17
 21
-51
  0
LINE
  8
0
 10
51
 20
-89.7143
 11
54
 21
-89.7143
  0
LINE
  8
0
 10
54
 20
-89.7143
 11
54
 21
-83.4286
  0
LINE
  8
0
 10
54
 20
-83.4286
 11
51
 21
-83.4286
  0
LINE
  8
0
 10
51
 20
-83.4286
 11
51
 21
-77.1429
  0
LINE
  8
0
 10
51
 20
-77.1429
 11
54
 21
-77.1429
  0
LINE
  8
0
 10
54
 20
-77.1429
 11
54
 21
-70.8571
  0
LINE
  8
0
 10
54
 20
-70.8571
 11
51
 21
-70.8571
  0
LINE
  8
0
 10
51
 20
-70.8571
 11
51
 21
-64.5714
  0
LINE
  8
0
 10
51
 20
-64.5714
 11
54
 21
-64.5714
  0
LINE
  8
0
 10
54
 20
-64.5714
 11
54
 21
-58.2857
  0
LINE
  8
0
 10
54
 20
-58.2857
 11
51
 21
-58.2857
  0
LINE
  8
0
 10
51
 20
-58.2857
 11
51
 21
-59
  0
LINE
  8
0
 10
51
 20
-59
 11
44.2
 21
-59
  0
LINE
  8
0
 10
44.2
 20
-59
 11
44.2
 21
-55
  0
LINE
  8
0
 10
44.2
 20
-55
 11
37.4
 21
-55
  0
LINE
  8
0
 10
37.4
 20
-55
 11
37.4
 21
-59
  0
LINE
  8
0
 10
37.4
 20
-59
 11
30.6
 21
-59
  0
LINE
  8
0
 10
30.6
 20
-59
 11
30.6
 21
-55
  0
LINE
  8
0
 10
30.6
 20
-55
 11
23.8
 21
-55
  0
LINE
  8
0
 10
23.8
 20
-55
 11
23.8
 21
-59
  0
LINE
  8
0
 10
23.8
 20
-59
 11
17
 21
-59
  0
LINE
  8
0
 10
17
 20
-59
 11
17
 21
-55
  0
LINE
  8
0
 10
17
 20
-55
 11
10.2
 21
-55
  0
LINE
  8
0
 10
10.2
 20
-55
 11
10.2
 21
-59
  0
LINE
  8
0
 10
10.2
 20
-59
 11
3.39999
 21
-59
  0
LINE
  8
0
 10
3.39999
 20
-59
 11
3.39999
 21
-55
  0
LINE
  8
0
 10
3.39999
 20
-55
 11
-3.39999
 21
-55
  0
LINE
  8
0
 10
-3.39999
 20
-55
 11
-3.39999
 21
-59
  0
LINE
  8
0
 10
-3.39999
 20
-59
 11
-10.2
 21
-59
  0
LINE
  8
0
 10
-10.2
 20
-59
 11
-10.2
 21
-55
  0
LINE
  8
0
 10
-10.2
 20
-55
 11
-17
 21
-55
  0
LINE
  8
0
 10
-17
 20
-55
 11
-17
 21
-59
  0
LINE
  8
0
 10
-17
 20
-59
 11
-23.8
 21
-59
  0
LINE
  8
0
 10
-23.8
 20
-59
 11
-23.8
 21
-55
  0
LINE
  8
0
 10
-23.8
 20
-55
 11
-30.6
 21
-55
  0
LINE
  8
0
 10
-30.6
 20
-55
 11
-30.6
 21
-59
  0
LINE
  8
0
 10
-30.6
 20
-59
 11
-37.4
 21
-59
  0
LINE
  8
0
 10
-37.4
 20
-59
 11
-37.4
 21
-55
  0
LINE
  8
0
 10
-37.4
 20
-55
 11
-44.2
 21
-55
  0
LINE
  8
0
 10
-44.2
 20
-55
 11
-44.2
 21
-59
  0
LINE
  8
0
 10
-44.2
 20
-59
 11
-51
 21
-59
  0
LINE
  8
0
 10
-51
 20
-59
 11
-51
 21
-58.2857
  0
LINE
  8
0
 10
-51
 20
-58.2857
 11
-54
 21
-58.2857
  0
LINE
  8
0
 10
-54
 20
-58.2857
 11
-54
 21
-64.5714
  0
LINE
  8
0
 10
-54
 20
-64.5714
 11
-51
 21
-64.5714
  0
LINE
  8
0
 10
-51
 20
-64.5714
 11
-51
 21
-70.8571
  0
LINE
  8
0
 10
-51
 20
-70.8571
 11
-54
 21
-70.8571
  0
LINE
  8
0
 10
-54
 20
-70.8571
 11
-54
 21
-77.1429
  0
LINE
  8
0
 10
-54
 20
-77.1429
 11
-51
 21
-77.1429
  0
LINE
  8
0
 10
-51
 20
-77.1429
 11
-51
 21
-83.4286
  0
LINE
  8
0
 10
-51
 20
-83.4286
 11
-54
 21
-83.4286
  0
LINE
  8
0
 10
-54
 20
-83.4286
 11
-54
 21
-89.7143
  0
LINE
  8
0
 10
-54
 20
-89.7143
 11
-51
 21
-89.7143
  0
LINE
  8
0
 10
-51
 20
-89.7143
 11
-51
 21
-96
  0
LINE
  8
0
 10
-51
 20
-96
 11
51
 21
-96
  0
LINE
  8
0
 10
51
 20
-96
 11
51
 21
-89.7143
  0
LINE
  8
0
 10
-27.75
 20
-79
 11
-27.75
 21
-69
  0
LINE
  8
0
 10
-27.75
 20
-69
 11
-24.75
 21
-69
  0
LINE
  8
0
 10
-24.75
 20
-69
 11
-24.75
 21
-79
  0
LINE
  8
0
 10
-24.75
 20
-79
 11
-27.75
 21
-79
  0
LINE
  8
0
 10
-1.5
 20
-79
 11
-1.5
 21
-69
  0
LINE
  8
0
 10
-1.5
 20
-69
 11
1.5
 21
-69
  0
LINE
  8
0
 10
1.5
 20
-69
 11
1.5
 21
-79
  0
LINE
  8
0
 10
1.5
 20
-79
 11
-1.5
 21
-79
  0
LINE
  8
0
 10
24.75
 20
-79
 11
24.75
 21
-69
  0
LINE
  8
0
 10
24.75
 20
-69
 11
27.75
 21
-69
  0
LINE
  8
0
 10
27.75
 20
-69
 11
27.75
 21
-79
  0
LINE
  8
0
 10
27.75
 20
-79
 11
24.75
 21
-79
  0
ENDSEC
  0
SECTION
  2
OBJECTS
  0
DICTIONARY
  0
ENDSEC
  0
EOF
