<?xml version="1.0" standalone="no"?>
<!DOCTYPE svg PUBLIC "-//W3C//DTD SVG 1.1//EN" "http://www.w3.org/Graphics/SVG/1.1/DTD/svg11.dtd">
<svg width="273mm" height="270mm" viewBox="-99 -174 273 270" xmlns="http://www.w3.org/2000/svg" version="1.1">
<title>OpenSCAD Model</title>
<path d="
M -33.75,-154 L -27.75,-154 L -27.75,-164 L -24.75,-164 L -24.75,-154 L -17.25,-154
 L -17.25,-150 L -8.25,-150 L -8.25,-154 L -1.5,-154 L -1.5,-164 L 1.5,-164
 L 1.5,-154 L 8.25,-154 L 8.25,-150 L 17.25,-150 L 17.25,-154 L 24.75,-154
 L 24.75,-164 L 27.75,-164 L 27.75,-154 L 33.75,-154 L 33.75,-150 L 42.75,-150
 L 42.75,-154 L 51,-154 L 51,-164 L 54,-164 L 54,-174 L -54,-174
 L -54,-164 L -51,-164 L -51,-154 L -42.75,-154 L -42.75,-150 L -33.75,-150
 z
M -33.75,-129 L -27.75,-129 L -27.75,-139 L -24.75,-139 L -24.75,-129 L -17.25,-129
 L -17.25,-125 L -8.25,-125 L -8.25,-129 L -1.5,-129 L -1.5,-139 L 1.5,-139
 L 1.5,-129 L 8.25,-129 L 8.25,-125 L 17.25,-125 L 17.25,-129 L 24.75,-129
 L 24.75,-139 L 27.75,-139 L 27.75,-129 L 33.75,-129 L 33.75,-125 L 42.75,-125
 L 42.75,-129 L 51,-129 L 51,-139 L 54,-139 L 54,-149 L -54,-149
 L -54,-139 L -51,-139 L -51,-129 L -42.75,-129 L -42.75,-125 L -33.75,-125
 z
M -33.75,-104 L -27.75,-104 L -27.75,-114 L -24.75,-114 L -24.75,-104 L -17.25,-104
 L -17.25,-100 L -8.25,-100 L -8.25,-104 L -1.5,-104 L -1.5,-114 L 1.5,-114
 L 1.5,-104 L 8.25,-104 L 8.25,-100 L 17.25,-100 L 17.25,-104 L 24.75,-104
 L 24.75,-114 L 27.75,-114 L 27.75,-104 L 33.75,-104 L 33.75,-100 L 42.75,-100
 L 42.75,-104 L 51,-104 L 51,-114 L 54,-114 L 54,-124 L -54,-124
 L -54,-114 L -51,-114 L -51,-104 L -42.75,-104 L -42.75,-100 L -33.75,-100
 z
M 51,-61.2857 L 54,-61.2857 L 54,-67.5714 L 51,-67.5714 L 51,-73.8571 L 54,-73.8571
 L 54,-80.1429 L 51,-80.1429 L 51,-86.4286 L 54,-86.4286 L 54,-92.7143 L 51,-92.7143
 L 51,-99 L -51,-99 L -51,-92.7143 L -54,-92.7143 L -54,-86.4286 L -51,-86.4286
 L -51,-80.1429 L -54,-80.1429 L -54,-73.8571 L -51,-73.8571 L -51,-67.5714 L -54,-67.5714
 L -54,-61.2857 L -51,-61.2857 L -51,-55 L 51,-55 z
M 24.75,-72 L 24.75,-82 L 27.75,-82 L 27.75,-72 z
M -1.5,-72 L -1.5,-82 L 1.5,-82 L 1.5,-72 z
M -27.75,-72 L -27.75,-82 L -24.75,-82 L -24.75,-72 z
M 37.4,-58 L 37.4,-62 L 44.2,-62 L 44.2,-58 z
M 23.8,-58 L 23.8,-62 L 30.6,-62 L 30.6,-58 z
M 10.2,-58 L 10.2,-62 L 17,-62 L 17,-58 z
M -3.39999,-58 L -3.39999,-62 L 3.39999,-62 L 3.39999,-58 z
M -17,-58 L -17,-62 L -10.2,-62 L -10.2,-58 z
M -30.6,-58 L -30.6,-62 L -23.8,-62 L -23.8,-58 z
M -44.2,-58 L -44.2,-62 L -37.4,-62 L -37.4,-58 z
M 149,24.75 L 139,24.75 L 139,21.75 L 149,21.75 L 149,-0.5 L 139,-0.5
 L 139,-3.5 L 149,-3.5 L 149,-25.75 L 139,-25.75 L 139,-28.75 L 149,-28.75
 L 149,-54 L 139,-54 L 139,-51 L 129,-51 L 129,-43.25 L 125,-43.25
 L 125,-34.25 L 129,-34.25 L 129,-18.75 L 125,-18.75 L 125,-9.75 L 129,-9.75
 L 129,5.75 L 125,5.75 L 125,14.75 L 129,14.75 L 129,30.25 L 125,30.25
 L 125,39.25 L 129,39.25 L 129,47 L 139,47 L 139,51 L 149,51
 z
M -55,-54 L -61.2857,-54 L -61.2857,-51 L -67.5714,-51 L -67.5714,-54 L -73.8571,-54
 L -73.8571,-51 L -80.1429,-51 L -80.1429,-54 L -86.4286,-54 L -86.4286,-51 L -92.7143,-51
 L -92.7143,-54 L -99,-54 L -99,54 L -55,54 z
M -62,-41.2941 L -62,-47.647 L -58,-47.647 L -58,-41.2941 z
M -62,-28.5882 L -62,-34.9412 L -58,-34.9412 L -58,-28.5882 z
M -82,-25.75 L -82,-28.75 L -72,-28.75 L -72,-25.75 z
M -62,-15.8823 L -62,-22.2353 L -58,-22.2353 L -58,-15.8823 z
M -62,-3.17647 L -62,-9.5294 L -58,-9.5294 L -58,-3.17647 z
M -82,-0.5 L -82,-3.5 L -72,-3.5 L -72,-0.5 z
M -62,9.5294 L -62,3.17647 L -58,3.17647 L -58,9.5294 z
M -62,22.2353 L -62,15.8823 L -58,15.8823 L -58,22.2353 z
M -82,24.75 L -82,21.75 L -72,21.75 L -72,24.75 z
M -62,34.9412 L -62,28.5882 L -58,28.5882 L -58,34.9412 z
M -67.5714,51 L -67.5714,47 L -62,47 L -62,41.2941 L -58,41.2941 L -58,47.647
 L -61.2857,47.647 L -61.2857,51 z
M -80.1429,51 L -80.1429,47 L -73.8571,47 L -73.8571,51 z
M -92.7143,51 L -92.7143,47 L -86.4286,47 L -86.4286,51 z
M 99,-54 L 92.7143,-54 L 92.7143,-51 L 86.4286,-51 L 86.4286,-54 L 80.1429,-54
 L 80.1429,-51 L 73.8571,-51 L 73.8571,-54 L 67.5714,-54 L 67.5714,-51 L 61.2857,-51
 L 61.2857,-54 L 55,-54 L 55,54 L 99,54 z
M 58,-41.2941 L 58,-47.647 L 62,-47.647 L 62,-41.2941 z
M 58,-28.5882 L 58,-34.9412 L 62,-34.9412 L 62,-28.5882 z
M 72,-25.75 L 72,-28.75 L 82,-28.75 L 82,-25.75 z
M 58,-15.8823 L 58,-22.2353 L 62,-22.2353 L 62,-15.8823 z
M 58,-3.17647 L 58,-9.5294 L 62,-9.5294 L 62,-3.17647 z
M 72,-0.5 L 72,-3.5 L 82,-3.5 L 82,-0.5 z
M 58,9.5294 L 58,3.17647 L 62,3.17647 L 62,9.5294 z
M 58,22.2353 L 58,15.8823 L 62,15.8823 L 62,22.2353 z
M 72,24.75 L 72,21.75 L 82,21.75 L 82,24.75 z
M 58,34.9412 L 58,28.5882 L 62,28.5882 L 62,34.9412 z
M 61.2857,51 L 61.2857,47.647 L 58,47.647 L 58,41.2941 L 62,41.2941 L 62,47
 L 67.5714,47 L 67.5714,51 z
M 86.4286,51 L 86.4286,47 L 92.7143,47 L 92.7143,51 z
M 73.8571,51 L 73.8571,47 L 80.1429,47 L 80.1429,51 z
M 124,24.75 L 114,24.75 L 114,21.75 L 124,21.75 L 124,-0.5 L 114,-0.5
 L 114,-3.5 L 124,-3.5 L 124,-25.75 L 114,-25.75 L 114,-28.75 L 124,-28.75
 L 124,-54 L 114,-54 L 114,-51 L 104,-51 L 104,-43.25 L 100,-43.25
 L 100,-34.25 L 104,-34.25 L 104,-18.75 L 100,-18.75 L 100,-9.75 L 104,-9.75
 L 104,5.75 L 100,5.75 L 100,14.75 L 104,14.75 L 104,30.25 L 100,30.25
 L 100,39.25 L 104,39.25 L 104,47 L 114,47 L 114,51 L 124,51
 z
M 174,24.75 L 164,24.75 L 164,21.75 L 174,21.75 L 174,-0.5 L 164,-0.5
 L 164,-3.5 L 174,-3.5 L 174,-25.75 L 164,-25.75 L 164,-28.75 L 174,-28.75
 L 174,-54 L 164,-54 L 164,-51 L 154,-51 L 154,-43.25 L 150,-43.25
 L 150,-34.25 L 154,-34.25 L 154,-18.75 L 150,-18.75 L 150,-9.75 L 154,-9.75
 L 154,5.75 L 150,5.75 L 150,14.75 L 154,14.75 L 154,30.25 L 150,30.25
 L 150,39.25 L 154,39.25 L 154,47 L 164,47 L 164,51 L 174,51
 z
M 51,47.647 L 54,47.647 L 54,41.2941 L 51,41.2941 L 51,34.9412 L 54,34.9412
 L 54,28.5882 L 51,28.5882 L 51,22.2353 L 54,22.2353 L 54,15.8823 L 51,15.8823
 L 51,9.5294 L 54,9.5294 L 54,3.17647 L 51,3.17647 L 51,-3.17645 L 54,-3.17645
 L 54,-9.5294 L 51,-9.5294 L 51,-15.8823 L 54,-15.8823 L 54,-22.2353 L 51,-22.2353
 L 51,-28.5882 L 54,-28.5882 L 54,-34.9412 L 51,-34.9412 L 51,-41.2941 L 54,-41.2941
 L 54,-47.647 L 51,-47.647 L 51,-51 L 44.2,-51 L 44.2,-53.9995 L 37.4,-53.9995
 L 37.4,-51 L 30.6,-51 L 30.6,-53.9995 L 23.8,-53.9995 L 23.8,-51 L 17,-51
 L 17,-53.9995 L 10.2,-53.9995 L 10.2,-51 L 3.39999,-51 L 3.39999,-53.9995 L -3.39999,-53.9995
 L -3.39999,-51 L -10.2,-51 L -10.2,-53.9995 L -17,-53.9995 L -17,-51 L -23.8,-51
 L -23.8,-53.9995 L -30.6,-53.9995 L -30.6,-51 L -37.4,-51 L -37.4,-53.9995 L -44.2,-53.9995
 L -44.2,-51 L -51,-51 L -51,-47.647 L -54,-47.647 L -54,-41.2941 L -51,-41.2941
 L -51,-34.9412 L -54,-34.9412 L -54,-28.5882 L -51,-28.5882 L -51,-22.2353 L -54,-22.2353
 L -54,-15.8823 L -51,-15.8823 L -51,-9.5294 L -54,-9.5294 L -54,-3.17645 L -51,-3.17645
 L -51,3.17647 L -54,3.17647 L -54,9.5294 L -51,9.5294 L -51,15.8823 L -54,15.8823
 L -54,22.2353 L -51,22.2353 L -51,28.5882 L -54,28.5882 L -54,34.9412 L -51,34.9412
 L -51,41.2941 L -54,41.2941 L -54,47.647 L -51,47.647 L -51,53.9995 L 51,53.9995
 z
M -1.5,-34.25 L -1.5,-43.25 L 1.5,-43.25 L 1.5,-34.25 z
M -27.75,-34.25 L -27.75,-43.25 L -24.75,-43.25 L -24.75,-34.25 z
M 24.75,-34.25 L 24.75,-43.25 L 27.75,-43.25 L 27.75,-34.25 z
M 33.75,-25.75 L 33.75,-28.75 L 42.75,-28.75 L 42.75,-25.75 z
M 8.25,-25.75 L 8.25,-28.75 L 17.25,-28.75 L 17.25,-25.75 z
M -17.25,-25.75 L -17.25,-28.75 L -8.25,-28.75 L -8.25,-25.75 z
M -42.75,-25.75 L -42.75,-28.75 L -33.75,-28.75 L -33.75,-25.75 z
M 24.75,-9.75 L 24.75,-18.75 L 27.75,-18.75 L 27.75,-9.75 z
M -1.5,-9.75 L -1.5,-18.75 L 1.5,-18.75 L 1.5,-9.75 z
M -27.75,-9.75 L -27.75,-18.75 L -24.75,-18.75 L -24.75,-9.75 z
M -42.75,-0.5 L -42.75,-3.5 L -33.75,-3.5 L -33.75,-0.5 z
M 8.25,-0.5 L 8.25,-3.5 L 17.25,-3.5 L 17.25,-0.5 z
M -17.25,-0.5 L -17.25,-3.5 L -8.25,-3.5 L -8.25,-0.5 z
M 33.75,-0.5 L 33.75,-3.5 L 42.75,-3.5 L 42.75,-0.5 z
M 24.75,14.75 L 24.75,5.75 L 27.75,5.75 L 27.75,14.75 z
M -27.75,14.75 L -27.75,5.75 L -24.75,5.75 L -24.75,14.75 z
M -1.5,14.75 L -1.5,5.75 L 1.5,5.75 L 1.5,14.75 z
M -42.75,24.75 L -42.75,21.75 L -33.75,21.75 L -33.75,24.75 z
M 8.25,24.75 L 8.25,21.75 L 17.25,21.75 L 17.25,24.75 z
M 33.75,24.75 L 33.75,21.75 L 42.75,21.75 L 42.75,24.75 z
M -17.25,24.75 L -17.25,21.75 L -8.25,21.75 L -8.25,24.75 z
M -27.75,39.25 L -27.75,30.25 L -24.75,30.25 L -24.75,39.25 z
M -1.5,39.25 L -1.5,30.25 L 1.5,30.25 L 1.5,39.25 z
M 24.75,39.25 L 24.75,30.25 L 27.75,30.25 L 27.75,39.25 z
M 37.4,51 L 37.4,47 L 44.2,47 L 44.2,51 z
M 23.8,51 L 23.8,47 L 30.6,47 L 30.6,51 z
M 10.2,51 L 10.2,47 L 17,47 L 17,51 z
M -3.39999,51 L -3.39999,47 L 3.39999,47 L 3.39999,51 z
M -44.2,51 L -44.2,47 L -37.4,47 L -37.4,51 z
M -30.6,51 L -30.6,47 L -23.8,47 L -23.8,51 z
M -17,51 L -17,47 L -10.2,47 L -10.2,51 z
M 51,89.7143 L 54,89.7143 L 54,83.4286 L 51,83.4286 L 51,77.1429 L 54,77.1429
 L 54,70.8571 L 51,70.8571 L 51,64.5714 L 54,64.5714 L 54,58.2857 L 51,58.2857
 L 51,59 L 44.2,59 L 44.2,55 L 37.4,55 L 37.4,59 L 30.6,59
 L 30.6,55 L 23.8,55 L 23.8,59 L 17,59 L 17,55 L 10.2,55
 L 10.2,59 L 3.39999,59 L 3.39999,55 L -3.39999,55 L -3.39999,59 L -10.2,59
 L -10.2,55 L -17,55 L -17,59 L -23.8,59 L -23.8,55 L -30.6,55
 L -30.6,59 L -37.4,59 L -37.4,55 L -44.2,55 L -44.2,59 L -51,59
 L -51,58.2857 L -54,58.2857 L -54,64.5714 L -51,64.5714 L -51,70.8571 L -54,70.8571
 L -54,77.1429 L -51,77.1429 L -51,83.4286 L -54,83.4286 L -54,89.7143 L -51,89.7143
 L -51,96 L 51,96 z
M -27.75,79 L -27.75,69 L -24.75,69 L -24.75,79 z
M -1.5,79 L -1.5,69 L 1.5,69 L 1.5,79 z
M 24.75,79 L 24.75,69 L 27.75,69 L 27.75,79 z
" stroke="black" fill="lightgray" stroke-width="0.5"/>
</svg>
