  0
SECTION
  2
BLOCKS
  0
ENDSEC
  0
SECTION
  2
ENTITIES
  0
LINE
  8
0
 10
-33.75
 20
188
 11
-27.75
 21
188
  0
LINE
  8
0
 10
-27.75
 20
188
 11
-27.75
 21
206.5
  0
LINE
  8
0
 10
-27.75
 20
206.5
 11
-24.75
 21
206.5
  0
LINE
  8
0
 10
-24.75
 20
206.5
 11
-24.75
 21
188
  0
LINE
  8
0
 10
-24.75
 20
188
 11
-17.25
 21
188
  0
LINE
  8
0
 10
-17.25
 20
188
 11
-17.25
 21
184
  0
LINE
  8
0
 10
-17.25
 20
184
 11
-8.25
 21
184
  0
LINE
  8
0
 10
-8.25
 20
184
 11
-8.25
 21
188
  0
LINE
  8
0
 10
-8.25
 20
188
 11
-1.5
 21
188
  0
LINE
  8
0
 10
-1.5
 20
188
 11
-1.5
 21
206.5
  0
LINE
  8
0
 10
-1.5
 20
206.5
 11
1.5
 21
206.5
  0
LINE
  8
0
 10
1.5
 20
206.5
 11
1.5
 21
188
  0
LINE
  8
0
 10
1.5
 20
188
 11
8.25
 21
188
  0
LINE
  8
0
 10
8.25
 20
188
 11
8.25
 21
184
  0
LINE
  8
0
 10
8.25
 20
184
 11
17.25
 21
184
  0
LINE
  8
0
 10
17.25
 20
184
 11
17.25
 21
188
  0
LINE
  8
0
 10
17.25
 20
188
 11
24.75
 21
188
  0
LINE
  8
0
 10
24.75
 20
188
 11
24.75
 21
206.5
  0
LINE
  8
0
 10
24.75
 20
206.5
 11
27.75
 21
206.5
  0
LINE
  8
0
 10
27.75
 20
206.5
 11
27.75
 21
188
  0
LINE
  8
0
 10
27.75
 20
188
 11
33.75
 21
188
  0
LINE
  8
0
 10
33.75
 20
188
 11
33.75
 21
184
  0
LINE
  8
0
 10
33.75
 20
184
 11
42.75
 21
184
  0
LINE
  8
0
 10
42.75
 20
184
 11
42.75
 21
188
  0
LINE
  8
0
 10
42.75
 20
188
 11
51
 21
188
  0
LINE
  8
0
 10
51
 20
188
 11
51
 21
206.5
  0
LINE
  8
0
 10
51
 20
206.5
 11
54
 21
206.5
  0
LINE
  8
0
 10
54
 20
206.5
 11
54
 21
225
  0
LINE
  8
0
 10
54
 20
225
 11
-54
 21
225
  0
LINE
  8
0
 10
-54
 20
225
 11
-54
 21
206.5
  0
LINE
  8
0
 10
-54
 20
206.5
 11
-51
 21
206.5
  0
LINE
  8
0
 10
-51
 20
206.5
 11
-51
 21
188
  0
LINE
  8
0
 10
-51
 20
188
 11
-42.75
 21
188
  0
LINE
  8
0
 10
-42.75
 20
188
 11
-42.75
 21
184
  0
LINE
  8
0
 10
-42.75
 20
184
 11
-33.75
 21
184
  0
LINE
  8
0
 10
-33.75
 20
184
 11
-33.75
 21
188
  0
LINE
  8
0
 10
-33.75
 20
146
 11
-27.75
 21
146
  0
LINE
  8
0
 10
-27.75
 20
146
 11
-27.75
 21
164.5
  0
LINE
  8
0
 10
-27.75
 20
164.5
 11
-24.75
 21
164.5
  0
LINE
  8
0
 10
-24.75
 20
164.5
 11
-24.75
 21
146
  0
LINE
  8
0
 10
-24.75
 20
146
 11
-17.25
 21
146
  0
LINE
  8
0
 10
-17.25
 20
146
 11
-17.25
 21
142
  0
LINE
  8
0
 10
-17.25
 20
142
 11
-8.25
 21
142
  0
LINE
  8
0
 10
-8.25
 20
142
 11
-8.25
 21
146
  0
LINE
  8
0
 10
-8.25
 20
146
 11
-1.5
 21
146
  0
LINE
  8
0
 10
-1.5
 20
146
 11
-1.5
 21
164.5
  0
LINE
  8
0
 10
-1.5
 20
164.5
 11
1.5
 21
164.5
  0
LINE
  8
0
 10
1.5
 20
164.5
 11
1.5
 21
146
  0
LINE
  8
0
 10
1.5
 20
146
 11
8.25
 21
146
  0
LINE
  8
0
 10
8.25
 20
146
 11
8.25
 21
142
  0
LINE
  8
0
 10
8.25
 20
142
 11
17.25
 21
142
  0
LINE
  8
0
 10
17.25
 20
142
 11
17.25
 21
146
  0
LINE
  8
0
 10
17.25
 20
146
 11
24.75
 21
146
  0
LINE
  8
0
 10
24.75
 20
146
 11
24.75
 21
164.5
  0
LINE
  8
0
 10
24.75
 20
164.5
 11
27.75
 21
164.5
  0
LINE
  8
0
 10
27.75
 20
164.5
 11
27.75
 21
146
  0
LINE
  8
0
 10
27.75
 20
146
 11
33.75
 21
146
  0
LINE
  8
0
 10
33.75
 20
146
 11
33.75
 21
142
  0
LINE
  8
0
 10
33.75
 20
142
 11
42.75
 21
142
  0
LINE
  8
0
 10
42.75
 20
142
 11
42.75
 21
146
  0
LINE
  8
0
 10
42.75
 20
146
 11
51
 21
146
  0
LINE
  8
0
 10
51
 20
146
 11
51
 21
164.5
  0
LINE
  8
0
 10
51
 20
164.5
 11
54
 21
164.5
  0
LINE
  8
0
 10
54
 20
164.5
 11
54
 21
183
  0
LINE
  8
0
 10
54
 20
183
 11
-54
 21
183
  0
LINE
  8
0
 10
-54
 20
183
 11
-54
 21
164.5
  0
LINE
  8
0
 10
-54
 20
164.5
 11
-51
 21
164.5
  0
LINE
  8
0
 10
-51
 20
164.5
 11
-51
 21
146
  0
LINE
  8
0
 10
-51
 20
146
 11
-42.75
 21
146
  0
LINE
  8
0
 10
-42.75
 20
146
 11
-42.75
 21
142
  0
LINE
  8
0
 10
-42.75
 20
142
 11
-33.75
 21
142
  0
LINE
  8
0
 10
-33.75
 20
142
 11
-33.75
 21
146
  0
LINE
  8
0
 10
-33.75
 20
104
 11
-27.75
 21
104
  0
LINE
  8
0
 10
-27.75
 20
104
 11
-27.75
 21
122.5
  0
LINE
  8
0
 10
-27.75
 20
122.5
 11
-24.75
 21
122.5
  0
LINE
  8
0
 10
-24.75
 20
122.5
 11
-24.75
 21
104
  0
LINE
  8
0
 10
-24.75
 20
104
 11
-17.25
 21
104
  0
LINE
  8
0
 10
-17.25
 20
104
 11
-17.25
 21
100
  0
LINE
  8
0
 10
-17.25
 20
100
 11
-8.25
 21
100
  0
LINE
  8
0
 10
-8.25
 20
100
 11
-8.25
 21
104
  0
LINE
  8
0
 10
-8.25
 20
104
 11
-1.5
 21
104
  0
LINE
  8
0
 10
-1.5
 20
104
 11
-1.5
 21
122.5
  0
LINE
  8
0
 10
-1.5
 20
122.5
 11
1.5
 21
122.5
  0
LINE
  8
0
 10
1.5
 20
122.5
 11
1.5
 21
104
  0
LINE
  8
0
 10
1.5
 20
104
 11
8.25
 21
104
  0
LINE
  8
0
 10
8.25
 20
104
 11
8.25
 21
100
  0
LINE
  8
0
 10
8.25
 20
100
 11
17.25
 21
100
  0
LINE
  8
0
 10
17.25
 20
100
 11
17.25
 21
104
  0
LINE
  8
0
 10
17.25
 20
104
 11
24.75
 21
104
  0
LINE
  8
0
 10
24.75
 20
104
 11
24.75
 21
122.5
  0
LINE
  8
0
 10
24.75
 20
122.5
 11
27.75
 21
122.5
  0
LINE
  8
0
 10
27.75
 20
122.5
 11
27.75
 21
104
  0
LINE
  8
0
 10
27.75
 20
104
 11
33.75
 21
104
  0
LINE
  8
0
 10
33.75
 20
104
 11
33.75
 21
100
  0
LINE
  8
0
 10
33.75
 20
100
 11
42.75
 21
100
  0
LINE
  8
0
 10
42.75
 20
100
 11
42.75
 21
104
  0
LINE
  8
0
 10
42.75
 20
104
 11
51
 21
104
  0
LINE
  8
0
 10
51
 20
104
 11
51
 21
122.5
  0
LINE
  8
0
 10
51
 20
122.5
 11
54
 21
122.5
  0
LINE
  8
0
 10
54
 20
122.5
 11
54
 21
141
  0
LINE
  8
0
 10
54
 20
141
 11
-54
 21
141
  0
LINE
  8
0
 10
-54
 20
141
 11
-54
 21
122.5
  0
LINE
  8
0
 10
-54
 20
122.5
 11
-51
 21
122.5
  0
LINE
  8
0
 10
-51
 20
122.5
 11
-51
 21
104
  0
LINE
  8
0
 10
-51
 20
104
 11
-42.75
 21
104
  0
LINE
  8
0
 10
-42.75
 20
104
 11
-42.75
 21
100
  0
LINE
  8
0
 10
-42.75
 20
100
 11
-33.75
 21
100
  0
LINE
  8
0
 10
-33.75
 20
100
 11
-33.75
 21
104
  0
LINE
  8
0
 10
51
 20
61.2857
 11
54
 21
61.2857
  0
LINE
  8
0
 10
54
 20
61.2857
 11
54
 21
67.5714
  0
LINE
  8
0
 10
54
 20
67.5714
 11
51
 21
67.5714
  0
LINE
  8
0
 10
51
 20
67.5714
 11
51
 21
73.8571
  0
LINE
  8
0
 10
51
 20
73.8571
 11
54
 21
73.8571
  0
LINE
  8
0
 10
54
 20
73.8571
 11
54
 21
80.1429
  0
LINE
  8
0
 10
54
 20
80.1429
 11
51
 21
80.1429
  0
LINE
  8
0
 10
51
 20
80.1429
 11
51
 21
86.4286
  0
LINE
  8
0
 10
51
 20
86.4286
 11
54
 21
86.4286
  0
LINE
  8
0
 10
54
 20
86.4286
 11
54
 21
92.7143
  0
LINE
  8
0
 10
54
 20
92.7143
 11
51
 21
92.7143
  0
LINE
  8
0
 10
51
 20
92.7143
 11
51
 21
99
  0
LINE
  8
0
 10
51
 20
99
 11
27.75
 21
99
  0
LINE
  8
0
 10
27.75
 20
99
 11
27.75
 21
80.5
  0
LINE
  8
0
 10
27.75
 20
80.5
 11
24.75
 21
80.5
  0
LINE
  8
0
 10
24.75
 20
80.5
 11
24.75
 21
99
  0
LINE
  8
0
 10
24.75
 20
99
 11
1.5
 21
99
  0
LINE
  8
0
 10
1.5
 20
99
 11
1.5
 21
80.5
  0
LINE
  8
0
 10
1.5
 20
80.5
 11
-1.5
 21
80.5
  0
LINE
  8
0
 10
-1.5
 20
80.5
 11
-1.5
 21
99
  0
LINE
  8
0
 10
-1.5
 20
99
 11
-24.75
 21
99
  0
LINE
  8
0
 10
-24.75
 20
99
 11
-24.75
 21
80.5
  0
LINE
  8
0
 10
-24.75
 20
80.5
 11
-27.75
 21
80.5
  0
LINE
  8
0
 10
-27.75
 20
80.5
 11
-27.75
 21
99
  0
LINE
  8
0
 10
-27.75
 20
99
 11
-51
 21
99
  0
LINE
  8
0
 10
-51
 20
99
 11
-51
 21
92.7143
  0
LINE
  8
0
 10
-51
 20
92.7143
 11
-54
 21
92.7143
  0
LINE
  8
0
 10
-54
 20
92.7143
 11
-54
 21
86.4286
  0
LINE
  8
0
 10
-54
 20
86.4286
 11
-51
 21
86.4286
  0
LINE
  8
0
 10
-51
 20
86.4286
 11
-51
 21
80.1429
  0
LINE
  8
0
 10
-51
 20
80.1429
 11
-54
 21
80.1429
  0
LINE
  8
0
 10
-54
 20
80.1429
 11
-54
 21
73.8571
  0
LINE
  8
0
 10
-54
 20
73.8571
 11
-51
 21
73.8571
  0
LINE
  8
0
 10
-51
 20
73.8571
 11
-51
 21
67.5714
  0
LINE
  8
0
 10
-51
 20
67.5714
 11
-54
 21
67.5714
  0
LINE
  8
0
 10
-54
 20
67.5714
 11
-54
 21
61.2857
  0
LINE
  8
0
 10
-54
 20
61.2857
 11
-51
 21
61.2857
  0
LINE
  8
0
 10
-51
 20
61.2857
 11
-51
 21
55
  0
LINE
  8
0
 10
-51
 20
55
 11
51
 21
55
  0
LINE
  8
0
 10
51
 20
55
 11
51
 21
61.2857
  0
LINE
  8
0
 10
37.4
 20
58
 11
37.4
 21
62
  0
LINE
  8
0
 10
37.4
 20
62
 11
44.2
 21
62
  0
LINE
  8
0
 10
44.2
 20
62
 11
44.2
 21
58
  0
LINE
  8
0
 10
44.2
 20
58
 11
37.4
 21
58
  0
LINE
  8
0
 10
23.8
 20
58
 11
23.8
 21
62
  0
LINE
  8
0
 10
23.8
 20
62
 11
30.6
 21
62
  0
LINE
  8
0
 10
30.6
 20
62
 11
30.6
 21
58
  0
LINE
  8
0
 10
30.6
 20
58
 11
23.8
 21
58
  0
LINE
  8
0
 10
10.2
 20
58
 11
10.2
 21
62
  0
LINE
  8
0
 10
10.2
 20
62
 11
17
 21
62
  0
LINE
  8
0
 10
17
 20
62
 11
17
 21
58
  0
LINE
  8
0
 10
17
 20
58
 11
10.2
 21
58
  0
LINE
  8
0
 10
-3.39999
 20
58
 11
-3.39999
 21
62
  0
LINE
  8
0
 10
-3.39999
 20
62
 11
3.39999
 21
62
  0
LINE
  8
0
 10
3.39999
 20
62
 11
3.39999
 21
58
  0
LINE
  8
0
 10
3.39999
 20
58
 11
-3.39999
 21
58
  0
LINE
  8
0
 10
-44.2
 20
58
 11
-44.2
 21
62
  0
LINE
  8
0
 10
-44.2
 20
62
 11
-37.4
 21
62
  0
LINE
  8
0
 10
-37.4
 20
62
 11
-37.4
 21
58
  0
LINE
  8
0
 10
-37.4
 20
58
 11
-44.2
 21
58
  0
LINE
  8
0
 10
-30.6
 20
58
 11
-30.6
 21
62
  0
LINE
  8
0
 10
-30.6
 20
62
 11
-23.8
 21
62
  0
LINE
  8
0
 10
-23.8
 20
62
 11
-23.8
 21
58
  0
LINE
  8
0
 10
-23.8
 20
58
 11
-30.6
 21
58
  0
LINE
  8
0
 10
-17
 20
58
 11
-17
 21
62
  0
LINE
  8
0
 10
-17
 20
62
 11
-10.2
 21
62
  0
LINE
  8
0
 10
-10.2
 20
62
 11
-10.2
 21
58
  0
LINE
  8
0
 10
-10.2
 20
58
 11
-17
 21
58
  0
LINE
  8
0
 10
99
 20
-24.75
 11
80.5
 21
-24.75
  0
LINE
  8
0
 10
80.5
 20
-24.75
 11
80.5
 21
-21.75
  0
LINE
  8
0
 10
80.5
 20
-21.75
 11
99
 21
-21.75
  0
LINE
  8
0
 10
99
 20
-21.75
 11
99
 21
0.5
  0
LINE
  8
0
 10
99
 20
0.5
 11
80.5
 21
0.5
  0
LINE
  8
0
 10
80.5
 20
0.5
 11
80.5
 21
3.5
  0
LINE
  8
0
 10
80.5
 20
3.5
 11
99
 21
3.5
  0
LINE
  8
0
 10
99
 20
3.5
 11
99
 21
25.75
  0
LINE
  8
0
 10
99
 20
25.75
 11
80.5
 21
25.75
  0
LINE
  8
0
 10
80.5
 20
25.75
 11
80.5
 21
28.75
  0
LINE
  8
0
 10
80.5
 20
28.75
 11
99
 21
28.75
  0
LINE
  8
0
 10
99
 20
28.75
 11
99
 21
54
  0
LINE
  8
0
 10
99
 20
54
 11
92.7143
 21
54
  0
LINE
  8
0
 10
92.7143
 20
54
 11
92.7143
 21
51
  0
LINE
  8
0
 10
92.7143
 20
51
 11
86.4286
 21
51
  0
LINE
  8
0
 10
86.4286
 20
51
 11
86.4286
 21
54
  0
LINE
  8
0
 10
86.4286
 20
54
 11
80.1429
 21
54
  0
LINE
  8
0
 10
80.1429
 20
54
 11
80.1429
 21
51
  0
LINE
  8
0
 10
80.1429
 20
51
 11
73.8571
 21
51
  0
LINE
  8
0
 10
73.8571
 20
51
 11
73.8571
 21
54
  0
LINE
  8
0
 10
73.8571
 20
54
 11
67.5714
 21
54
  0
LINE
  8
0
 10
67.5714
 20
54
 11
67.5714
 21
51
  0
LINE
  8
0
 10
67.5714
 20
51
 11
61.2857
 21
51
  0
LINE
  8
0
 10
61.2857
 20
51
 11
61.2857
 21
54
  0
LINE
  8
0
 10
61.2857
 20
54
 11
55
 21
54
  0
LINE
  8
0
 10
55
 20
54
 11
55
 21
-54
  0
LINE
  8
0
 10
55
 20
-54
 11
99
 21
-54
  0
LINE
  8
0
 10
99
 20
-54
 11
99
 21
-24.75
  0
LINE
  8
0
 10
58
 20
41.2941
 11
58
 21
47.647
  0
LINE
  8
0
 10
58
 20
47.647
 11
62
 21
47.647
  0
LINE
  8
0
 10
62
 20
47.647
 11
62
 21
41.2941
  0
LINE
  8
0
 10
62
 20
41.2941
 11
58
 21
41.2941
  0
LINE
  8
0
 10
58
 20
28.5882
 11
58
 21
34.9412
  0
LINE
  8
0
 10
58
 20
34.9412
 11
62
 21
34.9412
  0
LINE
  8
0
 10
62
 20
34.9412
 11
62
 21
28.5882
  0
LINE
  8
0
 10
62
 20
28.5882
 11
58
 21
28.5882
  0
LINE
  8
0
 10
58
 20
15.8823
 11
58
 21
22.2353
  0
LINE
  8
0
 10
58
 20
22.2353
 11
62
 21
22.2353
  0
LINE
  8
0
 10
62
 20
22.2353
 11
62
 21
15.8823
  0
LINE
  8
0
 10
62
 20
15.8823
 11
58
 21
15.8823
  0
LINE
  8
0
 10
58
 20
3.17647
 11
58
 21
9.5294
  0
LINE
  8
0
 10
58
 20
9.5294
 11
62
 21
9.5294
  0
LINE
  8
0
 10
62
 20
9.5294
 11
62
 21
3.17647
  0
LINE
  8
0
 10
62
 20
3.17647
 11
58
 21
3.17647
  0
LINE
  8
0
 10
58
 20
-9.5294
 11
58
 21
-3.17647
  0
LINE
  8
0
 10
58
 20
-3.17647
 11
62
 21
-3.17647
  0
LINE
  8
0
 10
62
 20
-3.17647
 11
62
 21
-9.5294
  0
LINE
  8
0
 10
62
 20
-9.5294
 11
58
 21
-9.5294
  0
LINE
  8
0
 10
58
 20
-22.2353
 11
58
 21
-15.8823
  0
LINE
  8
0
 10
58
 20
-15.8823
 11
62
 21
-15.8823
  0
LINE
  8
0
 10
62
 20
-15.8823
 11
62
 21
-22.2353
  0
LINE
  8
0
 10
62
 20
-22.2353
 11
58
 21
-22.2353
  0
LINE
  8
0
 10
58
 20
-34.9412
 11
58
 21
-28.5882
  0
LINE
  8
0
 10
58
 20
-28.5882
 11
62
 21
-28.5882
  0
LINE
  8
0
 10
62
 20
-28.5882
 11
62
 21
-34.9412
  0
LINE
  8
0
 10
62
 20
-34.9412
 11
58
 21
-34.9412
  0
LINE
  8
0
 10
61.2857
 20
-51
 11
61.2857
 21
-47.647
  0
LINE
  8
0
 10
61.2857
 20
-47.647
 11
58
 21
-47.647
  0
LINE
  8
0
 10
58
 20
-47.647
 11
58
 21
-41.2941
  0
LINE
  8
0
 10
58
 20
-41.2941
 11
62
 21
-41.2941
  0
LINE
  8
0
 10
62
 20
-41.2941
 11
62
 21
-47
  0
LINE
  8
0
 10
62
 20
-47
 11
67.5714
 21
-47
  0
LINE
  8
0
 10
67.5714
 20
-47
 11
67.5714
 21
-51
  0
LINE
  8
0
 10
67.5714
 20
-51
 11
61.2857
 21
-51
  0
LINE
  8
0
 10
73.8571
 20
-51
 11
73.8571
 21
-47
  0
LINE
  8
0
 10
73.8571
 20
-47
 11
80.1429
 21
-47
  0
LINE
  8
0
 10
80.1429
 20
-47
 11
80.1429
 21
-51
  0
LINE
  8
0
 10
80.1429
 20
-51
 11
73.8571
 21
-51
  0
LINE
  8
0
 10
86.4286
 20
-51
 11
86.4286
 21
-47
  0
LINE
  8
0
 10
86.4286
 20
-47
 11
92.7143
 21
-47
  0
LINE
  8
0
 10
92.7143
 20
-47
 11
92.7143
 21
-51
  0
LINE
  8
0
 10
92.7143
 20
-51
 11
86.4286
 21
-51
  0
LINE
  8
0
 10
225
 20
-24.75
 11
206.5
 21
-24.75
  0
LINE
  8
0
 10
206.5
 20
-24.75
 11
206.5
 21
-21.75
  0
LINE
  8
0
 10
206.5
 20
-21.75
 11
225
 21
-21.75
  0
LINE
  8
0
 10
225
 20
-21.75
 11
225
 21
0.5
  0
LINE
  8
0
 10
225
 20
0.5
 11
206.5
 21
0.5
  0
LINE
  8
0
 10
206.5
 20
0.5
 11
206.5
 21
3.5
  0
LINE
  8
0
 10
206.5
 20
3.5
 11
225
 21
3.5
  0
LINE
  8
0
 10
225
 20
3.5
 11
225
 21
25.75
  0
LINE
  8
0
 10
225
 20
25.75
 11
206.5
 21
25.75
  0
LINE
  8
0
 10
206.5
 20
25.75
 11
206.5
 21
28.75
  0
LINE
  8
0
 10
206.5
 20
28.75
 11
225
 21
28.75
  0
LINE
  8
0
 10
225
 20
28.75
 11
225
 21
54
  0
LINE
  8
0
 10
225
 20
54
 11
206.5
 21
54
  0
LINE
  8
0
 10
206.5
 20
54
 11
206.5
 21
51
  0
LINE
  8
0
 10
206.5
 20
51
 11
188
 21
51
  0
LINE
  8
0
 10
188
 20
51
 11
188
 21
43.25
  0
LINE
  8
0
 10
188
 20
43.25
 11
184
 21
43.25
  0
LINE
  8
0
 10
184
 20
43.25
 11
184
 21
34.25
  0
LINE
  8
0
 10
184
 20
34.25
 11
188
 21
34.25
  0
LINE
  8
0
 10
188
 20
34.25
 11
188
 21
18.75
  0
LINE
  8
0
 10
188
 20
18.75
 11
184
 21
18.75
  0
LINE
  8
0
 10
184
 20
18.75
 11
184
 21
9.75
  0
LINE
  8
0
 10
184
 20
9.75
 11
188
 21
9.75
  0
LINE
  8
0
 10
188
 20
9.75
 11
188
 21
-5.75
  0
LINE
  8
0
 10
188
 20
-5.75
 11
184
 21
-5.75
  0
LINE
  8
0
 10
184
 20
-5.75
 11
184
 21
-14.75
  0
LINE
  8
0
 10
184
 20
-14.75
 11
188
 21
-14.75
  0
LINE
  8
0
 10
188
 20
-14.75
 11
188
 21
-30.25
  0
LINE
  8
0
 10
188
 20
-30.25
 11
184
 21
-30.25
  0
LINE
  8
0
 10
184
 20
-30.25
 11
184
 21
-39.25
  0
LINE
  8
0
 10
184
 20
-39.25
 11
188
 21
-39.25
  0
LINE
  8
0
 10
188
 20
-39.25
 11
188
 21
-47
  0
LINE
  8
0
 10
188
 20
-47
 11
206.5
 21
-47
  0
LINE
  8
0
 10
206.5
 20
-47
 11
206.5
 21
-51
  0
LINE
  8
0
 10
206.5
 20
-51
 11
225
 21
-51
  0
LINE
  8
0
 10
225
 20
-51
 11
225
 21
-24.75
  0
LINE
  8
0
 10
183
 20
-24.75
 11
164.5
 21
-24.75
  0
LINE
  8
0
 10
164.5
 20
-24.75
 11
164.5
 21
-21.75
  0
LINE
  8
0
 10
164.5
 20
-21.75
 11
183
 21
-21.75
  0
LINE
  8
0
 10
183
 20
-21.75
 11
183
 21
0.5
  0
LINE
  8
0
 10
183
 20
0.5
 11
164.5
 21
0.5
  0
LINE
  8
0
 10
164.5
 20
0.5
 11
164.5
 21
3.5
  0
LINE
  8
0
 10
164.5
 20
3.5
 11
183
 21
3.5
  0
LINE
  8
0
 10
183
 20
3.5
 11
183
 21
25.75
  0
LINE
  8
0
 10
183
 20
25.75
 11
164.5
 21
25.75
  0
LINE
  8
0
 10
164.5
 20
25.75
 11
164.5
 21
28.75
  0
LINE
  8
0
 10
164.5
 20
28.75
 11
183
 21
28.75
  0
LINE
  8
0
 10
183
 20
28.75
 11
183
 21
54
  0
LINE
  8
0
 10
183
 20
54
 11
164.5
 21
54
  0
LINE
  8
0
 10
164.5
 20
54
 11
164.5
 21
51
  0
LINE
  8
0
 10
164.5
 20
51
 11
146
 21
51
  0
LINE
  8
0
 10
146
 20
51
 11
146
 21
43.25
  0
LINE
  8
0
 10
146
 20
43.25
 11
142
 21
43.25
  0
LINE
  8
0
 10
142
 20
43.25
 11
142
 21
34.25
  0
LINE
  8
0
 10
142
 20
34.25
 11
146
 21
34.25
  0
LINE
  8
0
 10
146
 20
34.25
 11
146
 21
18.75
  0
LINE
  8
0
 10
146
 20
18.75
 11
142
 21
18.75
  0
LINE
  8
0
 10
142
 20
18.75
 11
142
 21
9.75
  0
LINE
  8
0
 10
142
 20
9.75
 11
146
 21
9.75
  0
LINE
  8
0
 10
146
 20
9.75
 11
146
 21
-5.75
  0
LINE
  8
0
 10
146
 20
-5.75
 11
142
 21
-5.75
  0
LINE
  8
0
 10
142
 20
-5.75
 11
142
 21
-14.75
  0
LINE
  8
0
 10
142
 20
-14.75
 11
146
 21
-14.75
  0
LINE
  8
0
 10
146
 20
-14.75
 11
146
 21
-30.25
  0
LINE
  8
0
 10
146
 20
-30.25
 11
142
 21
-30.25
  0
LINE
  8
0
 10
142
 20
-30.25
 11
142
 21
-39.25
  0
LINE
  8
0
 10
142
 20
-39.25
 11
146
 21
-39.25
  0
LINE
  8
0
 10
146
 20
-39.25
 11
146
 21
-47
  0
LINE
  8
0
 10
146
 20
-47
 11
164.5
 21
-47
  0
LINE
  8
0
 10
164.5
 20
-47
 11
164.5
 21
-51
  0
LINE
  8
0
 10
164.5
 20
-51
 11
183
 21
-51
  0
LINE
  8
0
 10
183
 20
-51
 11
183
 21
-24.75
  0
LINE
  8
0
 10
141
 20
-24.75
 11
122.5
 21
-24.75
  0
LINE
  8
0
 10
122.5
 20
-24.75
 11
122.5
 21
-21.75
  0
LINE
  8
0
 10
122.5
 20
-21.75
 11
141
 21
-21.75
  0
LINE
  8
0
 10
141
 20
-21.75
 11
141
 21
0.5
  0
LINE
  8
0
 10
141
 20
0.5
 11
122.5
 21
0.5
  0
LINE
  8
0
 10
122.5
 20
0.5
 11
122.5
 21
3.5
  0
LINE
  8
0
 10
122.5
 20
3.5
 11
141
 21
3.5
  0
LINE
  8
0
 10
141
 20
3.5
 11
141
 21
25.75
  0
LINE
  8
0
 10
141
 20
25.75
 11
122.5
 21
25.75
  0
LINE
  8
0
 10
122.5
 20
25.75
 11
122.5
 21
28.75
  0
LINE
  8
0
 10
122.5
 20
28.75
 11
141
 21
28.75
  0
LINE
  8
0
 10
141
 20
28.75
 11
141
 21
54
  0
LINE
  8
0
 10
141
 20
54
 11
122.5
 21
54
  0
LINE
  8
0
 10
122.5
 20
54
 11
122.5
 21
51
  0
LINE
  8
0
 10
122.5
 20
51
 11
104
 21
51
  0
LINE
  8
0
 10
104
 20
51
 11
104
 21
43.25
  0
LINE
  8
0
 10
104
 20
43.25
 11
100
 21
43.25
  0
LINE
  8
0
 10
100
 20
43.25
 11
100
 21
34.25
  0
LINE
  8
0
 10
100
 20
34.25
 11
104
 21
34.25
  0
LINE
  8
0
 10
104
 20
34.25
 11
104
 21
18.75
  0
LINE
  8
0
 10
104
 20
18.75
 11
100
 21
18.75
  0
LINE
  8
0
 10
100
 20
18.75
 11
100
 21
9.75
  0
LINE
  8
0
 10
100
 20
9.75
 11
104
 21
9.75
  0
LINE
  8
0
 10
104
 20
9.75
 11
104
 21
-5.75
  0
LINE
  8
0
 10
104
 20
-5.75
 11
100
 21
-5.75
  0
LINE
  8
0
 10
100
 20
-5.75
 11
100
 21
-14.75
  0
LINE
  8
0
 10
100
 20
-14.75
 11
104
 21
-14.75
  0
LINE
  8
0
 10
104
 20
-14.75
 11
104
 21
-30.25
  0
LINE
  8
0
 10
104
 20
-30.25
 11
100
 21
-30.25
  0
LINE
  8
0
 10
100
 20
-30.25
 11
100
 21
-39.25
  0
LINE
  8
0
 10
100
 20
-39.25
 11
104
 21
-39.25
  0
LINE
  8
0
 10
104
 20
-39.25
 11
104
 21
-47
  0
LINE
  8
0
 10
104
 20
-47
 11
122.5
 21
-47
  0
LINE
  8
0
 10
122.5
 20
-47
 11
122.5
 21
-51
  0
LINE
  8
0
 10
122.5
 20
-51
 11
141
 21
-51
  0
LINE
  8
0
 10
141
 20
-51
 11
141
 21
-24.75
  0
LINE
  8
0
 10
-55
 20
54
 11
-61.2857
 21
54
  0
LINE
  8
0
 10
-61.2857
 20
54
 11
-61.2857
 21
51
  0
LINE
  8
0
 10
-61.2857
 20
51
 11
-67.5714
 21
51
  0
LINE
  8
0
 10
-67.5714
 20
51
 11
-67.5714
 21
54
  0
LINE
  8
0
 10
-67.5714
 20
54
 11
-73.8571
 21
54
  0
LINE
  8
0
 10
-73.8571
 20
54
 11
-73.8571
 21
51
  0
LINE
  8
0
 10
-73.8571
 20
51
 11
-80.1429
 21
51
  0
LINE
  8
0
 10
-80.1429
 20
51
 11
-80.1429
 21
54
  0
LINE
  8
0
 10
-80.1429
 20
54
 11
-86.4286
 21
54
  0
LINE
  8
0
 10
-86.4286
 20
54
 11
-86.4286
 21
51
  0
LINE
  8
0
 10
-86.4286
 20
51
 11
-92.7143
 21
51
  0
LINE
  8
0
 10
-92.7143
 20
51
 11
-92.7143
 21
54
  0
LINE
  8
0
 10
-92.7143
 20
54
 11
-99
 21
54
  0
LINE
  8
0
 10
-99
 20
54
 11
-99
 21
28.75
  0
LINE
  8
0
 10
-99
 20
28.75
 11
-80.5
 21
28.75
  0
LINE
  8
0
 10
-80.5
 20
28.75
 11
-80.5
 21
25.75
  0
LINE
  8
0
 10
-80.5
 20
25.75
 11
-99
 21
25.75
  0
LINE
  8
0
 10
-99
 20
25.75
 11
-99
 21
3.5
  0
LINE
  8
0
 10
-99
 20
3.5
 11
-80.5
 21
3.5
  0
LINE
  8
0
 10
-80.5
 20
3.5
 11
-80.5
 21
0.5
  0
LINE
  8
0
 10
-80.5
 20
0.5
 11
-99
 21
0.5
  0
LINE
  8
0
 10
-99
 20
0.5
 11
-99
 21
-21.75
  0
LINE
  8
0
 10
-99
 20
-21.75
 11
-80.5
 21
-21.75
  0
LINE
  8
0
 10
-80.5
 20
-21.75
 11
-80.5
 21
-24.75
  0
LINE
  8
0
 10
-80.5
 20
-24.75
 11
-99
 21
-24.75
  0
LINE
  8
0
 10
-99
 20
-24.75
 11
-99
 21
-54
  0
LINE
  8
0
 10
-99
 20
-54
 11
-55
 21
-54
  0
LINE
  8
0
 10
-55
 20
-54
 11
-55
 21
54
  0
LINE
  8
0
 10
-62
 20
41.2941
 11
-62
 21
47.647
  0
LINE
  8
0
 10
-62
 20
47.647
 11
-58
 21
47.647
  0
LINE
  8
0
 10
-58
 20
47.647
 11
-58
 21
41.2941
  0
LINE
  8
0
 10
-58
 20
41.2941
 11
-62
 21
41.2941
  0
LINE
  8
0
 10
-62
 20
28.5882
 11
-62
 21
34.9412
  0
LINE
  8
0
 10
-62
 20
34.9412
 11
-58
 21
34.9412
  0
LINE
  8
0
 10
-58
 20
34.9412
 11
-58
 21
28.5882
  0
LINE
  8
0
 10
-58
 20
28.5882
 11
-62
 21
28.5882
  0
LINE
  8
0
 10
-62
 20
15.8823
 11
-62
 21
22.2353
  0
LINE
  8
0
 10
-62
 20
22.2353
 11
-58
 21
22.2353
  0
LINE
  8
0
 10
-58
 20
22.2353
 11
-58
 21
15.8823
  0
LINE
  8
0
 10
-58
 20
15.8823
 11
-62
 21
15.8823
  0
LINE
  8
0
 10
-62
 20
3.17647
 11
-62
 21
9.5294
  0
LINE
  8
0
 10
-62
 20
9.5294
 11
-58
 21
9.5294
  0
LINE
  8
0
 10
-58
 20
9.5294
 11
-58
 21
3.17647
  0
LINE
  8
0
 10
-58
 20
3.17647
 11
-62
 21
3.17647
  0
LINE
  8
0
 10
-62
 20
-9.5294
 11
-62
 21
-3.17647
  0
LINE
  8
0
 10
-62
 20
-3.17647
 11
-58
 21
-3.17647
  0
LINE
  8
0
 10
-58
 20
-3.17647
 11
-58
 21
-9.5294
  0
LINE
  8
0
 10
-58
 20
-9.5294
 11
-62
 21
-9.5294
  0
LINE
  8
0
 10
-62
 20
-22.2353
 11
-62
 21
-15.8823
  0
LINE
  8
0
 10
-62
 20
-15.8823
 11
-58
 21
-15.8823
  0
LINE
  8
0
 10
-58
 20
-15.8823
 11
-58
 21
-22.2353
  0
LINE
  8
0
 10
-58
 20
-22.2353
 11
-62
 21
-22.2353
  0
LINE
  8
0
 10
-62
 20
-34.9412
 11
-62
 21
-28.5882
  0
LINE
  8
0
 10
-62
 20
-28.5882
 11
-58
 21
-28.5882
  0
LINE
  8
0
 10
-58
 20
-28.5882
 11
-58
 21
-34.9412
  0
LINE
  8
0
 10
-58
 20
-34.9412
 11
-62
 21
-34.9412
  0
LINE
  8
0
 10
-67.5714
 20
-51
 11
-67.5714
 21
-47
  0
LINE
  8
0
 10
-67.5714
 20
-47
 11
-62
 21
-47
  0
LINE
  8
0
 10
-62
 20
-47
 11
-62
 21
-41.2941
  0
LINE
  8
0
 10
-62
 20
-41.2941
 11
-58
 21
-41.2941
  0
LINE
  8
0
 10
-58
 20
-41.2941
 11
-58
 21
-47.647
  0
LINE
  8
0
 10
-58
 20
-47.647
 11
-61.2857
 21
-47.647
  0
LINE
  8
0
 10
-61.2857
 20
-47.647
 11
-61.2857
 21
-51
  0
LINE
  8
0
 10
-61.2857
 20
-51
 11
-67.5714
 21
-51
  0
LINE
  8
0
 10
-80.1429
 20
-51
 11
-80.1429
 21
-47
  0
LINE
  8
0
 10
-80.1429
 20
-47
 11
-73.8571
 21
-47
  0
LINE
  8
0
 10
-73.8571
 20
-47
 11
-73.8571
 21
-51
  0
LINE
  8
0
 10
-73.8571
 20
-51
 11
-80.1429
 21
-51
  0
LINE
  8
0
 10
-92.7143
 20
-51
 11
-92.7143
 21
-47
  0
LINE
  8
0
 10
-92.7143
 20
-47
 11
-86.4286
 21
-47
  0
LINE
  8
0
 10
-86.4286
 20
-47
 11
-86.4286
 21
-51
  0
LINE
  8
0
 10
-86.4286
 20
-51
 11
-92.7143
 21
-51
  0
LINE
  8
0
 10
51
 20
-47.647
 11
54
 21
-47.647
  0
LINE
  8
0
 10
54
 20
-47.647
 11
54
 21
-41.2941
  0
LINE
  8
0
 10
54
 20
-41.2941
 11
51
 21
-41.2941
  0
LINE
  8
0
 10
51
 20
-41.2941
 11
51
 21
-34.9412
  0
LINE
  8
0
 10
51
 20
-34.9412
 11
54
 21
-34.9412
  0
LINE
  8
0
 10
54
 20
-34.9412
 11
54
 21
-28.5882
  0
LINE
  8
0
 10
54
 20
-28.5882
 11
51
 21
-28.5882
  0
LINE
  8
0
 10
51
 20
-28.5882
 11
51
 21
-22.2353
  0
LINE
  8
0
 10
51
 20
-22.2353
 11
54
 21
-22.2353
  0
LINE
  8
0
 10
54
 20
-22.2353
 11
54
 21
-15.8823
  0
LINE
  8
0
 10
54
 20
-15.8823
 11
51
 21
-15.8823
  0
LINE
  8
0
 10
51
 20
-15.8823
 11
51
 21
-9.5294
  0
LINE
  8
0
 10
51
 20
-9.5294
 11
54
 21
-9.5294
  0
LINE
  8
0
 10
54
 20
-9.5294
 11
54
 21
-3.17647
  0
LINE
  8
0
 10
54
 20
-3.17647
 11
51
 21
-3.17647
  0
LINE
  8
0
 10
51
 20
-3.17647
 11
51
 21
3.17645
  0
LINE
  8
0
 10
51
 20
3.17645
 11
54
 21
3.17645
  0
LINE
  8
0
 10
54
 20
3.17645
 11
54
 21
9.5294
  0
LINE
  8
0
 10
54
 20
9.5294
 11
51
 21
9.5294
  0
LINE
  8
0
 10
51
 20
9.5294
 11
51
 21
15.8823
  0
LINE
  8
0
 10
51
 20
15.8823
 11
54
 21
15.8823
  0
LINE
  8
0
 10
54
 20
15.8823
 11
54
 21
22.2353
  0
LINE
  8
0
 10
54
 20
22.2353
 11
51
 21
22.2353
  0
LINE
  8
0
 10
51
 20
22.2353
 11
51
 21
28.5882
  0
LINE
  8
0
 10
51
 20
28.5882
 11
54
 21
28.5882
  0
LINE
  8
0
 10
54
 20
28.5882
 11
54
 21
34.9412
  0
LINE
  8
0
 10
54
 20
34.9412
 11
51
 21
34.9412
  0
LINE
  8
0
 10
51
 20
34.9412
 11
51
 21
41.2941
  0
LINE
  8
0
 10
51
 20
41.2941
 11
54
 21
41.2941
  0
LINE
  8
0
 10
54
 20
41.2941
 11
54
 21
47.647
  0
LINE
  8
0
 10
54
 20
47.647
 11
51
 21
47.647
  0
LINE
  8
0
 10
51
 20
47.647
 11
51
 21
51
  0
LINE
  8
0
 10
51
 20
51
 11
44.2
 21
51
  0
LINE
  8
0
 10
44.2
 20
51
 11
44.2
 21
53.9995
  0
LINE
  8
0
 10
44.2
 20
53.9995
 11
37.4
 21
53.9995
  0
LINE
  8
0
 10
37.4
 20
53.9995
 11
37.4
 21
51
  0
LINE
  8
0
 10
37.4
 20
51
 11
30.6
 21
51
  0
LINE
  8
0
 10
30.6
 20
51
 11
30.6
 21
53.9995
  0
LINE
  8
0
 10
30.6
 20
53.9995
 11
23.8
 21
53.9995
  0
LINE
  8
0
 10
23.8
 20
53.9995
 11
23.8
 21
51
  0
LINE
  8
0
 10
23.8
 20
51
 11
17
 21
51
  0
LINE
  8
0
 10
17
 20
51
 11
17
 21
53.9995
  0
LINE
  8
0
 10
17
 20
53.9995
 11
10.2
 21
53.9995
  0
LINE
  8
0
 10
10.2
 20
53.9995
 11
10.2
 21
51
  0
LINE
  8
0
 10
10.2
 20
51
 11
3.39999
 21
51
  0
LINE
  8
0
 10
3.39999
 20
51
 11
3.39999
 21
53.9995
  0
LINE
  8
0
 10
3.39999
 20
53.9995
 11
-3.39999
 21
53.9995
  0
LINE
  8
0
 10
-3.39999
 20
53.9995
 11
-3.39999
 21
51
  0
LINE
  8
0
 10
-3.39999
 20
51
 11
-10.2
 21
51
  0
LINE
  8
0
 10
-10.2
 20
51
 11
-10.2
 21
53.9995
  0
LINE
  8
0
 10
-10.2
 20
53.9995
 11
-17
 21
53.9995
  0
LINE
  8
0
 10
-17
 20
53.9995
 11
-17
 21
51
  0
LINE
  8
0
 10
-17
 20
51
 11
-23.8
 21
51
  0
LINE
  8
0
 10
-23.8
 20
51
 11
-23.8
 21
53.9995
  0
LINE
  8
0
 10
-23.8
 20
53.9995
 11
-30.6
 21
53.9995
  0
LINE
  8
0
 10
-30.6
 20
53.9995
 11
-30.6
 21
51
  0
LINE
  8
0
 10
-30.6
 20
51
 11
-37.4
 21
51
  0
LINE
  8
0
 10
-37.4
 20
51
 11
-37.4
 21
53.9995
  0
LINE
  8
0
 10
-37.4
 20
53.9995
 11
-44.2
 21
53.9995
  0
LINE
  8
0
 10
-44.2
 20
53.9995
 11
-44.2
 21
51
  0
LINE
  8
0
 10
-44.2
 20
51
 11
-51
 21
51
  0
LINE
  8
0
 10
-51
 20
51
 11
-51
 21
47.647
  0
LINE
  8
0
 10
-51
 20
47.647
 11
-54
 21
47.647
  0
LINE
  8
0
 10
-54
 20
47.647
 11
-54
 21
41.2941
  0
LINE
  8
0
 10
-54
 20
41.2941
 11
-51
 21
41.2941
  0
LINE
  8
0
 10
-51
 20
41.2941
 11
-51
 21
34.9412
  0
LINE
  8
0
 10
-51
 20
34.9412
 11
-54
 21
34.9412
  0
LINE
  8
0
 10
-54
 20
34.9412
 11
-54
 21
28.5882
  0
LINE
  8
0
 10
-54
 20
28.5882
 11
-51
 21
28.5882
  0
LINE
  8
0
 10
-51
 20
28.5882
 11
-51
 21
22.2353
  0
LINE
  8
0
 10
-51
 20
22.2353
 11
-54
 21
22.2353
  0
LINE
  8
0
 10
-54
 20
22.2353
 11
-54
 21
15.8823
  0
LINE
  8
0
 10
-54
 20
15.8823
 11
-51
 21
15.8823
  0
LINE
  8
0
 10
-51
 20
15.8823
 11
-51
 21
9.5294
  0
LINE
  8
0
 10
-51
 20
9.5294
 11
-54
 21
9.5294
  0
LINE
  8
0
 10
-54
 20
9.5294
 11
-54
 21
3.17645
  0
LINE
  8
0
 10
-54
 20
3.17645
 11
-51
 21
3.17645
  0
LINE
  8
0
 10
-51
 20
3.17645
 11
-51
 21
-3.17647
  0
LINE
  8
0
 10
-51
 20
-3.17647
 11
-54
 21
-3.17647
  0
LINE
  8
0
 10
-54
 20
-3.17647
 11
-54
 21
-9.5294
  0
LINE
  8
0
 10
-54
 20
-9.5294
 11
-51
 21
-9.5294
  0
LINE
  8
0
 10
-51
 20
-9.5294
 11
-51
 21
-15.8823
  0
LINE
  8
0
 10
-51
 20
-15.8823
 11
-54
 21
-15.8823
  0
LINE
  8
0
 10
-54
 20
-15.8823
 11
-54
 21
-22.2353
  0
LINE
  8
0
 10
-54
 20
-22.2353
 11
-51
 21
-22.2353
  0
LINE
  8
0
 10
-51
 20
-22.2353
 11
-51
 21
-28.5882
  0
LINE
  8
0
 10
-51
 20
-28.5882
 11
-54
 21
-28.5882
  0
LINE
  8
0
 10
-54
 20
-28.5882
 11
-54
 21
-34.9412
  0
LINE
  8
0
 10
-54
 20
-34.9412
 11
-51
 21
-34.9412
  0
LINE
  8
0
 10
-51
 20
-34.9412
 11
-51
 21
-41.2941
  0
LINE
  8
0
 10
-51
 20
-41.2941
 11
-54
 21
-41.2941
  0
LINE
  8
0
 10
-54
 20
-41.2941
 11
-54
 21
-47.647
  0
LINE
  8
0
 10
-54
 20
-47.647
 11
-51
 21
-47.647
  0
LINE
  8
0
 10
-51
 20
-47.647
 11
-51
 21
-53.9995
  0
LINE
  8
0
 10
-51
 20
-53.9995
 11
51
 21
-53.9995
  0
LINE
  8
0
 10
51
 20
-53.9995
 11
51
 21
-47.647
  0
LINE
  8
0
 10
-1.5
 20
34.25
 11
-1.5
 21
43.25
  0
LINE
  8
0
 10
-1.5
 20
43.25
 11
1.5
 21
43.25
  0
LINE
  8
0
 10
1.5
 20
43.25
 11
1.5
 21
34.25
  0
LINE
  8
0
 10
1.5
 20
34.25
 11
-1.5
 21
34.25
  0
LINE
  8
0
 10
-27.75
 20
34.25
 11
-27.75
 21
43.25
  0
LINE
  8
0
 10
-27.75
 20
43.25
 11
-24.75
 21
43.25
  0
LINE
  8
0
 10
-24.75
 20
43.25
 11
-24.75
 21
34.25
  0
LINE
  8
0
 10
-24.75
 20
34.25
 11
-27.75
 21
34.25
  0
LINE
  8
0
 10
24.75
 20
34.25
 11
24.75
 21
43.25
  0
LINE
  8
0
 10
24.75
 20
43.25
 11
27.75
 21
43.25
  0
LINE
  8
0
 10
27.75
 20
43.25
 11
27.75
 21
34.25
  0
LINE
  8
0
 10
27.75
 20
34.25
 11
24.75
 21
34.25
  0
LINE
  8
0
 10
-42.75
 20
25.75
 11
-42.75
 21
28.75
  0
LINE
  8
0
 10
-42.75
 20
28.75
 11
-33.75
 21
28.75
  0
LINE
  8
0
 10
-33.75
 20
28.75
 11
-33.75
 21
25.75
  0
LINE
  8
0
 10
-33.75
 20
25.75
 11
-42.75
 21
25.75
  0
LINE
  8
0
 10
-17.25
 20
25.75
 11
-17.25
 21
28.75
  0
LINE
  8
0
 10
-17.25
 20
28.75
 11
-8.25
 21
28.75
  0
LINE
  8
0
 10
-8.25
 20
28.75
 11
-8.25
 21
25.75
  0
LINE
  8
0
 10
-8.25
 20
25.75
 11
-17.25
 21
25.75
  0
LINE
  8
0
 10
8.25
 20
25.75
 11
8.25
 21
28.75
  0
LINE
  8
0
 10
8.25
 20
28.75
 11
17.25
 21
28.75
  0
LINE
  8
0
 10
17.25
 20
28.75
 11
17.25
 21
25.75
  0
LINE
  8
0
 10
17.25
 20
25.75
 11
8.25
 21
25.75
  0
LINE
  8
0
 10
33.75
 20
25.75
 11
33.75
 21
28.75
  0
LINE
  8
0
 10
33.75
 20
28.75
 11
42.75
 21
28.75
  0
LINE
  8
0
 10
42.75
 20
28.75
 11
42.75
 21
25.75
  0
LINE
  8
0
 10
42.75
 20
25.75
 11
33.75
 21
25.75
  0
LINE
  8
0
 10
-27.75
 20
9.75
 11
-27.75
 21
18.75
  0
LINE
  8
0
 10
-27.75
 20
18.75
 11
-24.75
 21
18.75
  0
LINE
  8
0
 10
-24.75
 20
18.75
 11
-24.75
 21
9.75
  0
LINE
  8
0
 10
-24.75
 20
9.75
 11
-27.75
 21
9.75
  0
LINE
  8
0
 10
-1.5
 20
9.75
 11
-1.5
 21
18.75
  0
LINE
  8
0
 10
-1.5
 20
18.75
 11
1.5
 21
18.75
  0
LINE
  8
0
 10
1.5
 20
18.75
 11
1.5
 21
9.75
  0
LINE
  8
0
 10
1.5
 20
9.75
 11
-1.5
 21
9.75
  0
LINE
  8
0
 10
24.75
 20
9.75
 11
24.75
 21
18.75
  0
LINE
  8
0
 10
24.75
 20
18.75
 11
27.75
 21
18.75
  0
LINE
  8
0
 10
27.75
 20
18.75
 11
27.75
 21
9.75
  0
LINE
  8
0
 10
27.75
 20
9.75
 11
24.75
 21
9.75
  0
LINE
  8
0
 10
33.75
 20
0.5
 11
33.75
 21
3.5
  0
LINE
  8
0
 10
33.75
 20
3.5
 11
42.75
 21
3.5
  0
LINE
  8
0
 10
42.75
 20
3.5
 11
42.75
 21
0.5
  0
LINE
  8
0
 10
42.75
 20
0.5
 11
33.75
 21
0.5
  0
LINE
  8
0
 10
8.25
 20
0.5
 11
8.25
 21
3.5
  0
LINE
  8
0
 10
8.25
 20
3.5
 11
17.25
 21
3.5
  0
LINE
  8
0
 10
17.25
 20
3.5
 11
17.25
 21
0.5
  0
LINE
  8
0
 10
17.25
 20
0.5
 11
8.25
 21
0.5
  0
LINE
  8
0
 10
-42.75
 20
0.5
 11
-42.75
 21
3.5
  0
LINE
  8
0
 10
-42.75
 20
3.5
 11
-33.75
 21
3.5
  0
LINE
  8
0
 10
-33.75
 20
3.5
 11
-33.75
 21
0.5
  0
LINE
  8
0
 10
-33.75
 20
0.5
 11
-42.75
 21
0.5
  0
LINE
  8
0
 10
-17.25
 20
0.5
 11
-17.25
 21
3.5
  0
LINE
  8
0
 10
-17.25
 20
3.5
 11
-8.25
 21
3.5
  0
LINE
  8
0
 10
-8.25
 20
3.5
 11
-8.25
 21
0.5
  0
LINE
  8
0
 10
-8.25
 20
0.5
 11
-17.25
 21
0.5
  0
LINE
  8
0
 10
24.75
 20
-14.75
 11
24.75
 21
-5.75
  0
LINE
  8
0
 10
24.75
 20
-5.75
 11
27.75
 21
-5.75
  0
LINE
  8
0
 10
27.75
 20
-5.75
 11
27.75
 21
-14.75
  0
LINE
  8
0
 10
27.75
 20
-14.75
 11
24.75
 21
-14.75
  0
LINE
  8
0
 10
-27.75
 20
-14.75
 11
-27.75
 21
-5.75
  0
LINE
  8
0
 10
-27.75
 20
-5.75
 11
-24.75
 21
-5.75
  0
LINE
  8
0
 10
-24.75
 20
-5.75
 11
-24.75
 21
-14.75
  0
LINE
  8
0
 10
-24.75
 20
-14.75
 11
-27.75
 21
-14.75
  0
LINE
  8
0
 10
-1.5
 20
-14.75
 11
-1.5
 21
-5.75
  0
LINE
  8
0
 10
-1.5
 20
-5.75
 11
1.5
 21
-5.75
  0
LINE
  8
0
 10
1.5
 20
-5.75
 11
1.5
 21
-14.75
  0
LINE
  8
0
 10
1.5
 20
-14.75
 11
-1.5
 21
-14.75
  0
LINE
  8
0
 10
8.25
 20
-24.75
 11
8.25
 21
-21.75
  0
LINE
  8
0
 10
8.25
 20
-21.75
 11
17.25
 21
-21.75
  0
LINE
  8
0
 10
17.25
 20
-21.75
 11
17.25
 21
-24.75
  0
LINE
  8
0
 10
17.25
 20
-24.75
 11
8.25
 21
-24.75
  0
LINE
  8
0
 10
33.75
 20
-24.75
 11
33.75
 21
-21.75
  0
LINE
  8
0
 10
33.75
 20
-21.75
 11
42.75
 21
-21.75
  0
LINE
  8
0
 10
42.75
 20
-21.75
 11
42.75
 21
-24.75
  0
LINE
  8
0
 10
42.75
 20
-24.75
 11
33.75
 21
-24.75
  0
LINE
  8
0
 10
-42.75
 20
-24.75
 11
-42.75
 21
-21.75
  0
LINE
  8
0
 10
-42.75
 20
-21.75
 11
-33.75
 21
-21.75
  0
LINE
  8
0
 10
-33.75
 20
-21.75
 11
-33.75
 21
-24.75
  0
LINE
  8
0
 10
-33.75
 20
-24.75
 11
-42.75
 21
-24.75
  0
LINE
  8
0
 10
-17.25
 20
-24.75
 11
-17.25
 21
-21.75
  0
LINE
  8
0
 10
-17.25
 20
-21.75
 11
-8.25
 21
-21.75
  0
LINE
  8
0
 10
-8.25
 20
-21.75
 11
-8.25
 21
-24.75
  0
LINE
  8
0
 10
-8.25
 20
-24.75
 11
-17.25
 21
-24.75
  0
LINE
  8
0
 10
-27.75
 20
-39.25
 11
-27.75
 21
-30.25
  0
LINE
  8
0
 10
-27.75
 20
-30.25
 11
-24.75
 21
-30.25
  0
LINE
  8
0
 10
-24.75
 20
-30.25
 11
-24.75
 21
-39.25
  0
LINE
  8
0
 10
-24.75
 20
-39.25
 11
-27.75
 21
-39.25
  0
LINE
  8
0
 10
-1.5
 20
-39.25
 11
-1.5
 21
-30.25
  0
LINE
  8
0
 10
-1.5
 20
-30.25
 11
1.5
 21
-30.25
  0
LINE
  8
0
 10
1.5
 20
-30.25
 11
1.5
 21
-39.25
  0
LINE
  8
0
 10
1.5
 20
-39.25
 11
-1.5
 21
-39.25
  0
LINE
  8
0
 10
24.75
 20
-39.25
 11
24.75
 21
-30.25
  0
LINE
  8
0
 10
24.75
 20
-30.25
 11
27.75
 21
-30.25
  0
LINE
  8
0
 10
27.75
 20
-30.25
 11
27.75
 21
-39.25
  0
LINE
  8
0
 10
27.75
 20
-39.25
 11
24.75
 21
-39.25
  0
LINE
  8
0
 10
37.4
 20
-51
 11
37.4
 21
-47
  0
LINE
  8
0
 10
37.4
 20
-47
 11
44.2
 21
-47
  0
LINE
  8
0
 10
44.2
 20
-47
 11
44.2
 21
-51
  0
LINE
  8
0
 10
44.2
 20
-51
 11
37.4
 21
-51
  0
LINE
  8
0
 10
23.8
 20
-51
 11
23.8
 21
-47
  0
LINE
  8
0
 10
23.8
 20
-47
 11
30.6
 21
-47
  0
LINE
  8
0
 10
30.6
 20
-47
 11
30.6
 21
-51
  0
LINE
  8
0
 10
30.6
 20
-51
 11
23.8
 21
-51
  0
LINE
  8
0
 10
10.2
 20
-51
 11
10.2
 21
-47
  0
LINE
  8
0
 10
10.2
 20
-47
 11
17
 21
-47
  0
LINE
  8
0
 10
17
 20
-47
 11
17
 21
-51
  0
LINE
  8
0
 10
17
 20
-51
 11
10.2
 21
-51
  0
LINE
  8
0
 10
-3.39999
 20
-51
 11
-3.39999
 21
-47
  0
LINE
  8
0
 10
-3.39999
 20
-47
 11
3.39999
 21
-47
  0
LINE
  8
0
 10
3.39999
 20
-47
 11
3.39999
 21
-51
  0
LINE
  8
0
 10
3.39999
 20
-51
 11
-3.39999
 21
-51
  0
LINE
  8
0
 10
-44.2
 20
-51
 11
-44.2
 21
-47
  0
LINE
  8
0
 10
-44.2
 20
-47
 11
-37.4
 21
-47
  0
LINE
  8
0
 10
-37.4
 20
-47
 11
-37.4
 21
-51
  0
LINE
  8
0
 10
-37.4
 20
-51
 11
-44.2
 21
-51
  0
LINE
  8
0
 10
-30.6
 20
-51
 11
-30.6
 21
-47
  0
LINE
  8
0
 10
-30.6
 20
-47
 11
-23.8
 21
-47
  0
LINE
  8
0
 10
-23.8
 20
-47
 11
-23.8
 21
-51
  0
LINE
  8
0
 10
-23.8
 20
-51
 11
-30.6
 21
-51
  0
LINE
  8
0
 10
-17
 20
-51
 11
-17
 21
-47
  0
LINE
  8
0
 10
-17
 20
-47
 11
-10.2
 21
-47
  0
LINE
  8
0
 10
-10.2
 20
-47
 11
-10.2
 21
-51
  0
LINE
  8
0
 10
-10.2
 20
-51
 11
-17
 21
-51
  0
LINE
  8
0
 10
-27.75
 20
-77.5
 11
-24.75
 21
-77.5
  0
LINE
  8
0
 10
-24.75
 20
-77.5
 11
-24.75
 21
-96
  0
LINE
  8
0
 10
-24.75
 20
-96
 11
-1.5
 21
-96
  0
LINE
  8
0
 10
-1.5
 20
-96
 11
-1.5
 21
-77.5
  0
LINE
  8
0
 10
-1.5
 20
-77.5
 11
1.5
 21
-77.5
  0
LINE
  8
0
 10
1.5
 20
-77.5
 11
1.5
 21
-96
  0
LINE
  8
0
 10
1.5
 20
-96
 11
24.75
 21
-96
  0
LINE
  8
0
 10
24.75
 20
-96
 11
24.75
 21
-77.5
  0
LINE
  8
0
 10
24.75
 20
-77.5
 11
27.75
 21
-77.5
  0
LINE
  8
0
 10
27.75
 20
-77.5
 11
27.75
 21
-96
  0
LINE
  8
0
 10
27.75
 20
-96
 11
51
 21
-96
  0
LINE
  8
0
 10
51
 20
-96
 11
51
 21
-89.7143
  0
LINE
  8
0
 10
51
 20
-89.7143
 11
54
 21
-89.7143
  0
LINE
  8
0
 10
54
 20
-89.7143
 11
54
 21
-83.4286
  0
LINE
  8
0
 10
54
 20
-83.4286
 11
51
 21
-83.4286
  0
LINE
  8
0
 10
51
 20
-83.4286
 11
51
 21
-77.1429
  0
LINE
  8
0
 10
51
 20
-77.1429
 11
54
 21
-77.1429
  0
LINE
  8
0
 10
54
 20
-77.1429
 11
54
 21
-70.8571
  0
LINE
  8
0
 10
54
 20
-70.8571
 11
51
 21
-70.8571
  0
LINE
  8
0
 10
51
 20
-70.8571
 11
51
 21
-64.5714
  0
LINE
  8
0
 10
51
 20
-64.5714
 11
54
 21
-64.5714
  0
LINE
  8
0
 10
54
 20
-64.5714
 11
54
 21
-58.2857
  0
LINE
  8
0
 10
54
 20
-58.2857
 11
51
 21
-58.2857
  0
LINE
  8
0
 10
51
 20
-58.2857
 11
51
 21
-59
  0
LINE
  8
0
 10
51
 20
-59
 11
44.2
 21
-59
  0
LINE
  8
0
 10
44.2
 20
-59
 11
44.2
 21
-55
  0
LINE
  8
0
 10
44.2
 20
-55
 11
37.4
 21
-55
  0
LINE
  8
0
 10
37.4
 20
-55
 11
37.4
 21
-59
  0
LINE
  8
0
 10
37.4
 20
-59
 11
30.6
 21
-59
  0
LINE
  8
0
 10
30.6
 20
-59
 11
30.6
 21
-55
  0
LINE
  8
0
 10
30.6
 20
-55
 11
23.8
 21
-55
  0
LINE
  8
0
 10
23.8
 20
-55
 11
23.8
 21
-59
  0
LINE
  8
0
 10
23.8
 20
-59
 11
17
 21
-59
  0
LINE
  8
0
 10
17
 20
-59
 11
17
 21
-55
  0
LINE
  8
0
 10
17
 20
-55
 11
10.2
 21
-55
  0
LINE
  8
0
 10
10.2
 20
-55
 11
10.2
 21
-59
  0
LINE
  8
0
 10
10.2
 20
-59
 11
3.39999
 21
-59
  0
LINE
  8
0
 10
3.39999
 20
-59
 11
3.39999
 21
-55
  0
LINE
  8
0
 10
3.39999
 20
-55
 11
-3.39999
 21
-55
  0
LINE
  8
0
 10
-3.39999
 20
-55
 11
-3.39999
 21
-59
  0
LINE
  8
0
 10
-3.39999
 20
-59
 11
-10.2
 21
-59
  0
LINE
  8
0
 10
-10.2
 20
-59
 11
-10.2
 21
-55
  0
LINE
  8
0
 10
-10.2
 20
-55
 11
-17
 21
-55
  0
LINE
  8
0
 10
-17
 20
-55
 11
-17
 21
-59
  0
LINE
  8
0
 10
-17
 20
-59
 11
-23.8
 21
-59
  0
LINE
  8
0
 10
-23.8
 20
-59
 11
-23.8
 21
-55
  0
LINE
  8
0
 10
-23.8
 20
-55
 11
-30.6
 21
-55
  0
LINE
  8
0
 10
-30.6
 20
-55
 11
-30.6
 21
-59
  0
LINE
  8
0
 10
-30.6
 20
-59
 11
-37.4
 21
-59
  0
LINE
  8
0
 10
-37.4
 20
-59
 11
-37.4
 21
-55
  0
LINE
  8
0
 10
-37.4
 20
-55
 11
-44.2
 21
-55
  0
LINE
  8
0
 10
-44.2
 20
-55
 11
-44.2
 21
-59
  0
LINE
  8
0
 10
-44.2
 20
-59
 11
-51
 21
-59
  0
LINE
  8
0
 10
-51
 20
-59
 11
-51
 21
-58.2857
  0
LINE
  8
0
 10
-51
 20
-58.2857
 11
-54
 21
-58.2857
  0
LINE
  8
0
 10
-54
 20
-58.2857
 11
-54
 21
-64.5714
  0
LINE
  8
0
 10
-54
 20
-64.5714
 11
-51
 21
-64.5714
  0
LINE
  8
0
 10
-51
 20
-64.5714
 11
-51
 21
-70.8571
  0
LINE
  8
0
 10
-51
 20
-70.8571
 11
-54
 21
-70.8571
  0
LINE
  8
0
 10
-54
 20
-70.8571
 11
-54
 21
-77.1429
  0
LINE
  8
0
 10
-54
 20
-77.1429
 11
-51
 21
-77.1429
  0
LINE
  8
0
 10
-51
 20
-77.1429
 11
-51
 21
-83.4286
  0
LINE
  8
0
 10
-51
 20
-83.4286
 11
-54
 21
-83.4286
  0
LINE
  8
0
 10
-54
 20
-83.4286
 11
-54
 21
-89.7143
  0
LINE
  8
0
 10
-54
 20
-89.7143
 11
-51
 21
-89.7143
  0
LINE
  8
0
 10
-51
 20
-89.7143
 11
-51
 21
-96
  0
LINE
  8
0
 10
-51
 20
-96
 11
-27.75
 21
-96
  0
LINE
  8
0
 10
-27.75
 20
-96
 11
-27.75
 21
-77.5
  0
ENDSEC
  0
SECTION
  2
OBJECTS
  0
DICTIONARY
  0
ENDSEC
  0
EOF
