<?xml version="1.0" standalone="no"?>
<!DOCTYPE svg PUBLIC "-//W3C//DTD SVG 1.1//EN" "http://www.w3.org/Graphics/SVG/1.1/DTD/svg11.dtd">
<svg width="324mm" height="321mm" viewBox="-99 -225 324 321" xmlns="http://www.w3.org/2000/svg" version="1.1">
<title>OpenSCAD Model</title>
<path d="
M -33.75,-188 L -27.75,-188 L -27.75,-206.5 L -24.75,-206.5 L -24.75,-188 L -17.25,-188
 L -17.25,-184 L -8.25,-184 L -8.25,-188 L -1.5,-188 L -1.5,-206.5 L 1.5,-206.5
 L 1.5,-188 L 8.25,-188 L 8.25,-184 L 17.25,-184 L 17.25,-188 L 24.75,-188
 L 24.75,-206.5 L 27.75,-206.5 L 27.75,-188 L 33.75,-188 L 33.75,-184 L 42.75,-184
 L 42.75,-188 L 51,-188 L 51,-206.5 L 54,-206.5 L 54,-225 L -54,-225
 L -54,-206.5 L -51,-206.5 L -51,-188 L -42.75,-188 L -42.75,-184 L -33.75,-184
 z
M -33.75,-146 L -27.75,-146 L -27.75,-164.5 L -24.75,-164.5 L -24.75,-146 L -17.25,-146
 L -17.25,-142 L -8.25,-142 L -8.25,-146 L -1.5,-146 L -1.5,-164.5 L 1.5,-164.5
 L 1.5,-146 L 8.25,-146 L 8.25,-142 L 17.25,-142 L 17.25,-146 L 24.75,-146
 L 24.75,-164.5 L 27.75,-164.5 L 27.75,-146 L 33.75,-146 L 33.75,-142 L 42.75,-142
 L 42.75,-146 L 51,-146 L 51,-164.5 L 54,-164.5 L 54,-183 L -54,-183
 L -54,-164.5 L -51,-164.5 L -51,-146 L -42.75,-146 L -42.75,-142 L -33.75,-142
 z
M -33.75,-104 L -27.75,-104 L -27.75,-122.5 L -24.75,-122.5 L -24.75,-104 L -17.25,-104
 L -17.25,-100 L -8.25,-100 L -8.25,-104 L -1.5,-104 L -1.5,-122.5 L 1.5,-122.5
 L 1.5,-104 L 8.25,-104 L 8.25,-100 L 17.25,-100 L 17.25,-104 L 24.75,-104
 L 24.75,-122.5 L 27.75,-122.5 L 27.75,-104 L 33.75,-104 L 33.75,-100 L 42.75,-100
 L 42.75,-104 L 51,-104 L 51,-122.5 L 54,-122.5 L 54,-141 L -54,-141
 L -54,-122.5 L -51,-122.5 L -51,-104 L -42.75,-104 L -42.75,-100 L -33.75,-100
 z
M 51,-61.2857 L 54,-61.2857 L 54,-67.5714 L 51,-67.5714 L 51,-73.8571 L 54,-73.8571
 L 54,-80.1429 L 51,-80.1429 L 51,-86.4286 L 54,-86.4286 L 54,-92.7143 L 51,-92.7143
 L 51,-99 L 27.75,-99 L 27.75,-80.5 L 24.75,-80.5 L 24.75,-99 L 1.5,-99
 L 1.5,-80.5 L -1.5,-80.5 L -1.5,-99 L -24.75,-99 L -24.75,-80.5 L -27.75,-80.5
 L -27.75,-99 L -51,-99 L -51,-92.7143 L -54,-92.7143 L -54,-86.4286 L -51,-86.4286
 L -51,-80.1429 L -54,-80.1429 L -54,-73.8571 L -51,-73.8571 L -51,-67.5714 L -54,-67.5714
 L -54,-61.2857 L -51,-61.2857 L -51,-55 L 51,-55 z
M 37.4,-58 L 37.4,-62 L 44.2,-62 L 44.2,-58 z
M 23.8,-58 L 23.8,-62 L 30.6,-62 L 30.6,-58 z
M 10.2,-58 L 10.2,-62 L 17,-62 L 17,-58 z
M -3.39999,-58 L -3.39999,-62 L 3.39999,-62 L 3.39999,-58 z
M -44.2,-58 L -44.2,-62 L -37.4,-62 L -37.4,-58 z
M -30.6,-58 L -30.6,-62 L -23.8,-62 L -23.8,-58 z
M -17,-58 L -17,-62 L -10.2,-62 L -10.2,-58 z
M 99,24.75 L 80.5,24.75 L 80.5,21.75 L 99,21.75 L 99,-0.5 L 80.5,-0.5
 L 80.5,-3.5 L 99,-3.5 L 99,-25.75 L 80.5,-25.75 L 80.5,-28.75 L 99,-28.75
 L 99,-54 L 92.7143,-54 L 92.7143,-51 L 86.4286,-51 L 86.4286,-54 L 80.1429,-54
 L 80.1429,-51 L 73.8571,-51 L 73.8571,-54 L 67.5714,-54 L 67.5714,-51 L 61.2857,-51
 L 61.2857,-54 L 55,-54 L 55,54 L 99,54 z
M 58,-41.2941 L 58,-47.647 L 62,-47.647 L 62,-41.2941 z
M 58,-28.5882 L 58,-34.9412 L 62,-34.9412 L 62,-28.5882 z
M 58,-15.8823 L 58,-22.2353 L 62,-22.2353 L 62,-15.8823 z
M 58,-3.17647 L 58,-9.5294 L 62,-9.5294 L 62,-3.17647 z
M 58,9.5294 L 58,3.17647 L 62,3.17647 L 62,9.5294 z
M 58,22.2353 L 58,15.8823 L 62,15.8823 L 62,22.2353 z
M 58,34.9412 L 58,28.5882 L 62,28.5882 L 62,34.9412 z
M 61.2857,51 L 61.2857,47.647 L 58,47.647 L 58,41.2941 L 62,41.2941 L 62,47
 L 67.5714,47 L 67.5714,51 z
M 73.8571,51 L 73.8571,47 L 80.1429,47 L 80.1429,51 z
M 86.4286,51 L 86.4286,47 L 92.7143,47 L 92.7143,51 z
M 225,24.75 L 206.5,24.75 L 206.5,21.75 L 225,21.75 L 225,-0.5 L 206.5,-0.5
 L 206.5,-3.5 L 225,-3.5 L 225,-25.75 L 206.5,-25.75 L 206.5,-28.75 L 225,-28.75
 L 225,-54 L 206.5,-54 L 206.5,-51 L 188,-51 L 188,-43.25 L 184,-43.25
 L 184,-34.25 L 188,-34.25 L 188,-18.75 L 184,-18.75 L 184,-9.75 L 188,-9.75
 L 188,5.75 L 184,5.75 L 184,14.75 L 188,14.75 L 188,30.25 L 184,30.25
 L 184,39.25 L 188,39.25 L 188,47 L 206.5,47 L 206.5,51 L 225,51
 z
M 183,24.75 L 164.5,24.75 L 164.5,21.75 L 183,21.75 L 183,-0.5 L 164.5,-0.5
 L 164.5,-3.5 L 183,-3.5 L 183,-25.75 L 164.5,-25.75 L 164.5,-28.75 L 183,-28.75
 L 183,-54 L 164.5,-54 L 164.5,-51 L 146,-51 L 146,-43.25 L 142,-43.25
 L 142,-34.25 L 146,-34.25 L 146,-18.75 L 142,-18.75 L 142,-9.75 L 146,-9.75
 L 146,5.75 L 142,5.75 L 142,14.75 L 146,14.75 L 146,30.25 L 142,30.25
 L 142,39.25 L 146,39.25 L 146,47 L 164.5,47 L 164.5,51 L 183,51
 z
M 141,24.75 L 122.5,24.75 L 122.5,21.75 L 141,21.75 L 141,-0.5 L 122.5,-0.5
 L 122.5,-3.5 L 141,-3.5 L 141,-25.75 L 122.5,-25.75 L 122.5,-28.75 L 141,-28.75
 L 141,-54 L 122.5,-54 L 122.5,-51 L 104,-51 L 104,-43.25 L 100,-43.25
 L 100,-34.25 L 104,-34.25 L 104,-18.75 L 100,-18.75 L 100,-9.75 L 104,-9.75
 L 104,5.75 L 100,5.75 L 100,14.75 L 104,14.75 L 104,30.25 L 100,30.25
 L 100,39.25 L 104,39.25 L 104,47 L 122.5,47 L 122.5,51 L 141,51
 z
M -55,-54 L -61.2857,-54 L -61.2857,-51 L -67.5714,-51 L -67.5714,-54 L -73.8571,-54
 L -73.8571,-51 L -80.1429,-51 L -80.1429,-54 L -86.4286,-54 L -86.4286,-51 L -92.7143,-51
 L -92.7143,-54 L -99,-54 L -99,-28.75 L -80.5,-28.75 L -80.5,-25.75 L -99,-25.75
 L -99,-3.5 L -80.5,-3.5 L -80.5,-0.5 L -99,-0.5 L -99,21.75 L -80.5,21.75
 L -80.5,24.75 L -99,24.75 L -99,54 L -55,54 z
M -62,-41.2941 L -62,-47.647 L -58,-47.647 L -58,-41.2941 z
M -62,-28.5882 L -62,-34.9412 L -58,-34.9412 L -58,-28.5882 z
M -62,-15.8823 L -62,-22.2353 L -58,-22.2353 L -58,-15.8823 z
M -62,-3.17647 L -62,-9.5294 L -58,-9.5294 L -58,-3.17647 z
M -62,9.5294 L -62,3.17647 L -58,3.17647 L -58,9.5294 z
M -62,22.2353 L -62,15.8823 L -58,15.8823 L -58,22.2353 z
M -62,34.9412 L -62,28.5882 L -58,28.5882 L -58,34.9412 z
M -67.5714,51 L -67.5714,47 L -62,47 L -62,41.2941 L -58,41.2941 L -58,47.647
 L -61.2857,47.647 L -61.2857,51 z
M -80.1429,51 L -80.1429,47 L -73.8571,47 L -73.8571,51 z
M -92.7143,51 L -92.7143,47 L -86.4286,47 L -86.4286,51 z
M 51,47.647 L 54,47.647 L 54,41.2941 L 51,41.2941 L 51,34.9412 L 54,34.9412
 L 54,28.5882 L 51,28.5882 L 51,22.2353 L 54,22.2353 L 54,15.8823 L 51,15.8823
 L 51,9.5294 L 54,9.5294 L 54,3.17647 L 51,3.17647 L 51,-3.17645 L 54,-3.17645
 L 54,-9.5294 L 51,-9.5294 L 51,-15.8823 L 54,-15.8823 L 54,-22.2353 L 51,-22.2353
 L 51,-28.5882 L 54,-28.5882 L 54,-34.9412 L 51,-34.9412 L 51,-41.2941 L 54,-41.2941
 L 54,-47.647 L 51,-47.647 L 51,-51 L 44.2,-51 L 44.2,-53.9995 L 37.4,-53.9995
 L 37.4,-51 L 30.6,-51 L 30.6,-53.9995 L 23.8,-53.9995 L 23.8,-51 L 17,-51
 L 17,-53.9995 L 10.2,-53.9995 L 10.2,-51 L 3.39999,-51 L 3.39999,-53.9995 L -3.39999,-53.9995
 L -3.39999,-51 L -10.2,-51 L -10.2,-53.9995 L -17,-53.9995 L -17,-51 L -23.8,-51
 L -23.8,-53.9995 L -30.6,-53.9995 L -30.6,-51 L -37.4,-51 L -37.4,-53.9995 L -44.2,-53.9995
 L -44.2,-51 L -51,-51 L -51,-47.647 L -54,-47.647 L -54,-41.2941 L -51,-41.2941
 L -51,-34.9412 L -54,-34.9412 L -54,-28.5882 L -51,-28.5882 L -51,-22.2353 L -54,-22.2353
 L -54,-15.8823 L -51,-15.8823 L -51,-9.5294 L -54,-9.5294 L -54,-3.17645 L -51,-3.17645
 L -51,3.17647 L -54,3.17647 L -54,9.5294 L -51,9.5294 L -51,15.8823 L -54,15.8823
 L -54,22.2353 L -51,22.2353 L -51,28.5882 L -54,28.5882 L -54,34.9412 L -51,34.9412
 L -51,41.2941 L -54,41.2941 L -54,47.647 L -51,47.647 L -51,53.9995 L 51,53.9995
 z
M -1.5,-34.25 L -1.5,-43.25 L 1.5,-43.25 L 1.5,-34.25 z
M -27.75,-34.25 L -27.75,-43.25 L -24.75,-43.25 L -24.75,-34.25 z
M 24.75,-34.25 L 24.75,-43.25 L 27.75,-43.25 L 27.75,-34.25 z
M -42.75,-25.75 L -42.75,-28.75 L -33.75,-28.75 L -33.75,-25.75 z
M -17.25,-25.75 L -17.25,-28.75 L -8.25,-28.75 L -8.25,-25.75 z
M 8.25,-25.75 L 8.25,-28.75 L 17.25,-28.75 L 17.25,-25.75 z
M 33.75,-25.75 L 33.75,-28.75 L 42.75,-28.75 L 42.75,-25.75 z
M -27.75,-9.75 L -27.75,-18.75 L -24.75,-18.75 L -24.75,-9.75 z
M -1.5,-9.75 L -1.5,-18.75 L 1.5,-18.75 L 1.5,-9.75 z
M 24.75,-9.75 L 24.75,-18.75 L 27.75,-18.75 L 27.75,-9.75 z
M 33.75,-0.5 L 33.75,-3.5 L 42.75,-3.5 L 42.75,-0.5 z
M 8.25,-0.5 L 8.25,-3.5 L 17.25,-3.5 L 17.25,-0.5 z
M -42.75,-0.5 L -42.75,-3.5 L -33.75,-3.5 L -33.75,-0.5 z
M -17.25,-0.5 L -17.25,-3.5 L -8.25,-3.5 L -8.25,-0.5 z
M 24.75,14.75 L 24.75,5.75 L 27.75,5.75 L 27.75,14.75 z
M -27.75,14.75 L -27.75,5.75 L -24.75,5.75 L -24.75,14.75 z
M -1.5,14.75 L -1.5,5.75 L 1.5,5.75 L 1.5,14.75 z
M 8.25,24.75 L 8.25,21.75 L 17.25,21.75 L 17.25,24.75 z
M 33.75,24.75 L 33.75,21.75 L 42.75,21.75 L 42.75,24.75 z
M -42.75,24.75 L -42.75,21.75 L -33.75,21.75 L -33.75,24.75 z
M -17.25,24.75 L -17.25,21.75 L -8.25,21.75 L -8.25,24.75 z
M -27.75,39.25 L -27.75,30.25 L -24.75,30.25 L -24.75,39.25 z
M -1.5,39.25 L -1.5,30.25 L 1.5,30.25 L 1.5,39.25 z
M 24.75,39.25 L 24.75,30.25 L 27.75,30.25 L 27.75,39.25 z
M 37.4,51 L 37.4,47 L 44.2,47 L 44.2,51 z
M 23.8,51 L 23.8,47 L 30.6,47 L 30.6,51 z
M 10.2,51 L 10.2,47 L 17,47 L 17,51 z
M -3.39999,51 L -3.39999,47 L 3.39999,47 L 3.39999,51 z
M -44.2,51 L -44.2,47 L -37.4,47 L -37.4,51 z
M -30.6,51 L -30.6,47 L -23.8,47 L -23.8,51 z
M -17,51 L -17,47 L -10.2,47 L -10.2,51 z
M -27.75,77.5 L -24.75,77.5 L -24.75,96 L -1.5,96 L -1.5,77.5 L 1.5,77.5
 L 1.5,96 L 24.75,96 L 24.75,77.5 L 27.75,77.5 L 27.75,96 L 51,96
 L 51,89.7143 L 54,89.7143 L 54,83.4286 L 51,83.4286 L 51,77.1429 L 54,77.1429
 L 54,70.8571 L 51,70.8571 L 51,64.5714 L 54,64.5714 L 54,58.2857 L 51,58.2857
 L 51,59 L 44.2,59 L 44.2,55 L 37.4,55 L 37.4,59 L 30.6,59
 L 30.6,55 L 23.8,55 L 23.8,59 L 17,59 L 17,55 L 10.2,55
 L 10.2,59 L 3.39999,59 L 3.39999,55 L -3.39999,55 L -3.39999,59 L -10.2,59
 L -10.2,55 L -17,55 L -17,59 L -23.8,59 L -23.8,55 L -30.6,55
 L -30.6,59 L -37.4,59 L -37.4,55 L -44.2,55 L -44.2,59 L -51,59
 L -51,58.2857 L -54,58.2857 L -54,64.5714 L -51,64.5714 L -51,70.8571 L -54,70.8571
 L -54,77.1429 L -51,77.1429 L -51,83.4286 L -54,83.4286 L -54,89.7143 L -51,89.7143
 L -51,96 L -27.75,96 z
" stroke="black" fill="lightgray" stroke-width="0.5"/>
</svg>
